<?xml version="1.0" encoding="UTF-8" standalone="no"?>
<!DOCTYPE svg PUBLIC "-//W3C//DTD SVG 1.1//EN"
 "http://www.w3.org/Graphics/SVG/1.1/DTD/svg11.dtd">
<!-- Generated by graphviz version 2.43.0 (0)
 -->
<!-- Title: OSMM Pages: 1 -->
<svg width="2656pt" height="1069pt"
 viewBox="0.00 0.00 2656.00 1069.41" xmlns="http://www.w3.org/2000/svg" xmlns:xlink="http://www.w3.org/1999/xlink">
<g id="graph0" class="graph" transform="scale(1 1) rotate(0) translate(36 1033.41)">
<title>OSMM</title>
<polygon fill="white" stroke="transparent" points="-36,36 -36,-1033.41 2620,-1033.41 2620,36 -36,36"/>
<text text-anchor="middle" x="1292" y="-974.21" font-family="Helvetica,sans-Serif" font-weight="bold" font-size="24.00">OSMM™ Object Graph — 25 objects, ordered left→right by workflow phase (1→7)</text>
<text text-anchor="middle" x="1292" y="-948.21" font-family="Helvetica,sans-Serif" font-weight="bold" font-size="24.00">solid node = builder shipped (14) &#160;&#160;· &#160;&#160;dashed node = backlog (11) &#160;&#160;· &#160;&#160;node color = category &#160;&#160;· &#160;&#160;solid edge = realized reference &#160;&#160;· &#160;&#160;dashed edge = envisioned &#160;&#160;· &#160;&#160;mint edge = learning loop</text>
<g id="clust1" class="cluster">
<title>cluster_p1</title>
<path fill="#f4f6f9" stroke="#aab3c0" stroke-width="1.5" d="M281.85,-598.41C281.85,-598.41 435.85,-598.41 435.85,-598.41 441.85,-598.41 447.85,-604.41 447.85,-610.41 447.85,-610.41 447.85,-917.41 447.85,-917.41 447.85,-923.41 441.85,-929.41 435.85,-929.41 435.85,-929.41 281.85,-929.41 281.85,-929.41 275.85,-929.41 269.85,-923.41 269.85,-917.41 269.85,-917.41 269.85,-610.41 269.85,-610.41 269.85,-604.41 275.85,-598.41 281.85,-598.41"/>
<text text-anchor="middle" x="358.85" y="-913.41" font-family="Helvetica,sans-Serif" font-weight="bold" font-size="15.00">1 · Define Strategy</text>
</g>
<g id="clust3" class="cluster">
<title>cluster_p2</title>
<path fill="#f4f6f9" stroke="#aab3c0" stroke-width="1.5" d="M589.85,-678.41C589.85,-678.41 747.85,-678.41 747.85,-678.41 753.85,-678.41 759.85,-684.41 759.85,-690.41 759.85,-690.41 759.85,-911.41 759.85,-911.41 759.85,-917.41 753.85,-923.41 747.85,-923.41 747.85,-923.41 589.85,-923.41 589.85,-923.41 583.85,-923.41 577.85,-917.41 577.85,-911.41 577.85,-911.41 577.85,-690.41 577.85,-690.41 577.85,-684.41 583.85,-678.41 589.85,-678.41"/>
<text text-anchor="middle" x="668.85" y="-907.41" font-family="Helvetica,sans-Serif" font-weight="bold" font-size="15.00">2 · Define Audience</text>
</g>
<g id="clust5" class="cluster">
<title>cluster_p3</title>
<path fill="#f4f6f9" stroke="#aab3c0" stroke-width="1.5" d="M901.85,-778.41C901.85,-778.41 1024.85,-778.41 1024.85,-778.41 1030.85,-778.41 1036.85,-784.41 1036.85,-790.41 1036.85,-790.41 1036.85,-911.41 1036.85,-911.41 1036.85,-917.41 1030.85,-923.41 1024.85,-923.41 1024.85,-923.41 901.85,-923.41 901.85,-923.41 895.85,-923.41 889.85,-917.41 889.85,-911.41 889.85,-911.41 889.85,-790.41 889.85,-790.41 889.85,-784.41 895.85,-778.41 901.85,-778.41"/>
<text text-anchor="middle" x="963.35" y="-907.41" font-family="Helvetica,sans-Serif" font-weight="bold" font-size="15.00">3 · Define Offer</text>
</g>
<g id="clust7" class="cluster">
<title>cluster_p4</title>
<path fill="#f4f6f9" stroke="#aab3c0" stroke-width="1.5" d="M1178.85,-642.41C1178.85,-642.41 1369.85,-642.41 1369.85,-642.41 1375.85,-642.41 1381.85,-648.41 1381.85,-654.41 1381.85,-654.41 1381.85,-775.41 1381.85,-775.41 1381.85,-781.41 1375.85,-787.41 1369.85,-787.41 1369.85,-787.41 1178.85,-787.41 1178.85,-787.41 1172.85,-787.41 1166.85,-781.41 1166.85,-775.41 1166.85,-775.41 1166.85,-654.41 1166.85,-654.41 1166.85,-648.41 1172.85,-642.41 1178.85,-642.41"/>
<text text-anchor="middle" x="1274.35" y="-771.41" font-family="Helvetica,sans-Serif" font-weight="bold" font-size="15.00">4 · Campaign &amp; Journey</text>
</g>
<g id="clust9" class="cluster">
<title>cluster_p5</title>
<path fill="#f4f6f9" stroke="#aab3c0" stroke-width="1.5" d="M1523.85,-568.41C1523.85,-568.41 1706.85,-568.41 1706.85,-568.41 1712.85,-568.41 1718.85,-574.41 1718.85,-580.41 1718.85,-580.41 1718.85,-775.41 1718.85,-775.41 1718.85,-781.41 1712.85,-787.41 1706.85,-787.41 1706.85,-787.41 1523.85,-787.41 1523.85,-787.41 1517.85,-787.41 1511.85,-781.41 1511.85,-775.41 1511.85,-775.41 1511.85,-580.41 1511.85,-580.41 1511.85,-574.41 1517.85,-568.41 1523.85,-568.41"/>
<text text-anchor="middle" x="1615.35" y="-771.41" font-family="Helvetica,sans-Serif" font-weight="bold" font-size="15.00">5 · Content &amp; Creative</text>
</g>
<g id="clust11" class="cluster">
<title>cluster_p6</title>
<path fill="#f4f6f9" stroke="#aab3c0" stroke-width="1.5" d="M1860.85,-368.41C1860.85,-368.41 2007.85,-368.41 2007.85,-368.41 2013.85,-368.41 2019.85,-374.41 2019.85,-380.41 2019.85,-380.41 2019.85,-775.41 2019.85,-775.41 2019.85,-781.41 2013.85,-787.41 2007.85,-787.41 2007.85,-787.41 1860.85,-787.41 1860.85,-787.41 1854.85,-787.41 1848.85,-781.41 1848.85,-775.41 1848.85,-775.41 1848.85,-380.41 1848.85,-380.41 1848.85,-374.41 1854.85,-368.41 1860.85,-368.41"/>
<text text-anchor="middle" x="1934.35" y="-771.41" font-family="Helvetica,sans-Serif" font-weight="bold" font-size="15.00">6 · Build &amp; Deliver</text>
</g>
<g id="clust13" class="cluster">
<title>cluster_p7</title>
<path fill="#f4f6f9" stroke="#aab3c0" stroke-width="1.5" d="M2161.85,-568.41C2161.85,-568.41 2412.85,-568.41 2412.85,-568.41 2418.85,-568.41 2424.85,-574.41 2424.85,-580.41 2424.85,-580.41 2424.85,-775.41 2424.85,-775.41 2424.85,-781.41 2418.85,-787.41 2412.85,-787.41 2412.85,-787.41 2161.85,-787.41 2161.85,-787.41 2155.85,-787.41 2149.85,-781.41 2149.85,-775.41 2149.85,-775.41 2149.85,-580.41 2149.85,-580.41 2149.85,-574.41 2155.85,-568.41 2161.85,-568.41"/>
<text text-anchor="middle" x="2287.35" y="-771.41" font-family="Helvetica,sans-Serif" font-weight="bold" font-size="15.00">7 · Measure, Learn &amp; Optimize</text>
</g>
<!-- business_context -->
<g id="node1" class="node">
<title>business_context</title>
<path fill="#d4f2ec" stroke="#0f1b35" stroke-width="2.4" d="M388.35,-890.41C388.35,-890.41 329.35,-890.41 329.35,-890.41 323.35,-890.41 317.35,-884.41 317.35,-878.41 317.35,-878.41 317.35,-860.41 317.35,-860.41 317.35,-854.41 323.35,-848.41 329.35,-848.41 329.35,-848.41 388.35,-848.41 388.35,-848.41 394.35,-848.41 400.35,-854.41 400.35,-860.41 400.35,-860.41 400.35,-878.41 400.35,-878.41 400.35,-884.41 394.35,-890.41 388.35,-890.41"/>
<text text-anchor="middle" x="358.85" y="-873.41" font-family="Helvetica,sans-Serif" font-size="12.50">Business</text>
<text text-anchor="middle" x="358.85" y="-859.41" font-family="Helvetica,sans-Serif" font-size="12.50">Context</text>
</g>
<!-- brand_context -->
<g id="node2" class="node">
<title>brand_context</title>
<path fill="#d4f2ec" stroke="#0f1b35" stroke-width="2.4" d="M407.85,-828.41C407.85,-828.41 309.85,-828.41 309.85,-828.41 304.85,-828.41 299.85,-823.41 299.85,-818.41 299.85,-818.41 299.85,-808.41 299.85,-808.41 299.85,-803.41 304.85,-798.41 309.85,-798.41 309.85,-798.41 407.85,-798.41 407.85,-798.41 412.85,-798.41 417.85,-803.41 417.85,-808.41 417.85,-808.41 417.85,-818.41 417.85,-818.41 417.85,-823.41 412.85,-828.41 407.85,-828.41"/>
<text text-anchor="middle" x="358.85" y="-810.41" font-family="Helvetica,sans-Serif" font-size="12.50">Brand Context</text>
</g>
<!-- business_context&#45;&gt;brand_context -->
<g id="edge7" class="edge">
<title>business_context&#45;&gt;brand_context</title>
<path fill="none" stroke="#222222" stroke-width="1.6" d="M358.85,-840.35C358.85,-839 358.85,-837.65 358.85,-836.29"/>
<polygon fill="#222222" stroke="#222222" stroke-width="1.6" points="356.23,-840.61 358.85,-848.11 361.48,-840.61 356.23,-840.61"/>
<polygon fill="#222222" stroke="#222222" stroke-width="1.6" points="361.48,-836.22 358.85,-828.72 356.23,-836.22 361.48,-836.22"/>
</g>
<!-- persona -->
<g id="node6" class="node">
<title>persona</title>
<path fill="#d4f2ec" stroke="#0f1b35" stroke-width="2.4" d="M696.35,-884.41C696.35,-884.41 640.35,-884.41 640.35,-884.41 635.35,-884.41 630.35,-879.41 630.35,-874.41 630.35,-874.41 630.35,-864.41 630.35,-864.41 630.35,-859.41 635.35,-854.41 640.35,-854.41 640.35,-854.41 696.35,-854.41 696.35,-854.41 701.35,-854.41 706.35,-859.41 706.35,-864.41 706.35,-864.41 706.35,-874.41 706.35,-874.41 706.35,-879.41 701.35,-884.41 696.35,-884.41"/>
<text text-anchor="middle" x="668.35" y="-866.41" font-family="Helvetica,sans-Serif" font-size="12.50">Persona</text>
</g>
<!-- business_context&#45;&gt;persona -->
<!-- product_context -->
<g id="node3" class="node">
<title>product_context</title>
<path fill="#d4f2ec" stroke="#0f1b35" stroke-width="2.4" d="M385.35,-778.41C385.35,-778.41 332.35,-778.41 332.35,-778.41 326.35,-778.41 320.35,-772.41 320.35,-766.41 320.35,-766.41 320.35,-748.41 320.35,-748.41 320.35,-742.41 326.35,-736.41 332.35,-736.41 332.35,-736.41 385.35,-736.41 385.35,-736.41 391.35,-736.41 397.35,-742.41 397.35,-748.41 397.35,-748.41 397.35,-766.41 397.35,-766.41 397.35,-772.41 391.35,-778.41 385.35,-778.41"/>
<text text-anchor="middle" x="358.85" y="-761.41" font-family="Helvetica,sans-Serif" font-size="12.50">Product</text>
<text text-anchor="middle" x="358.85" y="-747.41" font-family="Helvetica,sans-Serif" font-size="12.50">Context</text>
</g>
<!-- product_context&#45;&gt;business_context -->
<g id="edge8" class="edge">
<title>product_context&#45;&gt;business_context</title>
<path fill="none" stroke="#222222" stroke-width="1.6" d="M319.88,-760.04C259.65,-765.59 154.48,-782.09 190.85,-828.41 218.41,-863.49 270.57,-871.66 309.5,-872.34"/>
<polygon fill="#222222" stroke="#222222" stroke-width="1.6" points="309.58,-874.96 317.1,-872.38 309.61,-869.71 309.58,-874.96"/>
</g>
<!-- product_context&#45;&gt;brand_context -->
<g id="edge9" class="edge">
<title>product_context&#45;&gt;brand_context</title>
<path fill="none" stroke="#222222" stroke-width="1.6" d="M358.85,-778.84C358.85,-782.79 358.85,-786.74 358.85,-790.69"/>
<polygon fill="#222222" stroke="#222222" stroke-width="1.6" points="356.23,-790.78 358.85,-798.28 361.48,-790.79 356.23,-790.78"/>
</g>
<!-- marketing_strategy -->
<g id="node4" class="node">
<title>marketing_strategy</title>
<path fill="#dbe7fb" stroke="#2c5fb3" stroke-width="2.4" d="M391.85,-716.41C391.85,-716.41 325.85,-716.41 325.85,-716.41 319.85,-716.41 313.85,-710.41 313.85,-704.41 313.85,-704.41 313.85,-686.41 313.85,-686.41 313.85,-680.41 319.85,-674.41 325.85,-674.41 325.85,-674.41 391.85,-674.41 391.85,-674.41 397.85,-674.41 403.85,-680.41 403.85,-686.41 403.85,-686.41 403.85,-704.41 403.85,-704.41 403.85,-710.41 397.85,-716.41 391.85,-716.41"/>
<text text-anchor="middle" x="358.85" y="-699.41" font-family="Helvetica,sans-Serif" font-size="12.50">Marketing</text>
<text text-anchor="middle" x="358.85" y="-685.41" font-family="Helvetica,sans-Serif" font-size="12.50">Strategy</text>
</g>
<!-- marketing_strategy&#45;&gt;business_context -->
<g id="edge14" class="edge">
<title>marketing_strategy&#45;&gt;business_context</title>
<path fill="none" stroke="#222222" stroke-width="1.6" d="M313.69,-692.43C274.4,-692.59 219.41,-700.04 190.85,-736.41 165.6,-768.56 165.6,-796.25 190.85,-828.41 218.41,-863.49 270.57,-871.66 309.5,-872.34"/>
<polygon fill="#222222" stroke="#222222" stroke-width="1.6" points="309.58,-874.96 317.1,-872.38 309.61,-869.71 309.58,-874.96"/>
</g>
<!-- marketing_strategy&#45;&gt;brand_context -->
<g id="edge15" class="edge">
<title>marketing_strategy&#45;&gt;brand_context</title>
<path fill="none" stroke="#222222" stroke-width="1.6" d="M313.69,-692.43C274.4,-692.59 219.41,-700.04 190.85,-736.41 179.32,-751.09 179.08,-763.92 190.85,-778.41 214.72,-807.76 256.24,-816.6 292.03,-818.06"/>
<polygon fill="#222222" stroke="#222222" stroke-width="1.6" points="292,-820.69 299.57,-818.27 292.14,-815.44 292,-820.69"/>
</g>
<!-- measurement_framework -->
<g id="node5" class="node">
<title>measurement_framework</title>
<path fill="#dbe7fb" stroke="#2c5fb3" stroke-width="2.4" d="M402.85,-654.41C402.85,-654.41 314.85,-654.41 314.85,-654.41 308.85,-654.41 302.85,-648.41 302.85,-642.41 302.85,-642.41 302.85,-624.41 302.85,-624.41 302.85,-618.41 308.85,-612.41 314.85,-612.41 314.85,-612.41 402.85,-612.41 402.85,-612.41 408.85,-612.41 414.85,-618.41 414.85,-624.41 414.85,-624.41 414.85,-642.41 414.85,-642.41 414.85,-648.41 408.85,-654.41 402.85,-654.41"/>
<text text-anchor="middle" x="358.85" y="-637.41" font-family="Helvetica,sans-Serif" font-size="12.50">Measurement</text>
<text text-anchor="middle" x="358.85" y="-623.41" font-family="Helvetica,sans-Serif" font-size="12.50">Framework</text>
</g>
<!-- marketing_strategy&#45;&gt;measurement_framework -->
<g id="edge17" class="edge">
<title>marketing_strategy&#45;&gt;measurement_framework</title>
<path fill="none" stroke="#222222" stroke-width="1.6" d="M358.85,-666.35C358.85,-665 358.85,-663.65 358.85,-662.29"/>
<polygon fill="#222222" stroke="#222222" stroke-width="1.6" points="356.23,-666.61 358.85,-674.11 361.48,-666.61 356.23,-666.61"/>
<polygon fill="#222222" stroke="#222222" stroke-width="1.6" points="361.48,-662.22 358.85,-654.72 356.23,-662.22 361.48,-662.22"/>
</g>
<!-- audience -->
<g id="node7" class="node">
<title>audience</title>
<path fill="#d4f2ec" stroke="#0f1b35" stroke-width="2.4" d="M700.85,-834.41C700.85,-834.41 635.85,-834.41 635.85,-834.41 630.85,-834.41 625.85,-829.41 625.85,-824.41 625.85,-824.41 625.85,-814.41 625.85,-814.41 625.85,-809.41 630.85,-804.41 635.85,-804.41 635.85,-804.41 700.85,-804.41 700.85,-804.41 705.85,-804.41 710.85,-809.41 710.85,-814.41 710.85,-814.41 710.85,-824.41 710.85,-824.41 710.85,-829.41 705.85,-834.41 700.85,-834.41"/>
<text text-anchor="middle" x="668.35" y="-816.41" font-family="Helvetica,sans-Serif" font-size="12.50">Audience</text>
</g>
<!-- marketing_strategy&#45;&gt;audience -->
<g id="edge16" class="edge">
<title>marketing_strategy&#45;&gt;audience</title>
<path fill="none" stroke="#222222" stroke-width="1.6" d="M404.2,-709.64C418.32,-714.54 433.89,-720.33 447.85,-726.41 507.64,-752.42 517.23,-770.39 577.85,-794.41 590.76,-799.52 605.11,-804.02 618.46,-807.74"/>
<polygon fill="#222222" stroke="#222222" stroke-width="1.6" points="617.84,-810.29 625.76,-809.73 619.22,-805.23 617.84,-810.29"/>
</g>
<!-- measurement_framework&#45;&gt;business_context -->
<g id="edge18" class="edge">
<title>measurement_framework&#45;&gt;business_context</title>
<path fill="none" stroke="#222222" stroke-width="1.6" d="M302.62,-630.67C264.62,-632.19 216.81,-641.35 190.85,-674.41 148.58,-728.24 148.58,-774.58 190.85,-828.41 218.41,-863.49 270.57,-871.66 309.5,-872.34"/>
<polygon fill="#222222" stroke="#222222" stroke-width="1.6" points="309.58,-874.96 317.1,-872.38 309.61,-869.71 309.58,-874.96"/>
</g>
<!-- persona&#45;&gt;audience -->
<g id="edge10" class="edge">
<title>persona&#45;&gt;audience</title>
<path fill="none" stroke="#222222" stroke-width="1.6" d="M668.35,-846.38C668.35,-845.01 668.35,-843.64 668.35,-842.28"/>
<polygon fill="#222222" stroke="#222222" stroke-width="1.6" points="665.73,-846.7 668.35,-854.2 670.98,-846.7 665.73,-846.7"/>
<polygon fill="#222222" stroke="#222222" stroke-width="1.6" points="670.98,-842.14 668.35,-834.64 665.73,-842.14 670.98,-842.14"/>
</g>
<!-- offer -->
<g id="node10" class="node">
<title>offer</title>
<path fill="#dbe7fb" stroke="#2c5fb3" stroke-width="2.4" d="M981.35,-884.41C981.35,-884.41 944.35,-884.41 944.35,-884.41 939.35,-884.41 934.35,-879.41 934.35,-874.41 934.35,-874.41 934.35,-864.41 934.35,-864.41 934.35,-859.41 939.35,-854.41 944.35,-854.41 944.35,-854.41 981.35,-854.41 981.35,-854.41 986.35,-854.41 991.35,-859.41 991.35,-864.41 991.35,-864.41 991.35,-874.41 991.35,-874.41 991.35,-879.41 986.35,-884.41 981.35,-884.41"/>
<text text-anchor="middle" x="962.85" y="-866.41" font-family="Helvetica,sans-Serif" font-size="12.50">Offer</text>
</g>
<!-- persona&#45;&gt;offer -->
<!-- audience&#45;&gt;business_context -->
<g id="edge11" class="edge">
<title>audience&#45;&gt;business_context</title>
<path fill="none" stroke="#222222" stroke-width="1.6" d="M625.76,-826.17C569.05,-835.39 467.67,-851.87 407.81,-861.61"/>
<polygon fill="#222222" stroke="#222222" stroke-width="1.6" points="407.35,-859.02 400.37,-862.82 408.19,-864.21 407.35,-859.02"/>
</g>
<!-- keyword -->
<g id="node8" class="node">
<title>keyword</title>
<path fill="#d4f2ec" stroke="#0f1b35" stroke-width="2.4" d="M698.85,-784.41C698.85,-784.41 637.85,-784.41 637.85,-784.41 632.85,-784.41 627.85,-779.41 627.85,-774.41 627.85,-774.41 627.85,-764.41 627.85,-764.41 627.85,-759.41 632.85,-754.41 637.85,-754.41 637.85,-754.41 698.85,-754.41 698.85,-754.41 703.85,-754.41 708.85,-759.41 708.85,-764.41 708.85,-764.41 708.85,-774.41 708.85,-774.41 708.85,-779.41 703.85,-784.41 698.85,-784.41"/>
<text text-anchor="middle" x="668.35" y="-766.41" font-family="Helvetica,sans-Serif" font-size="12.50">Keyword</text>
</g>
<!-- keyword&#45;&gt;business_context -->
<g id="edge13" class="edge">
<title>keyword&#45;&gt;business_context</title>
<path fill="none" stroke="#222222" stroke-width="1.6" d="M627.55,-779.98C611.99,-784.26 594.03,-789.37 577.85,-794.41 545.73,-804.41 461.8,-833.61 407.95,-852.49"/>
<polygon fill="#222222" stroke="#222222" stroke-width="1.6" points="406.77,-850.12 400.56,-855.08 408.51,-855.07 406.77,-850.12"/>
</g>
<!-- keyword&#45;&gt;persona -->
<g id="edge12" class="edge">
<title>keyword&#45;&gt;persona</title>
<path fill="none" stroke="#222222" stroke-width="1.6" d="M627.7,-765.82C591.33,-765.11 539.73,-770.8 512.85,-804.41 480.82,-844.45 565.52,-860.13 622.14,-866.04"/>
<polygon fill="#222222" stroke="#222222" stroke-width="1.6" points="622.21,-868.68 629.93,-866.81 622.73,-863.46 622.21,-868.68"/>
</g>
<!-- keyword_strategy -->
<g id="node9" class="node">
<title>keyword_strategy</title>
<path fill="#dbe7fb" stroke="#2c5fb3" stroke-width="1.1" stroke-dasharray="5,2" d="M696.85,-734.41C696.85,-734.41 639.85,-734.41 639.85,-734.41 633.85,-734.41 627.85,-728.41 627.85,-722.41 627.85,-722.41 627.85,-704.41 627.85,-704.41 627.85,-698.41 633.85,-692.41 639.85,-692.41 639.85,-692.41 696.85,-692.41 696.85,-692.41 702.85,-692.41 708.85,-698.41 708.85,-704.41 708.85,-704.41 708.85,-722.41 708.85,-722.41 708.85,-728.41 702.85,-734.41 696.85,-734.41"/>
<text text-anchor="middle" x="668.35" y="-717.41" font-family="Helvetica,sans-Serif" font-size="12.50">Keyword</text>
<text text-anchor="middle" x="668.35" y="-703.41" font-family="Helvetica,sans-Serif" font-size="12.50">Strategy</text>
</g>
<!-- keyword_strategy&#45;&gt;audience -->
<g id="edge45" class="edge">
<title>keyword_strategy&#45;&gt;audience</title>
<path fill="none" stroke="#9aa3af" stroke-dasharray="5,2" d="M627.49,-717.32C570.92,-724.34 479.3,-742.46 512.85,-784.41 537.36,-815.04 582.42,-822.48 617.74,-823.02"/>
<polygon fill="#9aa3af" stroke="#9aa3af" points="618.08,-825.64 625.58,-823.03 618.08,-820.39 618.08,-825.64"/>
</g>
<!-- keyword_strategy&#45;&gt;keyword -->
<g id="edge44" class="edge">
<title>keyword_strategy&#45;&gt;keyword</title>
<path fill="none" stroke="#9aa3af" stroke-dasharray="5,2" d="M668.35,-734.84C668.35,-738.79 668.35,-742.74 668.35,-746.69"/>
<polygon fill="#9aa3af" stroke="#9aa3af" points="665.73,-746.78 668.35,-754.28 670.98,-746.79 665.73,-746.78"/>
</g>
<!-- offer&#45;&gt;business_context -->
<g id="edge21" class="edge">
<title>offer&#45;&gt;business_context</title>
<path fill="none" stroke="#222222" stroke-width="1.6" d="M934.06,-863.82C919.88,-860.01 902.92,-853.88 889.85,-844.41 812.57,-788.36 845.38,-715.82 759.85,-673.41 687.39,-637.47 650.63,-638.1 577.85,-673.41 493.86,-714.16 523.78,-784.08 447.85,-838.41 436.07,-846.84 421.78,-853.16 408.17,-857.82"/>
<polygon fill="#222222" stroke="#222222" stroke-width="1.6" points="407.03,-855.43 400.7,-860.24 408.65,-860.43 407.03,-855.43"/>
</g>
<!-- offer&#45;&gt;product_context -->
<g id="edge19" class="edge">
<title>offer&#45;&gt;product_context</title>
<path fill="none" stroke="#222222" stroke-width="1.6" d="M934.09,-864.33C919.75,-860.65 902.63,-854.48 889.85,-844.41 805.72,-778.07 853.84,-692.83 759.85,-641.41 688.89,-602.58 655.37,-618.31 577.85,-641.41 511.69,-661.12 509.74,-695.83 447.85,-726.41 434.25,-733.13 418.82,-739.08 404.72,-743.93"/>
<polygon fill="#222222" stroke="#222222" stroke-width="1.6" points="403.76,-741.48 397.48,-746.36 405.43,-746.46 403.76,-741.48"/>
</g>
<!-- offer&#45;&gt;audience -->
<g id="edge20" class="edge">
<title>offer&#45;&gt;audience</title>
<path fill="none" stroke="#222222" stroke-width="1.6" d="M934,-864.65C884.48,-856.18 780.51,-838.41 718.65,-827.83"/>
<polygon fill="#222222" stroke="#222222" stroke-width="1.6" points="718.78,-825.19 710.95,-826.52 717.9,-830.37 718.78,-825.19"/>
</g>
<!-- campaign_strategy -->
<g id="node12" class="node">
<title>campaign_strategy</title>
<path fill="#dbe7fb" stroke="#2c5fb3" stroke-width="2.4" d="M1307.85,-748.41C1307.85,-748.41 1240.85,-748.41 1240.85,-748.41 1234.85,-748.41 1228.85,-742.41 1228.85,-736.41 1228.85,-736.41 1228.85,-718.41 1228.85,-718.41 1228.85,-712.41 1234.85,-706.41 1240.85,-706.41 1240.85,-706.41 1307.85,-706.41 1307.85,-706.41 1313.85,-706.41 1319.85,-712.41 1319.85,-718.41 1319.85,-718.41 1319.85,-736.41 1319.85,-736.41 1319.85,-742.41 1313.85,-748.41 1307.85,-748.41"/>
<text text-anchor="middle" x="1274.35" y="-731.41" font-family="Helvetica,sans-Serif" font-size="12.50">Campaign</text>
<text text-anchor="middle" x="1274.35" y="-717.41" font-family="Helvetica,sans-Serif" font-size="12.50">Strategy</text>
</g>
<!-- offer&#45;&gt;campaign_strategy -->
<!-- experiment_strategy -->
<g id="node11" class="node">
<title>experiment_strategy</title>
<path fill="#dbe7fb" stroke="#2c5fb3" stroke-width="1.1" stroke-dasharray="5,2" d="M1000.85,-834.41C1000.85,-834.41 924.85,-834.41 924.85,-834.41 918.85,-834.41 912.85,-828.41 912.85,-822.41 912.85,-822.41 912.85,-804.41 912.85,-804.41 912.85,-798.41 918.85,-792.41 924.85,-792.41 924.85,-792.41 1000.85,-792.41 1000.85,-792.41 1006.85,-792.41 1012.85,-798.41 1012.85,-804.41 1012.85,-804.41 1012.85,-822.41 1012.85,-822.41 1012.85,-828.41 1006.85,-834.41 1000.85,-834.41"/>
<text text-anchor="middle" x="962.85" y="-817.41" font-family="Helvetica,sans-Serif" font-size="12.50">Experiment</text>
<text text-anchor="middle" x="962.85" y="-803.41" font-family="Helvetica,sans-Serif" font-size="12.50">Strategy</text>
</g>
<!-- experiment_strategy&#45;&gt;offer -->
<g id="edge46" class="edge">
<title>experiment_strategy&#45;&gt;offer</title>
<path fill="none" stroke="#9aa3af" stroke-dasharray="5,2" d="M962.85,-834.84C962.85,-838.79 962.85,-842.74 962.85,-846.69"/>
<polygon fill="#9aa3af" stroke="#9aa3af" points="960.23,-846.78 962.85,-854.28 965.48,-846.79 960.23,-846.78"/>
</g>
<!-- experiment_strategy&#45;&gt;campaign_strategy -->
<g id="edge47" class="edge">
<title>experiment_strategy&#45;&gt;campaign_strategy</title>
<path fill="none" stroke="#9aa3af" stroke-dasharray="5,2" d="M1012.89,-799.78C1069.78,-783.97 1163.16,-758.02 1221.3,-741.87"/>
<polygon fill="#9aa3af" stroke="#9aa3af" points="1222.04,-744.39 1228.56,-739.85 1220.63,-739.33 1222.04,-744.39"/>
</g>
<!-- creative_strategy -->
<g id="node15" class="node">
<title>creative_strategy</title>
<path fill="#dbe7fb" stroke="#2c5fb3" stroke-width="2.4" d="M1643.35,-686.41C1643.35,-686.41 1586.35,-686.41 1586.35,-686.41 1580.35,-686.41 1574.35,-680.41 1574.35,-674.41 1574.35,-674.41 1574.35,-656.41 1574.35,-656.41 1574.35,-650.41 1580.35,-644.41 1586.35,-644.41 1586.35,-644.41 1643.35,-644.41 1643.35,-644.41 1649.35,-644.41 1655.35,-650.41 1655.35,-656.41 1655.35,-656.41 1655.35,-674.41 1655.35,-674.41 1655.35,-680.41 1649.35,-686.41 1643.35,-686.41"/>
<text text-anchor="middle" x="1614.85" y="-669.41" font-family="Helvetica,sans-Serif" font-size="12.50">Creative</text>
<text text-anchor="middle" x="1614.85" y="-655.41" font-family="Helvetica,sans-Serif" font-size="12.50">Strategy</text>
</g>
<!-- experiment_strategy&#45;&gt;creative_strategy -->
<g id="edge48" class="edge">
<title>experiment_strategy&#45;&gt;creative_strategy</title>
<path fill="none" stroke="#9aa3af" stroke-dasharray="5,2" d="M979.36,-792.39C1009.96,-752.93 1082.51,-668.88 1166.85,-637.41 1304.92,-585.89 1483.56,-626 1567.02,-650.3"/>
<polygon fill="#9aa3af" stroke="#9aa3af" points="1566.38,-652.85 1574.31,-652.46 1567.86,-647.82 1566.38,-652.85"/>
</g>
<!-- campaign_strategy&#45;&gt;business_context -->
<g id="edge26" class="edge">
<title>campaign_strategy&#45;&gt;business_context</title>
<path fill="none" stroke="#222222" stroke-width="1.6" d="M1228.84,-715.24C1093.86,-679.37 691.42,-580.29 577.85,-641.41 485.48,-691.12 530.52,-773.83 447.85,-838.41 436.22,-847.49 421.72,-854.04 407.87,-858.7"/>
<polygon fill="#222222" stroke="#222222" stroke-width="1.6" points="407.06,-856.2 400.7,-860.97 408.64,-861.21 407.06,-856.2"/>
</g>
<!-- campaign_strategy&#45;&gt;marketing_strategy -->
<g id="edge22" class="edge">
<title>campaign_strategy&#45;&gt;marketing_strategy</title>
<path fill="none" stroke="#222222" stroke-width="1.6" d="M1228.71,-723.22C1207.83,-719.23 1183.87,-711.46 1166.85,-696.41 1057.11,-599.3 1159.2,-474.05 1036.85,-393.41 951.69,-337.27 664.18,-339.07 577.85,-393.41 464.8,-464.56 547.3,-575.21 447.85,-664.41 437.58,-673.62 424.39,-680.14 411.37,-684.73"/>
<polygon fill="#222222" stroke="#222222" stroke-width="1.6" points="410.48,-682.26 404.17,-687.09 412.12,-687.25 410.48,-682.26"/>
</g>
<!-- campaign_strategy&#45;&gt;measurement_framework -->
<g id="edge27" class="edge">
<title>campaign_strategy&#45;&gt;measurement_framework</title>
<path fill="none" stroke="#222222" stroke-width="1.6" d="M1228.67,-723.61C1207.65,-719.71 1183.59,-711.92 1166.85,-696.41 1046.36,-584.75 1171.56,-444.42 1036.85,-350.41 995.43,-321.5 620.61,-327.28 577.85,-348.41 466.76,-403.3 396.69,-544.95 370.97,-605.4"/>
<polygon fill="#222222" stroke="#222222" stroke-width="1.6" points="368.53,-604.43 368.05,-612.36 373.37,-606.46 368.53,-604.43"/>
</g>
<!-- campaign_strategy&#45;&gt;audience -->
<g id="edge24" class="edge">
<title>campaign_strategy&#45;&gt;audience</title>
<path fill="none" stroke="#222222" stroke-width="1.6" d="M1228.6,-731.51C1156.85,-738.37 1011.78,-753.41 889.85,-773.41 830.57,-783.13 763.04,-797.74 718.51,-807.88"/>
<polygon fill="#222222" stroke="#222222" stroke-width="1.6" points="717.74,-805.36 711.01,-809.59 718.91,-810.48 717.74,-805.36"/>
</g>
<!-- campaign_strategy&#45;&gt;offer -->
<g id="edge25" class="edge">
<title>campaign_strategy&#45;&gt;offer</title>
<path fill="none" stroke="#222222" stroke-width="1.6" d="M1228.82,-744.14C1181.87,-766.6 1105.36,-805.87 1036.85,-834.41 1022.56,-840.36 1006.29,-846.03 992.74,-851.39"/>
<polygon fill="#222222" stroke="#222222" stroke-width="1.6" points="991.48,-849.07 985.53,-854.33 993.46,-853.93 991.48,-849.07"/>
</g>
<!-- journey -->
<g id="node13" class="node">
<title>journey</title>
<path fill="#dbe7fb" stroke="#2c5fb3" stroke-width="2.4" d="M1301.85,-686.41C1301.85,-686.41 1246.85,-686.41 1246.85,-686.41 1241.85,-686.41 1236.85,-681.41 1236.85,-676.41 1236.85,-676.41 1236.85,-666.41 1236.85,-666.41 1236.85,-661.41 1241.85,-656.41 1246.85,-656.41 1246.85,-656.41 1301.85,-656.41 1301.85,-656.41 1306.85,-656.41 1311.85,-661.41 1311.85,-666.41 1311.85,-666.41 1311.85,-676.41 1311.85,-676.41 1311.85,-681.41 1306.85,-686.41 1301.85,-686.41"/>
<text text-anchor="middle" x="1274.35" y="-668.41" font-family="Helvetica,sans-Serif" font-size="12.50">Journey</text>
</g>
<!-- campaign_strategy&#45;&gt;journey -->
<g id="edge23" class="edge">
<title>campaign_strategy&#45;&gt;journey</title>
<path fill="none" stroke="#222222" stroke-width="1.6" d="M1300.87,-706.11C1302.95,-701.77 1303.01,-697.42 1301.04,-693.08"/>
<polygon fill="#222222" stroke="#222222" stroke-width="1.6" points="1303.1,-691.44 1296.7,-686.72 1298.76,-694.39 1303.1,-691.44"/>
</g>
<!-- messaging_framework -->
<g id="node14" class="node">
<title>messaging_framework</title>
<path fill="#dbe7fb" stroke="#2c5fb3" stroke-width="2.4" d="M1650.85,-748.41C1650.85,-748.41 1578.85,-748.41 1578.85,-748.41 1572.85,-748.41 1566.85,-742.41 1566.85,-736.41 1566.85,-736.41 1566.85,-718.41 1566.85,-718.41 1566.85,-712.41 1572.85,-706.41 1578.85,-706.41 1578.85,-706.41 1650.85,-706.41 1650.85,-706.41 1656.85,-706.41 1662.85,-712.41 1662.85,-718.41 1662.85,-718.41 1662.85,-736.41 1662.85,-736.41 1662.85,-742.41 1656.85,-748.41 1650.85,-748.41"/>
<text text-anchor="middle" x="1614.85" y="-731.41" font-family="Helvetica,sans-Serif" font-size="12.50">Messaging</text>
<text text-anchor="middle" x="1614.85" y="-717.41" font-family="Helvetica,sans-Serif" font-size="12.50">Framework</text>
</g>
<!-- campaign_strategy&#45;&gt;messaging_framework -->
<!-- journey&#45;&gt;business_context -->
<g id="edge31" class="edge">
<title>journey&#45;&gt;business_context</title>
<path fill="none" stroke="#222222" stroke-width="1.6" d="M1239.65,-656.25C1133.74,-611.09 801.41,-488.25 577.85,-616.41 478.66,-673.27 536.05,-765.64 447.85,-838.41 436.36,-847.89 421.77,-854.56 407.79,-859.21"/>
<polygon fill="#222222" stroke="#222222" stroke-width="1.6" points="406.93,-856.73 400.55,-861.47 408.49,-861.74 406.93,-856.73"/>
</g>
<!-- journey&#45;&gt;persona -->
<g id="edge30" class="edge">
<title>journey&#45;&gt;persona</title>
<path fill="none" stroke="#222222" stroke-width="1.6" d="M1236.79,-679.6C1216.2,-684.32 1190.03,-690.47 1166.85,-696.41 1043.07,-728.12 1008.25,-725.36 889.85,-773.41 828.85,-798.16 820.87,-819.7 759.85,-844.41 745.31,-850.29 728.92,-855.29 714.12,-859.23"/>
<polygon fill="#222222" stroke="#222222" stroke-width="1.6" points="713.14,-856.77 706.54,-861.19 714.46,-861.85 713.14,-856.77"/>
</g>
<!-- journey&#45;&gt;audience -->
<g id="edge29" class="edge">
<title>journey&#45;&gt;audience</title>
<path fill="none" stroke="#222222" stroke-width="1.6" d="M1236.76,-666.86C1166.8,-659.62 1010.34,-650.51 889.85,-695.41 821.8,-720.76 824.92,-762.15 759.85,-794.41 747.04,-800.76 732.37,-805.69 718.64,-809.44"/>
<polygon fill="#222222" stroke="#222222" stroke-width="1.6" points="717.71,-806.96 711.12,-811.39 719.04,-812.04 717.71,-806.96"/>
</g>
<!-- journey&#45;&gt;campaign_strategy -->
<g id="edge28" class="edge">
<title>journey&#45;&gt;campaign_strategy</title>
<path fill="none" stroke="#222222" stroke-width="1.6" d="M1252,-686.72C1248.42,-690.66 1246.5,-694.6 1246.25,-698.53"/>
<polygon fill="#222222" stroke="#222222" stroke-width="1.6" points="1243.73,-699.31 1247.84,-706.11 1248.87,-698.23 1243.73,-699.31"/>
</g>
<!-- messaging_framework&#45;&gt;brand_context -->
<g id="edge34" class="edge">
<title>messaging_framework&#45;&gt;brand_context</title>
<path fill="none" stroke="#222222" stroke-width="1.6" d="M1566.8,-715.66C1549.22,-710.61 1529.3,-704.09 1511.85,-696.41 1450.4,-669.34 1444.82,-642.74 1381.85,-619.41 1045.79,-494.87 887.24,-376.5 577.85,-557.41 476.15,-616.87 540.38,-715.48 447.85,-788.41 441.17,-793.68 433.42,-797.83 425.36,-801.12"/>
<polygon fill="#222222" stroke="#222222" stroke-width="1.6" points="424,-798.82 417.88,-803.89 425.83,-803.74 424,-798.82"/>
</g>
<!-- messaging_framework&#45;&gt;product_context -->
<g id="edge33" class="edge">
<title>messaging_framework&#45;&gt;product_context</title>
<path fill="none" stroke="#222222" stroke-width="1.6" d="M1566.68,-721.88C1547.77,-717.58 1526.93,-709.95 1511.85,-696.41 1401.95,-597.64 1493.72,-486.94 1381.85,-390.41 1307.09,-325.9 1254.61,-379.68 1166.85,-334.41 1099.84,-299.84 1107.71,-251.18 1036.85,-225.41 845.14,-155.67 739.2,-100.58 577.85,-225.41 395.9,-366.17 603.47,-556.99 447.85,-726.41 436.74,-738.5 420.62,-745.88 405.21,-750.38"/>
<polygon fill="#222222" stroke="#222222" stroke-width="1.6" points="404.3,-747.9 397.73,-752.36 405.65,-752.98 404.3,-747.9"/>
</g>
<!-- messaging_framework&#45;&gt;persona -->
<g id="edge32" class="edge">
<title>messaging_framework&#45;&gt;persona</title>
<path fill="none" stroke="#222222" stroke-width="1.6" d="M1566.7,-714.48C1549.3,-709.34 1529.52,-703.07 1511.85,-696.41 1452.48,-674.02 1443.87,-650.82 1381.85,-637.41 1288.46,-617.2 1261.37,-623.39 1166.85,-637.41 1039.6,-656.28 1001.1,-656.81 889.85,-721.41 821.07,-761.35 829.13,-805.32 759.85,-844.41 745.82,-852.32 729.14,-857.85 713.94,-861.66"/>
<polygon fill="#222222" stroke="#222222" stroke-width="1.6" points="713.31,-859.11 706.61,-863.39 714.52,-864.22 713.31,-859.11"/>
</g>
<!-- experience_specification -->
<g id="node17" class="node">
<title>experience_specification</title>
<path fill="#dbe7fb" stroke="#2c5fb3" stroke-width="1.1" stroke-dasharray="5,2" d="M1975.85,-748.41C1975.85,-748.41 1891.85,-748.41 1891.85,-748.41 1885.85,-748.41 1879.85,-742.41 1879.85,-736.41 1879.85,-736.41 1879.85,-718.41 1879.85,-718.41 1879.85,-712.41 1885.85,-706.41 1891.85,-706.41 1891.85,-706.41 1975.85,-706.41 1975.85,-706.41 1981.85,-706.41 1987.85,-712.41 1987.85,-718.41 1987.85,-718.41 1987.85,-736.41 1987.85,-736.41 1987.85,-742.41 1981.85,-748.41 1975.85,-748.41"/>
<text text-anchor="middle" x="1933.85" y="-731.41" font-family="Helvetica,sans-Serif" font-size="12.50">Experience</text>
<text text-anchor="middle" x="1933.85" y="-717.41" font-family="Helvetica,sans-Serif" font-size="12.50">Specification</text>
</g>
<!-- messaging_framework&#45;&gt;experience_specification -->
<!-- creative_strategy&#45;&gt;business_context -->
<g id="edge38" class="edge">
<title>creative_strategy&#45;&gt;business_context</title>
<path fill="none" stroke="#222222" stroke-width="1.6" d="M1574.11,-661.37C1553.43,-657.45 1528.97,-649.69 1511.85,-634.41 1403.17,-537.33 1503.62,-413.45 1381.85,-333.41 1302,-280.92 1260.83,-316.14 1166.85,-333.41 891.39,-384.02 782.69,-366.41 577.85,-557.41 477.21,-651.25 549.65,-745.81 447.85,-838.41 436.73,-848.52 422.1,-855.38 407.98,-860.01"/>
<polygon fill="#222222" stroke="#222222" stroke-width="1.6" points="407.07,-857.54 400.66,-862.23 408.6,-862.56 407.07,-857.54"/>
</g>
<!-- creative_strategy&#45;&gt;brand_context -->
<g id="edge36" class="edge">
<title>creative_strategy&#45;&gt;brand_context</title>
<path fill="none" stroke="#222222" stroke-width="1.6" d="M1573.9,-661.61C1553.16,-657.75 1528.7,-649.99 1511.85,-634.41 1395.51,-526.82 1496.67,-411.62 1381.85,-302.41 1308.83,-232.96 1257.07,-275.3 1166.85,-230.41 1104.16,-199.21 1103.74,-162.11 1036.85,-141.41 939.41,-111.25 656.76,-76.77 577.85,-141.41 350.95,-327.26 646.95,-573.03 447.85,-788.41 441.62,-795.15 433.71,-800.12 425.21,-803.78"/>
<polygon fill="#222222" stroke="#222222" stroke-width="1.6" points="424.02,-801.42 417.95,-806.55 425.89,-806.33 424.02,-801.42"/>
</g>
<!-- creative_strategy&#45;&gt;product_context -->
<g id="edge37" class="edge">
<title>creative_strategy&#45;&gt;product_context</title>
<path fill="none" stroke="#222222" stroke-width="1.6" d="M1574.14,-661.98C1553.21,-658.24 1528.5,-650.47 1511.85,-634.41 1383.72,-510.73 1505.62,-383.44 1381.85,-255.41 1310.77,-181.87 1259.34,-217.05 1166.85,-173.41 1106.73,-145.03 1101.12,-116.42 1036.85,-99.41 839.64,-47.21 736.07,29.37 577.85,-99.41 357.13,-279.06 635.14,-512.12 447.85,-726.41 436.95,-738.88 420.72,-746.33 405.15,-750.79"/>
<polygon fill="#222222" stroke="#222222" stroke-width="1.6" points="404.19,-748.32 397.59,-752.74 405.5,-753.41 404.19,-748.32"/>
</g>
<!-- creative_strategy&#45;&gt;messaging_framework -->
<g id="edge35" class="edge">
<title>creative_strategy&#45;&gt;messaging_framework</title>
<path fill="none" stroke="#222222" stroke-width="1.6" d="M1614.85,-686.72C1614.85,-690.66 1614.85,-694.6 1614.85,-698.53"/>
<polygon fill="#222222" stroke="#222222" stroke-width="1.6" points="1612.23,-698.61 1614.85,-706.11 1617.48,-698.61 1612.23,-698.61"/>
</g>
<!-- content_strategy -->
<g id="node16" class="node">
<title>content_strategy</title>
<path fill="#dbe7fb" stroke="#2c5fb3" stroke-width="2.4" d="M1643.35,-624.41C1643.35,-624.41 1586.35,-624.41 1586.35,-624.41 1580.35,-624.41 1574.35,-618.41 1574.35,-612.41 1574.35,-612.41 1574.35,-594.41 1574.35,-594.41 1574.35,-588.41 1580.35,-582.41 1586.35,-582.41 1586.35,-582.41 1643.35,-582.41 1643.35,-582.41 1649.35,-582.41 1655.35,-588.41 1655.35,-594.41 1655.35,-594.41 1655.35,-612.41 1655.35,-612.41 1655.35,-618.41 1649.35,-624.41 1643.35,-624.41"/>
<text text-anchor="middle" x="1614.85" y="-607.41" font-family="Helvetica,sans-Serif" font-size="12.50">Content</text>
<text text-anchor="middle" x="1614.85" y="-593.41" font-family="Helvetica,sans-Serif" font-size="12.50">Strategy</text>
</g>
<!-- content_strategy&#45;&gt;business_context -->
<g id="edge43" class="edge">
<title>content_strategy&#45;&gt;business_context</title>
<path fill="none" stroke="#222222" stroke-width="1.6" d="M1610.22,-582.28C1596.39,-509.22 1539.61,-266.65 1381.85,-172.41 1299.82,-123.4 1260.48,-153.29 1166.85,-172.41 888.05,-229.33 768.83,-212.46 577.85,-423.41 448.13,-566.69 582.1,-699.36 447.85,-838.41 437.22,-849.42 422.44,-856.53 408.03,-861.11"/>
<polygon fill="#222222" stroke="#222222" stroke-width="1.6" points="407.02,-858.67 400.55,-863.29 408.48,-863.71 407.02,-858.67"/>
</g>
<!-- content_strategy&#45;&gt;keyword -->
<g id="edge41" class="edge">
<title>content_strategy&#45;&gt;keyword</title>
<path fill="none" stroke="#222222" stroke-width="1.6" d="M1574.06,-598.26C1461.9,-585.37 1135.4,-559.17 889.85,-653.41 824.01,-678.67 823.66,-714.36 759.85,-744.41 746.29,-750.79 730.79,-755.82 716.5,-759.63"/>
<polygon fill="#222222" stroke="#222222" stroke-width="1.6" points="715.76,-757.11 709.15,-761.52 717.07,-762.2 715.76,-757.11"/>
</g>
<!-- content_strategy&#45;&gt;journey -->
<g id="edge42" class="edge">
<title>content_strategy&#45;&gt;journey</title>
<path fill="none" stroke="#222222" stroke-width="1.6" d="M1574.33,-611.34C1510.64,-624.14 1385.73,-649.23 1319.31,-662.58"/>
<polygon fill="#222222" stroke="#222222" stroke-width="1.6" points="1318.74,-660.01 1311.9,-664.06 1319.77,-665.16 1318.74,-660.01"/>
</g>
<!-- content_strategy&#45;&gt;messaging_framework -->
<g id="edge39" class="edge">
<title>content_strategy&#45;&gt;messaging_framework</title>
<path fill="none" stroke="#222222" stroke-width="1.6" d="M1574.21,-600.44C1534.73,-600.06 1476.52,-606.63 1446.85,-644.41 1435.32,-659.09 1435.32,-671.73 1446.85,-686.41 1472.82,-719.47 1520.65,-728.63 1558.65,-730.14"/>
<polygon fill="#222222" stroke="#222222" stroke-width="1.6" points="1559.03,-732.78 1566.6,-730.36 1559.17,-727.53 1559.03,-732.78"/>
</g>
<!-- content_strategy&#45;&gt;creative_strategy -->
<g id="edge40" class="edge">
<title>content_strategy&#45;&gt;creative_strategy</title>
<path fill="none" stroke="#222222" stroke-width="1.6" d="M1614.85,-624.72C1614.85,-628.66 1614.85,-632.6 1614.85,-636.53"/>
<polygon fill="#222222" stroke="#222222" stroke-width="1.6" points="1612.23,-636.61 1614.85,-644.11 1617.48,-636.61 1612.23,-636.61"/>
</g>
<!-- experience_specification&#45;&gt;campaign_strategy -->
<g id="edge50" class="edge">
<title>experience_specification&#45;&gt;campaign_strategy</title>
<path fill="none" stroke="#9aa3af" stroke-dasharray="5,2" d="M1879.6,-711.82C1869,-707.61 1858.24,-702.49 1848.85,-696.41 1779.49,-651.44 1795.04,-595.47 1718.85,-563.41 1634.06,-527.72 1596.65,-527.72 1511.85,-563.41 1435.67,-595.47 1452.75,-653.91 1381.85,-696.41 1365.38,-706.28 1345.57,-713.17 1327.53,-717.9"/>
<polygon fill="#9aa3af" stroke="#9aa3af" points="1326.57,-715.43 1319.92,-719.79 1327.84,-720.53 1326.57,-715.43"/>
</g>
<!-- experience_specification&#45;&gt;creative_strategy -->
<g id="edge49" class="edge">
<title>experience_specification&#45;&gt;creative_strategy</title>
<path fill="none" stroke="#9aa3af" stroke-dasharray="5,2" d="M1879.61,-716.99C1818.98,-705.13 1720.84,-685.94 1662.91,-674.61"/>
<polygon fill="#9aa3af" stroke="#9aa3af" points="1663.22,-672 1655.36,-673.13 1662.22,-677.15 1663.22,-672"/>
</g>
<!-- performance_measurement -->
<g id="node23" class="node">
<title>performance_measurement</title>
<path fill="#fde8c8" stroke="#b87811" stroke-width="1.1" stroke-dasharray="5,2" d="M2331.35,-748.41C2331.35,-748.41 2243.35,-748.41 2243.35,-748.41 2237.35,-748.41 2231.35,-742.41 2231.35,-736.41 2231.35,-736.41 2231.35,-718.41 2231.35,-718.41 2231.35,-712.41 2237.35,-706.41 2243.35,-706.41 2243.35,-706.41 2331.35,-706.41 2331.35,-706.41 2337.35,-706.41 2343.35,-712.41 2343.35,-718.41 2343.35,-718.41 2343.35,-736.41 2343.35,-736.41 2343.35,-742.41 2337.35,-748.41 2331.35,-748.41"/>
<text text-anchor="middle" x="2287.35" y="-731.41" font-family="Helvetica,sans-Serif" font-size="12.50">Performance</text>
<text text-anchor="middle" x="2287.35" y="-717.41" font-family="Helvetica,sans-Serif" font-size="12.50">Measurement</text>
</g>
<!-- experience_specification&#45;&gt;performance_measurement -->
<!-- experience_component -->
<g id="node18" class="node">
<title>experience_component</title>
<path fill="#dbe7fb" stroke="#2c5fb3" stroke-width="1.1" stroke-dasharray="5,2" d="M1971.85,-686.41C1971.85,-686.41 1895.85,-686.41 1895.85,-686.41 1889.85,-686.41 1883.85,-680.41 1883.85,-674.41 1883.85,-674.41 1883.85,-656.41 1883.85,-656.41 1883.85,-650.41 1889.85,-644.41 1895.85,-644.41 1895.85,-644.41 1971.85,-644.41 1971.85,-644.41 1977.85,-644.41 1983.85,-650.41 1983.85,-656.41 1983.85,-656.41 1983.85,-674.41 1983.85,-674.41 1983.85,-680.41 1977.85,-686.41 1971.85,-686.41"/>
<text text-anchor="middle" x="1933.85" y="-669.41" font-family="Helvetica,sans-Serif" font-size="12.50">Experience</text>
<text text-anchor="middle" x="1933.85" y="-655.41" font-family="Helvetica,sans-Serif" font-size="12.50">Component</text>
</g>
<!-- experience_component&#45;&gt;experience_specification -->
<g id="edge51" class="edge">
<title>experience_component&#45;&gt;experience_specification</title>
<path fill="none" stroke="#9aa3af" stroke-dasharray="5,2" d="M1933.85,-686.72C1933.85,-690.66 1933.85,-694.6 1933.85,-698.53"/>
<polygon fill="#9aa3af" stroke="#9aa3af" points="1931.23,-698.61 1933.85,-706.11 1936.48,-698.61 1931.23,-698.61"/>
</g>
<!-- personalization_configuration -->
<g id="node19" class="node">
<title>personalization_configuration</title>
<path fill="#ece1f9" stroke="#6b4ca3" stroke-width="1.1" stroke-dasharray="5,2" d="M1978.85,-624.41C1978.85,-624.41 1888.85,-624.41 1888.85,-624.41 1882.85,-624.41 1876.85,-618.41 1876.85,-612.41 1876.85,-612.41 1876.85,-580.41 1876.85,-580.41 1876.85,-574.41 1882.85,-568.41 1888.85,-568.41 1888.85,-568.41 1978.85,-568.41 1978.85,-568.41 1984.85,-568.41 1990.85,-574.41 1990.85,-580.41 1990.85,-580.41 1990.85,-612.41 1990.85,-612.41 1990.85,-618.41 1984.85,-624.41 1978.85,-624.41"/>
<text text-anchor="middle" x="1933.85" y="-607.41" font-family="Helvetica,sans-Serif" font-size="12.50">Personalizatio</text>
<text text-anchor="middle" x="1933.85" y="-593.41" font-family="Helvetica,sans-Serif" font-size="12.50">n</text>
<text text-anchor="middle" x="1933.85" y="-579.41" font-family="Helvetica,sans-Serif" font-size="12.50">Configuration</text>
</g>
<!-- personalization_configuration&#45;&gt;audience -->
<g id="edge53" class="edge">
<title>personalization_configuration&#45;&gt;audience</title>
<path fill="none" stroke="#9aa3af" stroke-dasharray="5,2" d="M1876.78,-571.64C1816.2,-544.97 1727.15,-506.11 1718.85,-504.41 1628.74,-485.86 1603.22,-493.62 1511.85,-504.41 1229.55,-537.75 1135.04,-509.57 889.85,-653.41 816.33,-696.54 832.62,-750.02 759.85,-794.41 747.41,-802 732.61,-807.34 718.63,-811.07"/>
<polygon fill="#9aa3af" stroke="#9aa3af" points="717.6,-808.62 710.96,-812.98 718.87,-813.71 717.6,-808.62"/>
</g>
<!-- personalization_configuration&#45;&gt;campaign_strategy -->
<g id="edge52" class="edge">
<title>personalization_configuration&#45;&gt;campaign_strategy</title>
<path fill="none" stroke="#9aa3af" stroke-dasharray="5,2" d="M1876.68,-574.36C1834.11,-558.89 1773.77,-539.56 1718.85,-531.41 1627.85,-517.89 1594.62,-491.24 1511.85,-531.41 1427.86,-572.16 1459.25,-644.2 1381.85,-696.41 1365.79,-707.24 1345.9,-714.35 1327.67,-718.98"/>
<polygon fill="#9aa3af" stroke="#9aa3af" points="1326.66,-716.53 1319.98,-720.82 1327.88,-721.63 1326.66,-716.53"/>
</g>
<!-- experience_delivery -->
<g id="node20" class="node">
<title>experience_delivery</title>
<path fill="#dbe7fb" stroke="#2c5fb3" stroke-width="1.1" stroke-dasharray="5,2" d="M1970.35,-548.41C1970.35,-548.41 1897.35,-548.41 1897.35,-548.41 1891.35,-548.41 1885.35,-542.41 1885.35,-536.41 1885.35,-536.41 1885.35,-518.41 1885.35,-518.41 1885.35,-512.41 1891.35,-506.41 1897.35,-506.41 1897.35,-506.41 1970.35,-506.41 1970.35,-506.41 1976.35,-506.41 1982.35,-512.41 1982.35,-518.41 1982.35,-518.41 1982.35,-536.41 1982.35,-536.41 1982.35,-542.41 1976.35,-548.41 1970.35,-548.41"/>
<text text-anchor="middle" x="1933.85" y="-531.41" font-family="Helvetica,sans-Serif" font-size="12.50">Experience</text>
<text text-anchor="middle" x="1933.85" y="-517.41" font-family="Helvetica,sans-Serif" font-size="12.50">Delivery</text>
</g>
<!-- experience_delivery&#45;&gt;journey -->
<g id="edge55" class="edge">
<title>experience_delivery&#45;&gt;journey</title>
<path fill="none" stroke="#9aa3af" stroke-dasharray="5,2" d="M1885.06,-514.03C1805.5,-494.1 1641.79,-463.15 1511.85,-504.41 1419.99,-533.57 1333.06,-612.73 1295.21,-650.64"/>
<polygon fill="#9aa3af" stroke="#9aa3af" points="1292.97,-649.17 1289.56,-656.35 1296.7,-652.86 1292.97,-649.17"/>
</g>
<!-- experience_delivery&#45;&gt;experience_component -->
<g id="edge54" class="edge">
<title>experience_delivery&#45;&gt;experience_component</title>
<path fill="none" stroke="#9aa3af" stroke-dasharray="5,2" d="M1885.31,-526.4C1851.03,-528.59 1807.2,-537.83 1783.85,-568.41 1768.75,-588.19 1768.75,-604.62 1783.85,-624.41 1805.08,-652.22 1843.27,-662.38 1875.79,-665.63"/>
<polygon fill="#9aa3af" stroke="#9aa3af" points="1875.8,-668.27 1883.49,-666.29 1876.24,-663.04 1875.8,-668.27"/>
</g>
<!-- experience_validation -->
<g id="node21" class="node">
<title>experience_validation</title>
<path fill="#dbe7fb" stroke="#2c5fb3" stroke-width="1.1" stroke-dasharray="5,2" d="M1970.35,-486.41C1970.35,-486.41 1897.35,-486.41 1897.35,-486.41 1891.35,-486.41 1885.35,-480.41 1885.35,-474.41 1885.35,-474.41 1885.35,-456.41 1885.35,-456.41 1885.35,-450.41 1891.35,-444.41 1897.35,-444.41 1897.35,-444.41 1970.35,-444.41 1970.35,-444.41 1976.35,-444.41 1982.35,-450.41 1982.35,-456.41 1982.35,-456.41 1982.35,-474.41 1982.35,-474.41 1982.35,-480.41 1976.35,-486.41 1970.35,-486.41"/>
<text text-anchor="middle" x="1933.85" y="-469.41" font-family="Helvetica,sans-Serif" font-size="12.50">Experience</text>
<text text-anchor="middle" x="1933.85" y="-455.41" font-family="Helvetica,sans-Serif" font-size="12.50">Validation</text>
</g>
<!-- experience_validation&#45;&gt;experience_delivery -->
<g id="edge56" class="edge">
<title>experience_validation&#45;&gt;experience_delivery</title>
<path fill="none" stroke="#9aa3af" stroke-dasharray="5,2" d="M1933.85,-486.72C1933.85,-490.66 1933.85,-494.6 1933.85,-498.53"/>
<polygon fill="#9aa3af" stroke="#9aa3af" points="1931.23,-498.61 1933.85,-506.11 1936.48,-498.61 1931.23,-498.61"/>
</g>
<!-- campaign_deployment -->
<g id="node22" class="node">
<title>campaign_deployment</title>
<path fill="#dbe7fb" stroke="#2c5fb3" stroke-width="1.1" stroke-dasharray="5,2" d="M1973.85,-424.41C1973.85,-424.41 1893.85,-424.41 1893.85,-424.41 1887.85,-424.41 1881.85,-418.41 1881.85,-412.41 1881.85,-412.41 1881.85,-394.41 1881.85,-394.41 1881.85,-388.41 1887.85,-382.41 1893.85,-382.41 1893.85,-382.41 1973.85,-382.41 1973.85,-382.41 1979.85,-382.41 1985.85,-388.41 1985.85,-394.41 1985.85,-394.41 1985.85,-412.41 1985.85,-412.41 1985.85,-418.41 1979.85,-424.41 1973.85,-424.41"/>
<text text-anchor="middle" x="1933.85" y="-407.41" font-family="Helvetica,sans-Serif" font-size="12.50">Campaign</text>
<text text-anchor="middle" x="1933.85" y="-393.41" font-family="Helvetica,sans-Serif" font-size="12.50">Deployment</text>
</g>
<!-- campaign_deployment&#45;&gt;experience_delivery -->
<g id="edge57" class="edge">
<title>campaign_deployment&#45;&gt;experience_delivery</title>
<path fill="none" stroke="#9aa3af" stroke-dasharray="5,2" d="M1881.66,-402.66C1847.98,-405.26 1806.38,-414.9 1783.85,-444.41 1772.53,-459.24 1772.53,-471.57 1783.85,-486.41 1805.46,-514.72 1844.63,-524.74 1877.53,-527.8"/>
<polygon fill="#9aa3af" stroke="#9aa3af" points="1877.63,-530.44 1885.31,-528.41 1878.03,-525.21 1877.63,-530.44"/>
</g>
<!-- performance_measurement&#45;&gt;measurement_framework -->
<g id="edge60" class="edge">
<title>performance_measurement&#45;&gt;measurement_framework</title>
<path fill="none" stroke="#9aa3af" stroke-dasharray="5,2" d="M2231.22,-726.93C2203.84,-723.95 2171.97,-715.97 2149.85,-696.41 2022.12,-583.42 2143.36,-453 2019.85,-335.41 1805.12,-130.95 1675.1,-184.22 1381.85,-140.41 1023.99,-86.94 869.01,-53.58 577.85,-268.41 457.18,-357.44 390.74,-535.05 368.46,-604.56"/>
<polygon fill="#9aa3af" stroke="#9aa3af" points="365.83,-604.17 366.08,-612.11 370.84,-605.75 365.83,-604.17"/>
</g>
<!-- performance_measurement&#45;&gt;campaign_strategy -->
<g id="edge58" class="edge">
<title>performance_measurement&#45;&gt;campaign_strategy</title>
<path fill="none" stroke="#9aa3af" stroke-dasharray="5,2" d="M2231.1,-726.64C2203.85,-723.57 2172.13,-715.59 2149.85,-696.41 2029.46,-592.73 2151.04,-453.02 2019.85,-363.41 1957.1,-320.54 1923.37,-348.45 1848.85,-363.41 1689.67,-395.36 1637.49,-401.57 1511.85,-504.41 1432.11,-569.68 1465.16,-635.74 1381.85,-696.41 1366.05,-707.91 1346.04,-715.17 1327.64,-719.73"/>
<polygon fill="#9aa3af" stroke="#9aa3af" points="1326.58,-717.28 1319.87,-721.53 1327.77,-722.4 1326.58,-717.28"/>
</g>
<!-- performance_measurement&#45;&gt;experience_delivery -->
<g id="edge59" class="edge">
<title>performance_measurement&#45;&gt;experience_delivery</title>
<path fill="none" stroke="#9aa3af" stroke-dasharray="5,2" d="M2231.16,-722.39C2205.17,-718.2 2174.54,-710.52 2149.85,-696.41 2076.7,-654.59 2090.22,-604.76 2019.85,-558.41 2010.69,-552.37 2000.19,-547.32 1989.78,-543.16"/>
<polygon fill="#9aa3af" stroke="#9aa3af" points="1990.54,-540.65 1982.6,-540.43 1988.67,-545.55 1990.54,-540.65"/>
</g>
<!-- customer_insight -->
<g id="node24" class="node">
<title>customer_insight</title>
<path fill="#d8f0d6" stroke="#2e7d32" stroke-width="1.1" stroke-dasharray="5,2" d="M2319.35,-686.41C2319.35,-686.41 2255.35,-686.41 2255.35,-686.41 2249.35,-686.41 2243.35,-680.41 2243.35,-674.41 2243.35,-674.41 2243.35,-656.41 2243.35,-656.41 2243.35,-650.41 2249.35,-644.41 2255.35,-644.41 2255.35,-644.41 2319.35,-644.41 2319.35,-644.41 2325.35,-644.41 2331.35,-650.41 2331.35,-656.41 2331.35,-656.41 2331.35,-674.41 2331.35,-674.41 2331.35,-680.41 2325.35,-686.41 2319.35,-686.41"/>
<text text-anchor="middle" x="2287.35" y="-669.41" font-family="Helvetica,sans-Serif" font-size="12.50">Customer</text>
<text text-anchor="middle" x="2287.35" y="-655.41" font-family="Helvetica,sans-Serif" font-size="12.50">Insight</text>
</g>
<!-- customer_insight&#45;&gt;persona -->
<g id="edge63" class="edge">
<title>customer_insight&#45;&gt;persona</title>
<path fill="none" stroke="#1aa179" stroke-width="1.7" stroke-dasharray="5,2" d="M2243.18,-665.41C2213.87,-663.25 2175.86,-655.96 2149.85,-634.41 2038.28,-541.95 2141.03,-414.86 2019.85,-335.41 1956.3,-293.73 1923.88,-323.29 1848.85,-335.41 1405.55,-406.99 1248.23,-382.84 889.85,-653.41 807.9,-715.28 843.35,-784.63 759.85,-844.41 746.53,-853.95 729.71,-859.85 714.2,-863.5"/>
<polygon fill="#1aa179" stroke="#1aa179" stroke-width="1.7" points="713.48,-860.97 706.71,-865.12 714.59,-866.1 713.48,-860.97"/>
</g>
<!-- customer_insight&#45;&gt;performance_measurement -->
<g id="edge61" class="edge">
<title>customer_insight&#45;&gt;performance_measurement</title>
<path fill="none" stroke="#9aa3af" stroke-dasharray="5,2" d="M2287.35,-686.72C2287.35,-690.66 2287.35,-694.6 2287.35,-698.53"/>
<polygon fill="#9aa3af" stroke="#9aa3af" points="2284.73,-698.61 2287.35,-706.11 2289.98,-698.61 2284.73,-698.61"/>
</g>
<!-- optimization_recommendation -->
<g id="node25" class="node">
<title>optimization_recommendation</title>
<path fill="#d8f0d6" stroke="#2e7d32" stroke-width="1.1" stroke-dasharray="5,2" d="M2343.85,-624.41C2343.85,-624.41 2230.85,-624.41 2230.85,-624.41 2224.85,-624.41 2218.85,-618.41 2218.85,-612.41 2218.85,-612.41 2218.85,-594.41 2218.85,-594.41 2218.85,-588.41 2224.85,-582.41 2230.85,-582.41 2230.85,-582.41 2343.85,-582.41 2343.85,-582.41 2349.85,-582.41 2355.85,-588.41 2355.85,-594.41 2355.85,-594.41 2355.85,-612.41 2355.85,-612.41 2355.85,-618.41 2349.85,-624.41 2343.85,-624.41"/>
<text text-anchor="middle" x="2287.35" y="-607.41" font-family="Helvetica,sans-Serif" font-size="12.50">Optimization</text>
<text text-anchor="middle" x="2287.35" y="-593.41" font-family="Helvetica,sans-Serif" font-size="12.50">Recommendation</text>
</g>
<!-- optimization_recommendation&#45;&gt;marketing_strategy -->
<g id="edge64" class="edge">
<title>optimization_recommendation&#45;&gt;marketing_strategy</title>
<path fill="none" stroke="#1aa179" stroke-width="1.7" stroke-dasharray="5,2" d="M2280.95,-582.35C2260.89,-508.86 2183.28,-262.23 2019.85,-152.41 1703.28,60.33 1542.68,6.59 1166.85,-58.41 893,-105.77 771.87,-69.42 577.85,-268.41 448.53,-401.04 577.42,-532.02 447.85,-664.41 438.01,-674.47 424.7,-681.27 411.43,-685.87"/>
<polygon fill="#1aa179" stroke="#1aa179" stroke-width="1.7" points="410.43,-683.43 404.07,-688.2 412.02,-688.43 410.43,-683.43"/>
</g>
<!-- optimization_recommendation&#45;&gt;performance_measurement -->
<g id="edge62" class="edge">
<title>optimization_recommendation&#45;&gt;performance_measurement</title>
<path fill="none" stroke="#9aa3af" stroke-dasharray="5,2" d="M2218.41,-597.08C2172.99,-597.1 2116.3,-605.95 2084.85,-644.41 2073.03,-658.86 2073.03,-671.96 2084.85,-686.41 2117.55,-726.39 2177.52,-734.36 2223.75,-733.69"/>
<polygon fill="#9aa3af" stroke="#9aa3af" points="2223.9,-736.31 2231.33,-733.5 2223.77,-731.06 2223.9,-736.31"/>
</g>
</g>
</svg>
