<?xml version="1.0" encoding="UTF-8" standalone="no"?>
<!DOCTYPE svg PUBLIC "-//W3C//DTD SVG 1.1//EN"
 "http://www.w3.org/Graphics/SVG/1.1/DTD/svg11.dtd">
<!-- Generated by graphviz version 2.43.0 (0)
 -->
<!-- Title: OSMM Pages: 1 -->
<svg width="3032pt" height="1077pt"
 viewBox="0.00 0.00 3032.00 1076.97" xmlns="http://www.w3.org/2000/svg" xmlns:xlink="http://www.w3.org/1999/xlink">
<g id="graph0" class="graph" transform="scale(1 1) rotate(0) translate(36 1040.97)">
<title>OSMM</title>
<polygon fill="white" stroke="transparent" points="-36,36 -36,-1040.97 2996,-1040.97 2996,36 -36,36"/>
<text text-anchor="middle" x="1480" y="-980.17" font-family="Helvetica,sans-Serif" font-weight="bold" font-size="26.00">OSMM™ Object Graph — 26 objects across 5 categories</text>
<text text-anchor="middle" x="1480" y="-951.17" font-family="Helvetica,sans-Serif" font-weight="bold" font-size="26.00">solid node = builder shipped (12) &#160;&#160;· &#160;&#160;dashed node = backlog (14) &#160;&#160;· &#160;&#160;solid edge = realized reference &#160;&#160;· &#160;&#160;dashed edge = envisioned &#160;&#160;· &#160;&#160;mint edge = learning loop</text>
<g id="clust1" class="cluster">
<title>cluster_0</title>
<path fill="#f7f9fb" stroke="#0f1b35" stroke-width="2" d="M1837,-105.97C1837,-105.97 2940,-105.97 2940,-105.97 2946,-105.97 2952,-111.97 2952,-117.97 2952,-117.97 2952,-309.97 2952,-309.97 2952,-315.97 2946,-321.97 2940,-321.97 2940,-321.97 1837,-321.97 1837,-321.97 1831,-321.97 1825,-315.97 1825,-309.97 1825,-309.97 1825,-117.97 1825,-117.97 1825,-111.97 1831,-105.97 1837,-105.97"/>
<text text-anchor="middle" x="2388.5" y="-303.57" font-family="Helvetica,sans-Serif" font-weight="bold" font-size="18.00">Context</text>
</g>
<g id="clust2" class="cluster">
<title>cluster_1</title>
<path fill="#f7f9fb" stroke="#2c5fb3" stroke-width="2" d="M314,-329.97C314,-329.97 2443,-329.97 2443,-329.97 2449,-329.97 2455,-335.97 2455,-341.97 2455,-341.97 2455,-667.97 2455,-667.97 2455,-673.97 2449,-679.97 2443,-679.97 2443,-679.97 314,-679.97 314,-679.97 308,-679.97 302,-673.97 302,-667.97 302,-667.97 302,-341.97 302,-341.97 302,-335.97 308,-329.97 314,-329.97"/>
<text text-anchor="middle" x="1378.5" y="-661.57" font-family="Helvetica,sans-Serif" font-weight="bold" font-size="18.00">Work Product</text>
</g>
<g id="clust3" class="cluster">
<title>cluster_2</title>
<path fill="#f7f9fb" stroke="#6b4ca3" stroke-width="2" d="M1325,-82.97C1325,-82.97 1458,-82.97 1458,-82.97 1464,-82.97 1470,-88.97 1470,-94.97 1470,-94.97 1470,-194.97 1470,-194.97 1470,-200.97 1464,-206.97 1458,-206.97 1458,-206.97 1325,-206.97 1325,-206.97 1319,-206.97 1313,-200.97 1313,-194.97 1313,-194.97 1313,-94.97 1313,-94.97 1313,-88.97 1319,-82.97 1325,-82.97"/>
<text text-anchor="middle" x="1391.5" y="-188.57" font-family="Helvetica,sans-Serif" font-weight="bold" font-size="18.00">Configuration</text>
</g>
<g id="clust4" class="cluster">
<title>cluster_3</title>
<path fill="#f7f9fb" stroke="#b87811" stroke-width="2" d="M309,-753.97C309,-753.97 440,-753.97 440,-753.97 446,-753.97 452,-759.97 452,-765.97 452,-765.97 452,-851.97 452,-851.97 452,-857.97 446,-863.97 440,-863.97 440,-863.97 309,-863.97 309,-863.97 303,-863.97 297,-857.97 297,-851.97 297,-851.97 297,-765.97 297,-765.97 297,-759.97 303,-753.97 309,-753.97"/>
<text text-anchor="middle" x="374.5" y="-845.57" font-family="Helvetica,sans-Serif" font-weight="bold" font-size="18.00">Measurement</text>
</g>
<g id="clust5" class="cluster">
<title>cluster_4</title>
<path fill="#f7f9fb" stroke="#2e7d32" stroke-width="2" d="M20,-712.97C20,-712.97 177,-712.97 177,-712.97 183,-712.97 189,-718.97 189,-724.97 189,-724.97 189,-892.97 189,-892.97 189,-898.97 183,-904.97 177,-904.97 177,-904.97 20,-904.97 20,-904.97 14,-904.97 8,-898.97 8,-892.97 8,-892.97 8,-724.97 8,-724.97 8,-718.97 14,-712.97 20,-712.97"/>
<text text-anchor="middle" x="98.5" y="-886.57" font-family="Helvetica,sans-Serif" font-weight="bold" font-size="18.00">Learning</text>
</g>
<!-- business_context -->
<g id="node1" class="node">
<title>business_context</title>
<path fill="#d4f2ec" stroke="#0f1b35" stroke-width="2.4" d="M2655,-275.97C2655,-275.97 2593,-275.97 2593,-275.97 2587,-275.97 2581,-269.97 2581,-263.97 2581,-263.97 2581,-241.97 2581,-241.97 2581,-235.97 2587,-229.97 2593,-229.97 2593,-229.97 2655,-229.97 2655,-229.97 2661,-229.97 2667,-235.97 2667,-241.97 2667,-241.97 2667,-263.97 2667,-263.97 2667,-269.97 2661,-275.97 2655,-275.97"/>
<text text-anchor="middle" x="2624" y="-256.57" font-family="Helvetica,sans-Serif" font-size="13.00">Business</text>
<text text-anchor="middle" x="2624" y="-242.57" font-family="Helvetica,sans-Serif" font-size="13.00">Context</text>
</g>
<!-- brand_context -->
<g id="node2" class="node">
<title>brand_context</title>
<path fill="#d4f2ec" stroke="#0f1b35" stroke-width="2.4" d="M2923.33,-268.97C2923.33,-268.97 2821.67,-268.97 2821.67,-268.97 2816.33,-268.97 2811,-263.63 2811,-258.3 2811,-258.3 2811,-247.63 2811,-247.63 2811,-242.3 2816.33,-236.97 2821.67,-236.97 2821.67,-236.97 2923.33,-236.97 2923.33,-236.97 2928.67,-236.97 2934,-242.3 2934,-247.63 2934,-247.63 2934,-258.3 2934,-258.3 2934,-263.63 2928.67,-268.97 2923.33,-268.97"/>
<text text-anchor="middle" x="2872.5" y="-249.57" font-family="Helvetica,sans-Serif" font-size="13.00">Brand Context</text>
</g>
<!-- business_context&#45;&gt;brand_context -->
<g id="edge1" class="edge">
<title>business_context&#45;&gt;brand_context</title>
<path fill="none" stroke="#222222" stroke-width="1.7" d="M2675.21,-252.97C2711.86,-252.97 2762,-252.97 2802.43,-252.97"/>
<polygon fill="#222222" stroke="#222222" stroke-width="1.7" points="2675.09,-250.17 2667.09,-252.97 2675.09,-255.77 2675.09,-250.17"/>
<polygon fill="#222222" stroke="#222222" stroke-width="1.7" points="2802.63,-255.77 2810.63,-252.97 2802.63,-250.17 2802.63,-255.77"/>
</g>
<!-- product_context -->
<g id="node3" class="node">
<title>product_context</title>
<path fill="#d4f2ec" stroke="#0f1b35" stroke-width="2.4" d="M2405.5,-275.97C2405.5,-275.97 2349.5,-275.97 2349.5,-275.97 2343.5,-275.97 2337.5,-269.97 2337.5,-263.97 2337.5,-263.97 2337.5,-241.97 2337.5,-241.97 2337.5,-235.97 2343.5,-229.97 2349.5,-229.97 2349.5,-229.97 2405.5,-229.97 2405.5,-229.97 2411.5,-229.97 2417.5,-235.97 2417.5,-241.97 2417.5,-241.97 2417.5,-263.97 2417.5,-263.97 2417.5,-269.97 2411.5,-275.97 2405.5,-275.97"/>
<text text-anchor="middle" x="2377.5" y="-256.57" font-family="Helvetica,sans-Serif" font-size="13.00">Product</text>
<text text-anchor="middle" x="2377.5" y="-242.57" font-family="Helvetica,sans-Serif" font-size="13.00">Context</text>
</g>
<!-- product_context&#45;&gt;business_context -->
<g id="edge2" class="edge">
<title>product_context&#45;&gt;business_context</title>
<path fill="none" stroke="#222222" stroke-width="1.7" d="M2417.51,-252.97C2459.61,-252.97 2526.79,-252.97 2572.8,-252.97"/>
<polygon fill="#222222" stroke="#222222" stroke-width="1.7" points="2572.85,-255.77 2580.85,-252.97 2572.85,-250.17 2572.85,-255.77"/>
</g>
<!-- product_context&#45;&gt;brand_context -->
<g id="edge3" class="edge">
<title>product_context&#45;&gt;brand_context</title>
<path fill="none" stroke="#222222" stroke-width="1.7" d="M2417.72,-242.6C2458.26,-232.46 2523.54,-217.73 2581,-211.97 2659.05,-204.15 2748.33,-220.57 2807.08,-234.9"/>
<polygon fill="#222222" stroke="#222222" stroke-width="1.7" points="2806.72,-237.7 2815.16,-236.91 2808.07,-232.27 2806.72,-237.7"/>
</g>
<!-- persona -->
<g id="node4" class="node">
<title>persona</title>
<path fill="#d4f2ec" stroke="#0f1b35" stroke-width="2.4" d="M2156.83,-193.97C2156.83,-193.97 2097.17,-193.97 2097.17,-193.97 2091.83,-193.97 2086.5,-188.63 2086.5,-183.3 2086.5,-183.3 2086.5,-172.63 2086.5,-172.63 2086.5,-167.3 2091.83,-161.97 2097.17,-161.97 2097.17,-161.97 2156.83,-161.97 2156.83,-161.97 2162.17,-161.97 2167.5,-167.3 2167.5,-172.63 2167.5,-172.63 2167.5,-183.3 2167.5,-183.3 2167.5,-188.63 2162.17,-193.97 2156.83,-193.97"/>
<text text-anchor="middle" x="2127" y="-174.57" font-family="Helvetica,sans-Serif" font-size="13.00">Persona</text>
</g>
<!-- audience -->
<g id="node5" class="node">
<title>audience</title>
<path fill="#d4f2ec" stroke="#0f1b35" stroke-width="2.4" d="M2411.83,-193.97C2411.83,-193.97 2343.17,-193.97 2343.17,-193.97 2337.83,-193.97 2332.5,-188.63 2332.5,-183.3 2332.5,-183.3 2332.5,-172.63 2332.5,-172.63 2332.5,-167.3 2337.83,-161.97 2343.17,-161.97 2343.17,-161.97 2411.83,-161.97 2411.83,-161.97 2417.17,-161.97 2422.5,-167.3 2422.5,-172.63 2422.5,-172.63 2422.5,-183.3 2422.5,-183.3 2422.5,-188.63 2417.17,-193.97 2411.83,-193.97"/>
<text text-anchor="middle" x="2377.5" y="-174.57" font-family="Helvetica,sans-Serif" font-size="13.00">Audience</text>
</g>
<!-- persona&#45;&gt;audience -->
<g id="edge4" class="edge">
<title>persona&#45;&gt;audience</title>
<path fill="none" stroke="#222222" stroke-width="1.7" d="M2175.83,-177.97C2218.33,-177.97 2280.33,-177.97 2324.15,-177.97"/>
<polygon fill="#222222" stroke="#222222" stroke-width="1.7" points="2175.65,-175.17 2167.65,-177.97 2175.65,-180.77 2175.65,-175.17"/>
<polygon fill="#222222" stroke="#222222" stroke-width="1.7" points="2324.38,-180.77 2332.38,-177.97 2324.38,-175.17 2324.38,-180.77"/>
</g>
<!-- audience&#45;&gt;business_context -->
<g id="edge5" class="edge">
<title>audience&#45;&gt;business_context</title>
<path fill="none" stroke="#222222" stroke-width="1.7" d="M2422.78,-191.55C2465.1,-204.53 2528.82,-224.08 2572.96,-237.62"/>
<polygon fill="#222222" stroke="#222222" stroke-width="1.7" points="2572.22,-240.32 2580.69,-239.99 2573.86,-234.97 2572.22,-240.32"/>
</g>
<!-- keyword -->
<g id="node6" class="node">
<title>keyword</title>
<path fill="#d4f2ec" stroke="#0f1b35" stroke-width="2.4" d="M1917.33,-193.97C1917.33,-193.97 1853.67,-193.97 1853.67,-193.97 1848.33,-193.97 1843,-188.63 1843,-183.3 1843,-183.3 1843,-172.63 1843,-172.63 1843,-167.3 1848.33,-161.97 1853.67,-161.97 1853.67,-161.97 1917.33,-161.97 1917.33,-161.97 1922.67,-161.97 1928,-167.3 1928,-172.63 1928,-172.63 1928,-183.3 1928,-183.3 1928,-188.63 1922.67,-193.97 1917.33,-193.97"/>
<text text-anchor="middle" x="1885.5" y="-174.57" font-family="Helvetica,sans-Serif" font-size="13.00">Keyword</text>
</g>
<!-- keyword&#45;&gt;business_context -->
<g id="edge7" class="edge">
<title>keyword&#45;&gt;business_context</title>
<path fill="none" stroke="#222222" stroke-width="1.7" d="M1928.27,-165.93C2023.86,-140.43 2264.91,-87.7 2455,-143.97 2507.76,-159.58 2559.48,-197.54 2591.3,-224.25"/>
<polygon fill="#222222" stroke="#222222" stroke-width="1.7" points="2589.87,-226.72 2597.77,-229.77 2593.5,-222.45 2589.87,-226.72"/>
</g>
<!-- keyword&#45;&gt;persona -->
<g id="edge6" class="edge">
<title>keyword&#45;&gt;persona</title>
<path fill="none" stroke="#222222" stroke-width="1.7" d="M1928.22,-177.97C1970.02,-177.97 2034.29,-177.97 2078.14,-177.97"/>
<polygon fill="#222222" stroke="#222222" stroke-width="1.7" points="2078.35,-180.77 2086.35,-177.97 2078.35,-175.17 2078.35,-180.77"/>
</g>
<!-- marketing_strategy -->
<g id="node7" class="node">
<title>marketing_strategy</title>
<path fill="#dbe7fb" stroke="#2c5fb3" stroke-width="2.4" d="M2162,-565.97C2162,-565.97 2092,-565.97 2092,-565.97 2086,-565.97 2080,-559.97 2080,-553.97 2080,-553.97 2080,-531.97 2080,-531.97 2080,-525.97 2086,-519.97 2092,-519.97 2092,-519.97 2162,-519.97 2162,-519.97 2168,-519.97 2174,-525.97 2174,-531.97 2174,-531.97 2174,-553.97 2174,-553.97 2174,-559.97 2168,-565.97 2162,-565.97"/>
<text text-anchor="middle" x="2127" y="-546.57" font-family="Helvetica,sans-Serif" font-size="13.00">Marketing</text>
<text text-anchor="middle" x="2127" y="-532.57" font-family="Helvetica,sans-Serif" font-size="13.00">Strategy</text>
</g>
<!-- marketing_strategy&#45;&gt;business_context -->
<g id="edge8" class="edge">
<title>marketing_strategy&#45;&gt;business_context</title>
<path fill="none" stroke="#222222" stroke-width="1.7" d="M2154.27,-519.73C2215.41,-465.77 2363.1,-336.11 2376.5,-330.97"/>
</g>
<!-- marketing_strategy&#45;&gt;brand_context -->
<g id="edge9" class="edge">
<title>marketing_strategy&#45;&gt;brand_context</title>
<path fill="none" stroke="#222222" stroke-width="1.7" d="M2166.39,-566.17C2213.86,-593.59 2298.04,-638.13 2376.5,-658.97"/>
<path fill="none" stroke="#222222" stroke-width="1.7" d="M2378.5,-658.97C2488.23,-688.11 2526,-791.98 2623,-732.97"/>
<path fill="none" stroke="#222222" stroke-width="1.7" d="M2625,-732.97C2797.37,-628.1 2854.18,-359.93 2867.87,-277.47"/>
<polygon fill="#222222" stroke="#222222" stroke-width="1.7" points="2870.66,-277.77 2869.16,-269.43 2865.13,-276.88 2870.66,-277.77"/>
</g>
<!-- marketing_strategy&#45;&gt;audience -->
<g id="edge10" class="edge">
<title>marketing_strategy&#45;&gt;audience</title>
<path fill="none" stroke="#222222" stroke-width="1.7" d="M2157.41,-519.81C2163.33,-514.34 2169.2,-508.26 2174,-501.97 2261.3,-387.57 2219.64,-317.01 2318,-211.97 2322.73,-206.91 2328.39,-202.39 2334.29,-198.41"/>
<polygon fill="#222222" stroke="#222222" stroke-width="1.7" points="2336.01,-200.63 2341.29,-193.99 2333.03,-195.89 2336.01,-200.63"/>
</g>
<!-- measurement_framework -->
<g id="node8" class="node">
<title>measurement_framework</title>
<path fill="#dbe7fb" stroke="#2c5fb3" stroke-width="2.4" d="M2425,-584.97C2425,-584.97 2330,-584.97 2330,-584.97 2324,-584.97 2318,-578.97 2318,-572.97 2318,-572.97 2318,-550.97 2318,-550.97 2318,-544.97 2324,-538.97 2330,-538.97 2330,-538.97 2425,-538.97 2425,-538.97 2431,-538.97 2437,-544.97 2437,-550.97 2437,-550.97 2437,-572.97 2437,-572.97 2437,-578.97 2431,-584.97 2425,-584.97"/>
<text text-anchor="middle" x="2377.5" y="-565.57" font-family="Helvetica,sans-Serif" font-size="13.00">Measurement</text>
<text text-anchor="middle" x="2377.5" y="-551.57" font-family="Helvetica,sans-Serif" font-size="13.00">Framework</text>
</g>
<!-- marketing_strategy&#45;&gt;measurement_framework -->
<g id="edge11" class="edge">
<title>marketing_strategy&#45;&gt;measurement_framework</title>
<path fill="none" stroke="#222222" stroke-width="1.7" d="M2182.23,-547.11C2219.71,-549.98 2269.83,-553.81 2309.77,-556.87"/>
<polygon fill="#222222" stroke="#222222" stroke-width="1.7" points="2182.35,-544.32 2174.16,-546.5 2181.92,-549.9 2182.35,-544.32"/>
<polygon fill="#222222" stroke="#222222" stroke-width="1.7" points="2309.68,-559.67 2317.87,-557.48 2310.11,-554.08 2309.68,-559.67"/>
</g>
<!-- measurement_framework&#45;&gt;business_context -->
<g id="edge12" class="edge">
<title>measurement_framework&#45;&gt;business_context</title>
<path fill="none" stroke="#222222" stroke-width="1.7" d="M2396.88,-538.74C2440.7,-483.36 2551.3,-343.58 2599.71,-282.41"/>
<polygon fill="#222222" stroke="#222222" stroke-width="1.7" points="2601.97,-284.05 2604.74,-276.04 2597.58,-280.58 2601.97,-284.05"/>
</g>
<!-- keyword_strategy -->
<g id="node9" class="node">
<title>keyword_strategy</title>
<path fill="#dbe7fb" stroke="#2c5fb3" stroke-width="1.1" stroke-dasharray="5,2" d="M1674,-393.97C1674,-393.97 1613,-393.97 1613,-393.97 1607,-393.97 1601,-387.97 1601,-381.97 1601,-381.97 1601,-359.97 1601,-359.97 1601,-353.97 1607,-347.97 1613,-347.97 1613,-347.97 1674,-347.97 1674,-347.97 1680,-347.97 1686,-353.97 1686,-359.97 1686,-359.97 1686,-381.97 1686,-381.97 1686,-387.97 1680,-393.97 1674,-393.97"/>
<text text-anchor="middle" x="1643.5" y="-374.57" font-family="Helvetica,sans-Serif" font-size="13.00">Keyword</text>
<text text-anchor="middle" x="1643.5" y="-360.57" font-family="Helvetica,sans-Serif" font-size="13.00">Strategy</text>
</g>
<!-- keyword_strategy&#45;&gt;audience -->
<g id="edge30" class="edge">
<title>keyword_strategy&#45;&gt;audience</title>
<path fill="none" stroke="#9aa3af" stroke-dasharray="5,2" d="M1686.22,-359.97C1811.78,-326.86 2186.03,-228.19 2324.35,-191.72"/>
<polygon fill="#9aa3af" stroke="#9aa3af" points="2325.31,-194.36 2332.34,-189.61 2323.89,-188.94 2325.31,-194.36"/>
</g>
<!-- keyword_strategy&#45;&gt;keyword -->
<g id="edge29" class="edge">
<title>keyword_strategy&#45;&gt;keyword</title>
<path fill="none" stroke="#9aa3af" stroke-dasharray="5,2" d="M1671.25,-347.77C1706.09,-317.79 1769.14,-264.29 1825,-220.97 1834.48,-213.61 1845.04,-205.85 1854.59,-198.98"/>
<polygon fill="#9aa3af" stroke="#9aa3af" points="1856.47,-201.08 1861.35,-194.15 1853.21,-196.53 1856.47,-201.08"/>
</g>
<!-- offer -->
<g id="node10" class="node">
<title>offer</title>
<path fill="#dbe7fb" stroke="#2c5fb3" stroke-width="2.4" d="M2147.33,-483.97C2147.33,-483.97 2106.67,-483.97 2106.67,-483.97 2101.33,-483.97 2096,-478.63 2096,-473.3 2096,-473.3 2096,-462.63 2096,-462.63 2096,-457.3 2101.33,-451.97 2106.67,-451.97 2106.67,-451.97 2147.33,-451.97 2147.33,-451.97 2152.67,-451.97 2158,-457.3 2158,-462.63 2158,-462.63 2158,-473.3 2158,-473.3 2158,-478.63 2152.67,-483.97 2147.33,-483.97"/>
<text text-anchor="middle" x="2127" y="-464.57" font-family="Helvetica,sans-Serif" font-size="13.00">Offer</text>
</g>
<!-- offer&#45;&gt;business_context -->
<g id="edge15" class="edge">
<title>offer&#45;&gt;business_context</title>
<path fill="none" stroke="#222222" stroke-width="1.7" d="M2151.95,-451.8C2195.05,-423.4 2289.33,-364.4 2376.5,-330.97"/>
</g>
<!-- offer&#45;&gt;product_context -->
<g id="edge13" class="edge">
<title>offer&#45;&gt;product_context</title>
<path fill="none" stroke="#222222" stroke-width="1.7" d="M2146.68,-451.81C2188.65,-415.49 2290.9,-327.03 2343.72,-281.33"/>
<polygon fill="#222222" stroke="#222222" stroke-width="1.7" points="2345.69,-283.33 2349.9,-275.98 2342.02,-279.09 2345.69,-283.33"/>
</g>
<!-- offer&#45;&gt;audience -->
<g id="edge14" class="edge">
<title>offer&#45;&gt;audience</title>
<path fill="none" stroke="#222222" stroke-width="1.7" d="M2136.83,-451.81C2161.07,-408.58 2232.58,-288.32 2318,-211.97 2323.53,-207.02 2329.89,-202.45 2336.34,-198.36"/>
<polygon fill="#222222" stroke="#222222" stroke-width="1.7" points="2337.94,-200.67 2343.33,-194.13 2335.04,-195.88 2337.94,-200.67"/>
</g>
<!-- experiment_strategy -->
<g id="node11" class="node">
<title>experiment_strategy</title>
<path fill="#dbe7fb" stroke="#2c5fb3" stroke-width="1.1" stroke-dasharray="5,2" d="M1431.5,-551.97C1431.5,-551.97 1351.5,-551.97 1351.5,-551.97 1345.5,-551.97 1339.5,-545.97 1339.5,-539.97 1339.5,-539.97 1339.5,-517.97 1339.5,-517.97 1339.5,-511.97 1345.5,-505.97 1351.5,-505.97 1351.5,-505.97 1431.5,-505.97 1431.5,-505.97 1437.5,-505.97 1443.5,-511.97 1443.5,-517.97 1443.5,-517.97 1443.5,-539.97 1443.5,-539.97 1443.5,-545.97 1437.5,-551.97 1431.5,-551.97"/>
<text text-anchor="middle" x="1391.5" y="-532.57" font-family="Helvetica,sans-Serif" font-size="13.00">Experiment</text>
<text text-anchor="middle" x="1391.5" y="-518.57" font-family="Helvetica,sans-Serif" font-size="13.00">Strategy</text>
</g>
<!-- experiment_strategy&#45;&gt;offer -->
<g id="edge31" class="edge">
<title>experiment_strategy&#45;&gt;offer</title>
<path fill="none" stroke="#9aa3af" stroke-dasharray="5,2" d="M1443.54,-516.1C1484.47,-506.41 1543.53,-493.83 1596,-487.97 1746.22,-471.2 1784.99,-486.51 1936,-479.97 1988.5,-477.69 2049.06,-473.62 2087.43,-470.85"/>
<polygon fill="#9aa3af" stroke="#9aa3af" points="2087.97,-473.62 2095.75,-470.25 2087.56,-468.04 2087.97,-473.62"/>
</g>
<!-- campaign_strategy -->
<g id="node12" class="node">
<title>campaign_strategy</title>
<path fill="#dbe7fb" stroke="#2c5fb3" stroke-width="2.4" d="M1679,-551.97C1679,-551.97 1608,-551.97 1608,-551.97 1602,-551.97 1596,-545.97 1596,-539.97 1596,-539.97 1596,-517.97 1596,-517.97 1596,-511.97 1602,-505.97 1608,-505.97 1608,-505.97 1679,-505.97 1679,-505.97 1685,-505.97 1691,-511.97 1691,-517.97 1691,-517.97 1691,-539.97 1691,-539.97 1691,-545.97 1685,-551.97 1679,-551.97"/>
<text text-anchor="middle" x="1643.5" y="-532.57" font-family="Helvetica,sans-Serif" font-size="13.00">Campaign</text>
<text text-anchor="middle" x="1643.5" y="-518.57" font-family="Helvetica,sans-Serif" font-size="13.00">Strategy</text>
</g>
<!-- experiment_strategy&#45;&gt;campaign_strategy -->
<g id="edge32" class="edge">
<title>experiment_strategy&#45;&gt;campaign_strategy</title>
<path fill="none" stroke="#9aa3af" stroke-dasharray="5,2" d="M1443.69,-528.97C1485.57,-528.97 1544.65,-528.97 1587.52,-528.97"/>
<polygon fill="#9aa3af" stroke="#9aa3af" points="1587.6,-531.77 1595.6,-528.97 1587.6,-526.17 1587.6,-531.77"/>
</g>
<!-- creative_strategy -->
<g id="node15" class="node">
<title>creative_strategy</title>
<path fill="#dbe7fb" stroke="#2c5fb3" stroke-width="1.1" stroke-dasharray="5,2" d="M1674,-633.97C1674,-633.97 1613,-633.97 1613,-633.97 1607,-633.97 1601,-627.97 1601,-621.97 1601,-621.97 1601,-599.97 1601,-599.97 1601,-593.97 1607,-587.97 1613,-587.97 1613,-587.97 1674,-587.97 1674,-587.97 1680,-587.97 1686,-593.97 1686,-599.97 1686,-599.97 1686,-621.97 1686,-621.97 1686,-627.97 1680,-633.97 1674,-633.97"/>
<text text-anchor="middle" x="1643.5" y="-614.57" font-family="Helvetica,sans-Serif" font-size="13.00">Creative</text>
<text text-anchor="middle" x="1643.5" y="-600.57" font-family="Helvetica,sans-Serif" font-size="13.00">Strategy</text>
</g>
<!-- experiment_strategy&#45;&gt;creative_strategy -->
<g id="edge33" class="edge">
<title>experiment_strategy&#45;&gt;creative_strategy</title>
<path fill="none" stroke="#9aa3af" stroke-dasharray="5,2" d="M1443.69,-545.76C1487.4,-560.1 1549.86,-580.58 1593.06,-594.75"/>
<polygon fill="#9aa3af" stroke="#9aa3af" points="1592.42,-597.49 1600.89,-597.32 1594.16,-592.17 1592.42,-597.49"/>
</g>
<!-- campaign_strategy&#45;&gt;business_context -->
<g id="edge20" class="edge">
<title>campaign_strategy&#45;&gt;business_context</title>
<path fill="none" stroke="#222222" stroke-width="1.7" d="M1886.5,-602.97C2137.53,-631.65 2243.08,-740.56 2455,-602.97 2568.53,-529.25 2607.33,-355.79 2618.77,-284.45"/>
<polygon fill="#222222" stroke="#222222" stroke-width="1.7" points="2621.58,-284.6 2620.04,-276.27 2616.05,-283.75 2621.58,-284.6"/>
</g>
<!-- campaign_strategy&#45;&gt;audience -->
<g id="edge18" class="edge">
<title>campaign_strategy&#45;&gt;audience</title>
<path fill="none" stroke="#222222" stroke-width="1.7" d="M1653.55,-505.8C1685.48,-424.49 1792.75,-155.68 1825,-129.97 1931.74,-44.89 1994.79,-31.35 2126,-68.97"/>
</g>
<!-- campaign_strategy&#45;&gt;marketing_strategy -->
<g id="edge16" class="edge">
<title>campaign_strategy&#45;&gt;marketing_strategy</title>
<path fill="none" stroke="#222222" stroke-width="1.7" d="M1886.5,-602.97C1951.58,-610.47 2024.31,-587.63 2072.36,-568.01"/>
<polygon fill="#222222" stroke="#222222" stroke-width="1.7" points="2073.55,-570.55 2079.86,-564.89 2071.4,-565.38 2073.55,-570.55"/>
</g>
<!-- campaign_strategy&#45;&gt;measurement_framework -->
<g id="edge21" class="edge">
<title>campaign_strategy&#45;&gt;measurement_framework</title>
<path fill="none" stroke="#222222" stroke-width="1.7" d="M1886.5,-602.97C2037.5,-620.38 2215.5,-593.73 2309.89,-575.9"/>
<polygon fill="#222222" stroke="#222222" stroke-width="1.7" points="2310.59,-578.61 2317.93,-574.36 2309.54,-573.11 2310.59,-578.61"/>
</g>
<!-- campaign_strategy&#45;&gt;offer -->
<g id="edge19" class="edge">
<title>campaign_strategy&#45;&gt;offer</title>
<path fill="none" stroke="#222222" stroke-width="1.7" d="M1691.2,-549.01C1738.77,-568.07 1815.2,-594.98 1884.5,-602.97"/>
<path fill="none" stroke="#222222" stroke-width="1.7" d="M1886.5,-602.97C1909.45,-605.61 2034.7,-527.03 2094.37,-488.57"/>
<polygon fill="#222222" stroke="#222222" stroke-width="1.7" points="2096.1,-490.78 2101.31,-484.09 2093.07,-486.08 2096.1,-490.78"/>
</g>
<!-- journey -->
<g id="node13" class="node">
<title>journey</title>
<path fill="#dbe7fb" stroke="#2c5fb3" stroke-width="2.4" d="M1913.83,-379.97C1913.83,-379.97 1857.17,-379.97 1857.17,-379.97 1851.83,-379.97 1846.5,-374.63 1846.5,-369.3 1846.5,-369.3 1846.5,-358.63 1846.5,-358.63 1846.5,-353.3 1851.83,-347.97 1857.17,-347.97 1857.17,-347.97 1913.83,-347.97 1913.83,-347.97 1919.17,-347.97 1924.5,-353.3 1924.5,-358.63 1924.5,-358.63 1924.5,-369.3 1924.5,-369.3 1924.5,-374.63 1919.17,-379.97 1913.83,-379.97"/>
<text text-anchor="middle" x="1885.5" y="-360.57" font-family="Helvetica,sans-Serif" font-size="13.00">Journey</text>
</g>
<!-- campaign_strategy&#45;&gt;journey -->
<g id="edge17" class="edge">
<title>campaign_strategy&#45;&gt;journey</title>
<path fill="none" stroke="#222222" stroke-width="1.7" d="M1680.58,-500.99C1716.45,-473.62 1773.41,-431.29 1825,-397.97 1832.12,-393.37 1839.89,-388.7 1847.39,-384.35"/>
<polygon fill="#222222" stroke="#222222" stroke-width="1.7" points="1678.79,-498.84 1674.14,-505.92 1682.19,-503.29 1678.79,-498.84"/>
<polygon fill="#222222" stroke="#222222" stroke-width="1.7" points="1849.22,-386.53 1854.77,-380.12 1846.43,-381.67 1849.22,-386.53"/>
</g>
<!-- journey&#45;&gt;business_context -->
<g id="edge25" class="edge">
<title>journey&#45;&gt;business_context</title>
<path fill="none" stroke="#222222" stroke-width="1.7" d="M2128,-322.97C2235.9,-299.12 2273.33,-370.54 2376.5,-330.97"/>
<path fill="none" stroke="#222222" stroke-width="1.7" d="M2378.5,-330.97C2444.84,-305.52 2523.41,-281.51 2573.22,-267.02"/>
<polygon fill="#222222" stroke="#222222" stroke-width="1.7" points="2574.06,-269.7 2580.96,-264.78 2572.5,-264.32 2574.06,-269.7"/>
</g>
<!-- journey&#45;&gt;persona -->
<g id="edge24" class="edge">
<title>journey&#45;&gt;persona</title>
<path fill="none" stroke="#222222" stroke-width="1.7" d="M1911.48,-347.95C1919.42,-342.69 1928.17,-336.71 1936,-330.97 1996.76,-286.39 2064.84,-229.87 2100.72,-199.54"/>
<polygon fill="#222222" stroke="#222222" stroke-width="1.7" points="2102.74,-201.5 2107.03,-194.19 2099.12,-197.23 2102.74,-201.5"/>
</g>
<!-- journey&#45;&gt;audience -->
<g id="edge23" class="edge">
<title>journey&#45;&gt;audience</title>
<path fill="none" stroke="#222222" stroke-width="1.7" d="M1924.88,-358.56C1972.37,-351.6 2055.56,-338.54 2126,-322.97"/>
<path fill="none" stroke="#222222" stroke-width="1.7" d="M2128,-322.97C2223.49,-301.86 2233.5,-261.21 2318,-211.97 2325.69,-207.48 2333.96,-202.68 2341.78,-198.13"/>
<polygon fill="#222222" stroke="#222222" stroke-width="1.7" points="2343.31,-200.48 2348.82,-194.04 2340.49,-195.64 2343.31,-200.48"/>
</g>
<!-- messaging_framework -->
<g id="node14" class="node">
<title>messaging_framework</title>
<path fill="#dbe7fb" stroke="#2c5fb3" stroke-width="2.4" d="M1924,-461.97C1924,-461.97 1847,-461.97 1847,-461.97 1841,-461.97 1835,-455.97 1835,-449.97 1835,-449.97 1835,-427.97 1835,-427.97 1835,-421.97 1841,-415.97 1847,-415.97 1847,-415.97 1924,-415.97 1924,-415.97 1930,-415.97 1936,-421.97 1936,-427.97 1936,-427.97 1936,-449.97 1936,-449.97 1936,-455.97 1930,-461.97 1924,-461.97"/>
<text text-anchor="middle" x="1885.5" y="-442.57" font-family="Helvetica,sans-Serif" font-size="13.00">Messaging</text>
<text text-anchor="middle" x="1885.5" y="-428.57" font-family="Helvetica,sans-Serif" font-size="13.00">Framework</text>
</g>
<!-- messaging_framework&#45;&gt;brand_context -->
<g id="edge28" class="edge">
<title>messaging_framework&#45;&gt;brand_context</title>
<path fill="none" stroke="#222222" stroke-width="1.7" d="M1900.87,-462.13C1929.09,-505.25 1996.34,-597 2080,-635.97 2199.81,-691.77 2248.75,-625.04 2376.5,-658.97"/>
</g>
<!-- messaging_framework&#45;&gt;product_context -->
<g id="edge27" class="edge">
<title>messaging_framework&#45;&gt;product_context</title>
<path fill="none" stroke="#222222" stroke-width="1.7" d="M1936.12,-426.28C1994.06,-410.89 2092.36,-383 2174,-350.97 2228.94,-329.41 2289.57,-299.16 2330.03,-277.99"/>
<polygon fill="#222222" stroke="#222222" stroke-width="1.7" points="2331.57,-280.35 2337.35,-274.15 2328.96,-275.39 2331.57,-280.35"/>
</g>
<!-- messaging_framework&#45;&gt;persona -->
<g id="edge26" class="edge">
<title>messaging_framework&#45;&gt;persona</title>
<path fill="none" stroke="#222222" stroke-width="1.7" d="M1916,-415.9C1922.76,-410.24 1929.78,-404.06 1936,-397.97 2004.64,-330.73 2076.28,-241.81 2108.49,-200.66"/>
<polygon fill="#222222" stroke="#222222" stroke-width="1.7" points="2110.78,-202.27 2113.49,-194.24 2106.36,-198.83 2110.78,-202.27"/>
</g>
<!-- creative_strategy&#45;&gt;brand_context -->
<g id="edge35" class="edge">
<title>creative_strategy&#45;&gt;brand_context</title>
<path fill="none" stroke="#9aa3af" stroke-dasharray="5,2" d="M1686.06,-633.3C1828.78,-706.68 2307.45,-924.93 2623,-732.97"/>
</g>
<!-- creative_strategy&#45;&gt;messaging_framework -->
<g id="edge34" class="edge">
<title>creative_strategy&#45;&gt;messaging_framework</title>
<path fill="none" stroke="#9aa3af" stroke-dasharray="5,2" d="M1676.87,-587.77C1720.65,-556.4 1798.65,-500.5 1845.57,-466.87"/>
<polygon fill="#9aa3af" stroke="#9aa3af" points="1847.39,-469.01 1852.26,-462.07 1844.13,-464.46 1847.39,-469.01"/>
</g>
<!-- content_strategy -->
<g id="node16" class="node">
<title>content_strategy</title>
<path fill="#dbe7fb" stroke="#2c5fb3" stroke-width="1.1" stroke-dasharray="5,2" d="M1422,-469.97C1422,-469.97 1361,-469.97 1361,-469.97 1355,-469.97 1349,-463.97 1349,-457.97 1349,-457.97 1349,-435.97 1349,-435.97 1349,-429.97 1355,-423.97 1361,-423.97 1361,-423.97 1422,-423.97 1422,-423.97 1428,-423.97 1434,-429.97 1434,-435.97 1434,-435.97 1434,-457.97 1434,-457.97 1434,-463.97 1428,-469.97 1422,-469.97"/>
<text text-anchor="middle" x="1391.5" y="-450.57" font-family="Helvetica,sans-Serif" font-size="13.00">Content</text>
<text text-anchor="middle" x="1391.5" y="-436.57" font-family="Helvetica,sans-Serif" font-size="13.00">Strategy</text>
</g>
<!-- content_strategy&#45;&gt;keyword -->
<g id="edge37" class="edge">
<title>content_strategy&#45;&gt;keyword</title>
<path fill="none" stroke="#9aa3af" stroke-dasharray="5,2" d="M1431.65,-423.89C1472.45,-399.97 1538.35,-361.71 1596,-329.97 1684.75,-281.1 1790.41,-226.27 1845.96,-197.7"/>
<polygon fill="#9aa3af" stroke="#9aa3af" points="1847.3,-200.16 1853.13,-194.01 1844.74,-195.18 1847.3,-200.16"/>
</g>
<!-- content_strategy&#45;&gt;creative_strategy -->
<g id="edge36" class="edge">
<title>content_strategy&#45;&gt;creative_strategy</title>
<path fill="none" stroke="#9aa3af" stroke-dasharray="5,2" d="M1434.1,-467.67C1445.88,-473.89 1458.6,-480.93 1470,-487.97 1518.71,-518.03 1571.94,-557 1606.2,-582.93"/>
<polygon fill="#9aa3af" stroke="#9aa3af" points="1604.73,-585.33 1612.79,-587.94 1608.12,-580.87 1604.73,-585.33"/>
</g>
<!-- experience_design -->
<g id="node17" class="node">
<title>experience_design</title>
<path fill="#dbe7fb" stroke="#2c5fb3" stroke-width="1.1" stroke-dasharray="5,2" d="M1430.5,-633.97C1430.5,-633.97 1352.5,-633.97 1352.5,-633.97 1346.5,-633.97 1340.5,-627.97 1340.5,-621.97 1340.5,-621.97 1340.5,-599.97 1340.5,-599.97 1340.5,-593.97 1346.5,-587.97 1352.5,-587.97 1352.5,-587.97 1430.5,-587.97 1430.5,-587.97 1436.5,-587.97 1442.5,-593.97 1442.5,-599.97 1442.5,-599.97 1442.5,-621.97 1442.5,-621.97 1442.5,-627.97 1436.5,-633.97 1430.5,-633.97"/>
<text text-anchor="middle" x="1391.5" y="-614.57" font-family="Helvetica,sans-Serif" font-size="13.00">Experience</text>
<text text-anchor="middle" x="1391.5" y="-600.57" font-family="Helvetica,sans-Serif" font-size="13.00">Design</text>
</g>
<!-- experience_design&#45;&gt;creative_strategy -->
<g id="edge38" class="edge">
<title>experience_design&#45;&gt;creative_strategy</title>
<path fill="none" stroke="#9aa3af" stroke-dasharray="5,2" d="M1442.79,-610.97C1486.46,-610.97 1549.34,-610.97 1592.83,-610.97"/>
<polygon fill="#9aa3af" stroke="#9aa3af" points="1592.98,-613.77 1600.98,-610.97 1592.98,-608.17 1592.98,-613.77"/>
</g>
<!-- experience_specification -->
<g id="node18" class="node">
<title>experience_specification</title>
<path fill="#dbe7fb" stroke="#2c5fb3" stroke-width="1.1" stroke-dasharray="5,2" d="M1175,-462.97C1175,-462.97 1085,-462.97 1085,-462.97 1079,-462.97 1073,-456.97 1073,-450.97 1073,-450.97 1073,-428.97 1073,-428.97 1073,-422.97 1079,-416.97 1085,-416.97 1085,-416.97 1175,-416.97 1175,-416.97 1181,-416.97 1187,-422.97 1187,-428.97 1187,-428.97 1187,-450.97 1187,-450.97 1187,-456.97 1181,-462.97 1175,-462.97"/>
<text text-anchor="middle" x="1130" y="-443.57" font-family="Helvetica,sans-Serif" font-size="13.00">Experience</text>
<text text-anchor="middle" x="1130" y="-429.57" font-family="Helvetica,sans-Serif" font-size="13.00">Specification</text>
</g>
<!-- experience_specification&#45;&gt;campaign_strategy -->
<g id="edge40" class="edge">
<title>experience_specification&#45;&gt;campaign_strategy</title>
<path fill="none" stroke="#9aa3af" stroke-dasharray="5,2" d="M1187.04,-420.84C1255.47,-400.52 1373.95,-375.23 1470,-405.97 1527.64,-424.41 1582.44,-469.96 1614.25,-500.15"/>
<polygon fill="#9aa3af" stroke="#9aa3af" points="1612.59,-502.44 1620.29,-505.97 1616.47,-498.4 1612.59,-502.44"/>
</g>
<!-- experience_specification&#45;&gt;experience_design -->
<g id="edge39" class="edge">
<title>experience_specification&#45;&gt;experience_design</title>
<path fill="none" stroke="#9aa3af" stroke-dasharray="5,2" d="M1160.74,-463.09C1196.1,-490.14 1257.34,-535.58 1313,-569.97 1320.63,-574.68 1328.86,-579.4 1337.01,-583.87"/>
<polygon fill="#9aa3af" stroke="#9aa3af" points="1336.07,-586.55 1344.44,-587.9 1338.74,-581.63 1336.07,-586.55"/>
</g>
<!-- experience_component -->
<g id="node19" class="node">
<title>experience_component</title>
<path fill="#dbe7fb" stroke="#2c5fb3" stroke-width="1.1" stroke-dasharray="5,2" d="M917,-462.97C917,-462.97 836,-462.97 836,-462.97 830,-462.97 824,-456.97 824,-450.97 824,-450.97 824,-428.97 824,-428.97 824,-422.97 830,-416.97 836,-416.97 836,-416.97 917,-416.97 917,-416.97 923,-416.97 929,-422.97 929,-428.97 929,-428.97 929,-450.97 929,-450.97 929,-456.97 923,-462.97 917,-462.97"/>
<text text-anchor="middle" x="876.5" y="-443.57" font-family="Helvetica,sans-Serif" font-size="13.00">Experience</text>
<text text-anchor="middle" x="876.5" y="-429.57" font-family="Helvetica,sans-Serif" font-size="13.00">Component</text>
</g>
<!-- experience_component&#45;&gt;experience_specification -->
<g id="edge41" class="edge">
<title>experience_component&#45;&gt;experience_specification</title>
<path fill="none" stroke="#9aa3af" stroke-dasharray="5,2" d="M929,-439.97C968.21,-439.97 1022.42,-439.97 1064.51,-439.97"/>
<polygon fill="#9aa3af" stroke="#9aa3af" points="1064.76,-442.77 1072.76,-439.97 1064.76,-437.17 1064.76,-442.77"/>
</g>
<!-- experience_delivery -->
<g id="node20" class="node">
<title>experience_delivery</title>
<path fill="#dbe7fb" stroke="#2c5fb3" stroke-width="1.1" stroke-dasharray="5,2" d="M668,-462.97C668,-462.97 590,-462.97 590,-462.97 584,-462.97 578,-456.97 578,-450.97 578,-450.97 578,-428.97 578,-428.97 578,-422.97 584,-416.97 590,-416.97 590,-416.97 668,-416.97 668,-416.97 674,-416.97 680,-422.97 680,-428.97 680,-428.97 680,-450.97 680,-450.97 680,-456.97 674,-462.97 668,-462.97"/>
<text text-anchor="middle" x="629" y="-443.57" font-family="Helvetica,sans-Serif" font-size="13.00">Experience</text>
<text text-anchor="middle" x="629" y="-429.57" font-family="Helvetica,sans-Serif" font-size="13.00">Delivery</text>
</g>
<!-- experience_delivery&#45;&gt;journey -->
<g id="edge45" class="edge">
<title>experience_delivery&#45;&gt;journey</title>
<path fill="none" stroke="#9aa3af" stroke-dasharray="5,2" d="M680.25,-426.84C719.18,-417.28 774.62,-405 824,-398.97 1109.09,-364.15 1184.75,-348.48 1470,-381.97 1527.17,-388.68 1538.83,-405.26 1596,-411.97 1637.93,-416.89 1649.09,-417.09 1691,-411.97 1742.32,-405.7 1799.63,-390.4 1838.47,-378.75"/>
<polygon fill="#9aa3af" stroke="#9aa3af" points="1839.62,-381.32 1846.47,-376.32 1838,-375.97 1839.62,-381.32"/>
</g>
<!-- experience_delivery&#45;&gt;experience_component -->
<g id="edge44" class="edge">
<title>experience_delivery&#45;&gt;experience_component</title>
<path fill="none" stroke="#9aa3af" stroke-dasharray="5,2" d="M680.27,-439.97C719.46,-439.97 774.01,-439.97 815.49,-439.97"/>
<polygon fill="#9aa3af" stroke="#9aa3af" points="815.6,-442.77 823.6,-439.97 815.6,-437.17 815.6,-442.77"/>
</g>
<!-- experience_validation -->
<g id="node21" class="node">
<title>experience_validation</title>
<path fill="#dbe7fb" stroke="#2c5fb3" stroke-width="1.1" stroke-dasharray="5,2" d="M413.5,-494.97C413.5,-494.97 335.5,-494.97 335.5,-494.97 329.5,-494.97 323.5,-488.97 323.5,-482.97 323.5,-482.97 323.5,-460.97 323.5,-460.97 323.5,-454.97 329.5,-448.97 335.5,-448.97 335.5,-448.97 413.5,-448.97 413.5,-448.97 419.5,-448.97 425.5,-454.97 425.5,-460.97 425.5,-460.97 425.5,-482.97 425.5,-482.97 425.5,-488.97 419.5,-494.97 413.5,-494.97"/>
<text text-anchor="middle" x="374.5" y="-475.57" font-family="Helvetica,sans-Serif" font-size="13.00">Experience</text>
<text text-anchor="middle" x="374.5" y="-461.57" font-family="Helvetica,sans-Serif" font-size="13.00">Validation</text>
</g>
<!-- experience_validation&#45;&gt;experience_delivery -->
<g id="edge46" class="edge">
<title>experience_validation&#45;&gt;experience_delivery</title>
<path fill="none" stroke="#9aa3af" stroke-dasharray="5,2" d="M425.69,-465.61C467.25,-460.34 526.36,-452.85 569.95,-447.32"/>
<polygon fill="#9aa3af" stroke="#9aa3af" points="570.32,-450.1 577.91,-446.32 569.62,-444.54 570.32,-450.1"/>
</g>
<!-- campaign_deployment -->
<g id="node22" class="node">
<title>campaign_deployment</title>
<path fill="#dbe7fb" stroke="#2c5fb3" stroke-width="1.1" stroke-dasharray="5,2" d="M417,-412.97C417,-412.97 332,-412.97 332,-412.97 326,-412.97 320,-406.97 320,-400.97 320,-400.97 320,-378.97 320,-378.97 320,-372.97 326,-366.97 332,-366.97 332,-366.97 417,-366.97 417,-366.97 423,-366.97 429,-372.97 429,-378.97 429,-378.97 429,-400.97 429,-400.97 429,-406.97 423,-412.97 417,-412.97"/>
<text text-anchor="middle" x="374.5" y="-393.57" font-family="Helvetica,sans-Serif" font-size="13.00">Campaign</text>
<text text-anchor="middle" x="374.5" y="-379.57" font-family="Helvetica,sans-Serif" font-size="13.00">Deployment</text>
</g>
<!-- campaign_deployment&#45;&gt;experience_delivery -->
<g id="edge47" class="edge">
<title>campaign_deployment&#45;&gt;experience_delivery</title>
<path fill="none" stroke="#9aa3af" stroke-dasharray="5,2" d="M429.05,-400.57C470.39,-408.76 527.51,-420.07 569.95,-428.47"/>
<polygon fill="#9aa3af" stroke="#9aa3af" points="569.57,-431.25 577.96,-430.06 570.66,-425.76 569.57,-431.25"/>
</g>
<!-- personalization_configuration -->
<g id="node23" class="node">
<title>personalization_configuration</title>
<path fill="#ece1f9" stroke="#6b4ca3" stroke-width="1.1" stroke-dasharray="5,2" d="M1440,-160.97C1440,-160.97 1343,-160.97 1343,-160.97 1337,-160.97 1331,-154.97 1331,-148.97 1331,-148.97 1331,-112.97 1331,-112.97 1331,-106.97 1337,-100.97 1343,-100.97 1343,-100.97 1440,-100.97 1440,-100.97 1446,-100.97 1452,-106.97 1452,-112.97 1452,-112.97 1452,-148.97 1452,-148.97 1452,-154.97 1446,-160.97 1440,-160.97"/>
<text text-anchor="middle" x="1391.5" y="-141.57" font-family="Helvetica,sans-Serif" font-size="13.00">Personalizatio</text>
<text text-anchor="middle" x="1391.5" y="-127.57" font-family="Helvetica,sans-Serif" font-size="13.00">n</text>
<text text-anchor="middle" x="1391.5" y="-113.57" font-family="Helvetica,sans-Serif" font-size="13.00">Configuration</text>
</g>
<!-- personalization_configuration&#45;&gt;audience -->
<g id="edge43" class="edge">
<title>personalization_configuration&#45;&gt;audience</title>
<path fill="none" stroke="#9aa3af" stroke-dasharray="5,2" d="M1452.19,-107.7C1534.54,-76.97 1688.35,-24.47 1825,-4.97 1960.4,14.35 1994.95,-29.82 2126,-68.97"/>
<path fill="none" stroke="#9aa3af" stroke-dasharray="5,2" d="M2128,-68.97C2207.81,-88.96 2294.39,-132.41 2341.35,-158"/>
<polygon fill="#9aa3af" stroke="#9aa3af" points="2340.18,-160.55 2348.54,-161.95 2342.88,-155.65 2340.18,-160.55"/>
</g>
<!-- personalization_configuration&#45;&gt;campaign_strategy -->
<g id="edge42" class="edge">
<title>personalization_configuration&#45;&gt;campaign_strategy</title>
<path fill="none" stroke="#9aa3af" stroke-dasharray="5,2" d="M1411.5,-161.21C1457.97,-235.19 1576.98,-424.66 1623.48,-498.69"/>
<polygon fill="#9aa3af" stroke="#9aa3af" points="1621.12,-500.2 1627.75,-505.48 1625.86,-497.22 1621.12,-500.2"/>
</g>
<!-- performance_measurement -->
<g id="node24" class="node">
<title>performance_measurement</title>
<path fill="#fde8c8" stroke="#b87811" stroke-width="1.1" stroke-dasharray="5,2" d="M422,-817.97C422,-817.97 327,-817.97 327,-817.97 321,-817.97 315,-811.97 315,-805.97 315,-805.97 315,-783.97 315,-783.97 315,-777.97 321,-771.97 327,-771.97 327,-771.97 422,-771.97 422,-771.97 428,-771.97 434,-777.97 434,-783.97 434,-783.97 434,-805.97 434,-805.97 434,-811.97 428,-817.97 422,-817.97"/>
<text text-anchor="middle" x="374.5" y="-798.57" font-family="Helvetica,sans-Serif" font-size="13.00">Performance</text>
<text text-anchor="middle" x="374.5" y="-784.57" font-family="Helvetica,sans-Serif" font-size="13.00">Measurement</text>
</g>
<!-- performance_measurement&#45;&gt;measurement_framework -->
<g id="edge50" class="edge">
<title>performance_measurement&#45;&gt;measurement_framework</title>
<path fill="none" stroke="#9aa3af" stroke-dasharray="5,2" d="M414.4,-818.13C454.15,-840.74 518.34,-874.38 578,-892.97 705.74,-932.77 741.71,-938.97 875.5,-938.97 875.5,-938.97 875.5,-938.97 1886.5,-938.97 2000.6,-938.97 2263.16,-678.92 2348.88,-590.78"/>
<polygon fill="#9aa3af" stroke="#9aa3af" points="2350.95,-592.68 2354.51,-584.98 2346.93,-588.78 2350.95,-592.68"/>
</g>
<!-- performance_measurement&#45;&gt;campaign_strategy -->
<g id="edge48" class="edge">
<title>performance_measurement&#45;&gt;campaign_strategy</title>
<path fill="none" stroke="#9aa3af" stroke-dasharray="5,2" d="M434,-794.2C527.35,-793.03 715.77,-790.97 875.5,-790.97 875.5,-790.97 875.5,-790.97 1131,-790.97 1293.84,-790.97 1327.43,-730.65 1470,-651.97 1520.72,-623.98 1574.32,-583.87 1608.07,-557.15"/>
<polygon fill="#9aa3af" stroke="#9aa3af" points="1610.03,-559.17 1614.54,-551.99 1606.54,-554.79 1610.03,-559.17"/>
</g>
<!-- performance_measurement&#45;&gt;experience_delivery -->
<g id="edge49" class="edge">
<title>performance_measurement&#45;&gt;experience_delivery</title>
<path fill="none" stroke="#9aa3af" stroke-dasharray="5,2" d="M392.28,-771.86C407.82,-750.41 431.55,-717.59 452,-688.97 508.34,-610.09 574.12,-516.67 607.02,-469.85"/>
<polygon fill="#9aa3af" stroke="#9aa3af" points="609.51,-471.18 611.82,-463.02 604.93,-467.96 609.51,-471.18"/>
</g>
<!-- customer_insight -->
<g id="node25" class="node">
<title>customer_insight</title>
<path fill="#d8f0d6" stroke="#2e7d32" stroke-width="1.1" stroke-dasharray="5,2" d="M132.5,-858.97C132.5,-858.97 64.5,-858.97 64.5,-858.97 58.5,-858.97 52.5,-852.97 52.5,-846.97 52.5,-846.97 52.5,-824.97 52.5,-824.97 52.5,-818.97 58.5,-812.97 64.5,-812.97 64.5,-812.97 132.5,-812.97 132.5,-812.97 138.5,-812.97 144.5,-818.97 144.5,-824.97 144.5,-824.97 144.5,-846.97 144.5,-846.97 144.5,-852.97 138.5,-858.97 132.5,-858.97"/>
<text text-anchor="middle" x="98.5" y="-839.57" font-family="Helvetica,sans-Serif" font-size="13.00">Customer</text>
<text text-anchor="middle" x="98.5" y="-825.57" font-family="Helvetica,sans-Serif" font-size="13.00">Insight</text>
</g>
<!-- customer_insight&#45;&gt;persona -->
<g id="edge53" class="edge">
<title>customer_insight&#45;&gt;persona</title>
<path fill="none" stroke="#1aa179" stroke-width="1.8" stroke-dasharray="5,2" d="M144.59,-815.36C158.8,-808.85 174.56,-801.62 189,-794.97 237.04,-772.84 245.63,-757.57 297,-744.97 803.89,-620.58 1052.71,-1002.46 1470,-688.97 1608.22,-585.13 1495.37,-461.53 1596,-320.97 1670.88,-216.37 1703.26,-185.53 1825,-143.97 1910.97,-114.62 2017.97,-140.36 2078.48,-160.21"/>
<polygon fill="#1aa179" stroke="#1aa179" stroke-width="1.8" points="2077.87,-162.95 2086.34,-162.84 2079.64,-157.64 2077.87,-162.95"/>
</g>
<!-- customer_insight&#45;&gt;performance_measurement -->
<g id="edge51" class="edge">
<title>customer_insight&#45;&gt;performance_measurement</title>
<path fill="none" stroke="#9aa3af" stroke-dasharray="5,2" d="M144.75,-829.2C188.9,-822.59 256.57,-812.46 306.88,-804.94"/>
<polygon fill="#9aa3af" stroke="#9aa3af" points="307.3,-807.71 314.79,-803.75 306.47,-802.17 307.3,-807.71"/>
</g>
<!-- optimization_recommendation -->
<g id="node26" class="node">
<title>optimization_recommendation</title>
<path fill="#d8f0d6" stroke="#2e7d32" stroke-width="1.1" stroke-dasharray="5,2" d="M159,-776.97C159,-776.97 38,-776.97 38,-776.97 32,-776.97 26,-770.97 26,-764.97 26,-764.97 26,-742.97 26,-742.97 26,-736.97 32,-730.97 38,-730.97 38,-730.97 159,-730.97 159,-730.97 165,-730.97 171,-736.97 171,-742.97 171,-742.97 171,-764.97 171,-764.97 171,-770.97 165,-776.97 159,-776.97"/>
<text text-anchor="middle" x="98.5" y="-757.57" font-family="Helvetica,sans-Serif" font-size="13.00">Optimization</text>
<text text-anchor="middle" x="98.5" y="-743.57" font-family="Helvetica,sans-Serif" font-size="13.00">Recommendation</text>
</g>
<!-- optimization_recommendation&#45;&gt;marketing_strategy -->
<g id="edge54" class="edge">
<title>optimization_recommendation&#45;&gt;marketing_strategy</title>
<path fill="none" stroke="#1aa179" stroke-width="1.8" stroke-dasharray="5,2" d="M103.87,-730.57C118.1,-661.07 169.77,-454.12 297,-348.97 657.58,-50.94 849.28,-135.62 1313,-73.97 1482.32,-51.46 1891.89,-64.18 1936,-96.97 2089.32,-210.94 1973.36,-343.46 2080,-501.97 2082.82,-506.16 2086.17,-510.2 2089.75,-514.01"/>
<polygon fill="#1aa179" stroke="#1aa179" stroke-width="1.8" points="2087.89,-516.11 2095.53,-519.78 2091.85,-512.14 2087.89,-516.11"/>
</g>
<!-- optimization_recommendation&#45;&gt;performance_measurement -->
<g id="edge52" class="edge">
<title>optimization_recommendation&#45;&gt;performance_measurement</title>
<path fill="none" stroke="#9aa3af" stroke-dasharray="5,2" d="M171.13,-764.69C213.05,-770.96 265.64,-778.83 306.7,-784.97"/>
<polygon fill="#9aa3af" stroke="#9aa3af" points="306.42,-787.76 314.75,-786.18 307.25,-782.22 306.42,-787.76"/>
</g>
</g>
</svg>
