<?xml version="1.0" encoding="UTF-8" standalone="no"?>
<!DOCTYPE svg PUBLIC "-//W3C//DTD SVG 1.1//EN"
 "http://www.w3.org/Graphics/SVG/1.1/DTD/svg11.dtd">
<!-- Generated by graphviz version 2.43.0 (0)
 -->
<!-- Title: OSMM Pages: 1 -->
<svg width="2656pt" height="931pt"
 viewBox="0.00 0.00 2656.00 930.73" xmlns="http://www.w3.org/2000/svg" xmlns:xlink="http://www.w3.org/1999/xlink">
<g id="graph0" class="graph" transform="scale(1 1) rotate(0) translate(36 894.73)">
<title>OSMM</title>
<polygon fill="white" stroke="transparent" points="-36,36 -36,-894.73 2620,-894.73 2620,36 -36,36"/>
<text text-anchor="middle" x="1292" y="-835.53" font-family="Helvetica,sans-Serif" font-weight="bold" font-size="24.00">OSMM™ Object Graph — 22 objects, ordered left→right by workflow phase (1→7)</text>
<text text-anchor="middle" x="1292" y="-809.53" font-family="Helvetica,sans-Serif" font-weight="bold" font-size="24.00">solid node = builder shipped (12) &#160;&#160;· &#160;&#160;dashed node = backlog (10) &#160;&#160;· &#160;&#160;node color = category &#160;&#160;· &#160;&#160;solid edge = realized reference &#160;&#160;· &#160;&#160;dashed edge = envisioned &#160;&#160;· &#160;&#160;mint edge = learning loop</text>
<g id="clust1" class="cluster">
<title>cluster_p1</title>
<path fill="#f4f6f9" stroke="#aab3c0" stroke-width="1.5" d="M281.85,-415.73C281.85,-415.73 435.85,-415.73 435.85,-415.73 441.85,-415.73 447.85,-421.73 447.85,-427.73 447.85,-427.73 447.85,-734.73 447.85,-734.73 447.85,-740.73 441.85,-746.73 435.85,-746.73 435.85,-746.73 281.85,-746.73 281.85,-746.73 275.85,-746.73 269.85,-740.73 269.85,-734.73 269.85,-734.73 269.85,-427.73 269.85,-427.73 269.85,-421.73 275.85,-415.73 281.85,-415.73"/>
<text text-anchor="middle" x="358.85" y="-730.73" font-family="Helvetica,sans-Serif" font-weight="bold" font-size="15.00">1 · Define Strategy</text>
</g>
<g id="clust3" class="cluster">
<title>cluster_p2</title>
<path fill="#f4f6f9" stroke="#aab3c0" stroke-width="1.5" d="M589.85,-607.73C589.85,-607.73 747.85,-607.73 747.85,-607.73 753.85,-607.73 759.85,-613.73 759.85,-619.73 759.85,-619.73 759.85,-728.73 759.85,-728.73 759.85,-734.73 753.85,-740.73 747.85,-740.73 747.85,-740.73 589.85,-740.73 589.85,-740.73 583.85,-740.73 577.85,-734.73 577.85,-728.73 577.85,-728.73 577.85,-619.73 577.85,-619.73 577.85,-613.73 583.85,-607.73 589.85,-607.73"/>
<text text-anchor="middle" x="668.85" y="-724.73" font-family="Helvetica,sans-Serif" font-weight="bold" font-size="15.00">2 · Define Audience</text>
</g>
<g id="clust5" class="cluster">
<title>cluster_p3</title>
<path fill="#f4f6f9" stroke="#aab3c0" stroke-width="1.5" d="M901.85,-595.73C901.85,-595.73 1024.85,-595.73 1024.85,-595.73 1030.85,-595.73 1036.85,-601.73 1036.85,-607.73 1036.85,-607.73 1036.85,-728.73 1036.85,-728.73 1036.85,-734.73 1030.85,-740.73 1024.85,-740.73 1024.85,-740.73 901.85,-740.73 901.85,-740.73 895.85,-740.73 889.85,-734.73 889.85,-728.73 889.85,-728.73 889.85,-607.73 889.85,-607.73 889.85,-601.73 895.85,-595.73 901.85,-595.73"/>
<text text-anchor="middle" x="963.35" y="-724.73" font-family="Helvetica,sans-Serif" font-weight="bold" font-size="15.00">3 · Define Offer</text>
</g>
<g id="clust7" class="cluster">
<title>cluster_p4</title>
<path fill="#f4f6f9" stroke="#aab3c0" stroke-width="1.5" d="M1178.85,-439.73C1178.85,-439.73 1369.85,-439.73 1369.85,-439.73 1375.85,-439.73 1381.85,-445.73 1381.85,-451.73 1381.85,-451.73 1381.85,-572.73 1381.85,-572.73 1381.85,-578.73 1375.85,-584.73 1369.85,-584.73 1369.85,-584.73 1178.85,-584.73 1178.85,-584.73 1172.85,-584.73 1166.85,-578.73 1166.85,-572.73 1166.85,-572.73 1166.85,-451.73 1166.85,-451.73 1166.85,-445.73 1172.85,-439.73 1178.85,-439.73"/>
<text text-anchor="middle" x="1274.35" y="-568.73" font-family="Helvetica,sans-Serif" font-weight="bold" font-size="15.00">4 · Campaign &amp; Journey</text>
</g>
<g id="clust9" class="cluster">
<title>cluster_p5</title>
<path fill="#f4f6f9" stroke="#aab3c0" stroke-width="1.5" d="M1523.85,-427.73C1523.85,-427.73 1706.85,-427.73 1706.85,-427.73 1712.85,-427.73 1718.85,-433.73 1718.85,-439.73 1718.85,-439.73 1718.85,-572.73 1718.85,-572.73 1718.85,-578.73 1712.85,-584.73 1706.85,-584.73 1706.85,-584.73 1523.85,-584.73 1523.85,-584.73 1517.85,-584.73 1511.85,-578.73 1511.85,-572.73 1511.85,-572.73 1511.85,-439.73 1511.85,-439.73 1511.85,-433.73 1517.85,-427.73 1523.85,-427.73"/>
<text text-anchor="middle" x="1615.35" y="-568.73" font-family="Helvetica,sans-Serif" font-weight="bold" font-size="15.00">5 · Content &amp; Creative</text>
</g>
<g id="clust11" class="cluster">
<title>cluster_p6</title>
<path fill="#f4f6f9" stroke="#aab3c0" stroke-width="1.5" d="M1860.85,-371.73C1860.85,-371.73 2007.85,-371.73 2007.85,-371.73 2013.85,-371.73 2019.85,-377.73 2019.85,-383.73 2019.85,-383.73 2019.85,-778.73 2019.85,-778.73 2019.85,-784.73 2013.85,-790.73 2007.85,-790.73 2007.85,-790.73 1860.85,-790.73 1860.85,-790.73 1854.85,-790.73 1848.85,-784.73 1848.85,-778.73 1848.85,-778.73 1848.85,-383.73 1848.85,-383.73 1848.85,-377.73 1854.85,-371.73 1860.85,-371.73"/>
<text text-anchor="middle" x="1934.35" y="-774.73" font-family="Helvetica,sans-Serif" font-weight="bold" font-size="15.00">6 · Build &amp; Deliver</text>
</g>
<g id="clust13" class="cluster">
<title>cluster_p7</title>
<path fill="#f4f6f9" stroke="#aab3c0" stroke-width="1.5" d="M2161.85,-571.73C2161.85,-571.73 2412.85,-571.73 2412.85,-571.73 2418.85,-571.73 2424.85,-577.73 2424.85,-583.73 2424.85,-583.73 2424.85,-778.73 2424.85,-778.73 2424.85,-784.73 2418.85,-790.73 2412.85,-790.73 2412.85,-790.73 2161.85,-790.73 2161.85,-790.73 2155.85,-790.73 2149.85,-784.73 2149.85,-778.73 2149.85,-778.73 2149.85,-583.73 2149.85,-583.73 2149.85,-577.73 2155.85,-571.73 2161.85,-571.73"/>
<text text-anchor="middle" x="2287.35" y="-774.73" font-family="Helvetica,sans-Serif" font-weight="bold" font-size="15.00">7 · Measure, Learn &amp; Optimize</text>
</g>
<!-- business_context -->
<g id="node1" class="node">
<title>business_context</title>
<path fill="#d4f2ec" stroke="#0f1b35" stroke-width="2.4" d="M388.35,-707.73C388.35,-707.73 329.35,-707.73 329.35,-707.73 323.35,-707.73 317.35,-701.73 317.35,-695.73 317.35,-695.73 317.35,-677.73 317.35,-677.73 317.35,-671.73 323.35,-665.73 329.35,-665.73 329.35,-665.73 388.35,-665.73 388.35,-665.73 394.35,-665.73 400.35,-671.73 400.35,-677.73 400.35,-677.73 400.35,-695.73 400.35,-695.73 400.35,-701.73 394.35,-707.73 388.35,-707.73"/>
<text text-anchor="middle" x="358.85" y="-690.73" font-family="Helvetica,sans-Serif" font-size="12.50">Business</text>
<text text-anchor="middle" x="358.85" y="-676.73" font-family="Helvetica,sans-Serif" font-size="12.50">Context</text>
</g>
<!-- brand_context -->
<g id="node2" class="node">
<title>brand_context</title>
<path fill="#d4f2ec" stroke="#0f1b35" stroke-width="2.4" d="M407.85,-645.73C407.85,-645.73 309.85,-645.73 309.85,-645.73 304.85,-645.73 299.85,-640.73 299.85,-635.73 299.85,-635.73 299.85,-625.73 299.85,-625.73 299.85,-620.73 304.85,-615.73 309.85,-615.73 309.85,-615.73 407.85,-615.73 407.85,-615.73 412.85,-615.73 417.85,-620.73 417.85,-625.73 417.85,-625.73 417.85,-635.73 417.85,-635.73 417.85,-640.73 412.85,-645.73 407.85,-645.73"/>
<text text-anchor="middle" x="358.85" y="-627.73" font-family="Helvetica,sans-Serif" font-size="12.50">Brand Context</text>
</g>
<!-- business_context&#45;&gt;brand_context -->
<g id="edge7" class="edge">
<title>business_context&#45;&gt;brand_context</title>
<path fill="none" stroke="#222222" stroke-width="1.6" d="M358.85,-657.68C358.85,-656.32 358.85,-654.97 358.85,-653.61"/>
<polygon fill="#222222" stroke="#222222" stroke-width="1.6" points="356.23,-657.93 358.85,-665.43 361.48,-657.93 356.23,-657.93"/>
<polygon fill="#222222" stroke="#222222" stroke-width="1.6" points="361.48,-653.54 358.85,-646.04 356.23,-653.54 361.48,-653.54"/>
</g>
<!-- persona -->
<g id="node6" class="node">
<title>persona</title>
<path fill="#d4f2ec" stroke="#0f1b35" stroke-width="2.4" d="M696.35,-701.73C696.35,-701.73 640.35,-701.73 640.35,-701.73 635.35,-701.73 630.35,-696.73 630.35,-691.73 630.35,-691.73 630.35,-681.73 630.35,-681.73 630.35,-676.73 635.35,-671.73 640.35,-671.73 640.35,-671.73 696.35,-671.73 696.35,-671.73 701.35,-671.73 706.35,-676.73 706.35,-681.73 706.35,-681.73 706.35,-691.73 706.35,-691.73 706.35,-696.73 701.35,-701.73 696.35,-701.73"/>
<text text-anchor="middle" x="668.35" y="-683.73" font-family="Helvetica,sans-Serif" font-size="12.50">Persona</text>
</g>
<!-- business_context&#45;&gt;persona -->
<!-- product_context -->
<g id="node3" class="node">
<title>product_context</title>
<path fill="#d4f2ec" stroke="#0f1b35" stroke-width="2.4" d="M385.35,-595.73C385.35,-595.73 332.35,-595.73 332.35,-595.73 326.35,-595.73 320.35,-589.73 320.35,-583.73 320.35,-583.73 320.35,-565.73 320.35,-565.73 320.35,-559.73 326.35,-553.73 332.35,-553.73 332.35,-553.73 385.35,-553.73 385.35,-553.73 391.35,-553.73 397.35,-559.73 397.35,-565.73 397.35,-565.73 397.35,-583.73 397.35,-583.73 397.35,-589.73 391.35,-595.73 385.35,-595.73"/>
<text text-anchor="middle" x="358.85" y="-578.73" font-family="Helvetica,sans-Serif" font-size="12.50">Product</text>
<text text-anchor="middle" x="358.85" y="-564.73" font-family="Helvetica,sans-Serif" font-size="12.50">Context</text>
</g>
<!-- product_context&#45;&gt;business_context -->
<g id="edge8" class="edge">
<title>product_context&#45;&gt;business_context</title>
<path fill="none" stroke="#222222" stroke-width="1.6" d="M319.88,-577.36C259.65,-582.92 154.48,-599.41 190.85,-645.73 218.41,-680.81 270.57,-688.98 309.5,-689.66"/>
<polygon fill="#222222" stroke="#222222" stroke-width="1.6" points="309.58,-692.29 317.1,-689.7 309.61,-687.04 309.58,-692.29"/>
</g>
<!-- product_context&#45;&gt;brand_context -->
<g id="edge9" class="edge">
<title>product_context&#45;&gt;brand_context</title>
<path fill="none" stroke="#222222" stroke-width="1.6" d="M358.85,-596.17C358.85,-600.11 358.85,-604.06 358.85,-608.01"/>
<polygon fill="#222222" stroke="#222222" stroke-width="1.6" points="356.23,-608.11 358.85,-615.61 361.48,-608.11 356.23,-608.11"/>
</g>
<!-- marketing_strategy -->
<g id="node4" class="node">
<title>marketing_strategy</title>
<path fill="#dbe7fb" stroke="#2c5fb3" stroke-width="2.4" d="M391.85,-533.73C391.85,-533.73 325.85,-533.73 325.85,-533.73 319.85,-533.73 313.85,-527.73 313.85,-521.73 313.85,-521.73 313.85,-503.73 313.85,-503.73 313.85,-497.73 319.85,-491.73 325.85,-491.73 325.85,-491.73 391.85,-491.73 391.85,-491.73 397.85,-491.73 403.85,-497.73 403.85,-503.73 403.85,-503.73 403.85,-521.73 403.85,-521.73 403.85,-527.73 397.85,-533.73 391.85,-533.73"/>
<text text-anchor="middle" x="358.85" y="-516.73" font-family="Helvetica,sans-Serif" font-size="12.50">Marketing</text>
<text text-anchor="middle" x="358.85" y="-502.73" font-family="Helvetica,sans-Serif" font-size="12.50">Strategy</text>
</g>
<!-- marketing_strategy&#45;&gt;business_context -->
<g id="edge12" class="edge">
<title>marketing_strategy&#45;&gt;business_context</title>
<path fill="none" stroke="#222222" stroke-width="1.6" d="M313.69,-509.75C274.4,-509.91 219.41,-517.37 190.85,-553.73 165.6,-585.89 165.6,-613.57 190.85,-645.73 218.41,-680.81 270.57,-688.98 309.5,-689.66"/>
<polygon fill="#222222" stroke="#222222" stroke-width="1.6" points="309.58,-692.29 317.1,-689.7 309.61,-687.04 309.58,-692.29"/>
</g>
<!-- marketing_strategy&#45;&gt;brand_context -->
<g id="edge13" class="edge">
<title>marketing_strategy&#45;&gt;brand_context</title>
<path fill="none" stroke="#222222" stroke-width="1.6" d="M313.69,-509.75C274.4,-509.91 219.41,-517.37 190.85,-553.73 179.32,-568.41 179.08,-581.24 190.85,-595.73 214.72,-625.08 256.24,-633.92 292.03,-635.38"/>
<polygon fill="#222222" stroke="#222222" stroke-width="1.6" points="292,-638.01 299.57,-635.59 292.14,-632.76 292,-638.01"/>
</g>
<!-- measurement_framework -->
<g id="node5" class="node">
<title>measurement_framework</title>
<path fill="#dbe7fb" stroke="#2c5fb3" stroke-width="2.4" d="M402.85,-471.73C402.85,-471.73 314.85,-471.73 314.85,-471.73 308.85,-471.73 302.85,-465.73 302.85,-459.73 302.85,-459.73 302.85,-441.73 302.85,-441.73 302.85,-435.73 308.85,-429.73 314.85,-429.73 314.85,-429.73 402.85,-429.73 402.85,-429.73 408.85,-429.73 414.85,-435.73 414.85,-441.73 414.85,-441.73 414.85,-459.73 414.85,-459.73 414.85,-465.73 408.85,-471.73 402.85,-471.73"/>
<text text-anchor="middle" x="358.85" y="-454.73" font-family="Helvetica,sans-Serif" font-size="12.50">Measurement</text>
<text text-anchor="middle" x="358.85" y="-440.73" font-family="Helvetica,sans-Serif" font-size="12.50">Framework</text>
</g>
<!-- marketing_strategy&#45;&gt;measurement_framework -->
<g id="edge15" class="edge">
<title>marketing_strategy&#45;&gt;measurement_framework</title>
<path fill="none" stroke="#222222" stroke-width="1.6" d="M358.85,-483.68C358.85,-482.32 358.85,-480.97 358.85,-479.61"/>
<polygon fill="#222222" stroke="#222222" stroke-width="1.6" points="356.23,-483.93 358.85,-491.43 361.48,-483.93 356.23,-483.93"/>
<polygon fill="#222222" stroke="#222222" stroke-width="1.6" points="361.48,-479.54 358.85,-472.04 356.23,-479.54 361.48,-479.54"/>
</g>
<!-- audience -->
<g id="node7" class="node">
<title>audience</title>
<path fill="#d4f2ec" stroke="#0f1b35" stroke-width="2.4" d="M700.85,-651.73C700.85,-651.73 635.85,-651.73 635.85,-651.73 630.85,-651.73 625.85,-646.73 625.85,-641.73 625.85,-641.73 625.85,-631.73 625.85,-631.73 625.85,-626.73 630.85,-621.73 635.85,-621.73 635.85,-621.73 700.85,-621.73 700.85,-621.73 705.85,-621.73 710.85,-626.73 710.85,-631.73 710.85,-631.73 710.85,-641.73 710.85,-641.73 710.85,-646.73 705.85,-651.73 700.85,-651.73"/>
<text text-anchor="middle" x="668.35" y="-633.73" font-family="Helvetica,sans-Serif" font-size="12.50">Audience</text>
</g>
<!-- marketing_strategy&#45;&gt;audience -->
<g id="edge14" class="edge">
<title>marketing_strategy&#45;&gt;audience</title>
<path fill="none" stroke="#222222" stroke-width="1.6" d="M403.92,-527.65C418.02,-532.58 433.66,-538.23 447.85,-543.73 510.73,-568.1 582.48,-599.12 626.34,-618.45"/>
<polygon fill="#222222" stroke="#222222" stroke-width="1.6" points="625.48,-620.94 633.4,-621.57 627.6,-616.14 625.48,-620.94"/>
</g>
<!-- measurement_framework&#45;&gt;business_context -->
<g id="edge16" class="edge">
<title>measurement_framework&#45;&gt;business_context</title>
<path fill="none" stroke="#222222" stroke-width="1.6" d="M302.62,-447.99C264.62,-449.51 216.81,-458.67 190.85,-491.73 148.58,-545.56 148.58,-591.9 190.85,-645.73 218.41,-680.81 270.57,-688.98 309.5,-689.66"/>
<polygon fill="#222222" stroke="#222222" stroke-width="1.6" points="309.58,-692.29 317.1,-689.7 309.61,-687.04 309.58,-692.29"/>
</g>
<!-- persona&#45;&gt;audience -->
<g id="edge10" class="edge">
<title>persona&#45;&gt;audience</title>
<path fill="none" stroke="#222222" stroke-width="1.6" d="M668.35,-663.7C668.35,-662.33 668.35,-660.97 668.35,-659.6"/>
<polygon fill="#222222" stroke="#222222" stroke-width="1.6" points="665.73,-664.02 668.35,-671.52 670.98,-664.02 665.73,-664.02"/>
<polygon fill="#222222" stroke="#222222" stroke-width="1.6" points="670.98,-659.46 668.35,-651.96 665.73,-659.46 670.98,-659.46"/>
</g>
<!-- offer -->
<g id="node8" class="node">
<title>offer</title>
<path fill="#dbe7fb" stroke="#2c5fb3" stroke-width="2.4" d="M981.35,-701.73C981.35,-701.73 944.35,-701.73 944.35,-701.73 939.35,-701.73 934.35,-696.73 934.35,-691.73 934.35,-691.73 934.35,-681.73 934.35,-681.73 934.35,-676.73 939.35,-671.73 944.35,-671.73 944.35,-671.73 981.35,-671.73 981.35,-671.73 986.35,-671.73 991.35,-676.73 991.35,-681.73 991.35,-681.73 991.35,-691.73 991.35,-691.73 991.35,-696.73 986.35,-701.73 981.35,-701.73"/>
<text text-anchor="middle" x="962.85" y="-683.73" font-family="Helvetica,sans-Serif" font-size="12.50">Offer</text>
</g>
<!-- persona&#45;&gt;offer -->
<!-- audience&#45;&gt;business_context -->
<g id="edge11" class="edge">
<title>audience&#45;&gt;business_context</title>
<path fill="none" stroke="#222222" stroke-width="1.6" d="M625.76,-643.49C569.05,-652.71 467.67,-669.2 407.81,-678.93"/>
<polygon fill="#222222" stroke="#222222" stroke-width="1.6" points="407.35,-676.34 400.37,-680.14 408.19,-681.53 407.35,-676.34"/>
</g>
<!-- offer&#45;&gt;business_context -->
<g id="edge19" class="edge">
<title>offer&#45;&gt;business_context</title>
<path fill="none" stroke="#222222" stroke-width="1.6" d="M934.28,-677.82C920.78,-673.29 904.35,-667.52 889.85,-661.73 830.93,-638.19 821.87,-616.14 759.85,-602.73 680.79,-585.63 657.23,-587.17 577.85,-602.73 516.62,-614.73 506.18,-633.58 447.85,-655.73 434.95,-660.63 420.88,-665.7 407.86,-670.29"/>
<polygon fill="#222222" stroke="#222222" stroke-width="1.6" points="406.96,-667.82 400.75,-672.78 408.69,-672.78 406.96,-667.82"/>
</g>
<!-- offer&#45;&gt;product_context -->
<g id="edge17" class="edge">
<title>offer&#45;&gt;product_context</title>
<path fill="none" stroke="#222222" stroke-width="1.6" d="M934.33,-678.61C920.7,-674.22 904.14,-668.36 889.85,-661.73 828.94,-633.46 824.39,-603.28 759.85,-584.73 635.44,-548.97 480.2,-559.97 404.94,-568.61"/>
<polygon fill="#222222" stroke="#222222" stroke-width="1.6" points="404.61,-566 397.47,-569.48 405.23,-571.21 404.61,-566"/>
</g>
<!-- offer&#45;&gt;audience -->
<g id="edge18" class="edge">
<title>offer&#45;&gt;audience</title>
<path fill="none" stroke="#222222" stroke-width="1.6" d="M934,-681.97C884.48,-673.5 780.51,-655.73 718.65,-645.15"/>
<polygon fill="#222222" stroke="#222222" stroke-width="1.6" points="718.78,-642.51 710.95,-643.84 717.9,-647.69 718.78,-642.51"/>
</g>
<!-- campaign_strategy -->
<g id="node10" class="node">
<title>campaign_strategy</title>
<path fill="#dbe7fb" stroke="#2c5fb3" stroke-width="2.4" d="M1307.85,-545.73C1307.85,-545.73 1240.85,-545.73 1240.85,-545.73 1234.85,-545.73 1228.85,-539.73 1228.85,-533.73 1228.85,-533.73 1228.85,-515.73 1228.85,-515.73 1228.85,-509.73 1234.85,-503.73 1240.85,-503.73 1240.85,-503.73 1307.85,-503.73 1307.85,-503.73 1313.85,-503.73 1319.85,-509.73 1319.85,-515.73 1319.85,-515.73 1319.85,-533.73 1319.85,-533.73 1319.85,-539.73 1313.85,-545.73 1307.85,-545.73"/>
<text text-anchor="middle" x="1274.35" y="-528.73" font-family="Helvetica,sans-Serif" font-size="12.50">Campaign</text>
<text text-anchor="middle" x="1274.35" y="-514.73" font-family="Helvetica,sans-Serif" font-size="12.50">Strategy</text>
</g>
<!-- offer&#45;&gt;campaign_strategy -->
<!-- experiment_strategy -->
<g id="node9" class="node">
<title>experiment_strategy</title>
<path fill="#dbe7fb" stroke="#2c5fb3" stroke-width="1.1" stroke-dasharray="5,2" d="M1000.85,-651.73C1000.85,-651.73 924.85,-651.73 924.85,-651.73 918.85,-651.73 912.85,-645.73 912.85,-639.73 912.85,-639.73 912.85,-621.73 912.85,-621.73 912.85,-615.73 918.85,-609.73 924.85,-609.73 924.85,-609.73 1000.85,-609.73 1000.85,-609.73 1006.85,-609.73 1012.85,-615.73 1012.85,-621.73 1012.85,-621.73 1012.85,-639.73 1012.85,-639.73 1012.85,-645.73 1006.85,-651.73 1000.85,-651.73"/>
<text text-anchor="middle" x="962.85" y="-634.73" font-family="Helvetica,sans-Serif" font-size="12.50">Experiment</text>
<text text-anchor="middle" x="962.85" y="-620.73" font-family="Helvetica,sans-Serif" font-size="12.50">Strategy</text>
</g>
<!-- experiment_strategy&#45;&gt;offer -->
<g id="edge36" class="edge">
<title>experiment_strategy&#45;&gt;offer</title>
<path fill="none" stroke="#9aa3af" stroke-dasharray="5,2" d="M962.85,-652.17C962.85,-656.11 962.85,-660.06 962.85,-664.01"/>
<polygon fill="#9aa3af" stroke="#9aa3af" points="960.23,-664.11 962.85,-671.61 965.48,-664.11 960.23,-664.11"/>
</g>
<!-- experiment_strategy&#45;&gt;campaign_strategy -->
<g id="edge37" class="edge">
<title>experiment_strategy&#45;&gt;campaign_strategy</title>
<path fill="none" stroke="#9aa3af" stroke-dasharray="5,2" d="M1012.89,-613.93C1069.78,-594.45 1163.16,-562.47 1221.3,-542.56"/>
<polygon fill="#9aa3af" stroke="#9aa3af" points="1222.32,-544.98 1228.56,-540.07 1220.61,-540.02 1222.32,-544.98"/>
</g>
<!-- creative_strategy -->
<g id="node12" class="node">
<title>creative_strategy</title>
<path fill="#dbe7fb" stroke="#2c5fb3" stroke-width="2.4" d="M1643.85,-545.73C1643.85,-545.73 1586.85,-545.73 1586.85,-545.73 1580.85,-545.73 1574.85,-539.73 1574.85,-533.73 1574.85,-533.73 1574.85,-515.73 1574.85,-515.73 1574.85,-509.73 1580.85,-503.73 1586.85,-503.73 1586.85,-503.73 1643.85,-503.73 1643.85,-503.73 1649.85,-503.73 1655.85,-509.73 1655.85,-515.73 1655.85,-515.73 1655.85,-533.73 1655.85,-533.73 1655.85,-539.73 1649.85,-545.73 1643.85,-545.73"/>
<text text-anchor="middle" x="1615.35" y="-528.73" font-family="Helvetica,sans-Serif" font-size="12.50">Creative</text>
<text text-anchor="middle" x="1615.35" y="-514.73" font-family="Helvetica,sans-Serif" font-size="12.50">Strategy</text>
</g>
<!-- experiment_strategy&#45;&gt;creative_strategy -->
<g id="edge38" class="edge">
<title>experiment_strategy&#45;&gt;creative_strategy</title>
<path fill="none" stroke="#9aa3af" stroke-dasharray="5,2" d="M977.41,-609.4C1006.13,-566.48 1077.82,-470.69 1166.85,-434.73 1255.45,-398.94 1288.46,-414.53 1381.85,-434.73 1443.87,-448.14 1452.47,-471.38 1511.85,-493.73 1529.67,-500.43 1549.62,-506.73 1567.16,-511.88"/>
<polygon fill="#9aa3af" stroke="#9aa3af" points="1566.58,-514.44 1574.52,-514.01 1568.05,-509.4 1566.58,-514.44"/>
</g>
<!-- campaign_strategy&#45;&gt;business_context -->
<g id="edge24" class="edge">
<title>campaign_strategy&#45;&gt;business_context</title>
<path fill="none" stroke="#222222" stroke-width="1.6" d="M1228.63,-522.33C1116.4,-517.63 814.85,-513.24 577.85,-584.73 514.82,-603.74 507.98,-628.93 447.85,-655.73 435.12,-661.4 421,-666.77 407.87,-671.39"/>
<polygon fill="#222222" stroke="#222222" stroke-width="1.6" points="406.92,-668.94 400.69,-673.87 408.64,-673.9 406.92,-668.94"/>
</g>
<!-- campaign_strategy&#45;&gt;marketing_strategy -->
<g id="edge20" class="edge">
<title>campaign_strategy&#45;&gt;marketing_strategy</title>
<path fill="none" stroke="#222222" stroke-width="1.6" d="M1228.79,-519.32C1208.3,-515.04 1184.64,-507.4 1166.85,-493.73 1078.3,-425.7 1134.12,-333.58 1036.85,-278.73 948.01,-228.62 667.34,-229.77 577.85,-278.73 483.86,-330.15 531.83,-415.2 447.85,-481.73 437.14,-490.21 423.93,-496.47 411.03,-501.05"/>
<polygon fill="#222222" stroke="#222222" stroke-width="1.6" points="410.2,-498.56 403.92,-503.43 411.86,-503.54 410.2,-498.56"/>
</g>
<!-- campaign_strategy&#45;&gt;measurement_framework -->
<g id="edge25" class="edge">
<title>campaign_strategy&#45;&gt;measurement_framework</title>
<path fill="none" stroke="#222222" stroke-width="1.6" d="M1228.62,-519.93C1207.96,-515.79 1184.22,-508.08 1166.85,-493.73 1069.09,-412.96 1144.8,-306.28 1036.85,-239.73 997.65,-215.56 622.07,-219.71 577.85,-237.73 484.72,-275.67 409.71,-374.68 377.25,-423.17"/>
<polygon fill="#222222" stroke="#222222" stroke-width="1.6" points="374.91,-421.96 372.96,-429.66 379.29,-424.85 374.91,-421.96"/>
</g>
<!-- campaign_strategy&#45;&gt;audience -->
<g id="edge22" class="edge">
<title>campaign_strategy&#45;&gt;audience</title>
<path fill="none" stroke="#222222" stroke-width="1.6" d="M1228.68,-531.89C1157.05,-543.5 1012.13,-567.46 889.85,-590.73 830.84,-601.96 763.25,-616.27 718.63,-625.93"/>
<polygon fill="#222222" stroke="#222222" stroke-width="1.6" points="717.9,-623.4 711.13,-627.56 719.01,-628.53 717.9,-623.4"/>
</g>
<!-- campaign_strategy&#45;&gt;offer -->
<g id="edge23" class="edge">
<title>campaign_strategy&#45;&gt;offer</title>
<path fill="none" stroke="#222222" stroke-width="1.6" d="M1229.83,-545.97C1183.4,-573.17 1107.02,-619.76 1036.85,-651.73 1023.07,-658.01 1007.22,-663.62 993.82,-668.78"/>
<polygon fill="#222222" stroke="#222222" stroke-width="1.6" points="992.67,-666.42 986.66,-671.61 994.6,-671.3 992.67,-666.42"/>
</g>
<!-- journey -->
<g id="node11" class="node">
<title>journey</title>
<path fill="#dbe7fb" stroke="#2c5fb3" stroke-width="2.4" d="M1301.85,-483.73C1301.85,-483.73 1246.85,-483.73 1246.85,-483.73 1241.85,-483.73 1236.85,-478.73 1236.85,-473.73 1236.85,-473.73 1236.85,-463.73 1236.85,-463.73 1236.85,-458.73 1241.85,-453.73 1246.85,-453.73 1246.85,-453.73 1301.85,-453.73 1301.85,-453.73 1306.85,-453.73 1311.85,-458.73 1311.85,-463.73 1311.85,-463.73 1311.85,-473.73 1311.85,-473.73 1311.85,-478.73 1306.85,-483.73 1301.85,-483.73"/>
<text text-anchor="middle" x="1274.35" y="-465.73" font-family="Helvetica,sans-Serif" font-size="12.50">Journey</text>
</g>
<!-- campaign_strategy&#45;&gt;journey -->
<g id="edge21" class="edge">
<title>campaign_strategy&#45;&gt;journey</title>
<path fill="none" stroke="#222222" stroke-width="1.6" d="M1300.87,-503.43C1302.95,-499.09 1303.01,-494.75 1301.04,-490.4"/>
<polygon fill="#222222" stroke="#222222" stroke-width="1.6" points="1303.1,-488.76 1296.7,-484.04 1298.76,-491.72 1303.1,-488.76"/>
</g>
<!-- campaign_strategy&#45;&gt;creative_strategy -->
<!-- journey&#45;&gt;business_context -->
<g id="edge29" class="edge">
<title>journey&#45;&gt;business_context</title>
<path fill="none" stroke="#222222" stroke-width="1.6" d="M1236.66,-464.94C1129.75,-455.45 811.27,-438.25 577.85,-540.73 507.22,-571.74 514.35,-616.63 447.85,-655.73 435.6,-662.93 421.41,-668.84 408.04,-673.49"/>
<polygon fill="#222222" stroke="#222222" stroke-width="1.6" points="407,-671.07 400.72,-675.95 408.67,-676.05 407,-671.07"/>
</g>
<!-- journey&#45;&gt;persona -->
<g id="edge28" class="edge">
<title>journey&#45;&gt;persona</title>
<path fill="none" stroke="#222222" stroke-width="1.6" d="M1236.63,-476.34C1215.98,-480.87 1189.83,-487.03 1166.85,-493.73 1041.63,-530.24 1009.04,-537.73 889.85,-590.73 829.7,-617.47 820.87,-637.02 759.85,-661.73 745.31,-667.61 728.92,-672.61 714.12,-676.55"/>
<polygon fill="#222222" stroke="#222222" stroke-width="1.6" points="713.14,-674.09 706.54,-678.51 714.46,-679.17 713.14,-674.09"/>
</g>
<!-- journey&#45;&gt;audience -->
<g id="edge27" class="edge">
<title>journey&#45;&gt;audience</title>
<path fill="none" stroke="#222222" stroke-width="1.6" d="M1236.76,-464.64C1167.13,-458.19 1011.67,-450.21 889.85,-490.73 808.39,-517.82 728.28,-583.23 691.02,-616.53"/>
<polygon fill="#222222" stroke="#222222" stroke-width="1.6" points="689.22,-614.61 685.41,-621.59 692.74,-618.51 689.22,-614.61"/>
</g>
<!-- journey&#45;&gt;campaign_strategy -->
<g id="edge26" class="edge">
<title>journey&#45;&gt;campaign_strategy</title>
<path fill="none" stroke="#222222" stroke-width="1.6" d="M1252,-484.04C1248.42,-487.98 1246.5,-491.92 1246.25,-495.86"/>
<polygon fill="#222222" stroke="#222222" stroke-width="1.6" points="1243.73,-496.63 1247.84,-503.43 1248.87,-495.55 1243.73,-496.63"/>
</g>
<!-- creative_strategy&#45;&gt;business_context -->
<g id="edge32" class="edge">
<title>creative_strategy&#45;&gt;business_context</title>
<path fill="none" stroke="#222222" stroke-width="1.6" d="M1574.42,-515.54C1555.04,-510.37 1531.71,-503.05 1511.85,-493.73 1449.15,-464.28 1448.19,-427.68 1381.85,-407.73 1038.3,-304.38 887.74,-298.94 577.85,-479.73 493.85,-528.73 526.05,-597.91 447.85,-655.73 435.98,-664.5 421.42,-670.96 407.57,-675.63"/>
<polygon fill="#222222" stroke="#222222" stroke-width="1.6" points="406.77,-673.14 400.42,-677.92 408.36,-678.14 406.77,-673.14"/>
</g>
<!-- creative_strategy&#45;&gt;brand_context -->
<g id="edge30" class="edge">
<title>creative_strategy&#45;&gt;brand_context</title>
<path fill="none" stroke="#222222" stroke-width="1.6" d="M1574.61,-519.82C1554.13,-515.64 1529.77,-507.93 1511.85,-493.73 1421.35,-421.98 1471.29,-341.8 1381.85,-268.73 1303.81,-204.97 1257.42,-240.9 1166.85,-196.73 1104.59,-166.36 1103.19,-130.68 1036.85,-110.73 939.18,-81.34 658.62,-48.43 577.85,-110.73 397.74,-249.65 607.08,-443.29 447.85,-605.73 441.51,-612.2 433.63,-617.02 425.21,-620.62"/>
<polygon fill="#222222" stroke="#222222" stroke-width="1.6" points="424.1,-618.23 418.02,-623.36 425.97,-623.14 424.1,-618.23"/>
</g>
<!-- creative_strategy&#45;&gt;product_context -->
<g id="edge31" class="edge">
<title>creative_strategy&#45;&gt;product_context</title>
<path fill="none" stroke="#222222" stroke-width="1.6" d="M1574.65,-520.48C1553.94,-516.49 1529.35,-508.74 1511.85,-493.73 1410.18,-406.46 1480.56,-312.33 1381.85,-221.73 1306.63,-152.68 1259.54,-183.58 1166.85,-140.73 1106.9,-113.01 1100.8,-85.25 1036.85,-68.73 839.34,-17.69 740.03,55.03 577.85,-68.73 403.85,-201.51 596.98,-383.52 447.85,-543.73 436.66,-555.75 420.53,-563.11 405.12,-567.62"/>
<polygon fill="#222222" stroke="#222222" stroke-width="1.6" points="404.22,-565.14 397.64,-569.61 405.57,-570.22 404.22,-565.14"/>
</g>
<!-- experience_specification -->
<g id="node14" class="node">
<title>experience_specification</title>
<path fill="#dbe7fb" stroke="#2c5fb3" stroke-width="1.1" stroke-dasharray="5,2" d="M1975.85,-751.73C1975.85,-751.73 1891.85,-751.73 1891.85,-751.73 1885.85,-751.73 1879.85,-745.73 1879.85,-739.73 1879.85,-739.73 1879.85,-721.73 1879.85,-721.73 1879.85,-715.73 1885.85,-709.73 1891.85,-709.73 1891.85,-709.73 1975.85,-709.73 1975.85,-709.73 1981.85,-709.73 1987.85,-715.73 1987.85,-721.73 1987.85,-721.73 1987.85,-739.73 1987.85,-739.73 1987.85,-745.73 1981.85,-751.73 1975.85,-751.73"/>
<text text-anchor="middle" x="1933.85" y="-734.73" font-family="Helvetica,sans-Serif" font-size="12.50">Experience</text>
<text text-anchor="middle" x="1933.85" y="-720.73" font-family="Helvetica,sans-Serif" font-size="12.50">Specification</text>
</g>
<!-- creative_strategy&#45;&gt;experience_specification -->
<!-- content_strategy -->
<g id="node13" class="node">
<title>content_strategy</title>
<path fill="#dbe7fb" stroke="#2c5fb3" stroke-width="2.4" d="M1643.85,-483.73C1643.85,-483.73 1586.85,-483.73 1586.85,-483.73 1580.85,-483.73 1574.85,-477.73 1574.85,-471.73 1574.85,-471.73 1574.85,-453.73 1574.85,-453.73 1574.85,-447.73 1580.85,-441.73 1586.85,-441.73 1586.85,-441.73 1643.85,-441.73 1643.85,-441.73 1649.85,-441.73 1655.85,-447.73 1655.85,-453.73 1655.85,-453.73 1655.85,-471.73 1655.85,-471.73 1655.85,-477.73 1649.85,-483.73 1643.85,-483.73"/>
<text text-anchor="middle" x="1615.35" y="-466.73" font-family="Helvetica,sans-Serif" font-size="12.50">Content</text>
<text text-anchor="middle" x="1615.35" y="-452.73" font-family="Helvetica,sans-Serif" font-size="12.50">Strategy</text>
</g>
<!-- content_strategy&#45;&gt;business_context -->
<g id="edge35" class="edge">
<title>content_strategy&#45;&gt;business_context</title>
<path fill="none" stroke="#222222" stroke-width="1.6" d="M1607.04,-441.6C1584.71,-380.85 1510.99,-205.89 1381.85,-139.73 1296.81,-96.16 1260.57,-121.08 1166.85,-139.73 888.95,-195.01 783.46,-188.76 577.85,-383.73 480.63,-475.92 547.53,-566.19 447.85,-655.73 436.67,-665.77 422.02,-672.61 407.9,-677.24"/>
<polygon fill="#222222" stroke="#222222" stroke-width="1.6" points="406.99,-674.78 400.58,-679.47 408.52,-679.8 406.99,-674.78"/>
</g>
<!-- content_strategy&#45;&gt;journey -->
<g id="edge34" class="edge">
<title>content_strategy&#45;&gt;journey</title>
<path fill="none" stroke="#222222" stroke-width="1.6" d="M1574.78,-463.43C1511.12,-464.55 1386.4,-466.76 1319.78,-467.94"/>
<polygon fill="#222222" stroke="#222222" stroke-width="1.6" points="1319.41,-465.32 1311.95,-468.08 1319.5,-470.57 1319.41,-465.32"/>
</g>
<!-- content_strategy&#45;&gt;creative_strategy -->
<g id="edge33" class="edge">
<title>content_strategy&#45;&gt;creative_strategy</title>
<path fill="none" stroke="#222222" stroke-width="1.6" d="M1615.35,-484.04C1615.35,-487.98 1615.35,-491.92 1615.35,-495.86"/>
<polygon fill="#222222" stroke="#222222" stroke-width="1.6" points="1612.73,-495.93 1615.35,-503.43 1617.98,-495.93 1612.73,-495.93"/>
</g>
<!-- experience_specification&#45;&gt;campaign_strategy -->
<g id="edge40" class="edge">
<title>experience_specification&#45;&gt;campaign_strategy</title>
<path fill="none" stroke="#9aa3af" stroke-dasharray="5,2" d="M1879.57,-718.15C1868.49,-713.7 1857.55,-707.72 1848.85,-699.73 1748.68,-607.75 1833.64,-495.66 1718.85,-422.73 1641.2,-373.39 1600.99,-399.97 1511.85,-422.73 1448.06,-439.01 1442.7,-468.6 1381.85,-493.73 1364.49,-500.9 1344.89,-507.11 1327.28,-512.04"/>
<polygon fill="#9aa3af" stroke="#9aa3af" points="1326.41,-509.56 1319.87,-514.08 1327.8,-514.62 1326.41,-509.56"/>
</g>
<!-- experience_specification&#45;&gt;creative_strategy -->
<g id="edge39" class="edge">
<title>experience_specification&#45;&gt;creative_strategy</title>
<path fill="none" stroke="#9aa3af" stroke-dasharray="5,2" d="M1893.77,-709.61C1879.25,-703.91 1862.91,-697.4 1848.85,-689.73 1774.09,-648.94 1696.97,-585.99 1653.02,-550.6"/>
<polygon fill="#9aa3af" stroke="#9aa3af" points="1654.53,-548.45 1647.04,-545.8 1651.25,-552.54 1654.53,-548.45"/>
</g>
<!-- performance_measurement -->
<g id="node20" class="node">
<title>performance_measurement</title>
<path fill="#fde8c8" stroke="#b87811" stroke-width="1.1" stroke-dasharray="5,2" d="M2331.35,-751.73C2331.35,-751.73 2243.35,-751.73 2243.35,-751.73 2237.35,-751.73 2231.35,-745.73 2231.35,-739.73 2231.35,-739.73 2231.35,-721.73 2231.35,-721.73 2231.35,-715.73 2237.35,-709.73 2243.35,-709.73 2243.35,-709.73 2331.35,-709.73 2331.35,-709.73 2337.35,-709.73 2343.35,-715.73 2343.35,-721.73 2343.35,-721.73 2343.35,-739.73 2343.35,-739.73 2343.35,-745.73 2337.35,-751.73 2331.35,-751.73"/>
<text text-anchor="middle" x="2287.35" y="-734.73" font-family="Helvetica,sans-Serif" font-size="12.50">Performance</text>
<text text-anchor="middle" x="2287.35" y="-720.73" font-family="Helvetica,sans-Serif" font-size="12.50">Measurement</text>
</g>
<!-- experience_specification&#45;&gt;performance_measurement -->
<!-- experience_component -->
<g id="node15" class="node">
<title>experience_component</title>
<path fill="#dbe7fb" stroke="#2c5fb3" stroke-width="1.1" stroke-dasharray="5,2" d="M1971.85,-689.73C1971.85,-689.73 1895.85,-689.73 1895.85,-689.73 1889.85,-689.73 1883.85,-683.73 1883.85,-677.73 1883.85,-677.73 1883.85,-659.73 1883.85,-659.73 1883.85,-653.73 1889.85,-647.73 1895.85,-647.73 1895.85,-647.73 1971.85,-647.73 1971.85,-647.73 1977.85,-647.73 1983.85,-653.73 1983.85,-659.73 1983.85,-659.73 1983.85,-677.73 1983.85,-677.73 1983.85,-683.73 1977.85,-689.73 1971.85,-689.73"/>
<text text-anchor="middle" x="1933.85" y="-672.73" font-family="Helvetica,sans-Serif" font-size="12.50">Experience</text>
<text text-anchor="middle" x="1933.85" y="-658.73" font-family="Helvetica,sans-Serif" font-size="12.50">Component</text>
</g>
<!-- experience_component&#45;&gt;experience_specification -->
<g id="edge41" class="edge">
<title>experience_component&#45;&gt;experience_specification</title>
<path fill="none" stroke="#9aa3af" stroke-dasharray="5,2" d="M1933.85,-690.04C1933.85,-693.98 1933.85,-697.92 1933.85,-701.86"/>
<polygon fill="#9aa3af" stroke="#9aa3af" points="1931.23,-701.93 1933.85,-709.43 1936.48,-701.93 1931.23,-701.93"/>
</g>
<!-- personalization_configuration -->
<g id="node16" class="node">
<title>personalization_configuration</title>
<path fill="#ece1f9" stroke="#6b4ca3" stroke-width="1.1" stroke-dasharray="5,2" d="M1978.85,-627.73C1978.85,-627.73 1888.85,-627.73 1888.85,-627.73 1882.85,-627.73 1876.85,-621.73 1876.85,-615.73 1876.85,-615.73 1876.85,-583.73 1876.85,-583.73 1876.85,-577.73 1882.85,-571.73 1888.85,-571.73 1888.85,-571.73 1978.85,-571.73 1978.85,-571.73 1984.85,-571.73 1990.85,-577.73 1990.85,-583.73 1990.85,-583.73 1990.85,-615.73 1990.85,-615.73 1990.85,-621.73 1984.85,-627.73 1978.85,-627.73"/>
<text text-anchor="middle" x="1933.85" y="-610.73" font-family="Helvetica,sans-Serif" font-size="12.50">Personalizatio</text>
<text text-anchor="middle" x="1933.85" y="-596.73" font-family="Helvetica,sans-Serif" font-size="12.50">n</text>
<text text-anchor="middle" x="1933.85" y="-582.73" font-family="Helvetica,sans-Serif" font-size="12.50">Configuration</text>
</g>
<!-- personalization_configuration&#45;&gt;audience -->
<g id="edge43" class="edge">
<title>personalization_configuration&#45;&gt;audience</title>
<path fill="none" stroke="#9aa3af" stroke-dasharray="5,2" d="M1876.74,-579.94C1866.81,-574.93 1857.05,-568.89 1848.85,-561.73 1766.79,-489.97 1814.2,-406.57 1718.85,-353.73 1638.39,-309.13 1603.58,-346.59 1511.85,-353.73 1501.77,-354.51 933.38,-437.75 889.85,-457.73 804.14,-497.06 723.42,-577.54 688.08,-615.73"/>
<polygon fill="#9aa3af" stroke="#9aa3af" points="685.94,-614.18 682.8,-621.48 689.8,-617.73 685.94,-614.18"/>
</g>
<!-- personalization_configuration&#45;&gt;campaign_strategy -->
<g id="edge42" class="edge">
<title>personalization_configuration&#45;&gt;campaign_strategy</title>
<path fill="none" stroke="#9aa3af" stroke-dasharray="5,2" d="M1876.76,-579.18C1866.94,-574.27 1857.2,-568.46 1848.85,-561.73 1773.41,-500.93 1805.41,-430.26 1718.85,-386.73 1636.66,-345.4 1598.45,-355.67 1511.85,-386.73 1441.41,-411.99 1448.02,-458.78 1381.85,-493.73 1365.02,-502.62 1345.3,-509.27 1327.44,-514.08"/>
<polygon fill="#9aa3af" stroke="#9aa3af" points="1326.51,-511.61 1319.91,-516.03 1327.83,-516.69 1326.51,-511.61"/>
</g>
<!-- experience_delivery -->
<g id="node17" class="node">
<title>experience_delivery</title>
<path fill="#dbe7fb" stroke="#2c5fb3" stroke-width="1.1" stroke-dasharray="5,2" d="M1970.35,-551.73C1970.35,-551.73 1897.35,-551.73 1897.35,-551.73 1891.35,-551.73 1885.35,-545.73 1885.35,-539.73 1885.35,-539.73 1885.35,-521.73 1885.35,-521.73 1885.35,-515.73 1891.35,-509.73 1897.35,-509.73 1897.35,-509.73 1970.35,-509.73 1970.35,-509.73 1976.35,-509.73 1982.35,-515.73 1982.35,-521.73 1982.35,-521.73 1982.35,-539.73 1982.35,-539.73 1982.35,-545.73 1976.35,-551.73 1970.35,-551.73"/>
<text text-anchor="middle" x="1933.85" y="-534.73" font-family="Helvetica,sans-Serif" font-size="12.50">Experience</text>
<text text-anchor="middle" x="1933.85" y="-520.73" font-family="Helvetica,sans-Serif" font-size="12.50">Delivery</text>
</g>
<!-- experience_delivery&#45;&gt;journey -->
<g id="edge45" class="edge">
<title>experience_delivery&#45;&gt;journey</title>
<path fill="none" stroke="#9aa3af" stroke-dasharray="5,2" d="M1884.95,-517.89C1872.55,-513.3 1859.66,-507.33 1848.85,-499.73 1775.32,-447.98 1800.33,-382.74 1718.85,-344.73 1569,-274.83 1371.79,-398.81 1301.57,-449.02"/>
<polygon fill="#9aa3af" stroke="#9aa3af" points="1299.72,-447.12 1295.17,-453.64 1302.79,-451.38 1299.72,-447.12"/>
</g>
<!-- experience_delivery&#45;&gt;experience_component -->
<g id="edge44" class="edge">
<title>experience_delivery&#45;&gt;experience_component</title>
<path fill="none" stroke="#9aa3af" stroke-dasharray="5,2" d="M1885.31,-529.73C1851.03,-531.91 1807.2,-541.15 1783.85,-571.73 1768.75,-591.51 1768.75,-607.94 1783.85,-627.73 1805.08,-655.54 1843.27,-665.7 1875.79,-668.95"/>
<polygon fill="#9aa3af" stroke="#9aa3af" points="1875.8,-671.59 1883.49,-669.61 1876.24,-666.36 1875.8,-671.59"/>
</g>
<!-- experience_validation -->
<g id="node18" class="node">
<title>experience_validation</title>
<path fill="#dbe7fb" stroke="#2c5fb3" stroke-width="1.1" stroke-dasharray="5,2" d="M1970.35,-489.73C1970.35,-489.73 1897.35,-489.73 1897.35,-489.73 1891.35,-489.73 1885.35,-483.73 1885.35,-477.73 1885.35,-477.73 1885.35,-459.73 1885.35,-459.73 1885.35,-453.73 1891.35,-447.73 1897.35,-447.73 1897.35,-447.73 1970.35,-447.73 1970.35,-447.73 1976.35,-447.73 1982.35,-453.73 1982.35,-459.73 1982.35,-459.73 1982.35,-477.73 1982.35,-477.73 1982.35,-483.73 1976.35,-489.73 1970.35,-489.73"/>
<text text-anchor="middle" x="1933.85" y="-472.73" font-family="Helvetica,sans-Serif" font-size="12.50">Experience</text>
<text text-anchor="middle" x="1933.85" y="-458.73" font-family="Helvetica,sans-Serif" font-size="12.50">Validation</text>
</g>
<!-- experience_validation&#45;&gt;experience_delivery -->
<g id="edge46" class="edge">
<title>experience_validation&#45;&gt;experience_delivery</title>
<path fill="none" stroke="#9aa3af" stroke-dasharray="5,2" d="M1933.85,-490.04C1933.85,-493.98 1933.85,-497.92 1933.85,-501.86"/>
<polygon fill="#9aa3af" stroke="#9aa3af" points="1931.23,-501.93 1933.85,-509.43 1936.48,-501.93 1931.23,-501.93"/>
</g>
<!-- campaign_deployment -->
<g id="node19" class="node">
<title>campaign_deployment</title>
<path fill="#dbe7fb" stroke="#2c5fb3" stroke-width="1.1" stroke-dasharray="5,2" d="M1973.85,-427.73C1973.85,-427.73 1893.85,-427.73 1893.85,-427.73 1887.85,-427.73 1881.85,-421.73 1881.85,-415.73 1881.85,-415.73 1881.85,-397.73 1881.85,-397.73 1881.85,-391.73 1887.85,-385.73 1893.85,-385.73 1893.85,-385.73 1973.85,-385.73 1973.85,-385.73 1979.85,-385.73 1985.85,-391.73 1985.85,-397.73 1985.85,-397.73 1985.85,-415.73 1985.85,-415.73 1985.85,-421.73 1979.85,-427.73 1973.85,-427.73"/>
<text text-anchor="middle" x="1933.85" y="-410.73" font-family="Helvetica,sans-Serif" font-size="12.50">Campaign</text>
<text text-anchor="middle" x="1933.85" y="-396.73" font-family="Helvetica,sans-Serif" font-size="12.50">Deployment</text>
</g>
<!-- campaign_deployment&#45;&gt;experience_delivery -->
<g id="edge47" class="edge">
<title>campaign_deployment&#45;&gt;experience_delivery</title>
<path fill="none" stroke="#9aa3af" stroke-dasharray="5,2" d="M1881.66,-405.98C1847.98,-408.58 1806.38,-418.22 1783.85,-447.73 1772.53,-462.57 1772.53,-474.89 1783.85,-489.73 1805.46,-518.04 1844.63,-528.06 1877.53,-531.12"/>
<polygon fill="#9aa3af" stroke="#9aa3af" points="1877.63,-533.76 1885.31,-531.73 1878.03,-528.53 1877.63,-533.76"/>
</g>
<!-- performance_measurement&#45;&gt;measurement_framework -->
<g id="edge50" class="edge">
<title>performance_measurement&#45;&gt;measurement_framework</title>
<path fill="none" stroke="#9aa3af" stroke-dasharray="5,2" d="M2231.26,-730.21C2203.88,-727.21 2172.01,-719.24 2149.85,-699.73 2023.44,-588.41 2138.87,-462.92 2019.85,-343.73 1806.44,-130.01 1679.22,-162.54 1381.85,-109.73 1025.17,-46.38 893.79,-66.48 577.85,-243.73 493.08,-291.29 416.27,-379.2 380.71,-423.59"/>
<polygon fill="#9aa3af" stroke="#9aa3af" points="378.58,-422.05 375.97,-429.55 382.69,-425.31 378.58,-422.05"/>
</g>
<!-- performance_measurement&#45;&gt;campaign_strategy -->
<g id="edge48" class="edge">
<title>performance_measurement&#45;&gt;campaign_strategy</title>
<path fill="none" stroke="#9aa3af" stroke-dasharray="5,2" d="M2231.1,-729.97C2203.85,-726.89 2172.13,-718.92 2149.85,-699.73 2029.46,-596.05 2149.08,-459.16 2019.85,-366.73 1999.21,-351.96 1568.68,-328.95 1511.85,-353.73 1434.02,-387.67 1454.11,-449.14 1381.85,-493.73 1365.5,-503.81 1345.73,-510.75 1327.68,-515.45"/>
<polygon fill="#9aa3af" stroke="#9aa3af" points="1326.71,-512.99 1320.06,-517.34 1327.97,-518.08 1326.71,-512.99"/>
</g>
<!-- performance_measurement&#45;&gt;experience_delivery -->
<g id="edge49" class="edge">
<title>performance_measurement&#45;&gt;experience_delivery</title>
<path fill="none" stroke="#9aa3af" stroke-dasharray="5,2" d="M2231.16,-725.71C2205.17,-721.53 2174.54,-713.84 2149.85,-699.73 2076.7,-657.91 2090.22,-608.08 2019.85,-561.73 2010.69,-555.69 2000.19,-550.64 1989.78,-546.49"/>
<polygon fill="#9aa3af" stroke="#9aa3af" points="1990.54,-543.97 1982.6,-543.75 1988.67,-548.87 1990.54,-543.97"/>
</g>
<!-- customer_insight -->
<g id="node21" class="node">
<title>customer_insight</title>
<path fill="#d8f0d6" stroke="#2e7d32" stroke-width="1.1" stroke-dasharray="5,2" d="M2319.35,-689.73C2319.35,-689.73 2255.35,-689.73 2255.35,-689.73 2249.35,-689.73 2243.35,-683.73 2243.35,-677.73 2243.35,-677.73 2243.35,-659.73 2243.35,-659.73 2243.35,-653.73 2249.35,-647.73 2255.35,-647.73 2255.35,-647.73 2319.35,-647.73 2319.35,-647.73 2325.35,-647.73 2331.35,-653.73 2331.35,-659.73 2331.35,-659.73 2331.35,-677.73 2331.35,-677.73 2331.35,-683.73 2325.35,-689.73 2319.35,-689.73"/>
<text text-anchor="middle" x="2287.35" y="-672.73" font-family="Helvetica,sans-Serif" font-size="12.50">Customer</text>
<text text-anchor="middle" x="2287.35" y="-658.73" font-family="Helvetica,sans-Serif" font-size="12.50">Insight</text>
</g>
<!-- customer_insight&#45;&gt;persona -->
<g id="edge53" class="edge">
<title>customer_insight&#45;&gt;persona</title>
<path fill="none" stroke="#1aa179" stroke-width="1.7" stroke-dasharray="5,2" d="M2243.22,-668.68C2213.93,-666.49 2175.93,-659.2 2149.85,-637.73 2039.56,-546.91 2137.33,-425.04 2019.85,-343.73 1834.1,-215.16 1736.26,-300.74 1511.85,-326.73 1223.26,-360.15 1128.86,-362.57 889.85,-527.73 821.59,-574.9 831.23,-619.42 759.85,-661.73 745.87,-670.01 729.06,-675.64 713.74,-679.41"/>
<polygon fill="#1aa179" stroke="#1aa179" stroke-width="1.7" points="713.07,-676.88 706.35,-681.13 714.25,-681.99 713.07,-676.88"/>
</g>
<!-- customer_insight&#45;&gt;performance_measurement -->
<g id="edge51" class="edge">
<title>customer_insight&#45;&gt;performance_measurement</title>
<path fill="none" stroke="#9aa3af" stroke-dasharray="5,2" d="M2287.35,-690.04C2287.35,-693.98 2287.35,-697.92 2287.35,-701.86"/>
<polygon fill="#9aa3af" stroke="#9aa3af" points="2284.73,-701.93 2287.35,-709.43 2289.98,-701.93 2284.73,-701.93"/>
</g>
<!-- optimization_recommendation -->
<g id="node22" class="node">
<title>optimization_recommendation</title>
<path fill="#d8f0d6" stroke="#2e7d32" stroke-width="1.1" stroke-dasharray="5,2" d="M2343.85,-627.73C2343.85,-627.73 2230.85,-627.73 2230.85,-627.73 2224.85,-627.73 2218.85,-621.73 2218.85,-615.73 2218.85,-615.73 2218.85,-597.73 2218.85,-597.73 2218.85,-591.73 2224.85,-585.73 2230.85,-585.73 2230.85,-585.73 2343.85,-585.73 2343.85,-585.73 2349.85,-585.73 2355.85,-591.73 2355.85,-597.73 2355.85,-597.73 2355.85,-615.73 2355.85,-615.73 2355.85,-621.73 2349.85,-627.73 2343.85,-627.73"/>
<text text-anchor="middle" x="2287.35" y="-610.73" font-family="Helvetica,sans-Serif" font-size="12.50">Optimization</text>
<text text-anchor="middle" x="2287.35" y="-596.73" font-family="Helvetica,sans-Serif" font-size="12.50">Recommendation</text>
</g>
<!-- optimization_recommendation&#45;&gt;marketing_strategy -->
<g id="edge54" class="edge">
<title>optimization_recommendation&#45;&gt;marketing_strategy</title>
<path fill="none" stroke="#1aa179" stroke-width="1.7" stroke-dasharray="5,2" d="M2279.19,-585.54C2254.84,-516.91 2168.45,-298.95 2019.85,-191.73 1782.52,-20.48 1672.23,-65.24 1381.85,-28.73 1014.85,17.41 858.26,-2.5 577.85,-243.73 486.48,-322.33 539.67,-403.64 447.85,-481.73 437.34,-490.67 424.07,-497.09 411.05,-501.69"/>
<polygon fill="#1aa179" stroke="#1aa179" stroke-width="1.7" points="410.17,-499.21 403.86,-504.05 411.81,-504.2 410.17,-499.21"/>
</g>
<!-- optimization_recommendation&#45;&gt;performance_measurement -->
<g id="edge52" class="edge">
<title>optimization_recommendation&#45;&gt;performance_measurement</title>
<path fill="none" stroke="#9aa3af" stroke-dasharray="5,2" d="M2218.41,-600.41C2172.99,-600.43 2116.3,-609.27 2084.85,-647.73 2073.03,-662.18 2073.03,-675.28 2084.85,-689.73 2117.55,-729.71 2177.52,-737.68 2223.75,-737.01"/>
<polygon fill="#9aa3af" stroke="#9aa3af" points="2223.9,-739.63 2231.33,-736.82 2223.77,-734.38 2223.9,-739.63"/>
</g>
</g>
</svg>
