<?xml version="1.0" encoding="UTF-8" standalone="no"?>
<!DOCTYPE svg PUBLIC "-//W3C//DTD SVG 1.1//EN"
 "http://www.w3.org/Graphics/SVG/1.1/DTD/svg11.dtd">
<!-- Generated by graphviz version 2.43.0 (0)
 -->
<!-- Title: OSMM Pages: 1 -->
<svg width="2639pt" height="1165pt"
 viewBox="0.00 0.00 2639.00 1165.43" xmlns="http://www.w3.org/2000/svg" xmlns:xlink="http://www.w3.org/1999/xlink">
<g id="graph0" class="graph" transform="scale(1 1) rotate(0) translate(36 1129.43)">
<title>OSMM</title>
<polygon fill="white" stroke="transparent" points="-36,36 -36,-1129.43 2603,-1129.43 2603,36 -36,36"/>
<text text-anchor="middle" x="1283.5" y="-1070.23" font-family="Helvetica,sans-Serif" font-weight="bold" font-size="24.00">OSMM™ Object Graph — 18 objects, ordered left→right by workflow phase (1→7)</text>
<text text-anchor="middle" x="1283.5" y="-1044.23" font-family="Helvetica,sans-Serif" font-weight="bold" font-size="24.00">solid node = builder shipped (14) &#160;&#160;· &#160;&#160;dashed node = backlog (4) &#160;&#160;· &#160;&#160;node color = category &#160;&#160;· &#160;&#160;solid edge = realized reference &#160;&#160;· &#160;&#160;dashed edge = envisioned &#160;&#160;· &#160;&#160;mint edge = learning loop</text>
<g id="clust1" class="cluster">
<title>cluster_p1</title>
<path fill="#f4f6f9" stroke="#aab3c0" stroke-width="1.5" d="M273.35,-694.43C273.35,-694.43 427.35,-694.43 427.35,-694.43 433.35,-694.43 439.35,-700.43 439.35,-706.43 439.35,-706.43 439.35,-1013.43 439.35,-1013.43 439.35,-1019.43 433.35,-1025.43 427.35,-1025.43 427.35,-1025.43 273.35,-1025.43 273.35,-1025.43 267.35,-1025.43 261.35,-1019.43 261.35,-1013.43 261.35,-1013.43 261.35,-706.43 261.35,-706.43 261.35,-700.43 267.35,-694.43 273.35,-694.43"/>
<text text-anchor="middle" x="350.35" y="-1009.43" font-family="Helvetica,sans-Serif" font-weight="bold" font-size="15.00">1 · Define Strategy</text>
</g>
<g id="clust3" class="cluster">
<title>cluster_p2</title>
<path fill="#f4f6f9" stroke="#aab3c0" stroke-width="1.5" d="M581.35,-886.43C581.35,-886.43 739.35,-886.43 739.35,-886.43 745.35,-886.43 751.35,-892.43 751.35,-898.43 751.35,-898.43 751.35,-1007.43 751.35,-1007.43 751.35,-1013.43 745.35,-1019.43 739.35,-1019.43 739.35,-1019.43 581.35,-1019.43 581.35,-1019.43 575.35,-1019.43 569.35,-1013.43 569.35,-1007.43 569.35,-1007.43 569.35,-898.43 569.35,-898.43 569.35,-892.43 575.35,-886.43 581.35,-886.43"/>
<text text-anchor="middle" x="660.35" y="-1003.43" font-family="Helvetica,sans-Serif" font-weight="bold" font-size="15.00">2 · Define Audience</text>
</g>
<g id="clust5" class="cluster">
<title>cluster_p3</title>
<path fill="#f4f6f9" stroke="#aab3c0" stroke-width="1.5" d="M893.35,-874.43C893.35,-874.43 1016.35,-874.43 1016.35,-874.43 1022.35,-874.43 1028.35,-880.43 1028.35,-886.43 1028.35,-886.43 1028.35,-1007.43 1028.35,-1007.43 1028.35,-1013.43 1022.35,-1019.43 1016.35,-1019.43 1016.35,-1019.43 893.35,-1019.43 893.35,-1019.43 887.35,-1019.43 881.35,-1013.43 881.35,-1007.43 881.35,-1007.43 881.35,-886.43 881.35,-886.43 881.35,-880.43 887.35,-874.43 893.35,-874.43"/>
<text text-anchor="middle" x="954.85" y="-1003.43" font-family="Helvetica,sans-Serif" font-weight="bold" font-size="15.00">3 · Define Offer</text>
</g>
<g id="clust7" class="cluster">
<title>cluster_p4</title>
<path fill="#f4f6f9" stroke="#aab3c0" stroke-width="1.5" d="M1170.35,-824.43C1170.35,-824.43 1361.35,-824.43 1361.35,-824.43 1367.35,-824.43 1373.35,-830.43 1373.35,-836.43 1373.35,-836.43 1373.35,-957.43 1373.35,-957.43 1373.35,-963.43 1367.35,-969.43 1361.35,-969.43 1361.35,-969.43 1170.35,-969.43 1170.35,-969.43 1164.35,-969.43 1158.35,-963.43 1158.35,-957.43 1158.35,-957.43 1158.35,-836.43 1158.35,-836.43 1158.35,-830.43 1164.35,-824.43 1170.35,-824.43"/>
<text text-anchor="middle" x="1265.85" y="-953.43" font-family="Helvetica,sans-Serif" font-weight="bold" font-size="15.00">4 · Campaign &amp; Journey</text>
</g>
<g id="clust9" class="cluster">
<title>cluster_p5</title>
<path fill="#f4f6f9" stroke="#aab3c0" stroke-width="1.5" d="M1515.35,-812.43C1515.35,-812.43 1698.35,-812.43 1698.35,-812.43 1704.35,-812.43 1710.35,-818.43 1710.35,-824.43 1710.35,-824.43 1710.35,-957.43 1710.35,-957.43 1710.35,-963.43 1704.35,-969.43 1698.35,-969.43 1698.35,-969.43 1515.35,-969.43 1515.35,-969.43 1509.35,-969.43 1503.35,-963.43 1503.35,-957.43 1503.35,-957.43 1503.35,-824.43 1503.35,-824.43 1503.35,-818.43 1509.35,-812.43 1515.35,-812.43"/>
<text text-anchor="middle" x="1606.85" y="-953.43" font-family="Helvetica,sans-Serif" font-weight="bold" font-size="15.00">5 · Content &amp; Creative</text>
</g>
<g id="clust11" class="cluster">
<title>cluster_p6</title>
<path fill="#f4f6f9" stroke="#aab3c0" stroke-width="1.5" d="M1852.35,-521.43C1852.35,-521.43 1999.35,-521.43 1999.35,-521.43 2005.35,-521.43 2011.35,-527.43 2011.35,-533.43 2011.35,-533.43 2011.35,-654.43 2011.35,-654.43 2011.35,-660.43 2005.35,-666.43 1999.35,-666.43 1999.35,-666.43 1852.35,-666.43 1852.35,-666.43 1846.35,-666.43 1840.35,-660.43 1840.35,-654.43 1840.35,-654.43 1840.35,-533.43 1840.35,-533.43 1840.35,-527.43 1846.35,-521.43 1852.35,-521.43"/>
<text text-anchor="middle" x="1925.85" y="-650.43" font-family="Helvetica,sans-Serif" font-weight="bold" font-size="15.00">6 · Build &amp; Deliver</text>
</g>
<g id="clust13" class="cluster">
<title>cluster_p7</title>
<path fill="#f4f6f9" stroke="#aab3c0" stroke-width="1.5" d="M2153.35,-420.43C2153.35,-420.43 2404.35,-420.43 2404.35,-420.43 2410.35,-420.43 2416.35,-426.43 2416.35,-432.43 2416.35,-432.43 2416.35,-627.43 2416.35,-627.43 2416.35,-633.43 2410.35,-639.43 2404.35,-639.43 2404.35,-639.43 2153.35,-639.43 2153.35,-639.43 2147.35,-639.43 2141.35,-633.43 2141.35,-627.43 2141.35,-627.43 2141.35,-432.43 2141.35,-432.43 2141.35,-426.43 2147.35,-420.43 2153.35,-420.43"/>
<text text-anchor="middle" x="2278.85" y="-623.43" font-family="Helvetica,sans-Serif" font-weight="bold" font-size="15.00">7 · Measure, Learn &amp; Optimize</text>
</g>
<!-- business_context -->
<g id="node1" class="node">
<title>business_context</title>
<path fill="#d4f2ec" stroke="#0f1b35" stroke-width="2.4" d="M379.85,-986.43C379.85,-986.43 320.85,-986.43 320.85,-986.43 314.85,-986.43 308.85,-980.43 308.85,-974.43 308.85,-974.43 308.85,-956.43 308.85,-956.43 308.85,-950.43 314.85,-944.43 320.85,-944.43 320.85,-944.43 379.85,-944.43 379.85,-944.43 385.85,-944.43 391.85,-950.43 391.85,-956.43 391.85,-956.43 391.85,-974.43 391.85,-974.43 391.85,-980.43 385.85,-986.43 379.85,-986.43"/>
<text text-anchor="middle" x="350.35" y="-969.43" font-family="Helvetica,sans-Serif" font-size="12.50">Business</text>
<text text-anchor="middle" x="350.35" y="-955.43" font-family="Helvetica,sans-Serif" font-size="12.50">Context</text>
</g>
<!-- brand_context -->
<g id="node2" class="node">
<title>brand_context</title>
<path fill="#d4f2ec" stroke="#0f1b35" stroke-width="2.4" d="M399.35,-924.43C399.35,-924.43 301.35,-924.43 301.35,-924.43 296.35,-924.43 291.35,-919.43 291.35,-914.43 291.35,-914.43 291.35,-904.43 291.35,-904.43 291.35,-899.43 296.35,-894.43 301.35,-894.43 301.35,-894.43 399.35,-894.43 399.35,-894.43 404.35,-894.43 409.35,-899.43 409.35,-904.43 409.35,-904.43 409.35,-914.43 409.35,-914.43 409.35,-919.43 404.35,-924.43 399.35,-924.43"/>
<text text-anchor="middle" x="350.35" y="-906.43" font-family="Helvetica,sans-Serif" font-size="12.50">Brand Context</text>
</g>
<!-- business_context&#45;&gt;brand_context -->
<g id="edge7" class="edge">
<title>business_context&#45;&gt;brand_context</title>
<path fill="none" stroke="#222222" stroke-width="1.6" d="M350.35,-936.37C350.35,-935.02 350.35,-933.67 350.35,-932.31"/>
<polygon fill="#222222" stroke="#222222" stroke-width="1.6" points="347.73,-936.63 350.35,-944.13 352.98,-936.63 347.73,-936.63"/>
<polygon fill="#222222" stroke="#222222" stroke-width="1.6" points="352.98,-932.24 350.35,-924.74 347.73,-932.24 352.98,-932.24"/>
</g>
<!-- persona -->
<g id="node6" class="node">
<title>persona</title>
<path fill="#d4f2ec" stroke="#0f1b35" stroke-width="2.4" d="M687.85,-980.43C687.85,-980.43 631.85,-980.43 631.85,-980.43 626.85,-980.43 621.85,-975.43 621.85,-970.43 621.85,-970.43 621.85,-960.43 621.85,-960.43 621.85,-955.43 626.85,-950.43 631.85,-950.43 631.85,-950.43 687.85,-950.43 687.85,-950.43 692.85,-950.43 697.85,-955.43 697.85,-960.43 697.85,-960.43 697.85,-970.43 697.85,-970.43 697.85,-975.43 692.85,-980.43 687.85,-980.43"/>
<text text-anchor="middle" x="659.85" y="-962.43" font-family="Helvetica,sans-Serif" font-size="12.50">Persona</text>
</g>
<!-- business_context&#45;&gt;persona -->
<!-- product_context -->
<g id="node3" class="node">
<title>product_context</title>
<path fill="#d4f2ec" stroke="#0f1b35" stroke-width="2.4" d="M376.85,-874.43C376.85,-874.43 323.85,-874.43 323.85,-874.43 317.85,-874.43 311.85,-868.43 311.85,-862.43 311.85,-862.43 311.85,-844.43 311.85,-844.43 311.85,-838.43 317.85,-832.43 323.85,-832.43 323.85,-832.43 376.85,-832.43 376.85,-832.43 382.85,-832.43 388.85,-838.43 388.85,-844.43 388.85,-844.43 388.85,-862.43 388.85,-862.43 388.85,-868.43 382.85,-874.43 376.85,-874.43"/>
<text text-anchor="middle" x="350.35" y="-857.43" font-family="Helvetica,sans-Serif" font-size="12.50">Product</text>
<text text-anchor="middle" x="350.35" y="-843.43" font-family="Helvetica,sans-Serif" font-size="12.50">Context</text>
</g>
<!-- product_context&#45;&gt;business_context -->
<g id="edge8" class="edge">
<title>product_context&#45;&gt;business_context</title>
<path fill="none" stroke="#222222" stroke-width="1.6" d="M311.38,-856.06C251.15,-861.61 145.98,-878.11 182.35,-924.43 209.91,-959.51 262.07,-967.68 301,-968.36"/>
<polygon fill="#222222" stroke="#222222" stroke-width="1.6" points="301.08,-970.98 308.6,-968.4 301.11,-965.73 301.08,-970.98"/>
</g>
<!-- product_context&#45;&gt;brand_context -->
<g id="edge9" class="edge">
<title>product_context&#45;&gt;brand_context</title>
<path fill="none" stroke="#222222" stroke-width="1.6" d="M350.35,-874.86C350.35,-878.81 350.35,-882.76 350.35,-886.71"/>
<polygon fill="#222222" stroke="#222222" stroke-width="1.6" points="347.73,-886.8 350.35,-894.3 352.98,-886.8 347.73,-886.8"/>
</g>
<!-- marketing_strategy -->
<g id="node4" class="node">
<title>marketing_strategy</title>
<path fill="#dbe7fb" stroke="#2c5fb3" stroke-width="2.4" d="M383.35,-812.43C383.35,-812.43 317.35,-812.43 317.35,-812.43 311.35,-812.43 305.35,-806.43 305.35,-800.43 305.35,-800.43 305.35,-782.43 305.35,-782.43 305.35,-776.43 311.35,-770.43 317.35,-770.43 317.35,-770.43 383.35,-770.43 383.35,-770.43 389.35,-770.43 395.35,-776.43 395.35,-782.43 395.35,-782.43 395.35,-800.43 395.35,-800.43 395.35,-806.43 389.35,-812.43 383.35,-812.43"/>
<text text-anchor="middle" x="350.35" y="-795.43" font-family="Helvetica,sans-Serif" font-size="12.50">Marketing</text>
<text text-anchor="middle" x="350.35" y="-781.43" font-family="Helvetica,sans-Serif" font-size="12.50">Strategy</text>
</g>
<!-- marketing_strategy&#45;&gt;business_context -->
<g id="edge12" class="edge">
<title>marketing_strategy&#45;&gt;business_context</title>
<path fill="none" stroke="#222222" stroke-width="1.6" d="M305.19,-788.45C265.9,-788.61 210.91,-796.06 182.35,-832.43 157.1,-864.58 157.1,-892.27 182.35,-924.43 209.91,-959.51 262.07,-967.68 301,-968.36"/>
<polygon fill="#222222" stroke="#222222" stroke-width="1.6" points="301.08,-970.98 308.6,-968.4 301.11,-965.73 301.08,-970.98"/>
</g>
<!-- marketing_strategy&#45;&gt;brand_context -->
<g id="edge13" class="edge">
<title>marketing_strategy&#45;&gt;brand_context</title>
<path fill="none" stroke="#222222" stroke-width="1.6" d="M305.19,-788.45C265.9,-788.61 210.91,-796.06 182.35,-832.43 170.82,-847.11 170.58,-859.94 182.35,-874.43 206.22,-903.78 247.74,-912.62 283.53,-914.08"/>
<polygon fill="#222222" stroke="#222222" stroke-width="1.6" points="283.5,-916.71 291.07,-914.29 283.64,-911.46 283.5,-916.71"/>
</g>
<!-- measurement_framework -->
<g id="node5" class="node">
<title>measurement_framework</title>
<path fill="#dbe7fb" stroke="#2c5fb3" stroke-width="2.4" d="M394.35,-750.43C394.35,-750.43 306.35,-750.43 306.35,-750.43 300.35,-750.43 294.35,-744.43 294.35,-738.43 294.35,-738.43 294.35,-720.43 294.35,-720.43 294.35,-714.43 300.35,-708.43 306.35,-708.43 306.35,-708.43 394.35,-708.43 394.35,-708.43 400.35,-708.43 406.35,-714.43 406.35,-720.43 406.35,-720.43 406.35,-738.43 406.35,-738.43 406.35,-744.43 400.35,-750.43 394.35,-750.43"/>
<text text-anchor="middle" x="350.35" y="-733.43" font-family="Helvetica,sans-Serif" font-size="12.50">Measurement</text>
<text text-anchor="middle" x="350.35" y="-719.43" font-family="Helvetica,sans-Serif" font-size="12.50">Framework</text>
</g>
<!-- marketing_strategy&#45;&gt;measurement_framework -->
<g id="edge15" class="edge">
<title>marketing_strategy&#45;&gt;measurement_framework</title>
<path fill="none" stroke="#222222" stroke-width="1.6" d="M350.35,-762.37C350.35,-761.02 350.35,-759.67 350.35,-758.31"/>
<polygon fill="#222222" stroke="#222222" stroke-width="1.6" points="347.73,-762.63 350.35,-770.13 352.98,-762.63 347.73,-762.63"/>
<polygon fill="#222222" stroke="#222222" stroke-width="1.6" points="352.98,-758.24 350.35,-750.74 347.73,-758.24 352.98,-758.24"/>
</g>
<!-- audience -->
<g id="node7" class="node">
<title>audience</title>
<path fill="#d4f2ec" stroke="#0f1b35" stroke-width="2.4" d="M692.35,-930.43C692.35,-930.43 627.35,-930.43 627.35,-930.43 622.35,-930.43 617.35,-925.43 617.35,-920.43 617.35,-920.43 617.35,-910.43 617.35,-910.43 617.35,-905.43 622.35,-900.43 627.35,-900.43 627.35,-900.43 692.35,-900.43 692.35,-900.43 697.35,-900.43 702.35,-905.43 702.35,-910.43 702.35,-910.43 702.35,-920.43 702.35,-920.43 702.35,-925.43 697.35,-930.43 692.35,-930.43"/>
<text text-anchor="middle" x="659.85" y="-912.43" font-family="Helvetica,sans-Serif" font-size="12.50">Audience</text>
</g>
<!-- marketing_strategy&#45;&gt;audience -->
<g id="edge14" class="edge">
<title>marketing_strategy&#45;&gt;audience</title>
<path fill="none" stroke="#222222" stroke-width="1.6" d="M395.42,-806.35C409.52,-811.28 425.16,-816.92 439.35,-822.43 502.23,-846.79 573.98,-877.81 617.84,-897.15"/>
<polygon fill="#222222" stroke="#222222" stroke-width="1.6" points="616.98,-899.64 624.9,-900.27 619.1,-894.84 616.98,-899.64"/>
</g>
<!-- measurement_framework&#45;&gt;business_context -->
<g id="edge16" class="edge">
<title>measurement_framework&#45;&gt;business_context</title>
<path fill="none" stroke="#222222" stroke-width="1.6" d="M294.12,-726.69C256.12,-728.21 208.31,-737.37 182.35,-770.43 140.08,-824.26 140.08,-870.6 182.35,-924.43 209.91,-959.51 262.07,-967.68 301,-968.36"/>
<polygon fill="#222222" stroke="#222222" stroke-width="1.6" points="301.08,-970.98 308.6,-968.4 301.11,-965.73 301.08,-970.98"/>
</g>
<!-- persona&#45;&gt;audience -->
<g id="edge10" class="edge">
<title>persona&#45;&gt;audience</title>
<path fill="none" stroke="#222222" stroke-width="1.6" d="M659.85,-942.4C659.85,-941.03 659.85,-939.66 659.85,-938.3"/>
<polygon fill="#222222" stroke="#222222" stroke-width="1.6" points="657.23,-942.72 659.85,-950.22 662.48,-942.72 657.23,-942.72"/>
<polygon fill="#222222" stroke="#222222" stroke-width="1.6" points="662.48,-938.16 659.85,-930.66 657.23,-938.16 662.48,-938.16"/>
</g>
<!-- offer -->
<g id="node8" class="node">
<title>offer</title>
<path fill="#dbe7fb" stroke="#2c5fb3" stroke-width="2.4" d="M972.85,-980.43C972.85,-980.43 935.85,-980.43 935.85,-980.43 930.85,-980.43 925.85,-975.43 925.85,-970.43 925.85,-970.43 925.85,-960.43 925.85,-960.43 925.85,-955.43 930.85,-950.43 935.85,-950.43 935.85,-950.43 972.85,-950.43 972.85,-950.43 977.85,-950.43 982.85,-955.43 982.85,-960.43 982.85,-960.43 982.85,-970.43 982.85,-970.43 982.85,-975.43 977.85,-980.43 972.85,-980.43"/>
<text text-anchor="middle" x="954.35" y="-962.43" font-family="Helvetica,sans-Serif" font-size="12.50">Offer</text>
</g>
<!-- persona&#45;&gt;offer -->
<!-- audience&#45;&gt;business_context -->
<g id="edge11" class="edge">
<title>audience&#45;&gt;business_context</title>
<path fill="none" stroke="#222222" stroke-width="1.6" d="M617.26,-922.19C560.55,-931.41 459.17,-947.89 399.31,-957.63"/>
<polygon fill="#222222" stroke="#222222" stroke-width="1.6" points="398.85,-955.04 391.87,-958.84 399.69,-960.22 398.85,-955.04"/>
</g>
<!-- offer&#45;&gt;business_context -->
<g id="edge19" class="edge">
<title>offer&#45;&gt;business_context</title>
<path fill="none" stroke="#222222" stroke-width="1.6" d="M925.78,-956.51C912.28,-951.98 895.85,-946.22 881.35,-940.43 822.43,-916.88 813.37,-894.84 751.35,-881.43 672.29,-864.32 648.73,-865.87 569.35,-881.43 508.12,-893.43 497.68,-912.28 439.35,-934.43 426.45,-939.33 412.38,-944.4 399.36,-948.99"/>
<polygon fill="#222222" stroke="#222222" stroke-width="1.6" points="398.46,-946.52 392.25,-951.48 400.19,-951.48 398.46,-946.52"/>
</g>
<!-- offer&#45;&gt;product_context -->
<g id="edge17" class="edge">
<title>offer&#45;&gt;product_context</title>
<path fill="none" stroke="#222222" stroke-width="1.6" d="M925.83,-957.3C912.2,-952.92 895.64,-947.05 881.35,-940.43 820.44,-912.16 815.89,-881.98 751.35,-863.43 626.94,-827.67 471.7,-838.67 396.44,-847.3"/>
<polygon fill="#222222" stroke="#222222" stroke-width="1.6" points="396.11,-844.7 388.97,-848.18 396.73,-849.91 396.11,-844.7"/>
</g>
<!-- offer&#45;&gt;audience -->
<g id="edge18" class="edge">
<title>offer&#45;&gt;audience</title>
<path fill="none" stroke="#222222" stroke-width="1.6" d="M925.5,-960.67C875.98,-952.2 772.01,-934.43 710.15,-923.85"/>
<polygon fill="#222222" stroke="#222222" stroke-width="1.6" points="710.28,-921.21 702.45,-922.54 709.4,-926.39 710.28,-921.21"/>
</g>
<!-- campaign_strategy -->
<g id="node10" class="node">
<title>campaign_strategy</title>
<path fill="#dbe7fb" stroke="#2c5fb3" stroke-width="2.4" d="M1299.35,-930.43C1299.35,-930.43 1232.35,-930.43 1232.35,-930.43 1226.35,-930.43 1220.35,-924.43 1220.35,-918.43 1220.35,-918.43 1220.35,-900.43 1220.35,-900.43 1220.35,-894.43 1226.35,-888.43 1232.35,-888.43 1232.35,-888.43 1299.35,-888.43 1299.35,-888.43 1305.35,-888.43 1311.35,-894.43 1311.35,-900.43 1311.35,-900.43 1311.35,-918.43 1311.35,-918.43 1311.35,-924.43 1305.35,-930.43 1299.35,-930.43"/>
<text text-anchor="middle" x="1265.85" y="-913.43" font-family="Helvetica,sans-Serif" font-size="12.50">Campaign</text>
<text text-anchor="middle" x="1265.85" y="-899.43" font-family="Helvetica,sans-Serif" font-size="12.50">Strategy</text>
</g>
<!-- offer&#45;&gt;campaign_strategy -->
<!-- experiment_strategy -->
<g id="node9" class="node">
<title>experiment_strategy</title>
<path fill="#dbe7fb" stroke="#2c5fb3" stroke-width="1.1" stroke-dasharray="5,2" d="M992.35,-930.43C992.35,-930.43 916.35,-930.43 916.35,-930.43 910.35,-930.43 904.35,-924.43 904.35,-918.43 904.35,-918.43 904.35,-900.43 904.35,-900.43 904.35,-894.43 910.35,-888.43 916.35,-888.43 916.35,-888.43 992.35,-888.43 992.35,-888.43 998.35,-888.43 1004.35,-894.43 1004.35,-900.43 1004.35,-900.43 1004.35,-918.43 1004.35,-918.43 1004.35,-924.43 998.35,-930.43 992.35,-930.43"/>
<text text-anchor="middle" x="954.35" y="-913.43" font-family="Helvetica,sans-Serif" font-size="12.50">Experiment</text>
<text text-anchor="middle" x="954.35" y="-899.43" font-family="Helvetica,sans-Serif" font-size="12.50">Strategy</text>
</g>
<!-- experiment_strategy&#45;&gt;offer -->
<g id="edge46" class="edge">
<title>experiment_strategy&#45;&gt;offer</title>
<path fill="none" stroke="#9aa3af" stroke-dasharray="5,2" d="M954.35,-930.86C954.35,-934.81 954.35,-938.76 954.35,-942.71"/>
<polygon fill="#9aa3af" stroke="#9aa3af" points="951.73,-942.8 954.35,-950.3 956.98,-942.8 951.73,-942.8"/>
</g>
<!-- experiment_strategy&#45;&gt;campaign_strategy -->
<g id="edge47" class="edge">
<title>experiment_strategy&#45;&gt;campaign_strategy</title>
<path fill="none" stroke="#9aa3af" stroke-dasharray="5,2" d="M1004.39,-909.43C1061.16,-909.43 1154.28,-909.43 1212.44,-909.43"/>
<polygon fill="#9aa3af" stroke="#9aa3af" points="1212.56,-912.05 1220.06,-909.43 1212.56,-906.8 1212.56,-912.05"/>
</g>
<!-- creative_strategy -->
<g id="node12" class="node">
<title>creative_strategy</title>
<path fill="#dbe7fb" stroke="#2c5fb3" stroke-width="2.4" d="M1635.35,-930.43C1635.35,-930.43 1578.35,-930.43 1578.35,-930.43 1572.35,-930.43 1566.35,-924.43 1566.35,-918.43 1566.35,-918.43 1566.35,-900.43 1566.35,-900.43 1566.35,-894.43 1572.35,-888.43 1578.35,-888.43 1578.35,-888.43 1635.35,-888.43 1635.35,-888.43 1641.35,-888.43 1647.35,-894.43 1647.35,-900.43 1647.35,-900.43 1647.35,-918.43 1647.35,-918.43 1647.35,-924.43 1641.35,-930.43 1635.35,-930.43"/>
<text text-anchor="middle" x="1606.85" y="-913.43" font-family="Helvetica,sans-Serif" font-size="12.50">Creative</text>
<text text-anchor="middle" x="1606.85" y="-899.43" font-family="Helvetica,sans-Serif" font-size="12.50">Strategy</text>
</g>
<!-- experiment_strategy&#45;&gt;creative_strategy -->
<g id="edge48" class="edge">
<title>experiment_strategy&#45;&gt;creative_strategy</title>
<path fill="none" stroke="#9aa3af" stroke-dasharray="5,2" d="M990.48,-888.39C1029.78,-866.18 1096.12,-832.6 1158.35,-819.43 1251.84,-799.63 1279.96,-799.22 1373.35,-819.43 1435.37,-832.84 1443.97,-856.08 1503.35,-878.43 1521.17,-885.13 1541.12,-891.43 1558.66,-896.57"/>
<polygon fill="#9aa3af" stroke="#9aa3af" points="1558.08,-899.14 1566.02,-898.71 1559.55,-894.1 1558.08,-899.14"/>
</g>
<!-- campaign_strategy&#45;&gt;business_context -->
<g id="edge24" class="edge">
<title>campaign_strategy&#45;&gt;business_context</title>
<path fill="none" stroke="#222222" stroke-width="1.6" d="M1219.99,-896.8C1108.05,-867.36 808.25,-801.22 569.35,-863.43 505.64,-880.02 499.48,-907.62 439.35,-934.43 426.62,-940.1 412.5,-945.46 399.37,-950.08"/>
<polygon fill="#222222" stroke="#222222" stroke-width="1.6" points="398.42,-947.63 392.19,-952.57 400.14,-952.6 398.42,-947.63"/>
</g>
<!-- campaign_strategy&#45;&gt;marketing_strategy -->
<g id="edge20" class="edge">
<title>campaign_strategy&#45;&gt;marketing_strategy</title>
<path fill="none" stroke="#222222" stroke-width="1.6" d="M1220.18,-896.81C1201.09,-891.32 1178.58,-884.71 1158.35,-878.43 1100.24,-860.36 1088.09,-847.05 1028.35,-835.43 798.36,-790.68 517.01,-788.9 403,-790.34"/>
<polygon fill="#222222" stroke="#222222" stroke-width="1.6" points="402.87,-787.72 395.41,-790.44 402.94,-792.96 402.87,-787.72"/>
</g>
<!-- campaign_strategy&#45;&gt;measurement_framework -->
<g id="edge25" class="edge">
<title>campaign_strategy&#45;&gt;measurement_framework</title>
<path fill="none" stroke="#222222" stroke-width="1.6" d="M1220.33,-898.78C1200.96,-893.56 1178.2,-886.62 1158.35,-878.43 1097.5,-853.3 1091.1,-827.34 1028.35,-807.43 810.42,-738.26 535.71,-729.07 414.15,-728.72"/>
<polygon fill="#222222" stroke="#222222" stroke-width="1.6" points="413.87,-726.1 406.36,-728.71 413.86,-731.35 413.87,-726.1"/>
</g>
<!-- campaign_strategy&#45;&gt;audience -->
<g id="edge22" class="edge">
<title>campaign_strategy&#45;&gt;audience</title>
<path fill="none" stroke="#222222" stroke-width="1.6" d="M1220.28,-898.78C1148.78,-883.05 1004.04,-856.76 881.35,-869.43 821.78,-875.57 754.58,-890.83 710.19,-902.09"/>
<polygon fill="#222222" stroke="#222222" stroke-width="1.6" points="709.33,-899.6 702.72,-904 710.64,-904.69 709.33,-899.6"/>
</g>
<!-- campaign_strategy&#45;&gt;offer -->
<g id="edge23" class="edge">
<title>campaign_strategy&#45;&gt;offer</title>
<path fill="none" stroke="#222222" stroke-width="1.6" d="M1220.3,-912.03C1158.33,-920.37 1047.35,-940.61 990.71,-954.04"/>
<polygon fill="#222222" stroke="#222222" stroke-width="1.6" points="989.76,-951.57 983.09,-955.89 991,-956.67 989.76,-951.57"/>
</g>
<!-- journey -->
<g id="node11" class="node">
<title>journey</title>
<path fill="#dbe7fb" stroke="#2c5fb3" stroke-width="2.4" d="M1293.35,-868.43C1293.35,-868.43 1238.35,-868.43 1238.35,-868.43 1233.35,-868.43 1228.35,-863.43 1228.35,-858.43 1228.35,-858.43 1228.35,-848.43 1228.35,-848.43 1228.35,-843.43 1233.35,-838.43 1238.35,-838.43 1238.35,-838.43 1293.35,-838.43 1293.35,-838.43 1298.35,-838.43 1303.35,-843.43 1303.35,-848.43 1303.35,-848.43 1303.35,-858.43 1303.35,-858.43 1303.35,-863.43 1298.35,-868.43 1293.35,-868.43"/>
<text text-anchor="middle" x="1265.85" y="-850.43" font-family="Helvetica,sans-Serif" font-size="12.50">Journey</text>
</g>
<!-- campaign_strategy&#45;&gt;journey -->
<g id="edge21" class="edge">
<title>campaign_strategy&#45;&gt;journey</title>
<path fill="none" stroke="#222222" stroke-width="1.6" d="M1292.37,-888.13C1294.45,-883.79 1294.51,-879.44 1292.54,-875.1"/>
<polygon fill="#222222" stroke="#222222" stroke-width="1.6" points="1294.6,-873.46 1288.2,-868.74 1290.26,-876.41 1294.6,-873.46"/>
</g>
<!-- campaign_strategy&#45;&gt;creative_strategy -->
<!-- journey&#45;&gt;business_context -->
<g id="edge29" class="edge">
<title>journey&#45;&gt;business_context</title>
<path fill="none" stroke="#222222" stroke-width="1.6" d="M1228.04,-843.56C1122.1,-817.01 808.74,-751.36 569.35,-833.43 500.14,-857.15 503.58,-899.37 439.35,-934.43 426.88,-941.24 412.61,-947.02 399.25,-951.68"/>
<polygon fill="#222222" stroke="#222222" stroke-width="1.6" points="398.21,-949.26 391.94,-954.15 399.89,-954.24 398.21,-949.26"/>
</g>
<!-- journey&#45;&gt;persona -->
<g id="edge28" class="edge">
<title>journey&#45;&gt;persona</title>
<path fill="none" stroke="#222222" stroke-width="1.6" d="M1228.32,-849.53C1159.11,-843.33 1004.79,-835.16 881.35,-869.43 817.92,-887.04 812.37,-915.72 751.35,-940.43 736.81,-946.31 720.42,-951.31 705.62,-955.25"/>
<polygon fill="#222222" stroke="#222222" stroke-width="1.6" points="704.64,-952.79 698.04,-957.21 705.96,-957.87 704.64,-952.79"/>
</g>
<!-- journey&#45;&gt;audience -->
<g id="edge27" class="edge">
<title>journey&#45;&gt;audience</title>
<path fill="none" stroke="#222222" stroke-width="1.6" d="M1232.85,-838.33C1166.49,-809.08 1009.37,-750.5 881.35,-785.43 802.73,-806.88 723.59,-864.31 685.03,-895.16"/>
<polygon fill="#222222" stroke="#222222" stroke-width="1.6" points="682.93,-893.48 678.75,-900.24 686.24,-897.56 682.93,-893.48"/>
</g>
<!-- journey&#45;&gt;campaign_strategy -->
<g id="edge26" class="edge">
<title>journey&#45;&gt;campaign_strategy</title>
<path fill="none" stroke="#222222" stroke-width="1.6" d="M1243.5,-868.74C1239.92,-872.68 1238,-876.62 1237.75,-880.55"/>
<polygon fill="#222222" stroke="#222222" stroke-width="1.6" points="1235.23,-881.32 1239.34,-888.13 1240.37,-880.25 1235.23,-881.32"/>
</g>
<!-- creative_strategy&#45;&gt;business_context -->
<g id="edge32" class="edge">
<title>creative_strategy&#45;&gt;business_context</title>
<path fill="none" stroke="#222222" stroke-width="1.6" d="M1566.07,-899.91C1546.73,-894.65 1523.38,-887.37 1503.35,-878.43 1441.62,-850.86 1438.16,-818.69 1373.35,-799.43 1030.82,-697.6 895.47,-646.34 569.35,-792.43 491.26,-827.41 510.73,-887.24 439.35,-934.43 427.38,-942.34 413.16,-948.49 399.67,-953.15"/>
<polygon fill="#222222" stroke="#222222" stroke-width="1.6" points="398.58,-950.74 392.28,-955.58 400.22,-955.73 398.58,-950.74"/>
</g>
<!-- creative_strategy&#45;&gt;brand_context -->
<g id="edge30" class="edge">
<title>creative_strategy&#45;&gt;brand_context</title>
<path fill="none" stroke="#222222" stroke-width="1.6" d="M1566.14,-905.52C1545.3,-901.63 1520.59,-893.87 1503.35,-878.43 1393.62,-780.07 1485.39,-669.14 1373.35,-573.43 1298.44,-509.43 1245.71,-564.99 1158.35,-519.43 1090.48,-484.02 1100.06,-433.23 1028.35,-406.43 932.81,-370.71 650.39,-344.48 569.35,-406.43 394.44,-540.12 594.15,-727.87 439.35,-884.43 432.98,-890.87 425.08,-895.68 416.65,-899.27"/>
<polygon fill="#222222" stroke="#222222" stroke-width="1.6" points="415.54,-896.88 409.47,-902 417.41,-901.79 415.54,-896.88"/>
</g>
<!-- creative_strategy&#45;&gt;product_context -->
<g id="edge31" class="edge">
<title>creative_strategy&#45;&gt;product_context</title>
<path fill="none" stroke="#222222" stroke-width="1.6" d="M1566.3,-905.99C1545.24,-902.25 1520.28,-894.48 1503.35,-878.43 1379.93,-761.36 1502.02,-629.71 1373.35,-518.43 1299.58,-454.62 1246.77,-515.61 1158.35,-474.43 1091.53,-443.3 1097.61,-396.66 1028.35,-371.43 967.87,-349.39 599.79,-340.41 569.35,-363.43 400.23,-491.3 584.5,-667.88 439.35,-822.43 428.11,-834.4 411.96,-841.75 396.57,-846.26"/>
<polygon fill="#222222" stroke="#222222" stroke-width="1.6" points="395.66,-843.79 389.09,-848.26 397.01,-848.86 395.66,-843.79"/>
</g>
<!-- experience -->
<g id="node14" class="node">
<title>experience</title>
<path fill="#dbe7fb" stroke="#2c5fb3" stroke-width="2.4" d="M1963.85,-627.43C1963.85,-627.43 1886.85,-627.43 1886.85,-627.43 1881.85,-627.43 1876.85,-622.43 1876.85,-617.43 1876.85,-617.43 1876.85,-607.43 1876.85,-607.43 1876.85,-602.43 1881.85,-597.43 1886.85,-597.43 1886.85,-597.43 1963.85,-597.43 1963.85,-597.43 1968.85,-597.43 1973.85,-602.43 1973.85,-607.43 1973.85,-607.43 1973.85,-617.43 1973.85,-617.43 1973.85,-622.43 1968.85,-627.43 1963.85,-627.43"/>
<text text-anchor="middle" x="1925.35" y="-609.43" font-family="Helvetica,sans-Serif" font-size="12.50">Experience</text>
</g>
<!-- creative_strategy&#45;&gt;experience -->
<!-- content_strategy -->
<g id="node13" class="node">
<title>content_strategy</title>
<path fill="#dbe7fb" stroke="#2c5fb3" stroke-width="2.4" d="M1635.35,-868.43C1635.35,-868.43 1578.35,-868.43 1578.35,-868.43 1572.35,-868.43 1566.35,-862.43 1566.35,-856.43 1566.35,-856.43 1566.35,-838.43 1566.35,-838.43 1566.35,-832.43 1572.35,-826.43 1578.35,-826.43 1578.35,-826.43 1635.35,-826.43 1635.35,-826.43 1641.35,-826.43 1647.35,-832.43 1647.35,-838.43 1647.35,-838.43 1647.35,-856.43 1647.35,-856.43 1647.35,-862.43 1641.35,-868.43 1635.35,-868.43"/>
<text text-anchor="middle" x="1606.85" y="-851.43" font-family="Helvetica,sans-Serif" font-size="12.50">Content</text>
<text text-anchor="middle" x="1606.85" y="-837.43" font-family="Helvetica,sans-Serif" font-size="12.50">Strategy</text>
</g>
<!-- content_strategy&#45;&gt;business_context -->
<g id="edge35" class="edge">
<title>content_strategy&#45;&gt;business_context</title>
<path fill="none" stroke="#222222" stroke-width="1.6" d="M1600.42,-826.01C1582.12,-758.91 1515.69,-552.54 1373.35,-473.43 1289.83,-427 1252.02,-454.51 1158.35,-473.43 879.94,-529.65 784.63,-536.14 569.35,-721.43 485.29,-793.77 525.54,-864.62 439.35,-934.43 427.78,-943.8 413.16,-950.44 399.18,-955.1"/>
<polygon fill="#222222" stroke="#222222" stroke-width="1.6" points="398.33,-952.62 391.95,-957.36 399.89,-957.63 398.33,-952.62"/>
</g>
<!-- content_strategy&#45;&gt;journey -->
<g id="edge34" class="edge">
<title>content_strategy&#45;&gt;journey</title>
<path fill="none" stroke="#222222" stroke-width="1.6" d="M1566.28,-848.13C1502.62,-849.25 1377.9,-851.46 1311.28,-852.64"/>
<polygon fill="#222222" stroke="#222222" stroke-width="1.6" points="1310.91,-850.02 1303.45,-852.78 1311,-855.27 1310.91,-850.02"/>
</g>
<!-- content_strategy&#45;&gt;creative_strategy -->
<g id="edge33" class="edge">
<title>content_strategy&#45;&gt;creative_strategy</title>
<path fill="none" stroke="#222222" stroke-width="1.6" d="M1606.85,-868.74C1606.85,-872.68 1606.85,-876.62 1606.85,-880.55"/>
<polygon fill="#222222" stroke="#222222" stroke-width="1.6" points="1604.23,-880.63 1606.85,-888.13 1609.48,-880.63 1604.23,-880.63"/>
</g>
<!-- experience&#45;&gt;business_context -->
<g id="edge42" class="edge">
<title>experience&#45;&gt;business_context</title>
<path fill="none" stroke="#222222" stroke-width="1.6" d="M1876.79,-598.38C1864.88,-594.83 1852.14,-591.01 1840.35,-587.43 1632.42,-524.21 1588.22,-475.02 1373.35,-442.43 1278.88,-428.1 1253.5,-433.57 1158.35,-442.43 890.23,-467.37 766.75,-401.27 569.35,-584.43 447.71,-697.29 557.68,-818.09 439.35,-934.43 428.53,-945.06 413.85,-952.07 399.58,-956.67"/>
<polygon fill="#222222" stroke="#222222" stroke-width="1.6" points="398.62,-954.22 392.17,-958.87 400.11,-959.25 398.62,-954.22"/>
</g>
<!-- experience&#45;&gt;audience -->
<g id="edge39" class="edge">
<title>experience&#45;&gt;audience</title>
<path fill="none" stroke="#222222" stroke-width="1.6" d="M1876.7,-611.53C1724.92,-610.35 1241.62,-619.36 881.35,-769.43 802.9,-802.1 722.62,-863.85 684.17,-895.55"/>
<polygon fill="#222222" stroke="#222222" stroke-width="1.6" points="682.46,-893.56 678.37,-900.37 685.81,-897.6 682.46,-893.56"/>
</g>
<!-- experience&#45;&gt;offer -->
<g id="edge40" class="edge">
<title>experience&#45;&gt;offer</title>
<path fill="none" stroke="#222222" stroke-width="1.6" d="M1876.72,-618.67C1798.06,-629.58 1636.47,-654.53 1503.35,-691.43 1424.55,-713.27 1227.96,-776.52 1158.35,-819.43 1091.16,-860.85 1096.06,-899.86 1028.35,-940.43 1016.63,-947.45 1002.67,-952.84 990.1,-956.79"/>
<polygon fill="#222222" stroke="#222222" stroke-width="1.6" points="989.32,-954.28 982.89,-958.95 990.83,-959.31 989.32,-954.28"/>
</g>
<!-- experience&#45;&gt;campaign_strategy -->
<g id="edge37" class="edge">
<title>experience&#45;&gt;campaign_strategy</title>
<path fill="none" stroke="#222222" stroke-width="1.6" d="M1904.12,-627.58C1867.3,-654.55 1786.12,-711.27 1710.35,-745.43 1622.8,-784.9 1591.98,-770.43 1503.35,-807.43 1442.6,-832.79 1434.2,-853.3 1373.35,-878.43 1355.99,-885.6 1336.39,-891.8 1318.78,-896.74"/>
<polygon fill="#222222" stroke="#222222" stroke-width="1.6" points="1317.91,-894.26 1311.37,-898.78 1319.3,-899.32 1317.91,-894.26"/>
</g>
<!-- experience&#45;&gt;journey -->
<g id="edge38" class="edge">
<title>experience&#45;&gt;journey</title>
<path fill="none" stroke="#222222" stroke-width="1.6" d="M1883.29,-627.48C1766.23,-670.38 1431.58,-793.05 1310.91,-837.28"/>
<polygon fill="#222222" stroke="#222222" stroke-width="1.6" points="1309.75,-834.91 1303.61,-839.95 1311.56,-839.84 1309.75,-834.91"/>
</g>
<!-- experience&#45;&gt;creative_strategy -->
<g id="edge41" class="edge">
<title>experience&#45;&gt;creative_strategy</title>
<path fill="none" stroke="#222222" stroke-width="1.6" d="M1913.86,-627.58C1886.96,-672.04 1810.59,-800.8 1710.35,-868.43 1694.03,-879.43 1673.68,-886.64 1655.42,-892.01"/>
<polygon fill="#222222" stroke="#222222" stroke-width="1.6" points="1654.23,-889.62 1647.74,-894.21 1655.68,-894.67 1654.23,-889.62"/>
</g>
<!-- experience_component -->
<g id="node15" class="node">
<title>experience_component</title>
<path fill="#dbe7fb" stroke="#2c5fb3" stroke-width="2.4" d="M1963.35,-577.43C1963.35,-577.43 1887.35,-577.43 1887.35,-577.43 1881.35,-577.43 1875.35,-571.43 1875.35,-565.43 1875.35,-565.43 1875.35,-547.43 1875.35,-547.43 1875.35,-541.43 1881.35,-535.43 1887.35,-535.43 1887.35,-535.43 1963.35,-535.43 1963.35,-535.43 1969.35,-535.43 1975.35,-541.43 1975.35,-547.43 1975.35,-547.43 1975.35,-565.43 1975.35,-565.43 1975.35,-571.43 1969.35,-577.43 1963.35,-577.43"/>
<text text-anchor="middle" x="1925.35" y="-560.43" font-family="Helvetica,sans-Serif" font-size="12.50">Experience</text>
<text text-anchor="middle" x="1925.35" y="-546.43" font-family="Helvetica,sans-Serif" font-size="12.50">Component</text>
</g>
<!-- experience&#45;&gt;experience_component -->
<g id="edge36" class="edge">
<title>experience&#45;&gt;experience_component</title>
<path fill="none" stroke="#222222" stroke-width="1.6" d="M1925.35,-597.3C1925.35,-593.36 1925.35,-589.41 1925.35,-585.46"/>
<polygon fill="#222222" stroke="#222222" stroke-width="1.6" points="1927.98,-585.36 1925.35,-577.86 1922.73,-585.36 1927.98,-585.36"/>
</g>
<!-- performance_measurement -->
<g id="node16" class="node">
<title>performance_measurement</title>
<path fill="#fde8c8" stroke="#b87811" stroke-width="1.1" stroke-dasharray="5,2" d="M2322.85,-600.43C2322.85,-600.43 2234.85,-600.43 2234.85,-600.43 2228.85,-600.43 2222.85,-594.43 2222.85,-588.43 2222.85,-588.43 2222.85,-570.43 2222.85,-570.43 2222.85,-564.43 2228.85,-558.43 2234.85,-558.43 2234.85,-558.43 2322.85,-558.43 2322.85,-558.43 2328.85,-558.43 2334.85,-564.43 2334.85,-570.43 2334.85,-570.43 2334.85,-588.43 2334.85,-588.43 2334.85,-594.43 2328.85,-600.43 2322.85,-600.43"/>
<text text-anchor="middle" x="2278.85" y="-583.43" font-family="Helvetica,sans-Serif" font-size="12.50">Performance</text>
<text text-anchor="middle" x="2278.85" y="-569.43" font-family="Helvetica,sans-Serif" font-size="12.50">Measurement</text>
</g>
<!-- experience&#45;&gt;performance_measurement -->
<!-- experience_component&#45;&gt;brand_context -->
<g id="edge43" class="edge">
<title>experience_component&#45;&gt;brand_context</title>
<path fill="none" stroke="#222222" stroke-width="1.6" d="M1885.82,-535.36C1843.94,-513.51 1774.41,-480.24 1710.35,-463.43 1465.1,-399.04 767.67,-309.44 569.35,-467.43 417.51,-588.39 578.36,-748.91 439.35,-884.43 432.96,-890.66 425.12,-895.36 416.79,-898.91"/>
<polygon fill="#222222" stroke="#222222" stroke-width="1.6" points="415.76,-896.49 409.7,-901.62 417.64,-901.39 415.76,-896.49"/>
</g>
<!-- experience_component&#45;&gt;product_context -->
<g id="edge44" class="edge">
<title>experience_component&#45;&gt;product_context</title>
<path fill="none" stroke="#222222" stroke-width="1.6" d="M1893.97,-535.22C1853.5,-507.65 1779.02,-459.29 1710.35,-427.43 1637.78,-393.74 1107.29,-209.43 1028.35,-196.43 927.71,-179.84 648.47,-132.05 569.35,-196.43 348.94,-375.77 626.39,-608.5 439.35,-822.43 428.45,-834.9 412.21,-842.35 396.65,-846.81"/>
<polygon fill="#222222" stroke="#222222" stroke-width="1.6" points="395.69,-844.34 389.08,-848.76 397,-849.43 395.69,-844.34"/>
</g>
<!-- experience_component&#45;&gt;persona -->
<g id="edge45" class="edge">
<title>experience_component&#45;&gt;persona</title>
<path fill="none" stroke="#222222" stroke-width="1.6" d="M1875.15,-559.31C1795.97,-564.69 1635.73,-578.61 1503.35,-609.43 1424.36,-627.81 1234.26,-699.88 1158.35,-728.43 1033.9,-775.23 996.8,-775.47 881.35,-841.43 818.29,-877.45 816.42,-908.17 751.35,-940.43 737.17,-947.45 720.74,-952.75 705.79,-956.61"/>
<polygon fill="#222222" stroke="#222222" stroke-width="1.6" points="704.78,-954.15 698.13,-958.5 706.04,-959.25 704.78,-954.15"/>
</g>
<!-- performance_measurement&#45;&gt;measurement_framework -->
<g id="edge51" class="edge">
<title>performance_measurement&#45;&gt;measurement_framework</title>
<path fill="none" stroke="#9aa3af" stroke-dasharray="5,2" d="M2222.64,-569.68C2197.5,-564.53 2167.56,-557.4 2141.35,-548.43 2041.37,-514.2 1808.18,-387.4 1710.35,-347.43 1472.44,-250.21 781.03,-12.66 569.35,-158.43 381.07,-288.08 355.3,-603.92 351.86,-700.74"/>
<polygon fill="#9aa3af" stroke="#9aa3af" points="349.23,-700.79 351.62,-708.37 354.48,-700.96 349.23,-700.79"/>
</g>
<!-- performance_measurement&#45;&gt;campaign_strategy -->
<g id="edge49" class="edge">
<title>performance_measurement&#45;&gt;campaign_strategy</title>
<path fill="none" stroke="#9aa3af" stroke-dasharray="5,2" d="M2222.67,-567.13C2197.8,-561.53 2168.07,-554.75 2141.35,-548.43 2010.44,-517.45 1969.14,-477.53 1840.35,-516.43 1668.19,-568.42 1640.8,-624.44 1503.35,-740.43 1438.96,-794.77 1445.22,-834.44 1373.35,-878.43 1356.97,-888.45 1337.18,-895.37 1319.13,-900.08"/>
<polygon fill="#9aa3af" stroke="#9aa3af" points="1318.17,-897.62 1311.52,-901.97 1319.43,-902.72 1318.17,-897.62"/>
</g>
<!-- performance_measurement&#45;&gt;experience -->
<g id="edge50" class="edge">
<title>performance_measurement&#45;&gt;experience</title>
<path fill="none" stroke="#9aa3af" stroke-dasharray="5,2" d="M2222.66,-578.97C2156.95,-582.66 2047.83,-592.9 1981.94,-601.56"/>
<polygon fill="#9aa3af" stroke="#9aa3af" points="1981.21,-599.01 1974.12,-602.6 1981.91,-604.21 1981.21,-599.01"/>
</g>
<!-- customer_insight -->
<g id="node17" class="node">
<title>customer_insight</title>
<path fill="#d8f0d6" stroke="#2e7d32" stroke-width="1.1" stroke-dasharray="5,2" d="M2310.85,-538.43C2310.85,-538.43 2246.85,-538.43 2246.85,-538.43 2240.85,-538.43 2234.85,-532.43 2234.85,-526.43 2234.85,-526.43 2234.85,-508.43 2234.85,-508.43 2234.85,-502.43 2240.85,-496.43 2246.85,-496.43 2246.85,-496.43 2310.85,-496.43 2310.85,-496.43 2316.85,-496.43 2322.85,-502.43 2322.85,-508.43 2322.85,-508.43 2322.85,-526.43 2322.85,-526.43 2322.85,-532.43 2316.85,-538.43 2310.85,-538.43"/>
<text text-anchor="middle" x="2278.85" y="-521.43" font-family="Helvetica,sans-Serif" font-size="12.50">Customer</text>
<text text-anchor="middle" x="2278.85" y="-507.43" font-family="Helvetica,sans-Serif" font-size="12.50">Insight</text>
</g>
<!-- customer_insight&#45;&gt;persona -->
<g id="edge54" class="edge">
<title>customer_insight&#45;&gt;persona</title>
<path fill="none" stroke="#1aa179" stroke-width="1.7" stroke-dasharray="5,2" d="M2234.56,-510.52C2155.87,-499.01 1984.19,-478.61 1840.35,-494.43 1399.73,-542.86 1229.02,-493.43 881.35,-768.43 806.2,-827.87 830.62,-886.59 751.35,-940.43 737.79,-949.63 720.93,-955.46 705.44,-959.15"/>
<polygon fill="#1aa179" stroke="#1aa179" stroke-width="1.7" points="704.73,-956.62 697.97,-960.79 705.86,-961.75 704.73,-956.62"/>
</g>
<!-- customer_insight&#45;&gt;performance_measurement -->
<g id="edge52" class="edge">
<title>customer_insight&#45;&gt;performance_measurement</title>
<path fill="none" stroke="#9aa3af" stroke-dasharray="5,2" d="M2278.85,-538.74C2278.85,-542.68 2278.85,-546.62 2278.85,-550.55"/>
<polygon fill="#9aa3af" stroke="#9aa3af" points="2276.23,-550.63 2278.85,-558.13 2281.48,-550.63 2276.23,-550.63"/>
</g>
<!-- optimization_recommendation -->
<g id="node18" class="node">
<title>optimization_recommendation</title>
<path fill="#d8f0d6" stroke="#2e7d32" stroke-width="1.1" stroke-dasharray="5,2" d="M2335.35,-476.43C2335.35,-476.43 2222.35,-476.43 2222.35,-476.43 2216.35,-476.43 2210.35,-470.43 2210.35,-464.43 2210.35,-464.43 2210.35,-446.43 2210.35,-446.43 2210.35,-440.43 2216.35,-434.43 2222.35,-434.43 2222.35,-434.43 2335.35,-434.43 2335.35,-434.43 2341.35,-434.43 2347.35,-440.43 2347.35,-446.43 2347.35,-446.43 2347.35,-464.43 2347.35,-464.43 2347.35,-470.43 2341.35,-476.43 2335.35,-476.43"/>
<text text-anchor="middle" x="2278.85" y="-459.43" font-family="Helvetica,sans-Serif" font-size="12.50">Optimization</text>
<text text-anchor="middle" x="2278.85" y="-445.43" font-family="Helvetica,sans-Serif" font-size="12.50">Recommendation</text>
</g>
<!-- optimization_recommendation&#45;&gt;marketing_strategy -->
<g id="edge55" class="edge">
<title>optimization_recommendation&#45;&gt;marketing_strategy</title>
<path fill="none" stroke="#1aa179" stroke-width="1.7" stroke-dasharray="5,2" d="M2246.75,-434.4C2063.05,-313.02 1109.65,277.65 569.35,-158.43 356.35,-330.34 620.33,-555.07 439.35,-760.43 429.95,-771.09 416.66,-778.08 403.24,-782.67"/>
<polygon fill="#1aa179" stroke="#1aa179" stroke-width="1.7" points="402.19,-780.25 395.8,-784.98 403.74,-785.27 402.19,-780.25"/>
</g>
<!-- optimization_recommendation&#45;&gt;performance_measurement -->
<g id="edge53" class="edge">
<title>optimization_recommendation&#45;&gt;performance_measurement</title>
<path fill="none" stroke="#9aa3af" stroke-dasharray="5,2" d="M2209.91,-449.1C2164.49,-449.12 2107.8,-457.97 2076.35,-496.43 2064.53,-510.88 2064.53,-523.98 2076.35,-538.43 2109.05,-578.41 2169.02,-586.38 2215.25,-585.71"/>
<polygon fill="#9aa3af" stroke="#9aa3af" points="2215.4,-588.33 2222.83,-585.52 2215.27,-583.08 2215.4,-588.33"/>
</g>
</g>
</svg>
