<?xml version="1.0" encoding="UTF-8" standalone="no"?>
<!DOCTYPE svg PUBLIC "-//W3C//DTD SVG 1.1//EN"
 "http://www.w3.org/Graphics/SVG/1.1/DTD/svg11.dtd">
<!-- Generated by graphviz version 2.43.0 (0)
 -->
<!-- Title: OSMM Pages: 1 -->
<svg width="2774pt" height="1162pt"
 viewBox="0.00 0.00 2774.00 1162.06" xmlns="http://www.w3.org/2000/svg" xmlns:xlink="http://www.w3.org/1999/xlink">
<g id="graph0" class="graph" transform="scale(1 1) rotate(0) translate(36 1126.06)">
<title>OSMM</title>
<polygon fill="white" stroke="transparent" points="-36,36 -36,-1126.06 2738,-1126.06 2738,36 -36,36"/>
<text text-anchor="middle" x="1351" y="-1065.26" font-family="Helvetica,sans-Serif" font-weight="bold" font-size="26.00">OSMM™ Object Graph — 25 objects across 5 categories</text>
<text text-anchor="middle" x="1351" y="-1036.26" font-family="Helvetica,sans-Serif" font-weight="bold" font-size="26.00">solid node = builder shipped (14) &#160;&#160;· &#160;&#160;dashed node = backlog (11) &#160;&#160;· &#160;&#160;solid edge = realized reference &#160;&#160;· &#160;&#160;dashed edge = envisioned &#160;&#160;· &#160;&#160;mint edge = learning loop</text>
<g id="clust1" class="cluster">
<title>cluster_0</title>
<path fill="#f7f9fb" stroke="#0f1b35" stroke-width="2" d="M1579,-788.48C1579,-788.48 2682,-788.48 2682,-788.48 2688,-788.48 2694,-794.48 2694,-800.48 2694,-800.48 2694,-992.48 2694,-992.48 2694,-998.48 2688,-1004.48 2682,-1004.48 2682,-1004.48 1579,-1004.48 1579,-1004.48 1573,-1004.48 1567,-998.48 1567,-992.48 1567,-992.48 1567,-800.48 1567,-800.48 1567,-794.48 1573,-788.48 1579,-788.48"/>
<text text-anchor="middle" x="2130.5" y="-986.08" font-family="Helvetica,sans-Serif" font-weight="bold" font-size="18.00">Context</text>
</g>
<g id="clust2" class="cluster">
<title>cluster_1</title>
<path fill="#f7f9fb" stroke="#2c5fb3" stroke-width="2" d="M314,-392.48C314,-392.48 2185,-392.48 2185,-392.48 2191,-392.48 2197,-398.48 2197,-404.48 2197,-404.48 2197,-768.48 2197,-768.48 2197,-774.48 2191,-780.48 2185,-780.48 2185,-780.48 314,-780.48 314,-780.48 308,-780.48 302,-774.48 302,-768.48 302,-768.48 302,-404.48 302,-404.48 302,-398.48 308,-392.48 314,-392.48"/>
<text text-anchor="middle" x="1249.5" y="-762.08" font-family="Helvetica,sans-Serif" font-weight="bold" font-size="18.00">Work Product</text>
</g>
<g id="clust3" class="cluster">
<title>cluster_2</title>
<path fill="#f7f9fb" stroke="#6b4ca3" stroke-width="2" d="M1067,-855.48C1067,-855.48 1200,-855.48 1200,-855.48 1206,-855.48 1212,-861.48 1212,-867.48 1212,-867.48 1212,-967.48 1212,-967.48 1212,-973.48 1206,-979.48 1200,-979.48 1200,-979.48 1067,-979.48 1067,-979.48 1061,-979.48 1055,-973.48 1055,-967.48 1055,-967.48 1055,-867.48 1055,-867.48 1055,-861.48 1061,-855.48 1067,-855.48"/>
<text text-anchor="middle" x="1133.5" y="-961.08" font-family="Helvetica,sans-Serif" font-weight="bold" font-size="18.00">Configuration</text>
</g>
<g id="clust4" class="cluster">
<title>cluster_3</title>
<path fill="#f7f9fb" stroke="#b87811" stroke-width="2" d="M309,-208.48C309,-208.48 440,-208.48 440,-208.48 446,-208.48 452,-214.48 452,-220.48 452,-220.48 452,-306.48 452,-306.48 452,-312.48 446,-318.48 440,-318.48 440,-318.48 309,-318.48 309,-318.48 303,-318.48 297,-312.48 297,-306.48 297,-306.48 297,-220.48 297,-220.48 297,-214.48 303,-208.48 309,-208.48"/>
<text text-anchor="middle" x="374.5" y="-300.08" font-family="Helvetica,sans-Serif" font-weight="bold" font-size="18.00">Measurement</text>
</g>
<g id="clust5" class="cluster">
<title>cluster_4</title>
<path fill="#f7f9fb" stroke="#2e7d32" stroke-width="2" d="M20,-169.48C20,-169.48 177,-169.48 177,-169.48 183,-169.48 189,-175.48 189,-181.48 189,-181.48 189,-349.48 189,-349.48 189,-355.48 183,-361.48 177,-361.48 177,-361.48 20,-361.48 20,-361.48 14,-361.48 8,-355.48 8,-349.48 8,-349.48 8,-181.48 8,-181.48 8,-175.48 14,-169.48 20,-169.48"/>
<text text-anchor="middle" x="98.5" y="-343.08" font-family="Helvetica,sans-Serif" font-weight="bold" font-size="18.00">Learning</text>
</g>
<!-- business_context -->
<g id="node1" class="node">
<title>business_context</title>
<path fill="#d4f2ec" stroke="#0f1b35" stroke-width="2.4" d="M2397,-852.48C2397,-852.48 2335,-852.48 2335,-852.48 2329,-852.48 2323,-846.48 2323,-840.48 2323,-840.48 2323,-818.48 2323,-818.48 2323,-812.48 2329,-806.48 2335,-806.48 2335,-806.48 2397,-806.48 2397,-806.48 2403,-806.48 2409,-812.48 2409,-818.48 2409,-818.48 2409,-840.48 2409,-840.48 2409,-846.48 2403,-852.48 2397,-852.48"/>
<text text-anchor="middle" x="2366" y="-833.08" font-family="Helvetica,sans-Serif" font-size="13.00">Business</text>
<text text-anchor="middle" x="2366" y="-819.08" font-family="Helvetica,sans-Serif" font-size="13.00">Context</text>
</g>
<!-- brand_context -->
<g id="node2" class="node">
<title>brand_context</title>
<path fill="#d4f2ec" stroke="#0f1b35" stroke-width="2.4" d="M2665.33,-845.48C2665.33,-845.48 2563.67,-845.48 2563.67,-845.48 2558.33,-845.48 2553,-840.15 2553,-834.81 2553,-834.81 2553,-824.15 2553,-824.15 2553,-818.81 2558.33,-813.48 2563.67,-813.48 2563.67,-813.48 2665.33,-813.48 2665.33,-813.48 2670.67,-813.48 2676,-818.81 2676,-824.15 2676,-824.15 2676,-834.81 2676,-834.81 2676,-840.15 2670.67,-845.48 2665.33,-845.48"/>
<text text-anchor="middle" x="2614.5" y="-826.08" font-family="Helvetica,sans-Serif" font-size="13.00">Brand Context</text>
</g>
<!-- business_context&#45;&gt;brand_context -->
<g id="edge1" class="edge">
<title>business_context&#45;&gt;brand_context</title>
<path fill="none" stroke="#222222" stroke-width="1.7" d="M2417.21,-829.48C2453.86,-829.48 2504,-829.48 2544.43,-829.48"/>
<polygon fill="#222222" stroke="#222222" stroke-width="1.7" points="2417.09,-826.68 2409.09,-829.48 2417.09,-832.28 2417.09,-826.68"/>
<polygon fill="#222222" stroke="#222222" stroke-width="1.7" points="2544.63,-832.28 2552.63,-829.48 2544.63,-826.68 2544.63,-832.28"/>
</g>
<!-- product_context -->
<g id="node3" class="node">
<title>product_context</title>
<path fill="#d4f2ec" stroke="#0f1b35" stroke-width="2.4" d="M1897,-920.48C1897,-920.48 1841,-920.48 1841,-920.48 1835,-920.48 1829,-914.48 1829,-908.48 1829,-908.48 1829,-886.48 1829,-886.48 1829,-880.48 1835,-874.48 1841,-874.48 1841,-874.48 1897,-874.48 1897,-874.48 1903,-874.48 1909,-880.48 1909,-886.48 1909,-886.48 1909,-908.48 1909,-908.48 1909,-914.48 1903,-920.48 1897,-920.48"/>
<text text-anchor="middle" x="1869" y="-901.08" font-family="Helvetica,sans-Serif" font-size="13.00">Product</text>
<text text-anchor="middle" x="1869" y="-887.08" font-family="Helvetica,sans-Serif" font-size="13.00">Context</text>
</g>
<!-- product_context&#45;&gt;business_context -->
<g id="edge2" class="edge">
<title>product_context&#45;&gt;business_context</title>
<path fill="none" stroke="#222222" stroke-width="1.7" d="M1909.22,-897.29C1958.25,-896.81 2044.69,-895.14 2118.5,-889.48"/>
<path fill="none" stroke="#222222" stroke-width="1.7" d="M2120.5,-889.48C2189.23,-884.21 2266.08,-862.66 2314.95,-846.89"/>
<polygon fill="#222222" stroke="#222222" stroke-width="1.7" points="2316.11,-849.46 2322.85,-844.31 2314.37,-844.13 2316.11,-849.46"/>
</g>
<!-- product_context&#45;&gt;brand_context -->
<g id="edge3" class="edge">
<title>product_context&#45;&gt;brand_context</title>
<path fill="none" stroke="#222222" stroke-width="1.7" d="M2120.5,-889.48C2248.62,-879.66 2281.61,-887.37 2409,-870.48 2454.41,-864.46 2504.88,-854.38 2544.31,-845.72"/>
<polygon fill="#222222" stroke="#222222" stroke-width="1.7" points="2545.35,-848.36 2552.56,-843.9 2544.14,-842.89 2545.35,-848.36"/>
</g>
<!-- persona -->
<g id="node4" class="node">
<title>persona</title>
<path fill="#d4f2ec" stroke="#0f1b35" stroke-width="2.4" d="M1898.83,-838.48C1898.83,-838.48 1839.17,-838.48 1839.17,-838.48 1833.83,-838.48 1828.5,-833.15 1828.5,-827.81 1828.5,-827.81 1828.5,-817.15 1828.5,-817.15 1828.5,-811.81 1833.83,-806.48 1839.17,-806.48 1839.17,-806.48 1898.83,-806.48 1898.83,-806.48 1904.17,-806.48 1909.5,-811.81 1909.5,-817.15 1909.5,-817.15 1909.5,-827.81 1909.5,-827.81 1909.5,-833.15 1904.17,-838.48 1898.83,-838.48"/>
<text text-anchor="middle" x="1869" y="-819.08" font-family="Helvetica,sans-Serif" font-size="13.00">Persona</text>
</g>
<!-- audience -->
<g id="node5" class="node">
<title>audience</title>
<path fill="#d4f2ec" stroke="#0f1b35" stroke-width="2.4" d="M2153.83,-838.48C2153.83,-838.48 2085.17,-838.48 2085.17,-838.48 2079.83,-838.48 2074.5,-833.15 2074.5,-827.81 2074.5,-827.81 2074.5,-817.15 2074.5,-817.15 2074.5,-811.81 2079.83,-806.48 2085.17,-806.48 2085.17,-806.48 2153.83,-806.48 2153.83,-806.48 2159.17,-806.48 2164.5,-811.81 2164.5,-817.15 2164.5,-817.15 2164.5,-827.81 2164.5,-827.81 2164.5,-833.15 2159.17,-838.48 2153.83,-838.48"/>
<text text-anchor="middle" x="2119.5" y="-819.08" font-family="Helvetica,sans-Serif" font-size="13.00">Audience</text>
</g>
<!-- persona&#45;&gt;audience -->
<g id="edge4" class="edge">
<title>persona&#45;&gt;audience</title>
<path fill="none" stroke="#222222" stroke-width="1.7" d="M1917.83,-822.48C1960.33,-822.48 2022.33,-822.48 2066.15,-822.48"/>
<polygon fill="#222222" stroke="#222222" stroke-width="1.7" points="1917.65,-819.68 1909.65,-822.48 1917.65,-825.28 1917.65,-819.68"/>
<polygon fill="#222222" stroke="#222222" stroke-width="1.7" points="2066.38,-825.28 2074.38,-822.48 2066.38,-819.68 2066.38,-825.28"/>
</g>
<!-- audience&#45;&gt;business_context -->
<g id="edge5" class="edge">
<title>audience&#45;&gt;business_context</title>
<path fill="none" stroke="#222222" stroke-width="1.7" d="M2164.78,-823.75C2207.01,-824.96 2270.55,-826.78 2314.68,-828.04"/>
<polygon fill="#222222" stroke="#222222" stroke-width="1.7" points="2314.61,-830.84 2322.69,-828.27 2314.77,-825.24 2314.61,-830.84"/>
</g>
<!-- keyword -->
<g id="node6" class="node">
<title>keyword</title>
<path fill="#d4f2ec" stroke="#0f1b35" stroke-width="2.4" d="M1659.33,-912.48C1659.33,-912.48 1595.67,-912.48 1595.67,-912.48 1590.33,-912.48 1585,-907.15 1585,-901.81 1585,-901.81 1585,-891.15 1585,-891.15 1585,-885.81 1590.33,-880.48 1595.67,-880.48 1595.67,-880.48 1659.33,-880.48 1659.33,-880.48 1664.67,-880.48 1670,-885.81 1670,-891.15 1670,-891.15 1670,-901.81 1670,-901.81 1670,-907.15 1664.67,-912.48 1659.33,-912.48"/>
<text text-anchor="middle" x="1627.5" y="-893.08" font-family="Helvetica,sans-Serif" font-size="13.00">Keyword</text>
</g>
<!-- keyword&#45;&gt;business_context -->
<g id="edge7" class="edge">
<title>keyword&#45;&gt;business_context</title>
<path fill="none" stroke="#222222" stroke-width="1.7" d="M1670.35,-908.28C1709.26,-918.6 1769.02,-932.8 1822,-938.48 1988.61,-956.36 2035.34,-943.59 2197,-899.48 2238.23,-888.23 2282.8,-869.33 2315.66,-854"/>
<polygon fill="#222222" stroke="#222222" stroke-width="1.7" points="2316.86,-856.53 2322.91,-850.58 2314.48,-851.46 2316.86,-856.53"/>
</g>
<!-- keyword&#45;&gt;persona -->
<g id="edge6" class="edge">
<title>keyword&#45;&gt;persona</title>
<path fill="none" stroke="#222222" stroke-width="1.7" d="M1670.22,-883.59C1712.19,-870.62 1776.82,-850.65 1820.68,-837.1"/>
<polygon fill="#222222" stroke="#222222" stroke-width="1.7" points="1821.53,-839.77 1828.35,-834.73 1819.88,-834.42 1821.53,-839.77"/>
</g>
<!-- marketing_strategy -->
<g id="node7" class="node">
<title>marketing_strategy</title>
<path fill="#dbe7fb" stroke="#2c5fb3" stroke-width="2.4" d="M1904,-622.48C1904,-622.48 1834,-622.48 1834,-622.48 1828,-622.48 1822,-616.48 1822,-610.48 1822,-610.48 1822,-588.48 1822,-588.48 1822,-582.48 1828,-576.48 1834,-576.48 1834,-576.48 1904,-576.48 1904,-576.48 1910,-576.48 1916,-582.48 1916,-588.48 1916,-588.48 1916,-610.48 1916,-610.48 1916,-616.48 1910,-622.48 1904,-622.48"/>
<text text-anchor="middle" x="1869" y="-603.08" font-family="Helvetica,sans-Serif" font-size="13.00">Marketing</text>
<text text-anchor="middle" x="1869" y="-589.08" font-family="Helvetica,sans-Serif" font-size="13.00">Strategy</text>
</g>
<!-- marketing_strategy&#45;&gt;business_context -->
<g id="edge8" class="edge">
<title>marketing_strategy&#45;&gt;business_context</title>
<path fill="none" stroke="#222222" stroke-width="1.7" d="M1916.26,-612.52C1966.51,-627.02 2048.93,-651.81 2118.5,-677.48"/>
<path fill="none" stroke="#222222" stroke-width="1.7" d="M2120.5,-677.48C2201.62,-707.41 2284.75,-766.3 2330.14,-801.34"/>
<polygon fill="#222222" stroke="#222222" stroke-width="1.7" points="2328.52,-803.63 2336.56,-806.33 2331.96,-799.21 2328.52,-803.63"/>
</g>
<!-- marketing_strategy&#45;&gt;brand_context -->
<g id="edge9" class="edge">
<title>marketing_strategy&#45;&gt;brand_context</title>
<path fill="none" stroke="#222222" stroke-width="1.7" d="M1904.71,-576.38C1991.2,-521.99 2219.82,-398 2365,-502.48"/>
</g>
<!-- marketing_strategy&#45;&gt;audience -->
<g id="edge10" class="edge">
<title>marketing_strategy&#45;&gt;audience</title>
<path fill="none" stroke="#222222" stroke-width="1.7" d="M1891.69,-622.7C1933.43,-667.11 2023.96,-762.11 2060,-789.48 2065.93,-793.99 2072.55,-798.3 2079.14,-802.23"/>
<polygon fill="#222222" stroke="#222222" stroke-width="1.7" points="2077.91,-804.76 2086.24,-806.35 2080.72,-799.92 2077.91,-804.76"/>
</g>
<!-- measurement_framework -->
<g id="node8" class="node">
<title>measurement_framework</title>
<path fill="#dbe7fb" stroke="#2c5fb3" stroke-width="2.4" d="M2167,-612.48C2167,-612.48 2072,-612.48 2072,-612.48 2066,-612.48 2060,-606.48 2060,-600.48 2060,-600.48 2060,-578.48 2060,-578.48 2060,-572.48 2066,-566.48 2072,-566.48 2072,-566.48 2167,-566.48 2167,-566.48 2173,-566.48 2179,-572.48 2179,-578.48 2179,-578.48 2179,-600.48 2179,-600.48 2179,-606.48 2173,-612.48 2167,-612.48"/>
<text text-anchor="middle" x="2119.5" y="-593.08" font-family="Helvetica,sans-Serif" font-size="13.00">Measurement</text>
<text text-anchor="middle" x="2119.5" y="-579.08" font-family="Helvetica,sans-Serif" font-size="13.00">Framework</text>
</g>
<!-- marketing_strategy&#45;&gt;measurement_framework -->
<g id="edge11" class="edge">
<title>marketing_strategy&#45;&gt;measurement_framework</title>
<path fill="none" stroke="#222222" stroke-width="1.7" d="M1924.23,-597.3C1961.71,-595.79 2011.83,-593.77 2051.77,-592.17"/>
<polygon fill="#222222" stroke="#222222" stroke-width="1.7" points="1924.04,-594.5 1916.16,-597.62 1924.26,-600.1 1924.04,-594.5"/>
<polygon fill="#222222" stroke="#222222" stroke-width="1.7" points="2051.99,-594.96 2059.87,-591.84 2051.76,-589.37 2051.99,-594.96"/>
</g>
<!-- measurement_framework&#45;&gt;business_context -->
<g id="edge12" class="edge">
<title>measurement_framework&#45;&gt;business_context</title>
<path fill="none" stroke="#222222" stroke-width="1.7" d="M2152.29,-612.66C2166.39,-623.38 2182.95,-636.59 2197,-649.48 2251.19,-699.21 2308.42,-763.39 2340.13,-800.15"/>
<polygon fill="#222222" stroke="#222222" stroke-width="1.7" points="2338.03,-802 2345.37,-806.24 2342.28,-798.35 2338.03,-802"/>
</g>
<!-- keyword_strategy -->
<g id="node9" class="node">
<title>keyword_strategy</title>
<path fill="#dbe7fb" stroke="#2c5fb3" stroke-width="1.1" stroke-dasharray="5,2" d="M1416,-734.48C1416,-734.48 1355,-734.48 1355,-734.48 1349,-734.48 1343,-728.48 1343,-722.48 1343,-722.48 1343,-700.48 1343,-700.48 1343,-694.48 1349,-688.48 1355,-688.48 1355,-688.48 1416,-688.48 1416,-688.48 1422,-688.48 1428,-694.48 1428,-700.48 1428,-700.48 1428,-722.48 1428,-722.48 1428,-728.48 1422,-734.48 1416,-734.48"/>
<text text-anchor="middle" x="1385.5" y="-715.08" font-family="Helvetica,sans-Serif" font-size="13.00">Keyword</text>
<text text-anchor="middle" x="1385.5" y="-701.08" font-family="Helvetica,sans-Serif" font-size="13.00">Strategy</text>
</g>
<!-- keyword_strategy&#45;&gt;audience -->
<g id="edge39" class="edge">
<title>keyword_strategy&#45;&gt;audience</title>
<path fill="none" stroke="#9aa3af" stroke-dasharray="5,2" d="M1394.36,-734.84C1417.49,-798.89 1492.26,-975.04 1626.5,-1013.48"/>
<path fill="none" stroke="#9aa3af" stroke-dasharray="5,2" d="M1628.5,-1013.48C1812.59,-1066.21 2023.93,-904.34 2094.31,-844.11"/>
<polygon fill="#9aa3af" stroke="#9aa3af" points="2096.45,-845.96 2100.68,-838.61 2092.79,-841.72 2096.45,-845.96"/>
</g>
<!-- keyword_strategy&#45;&gt;keyword -->
<g id="edge38" class="edge">
<title>keyword_strategy&#45;&gt;keyword</title>
<path fill="none" stroke="#9aa3af" stroke-dasharray="5,2" d="M1415.29,-734.72C1450.68,-763.15 1512.72,-812.55 1567,-853.48 1576.76,-860.84 1587.55,-868.72 1597.24,-875.69"/>
<polygon fill="#9aa3af" stroke="#9aa3af" points="1595.61,-877.97 1603.74,-880.36 1598.87,-873.42 1595.61,-877.97"/>
</g>
<!-- offer -->
<g id="node10" class="node">
<title>offer</title>
<path fill="#dbe7fb" stroke="#2c5fb3" stroke-width="2.4" d="M1647.83,-684.48C1647.83,-684.48 1607.17,-684.48 1607.17,-684.48 1601.83,-684.48 1596.5,-679.15 1596.5,-673.81 1596.5,-673.81 1596.5,-663.15 1596.5,-663.15 1596.5,-657.81 1601.83,-652.48 1607.17,-652.48 1607.17,-652.48 1647.83,-652.48 1647.83,-652.48 1653.17,-652.48 1658.5,-657.81 1658.5,-663.15 1658.5,-663.15 1658.5,-673.81 1658.5,-673.81 1658.5,-679.15 1653.17,-684.48 1647.83,-684.48"/>
<text text-anchor="middle" x="1627.5" y="-665.08" font-family="Helvetica,sans-Serif" font-size="13.00">Offer</text>
</g>
<!-- offer&#45;&gt;business_context -->
<g id="edge15" class="edge">
<title>offer&#45;&gt;business_context</title>
<path fill="none" stroke="#222222" stroke-width="1.7" d="M1647.29,-652.37C1693.94,-612.42 1812.03,-511.64 1822,-506.48 1943.04,-443.91 2007.58,-349.33 2118.5,-428.48"/>
</g>
<!-- offer&#45;&gt;product_context -->
<g id="edge13" class="edge">
<title>offer&#45;&gt;product_context</title>
<path fill="none" stroke="#222222" stroke-width="1.7" d="M1644.58,-684.57C1677.47,-717.36 1754.97,-794.1 1822,-856.48 1826.31,-860.49 1830.89,-864.67 1835.42,-868.76"/>
<polygon fill="#222222" stroke="#222222" stroke-width="1.7" points="1833.73,-871 1841.55,-874.26 1837.47,-866.83 1833.73,-871"/>
</g>
<!-- offer&#45;&gt;audience -->
<g id="edge14" class="edge">
<title>offer&#45;&gt;audience</title>
<path fill="none" stroke="#222222" stroke-width="1.7" d="M1658.87,-681.45C1703.73,-700.04 1790.75,-733.95 1868,-751.48"/>
<path fill="none" stroke="#222222" stroke-width="1.7" d="M1870,-751.48C1938.74,-767.08 2016.69,-790.27 2066.67,-805.86"/>
<polygon fill="#222222" stroke="#222222" stroke-width="1.7" points="2065.97,-808.58 2074.44,-808.3 2067.64,-803.24 2065.97,-808.58"/>
</g>
<!-- experiment_strategy -->
<g id="node11" class="node">
<title>experiment_strategy</title>
<path fill="#dbe7fb" stroke="#2c5fb3" stroke-width="1.1" stroke-dasharray="5,2" d="M1173.5,-658.48C1173.5,-658.48 1093.5,-658.48 1093.5,-658.48 1087.5,-658.48 1081.5,-652.48 1081.5,-646.48 1081.5,-646.48 1081.5,-624.48 1081.5,-624.48 1081.5,-618.48 1087.5,-612.48 1093.5,-612.48 1093.5,-612.48 1173.5,-612.48 1173.5,-612.48 1179.5,-612.48 1185.5,-618.48 1185.5,-624.48 1185.5,-624.48 1185.5,-646.48 1185.5,-646.48 1185.5,-652.48 1179.5,-658.48 1173.5,-658.48"/>
<text text-anchor="middle" x="1133.5" y="-639.08" font-family="Helvetica,sans-Serif" font-size="13.00">Experiment</text>
<text text-anchor="middle" x="1133.5" y="-625.08" font-family="Helvetica,sans-Serif" font-size="13.00">Strategy</text>
</g>
<!-- experiment_strategy&#45;&gt;offer -->
<g id="edge40" class="edge">
<title>experiment_strategy&#45;&gt;offer</title>
<path fill="none" stroke="#9aa3af" stroke-dasharray="5,2" d="M1185.76,-638.92C1284.83,-645.56 1500.53,-660.03 1588.25,-665.92"/>
<polygon fill="#9aa3af" stroke="#9aa3af" points="1588.16,-668.72 1596.33,-666.46 1588.54,-663.13 1588.16,-668.72"/>
</g>
<!-- campaign_strategy -->
<g id="node12" class="node">
<title>campaign_strategy</title>
<path fill="#dbe7fb" stroke="#2c5fb3" stroke-width="2.4" d="M1421,-614.48C1421,-614.48 1350,-614.48 1350,-614.48 1344,-614.48 1338,-608.48 1338,-602.48 1338,-602.48 1338,-580.48 1338,-580.48 1338,-574.48 1344,-568.48 1350,-568.48 1350,-568.48 1421,-568.48 1421,-568.48 1427,-568.48 1433,-574.48 1433,-580.48 1433,-580.48 1433,-602.48 1433,-602.48 1433,-608.48 1427,-614.48 1421,-614.48"/>
<text text-anchor="middle" x="1385.5" y="-595.08" font-family="Helvetica,sans-Serif" font-size="13.00">Campaign</text>
<text text-anchor="middle" x="1385.5" y="-581.08" font-family="Helvetica,sans-Serif" font-size="13.00">Strategy</text>
</g>
<!-- experiment_strategy&#45;&gt;campaign_strategy -->
<g id="edge41" class="edge">
<title>experiment_strategy&#45;&gt;campaign_strategy</title>
<path fill="none" stroke="#9aa3af" stroke-dasharray="5,2" d="M1185.69,-626.47C1227.57,-619.1 1286.65,-608.7 1329.52,-601.16"/>
<polygon fill="#9aa3af" stroke="#9aa3af" points="1330.2,-603.88 1337.6,-599.74 1329.23,-598.37 1330.2,-603.88"/>
</g>
<!-- creative_strategy -->
<g id="node15" class="node">
<title>creative_strategy</title>
<path fill="#dbe7fb" stroke="#2c5fb3" stroke-width="2.4" d="M1416,-532.48C1416,-532.48 1355,-532.48 1355,-532.48 1349,-532.48 1343,-526.48 1343,-520.48 1343,-520.48 1343,-498.48 1343,-498.48 1343,-492.48 1349,-486.48 1355,-486.48 1355,-486.48 1416,-486.48 1416,-486.48 1422,-486.48 1428,-492.48 1428,-498.48 1428,-498.48 1428,-520.48 1428,-520.48 1428,-526.48 1422,-532.48 1416,-532.48"/>
<text text-anchor="middle" x="1385.5" y="-513.08" font-family="Helvetica,sans-Serif" font-size="13.00">Creative</text>
<text text-anchor="middle" x="1385.5" y="-499.08" font-family="Helvetica,sans-Serif" font-size="13.00">Strategy</text>
</g>
<!-- experiment_strategy&#45;&gt;creative_strategy -->
<g id="edge42" class="edge">
<title>experiment_strategy&#45;&gt;creative_strategy</title>
<path fill="none" stroke="#9aa3af" stroke-dasharray="5,2" d="M1180.35,-612.37C1224.28,-590.23 1290.37,-556.92 1335.37,-534.24"/>
<polygon fill="#9aa3af" stroke="#9aa3af" points="1336.79,-536.66 1342.68,-530.56 1334.27,-531.66 1336.79,-536.66"/>
</g>
<!-- campaign_strategy&#45;&gt;business_context -->
<g id="edge20" class="edge">
<title>campaign_strategy&#45;&gt;business_context</title>
<path fill="none" stroke="#222222" stroke-width="1.7" d="M1412.65,-568.42C1462.55,-524.42 1566.46,-432.81 1567,-432.48 1591.24,-417.77 1602.16,-424.03 1626.5,-409.48"/>
</g>
<!-- campaign_strategy&#45;&gt;audience -->
<g id="edge18" class="edge">
<title>campaign_strategy&#45;&gt;audience</title>
<path fill="none" stroke="#222222" stroke-width="1.7" d="M1408.06,-614.7C1439.49,-646.79 1501.35,-703.56 1567,-728.48 1692.44,-776.09 1737.16,-721.79 1868,-751.48"/>
</g>
<!-- campaign_strategy&#45;&gt;marketing_strategy -->
<g id="edge16" class="edge">
<title>campaign_strategy&#45;&gt;marketing_strategy</title>
<path fill="none" stroke="#222222" stroke-width="1.7" d="M1628.5,-615.48C1692.06,-612.64 1764.99,-607.5 1813.5,-603.81"/>
<polygon fill="#222222" stroke="#222222" stroke-width="1.7" points="1813.91,-606.59 1821.67,-603.18 1813.48,-601 1813.91,-606.59"/>
</g>
<!-- campaign_strategy&#45;&gt;measurement_framework -->
<g id="edge21" class="edge">
<title>campaign_strategy&#45;&gt;measurement_framework</title>
<path fill="none" stroke="#222222" stroke-width="1.7" d="M1433.3,-600.19C1481.59,-608.22 1559.15,-618.49 1626.5,-615.48"/>
<path fill="none" stroke="#222222" stroke-width="1.7" d="M1628.5,-615.48C1718.06,-611.48 1733.26,-571.28 1822,-558.48 1863.35,-552.52 1874.34,-555.31 1916,-558.48 1961.52,-561.95 2012.31,-569.73 2051.63,-576.63"/>
<polygon fill="#222222" stroke="#222222" stroke-width="1.7" points="2051.48,-579.45 2059.85,-578.09 2052.46,-573.93 2051.48,-579.45"/>
</g>
<!-- campaign_strategy&#45;&gt;offer -->
<g id="edge19" class="edge">
<title>campaign_strategy&#45;&gt;offer</title>
<path fill="none" stroke="#222222" stroke-width="1.7" d="M1433.06,-606.42C1478.39,-620.96 1546.45,-642.8 1588.58,-656.32"/>
<polygon fill="#222222" stroke="#222222" stroke-width="1.7" points="1587.92,-659.04 1596.39,-658.82 1589.63,-653.71 1587.92,-659.04"/>
</g>
<!-- journey -->
<g id="node13" class="node">
<title>journey</title>
<path fill="#dbe7fb" stroke="#2c5fb3" stroke-width="2.4" d="M1655.83,-496.48C1655.83,-496.48 1599.17,-496.48 1599.17,-496.48 1593.83,-496.48 1588.5,-491.15 1588.5,-485.81 1588.5,-485.81 1588.5,-475.15 1588.5,-475.15 1588.5,-469.81 1593.83,-464.48 1599.17,-464.48 1599.17,-464.48 1655.83,-464.48 1655.83,-464.48 1661.17,-464.48 1666.5,-469.81 1666.5,-475.15 1666.5,-475.15 1666.5,-485.81 1666.5,-485.81 1666.5,-491.15 1661.17,-496.48 1655.83,-496.48"/>
<text text-anchor="middle" x="1627.5" y="-477.08" font-family="Helvetica,sans-Serif" font-size="13.00">Journey</text>
</g>
<!-- campaign_strategy&#45;&gt;journey -->
<g id="edge17" class="edge">
<title>campaign_strategy&#45;&gt;journey</title>
<path fill="none" stroke="#222222" stroke-width="1.7" d="M1440.6,-566.46C1483.99,-546.39 1544.04,-518.62 1584.02,-500.13"/>
<polygon fill="#222222" stroke="#222222" stroke-width="1.7" points="1439.14,-564.05 1433.06,-569.95 1441.5,-569.13 1439.14,-564.05"/>
<polygon fill="#222222" stroke="#222222" stroke-width="1.7" points="1585.65,-502.46 1591.74,-496.56 1583.3,-497.38 1585.65,-502.46"/>
</g>
<!-- journey&#45;&gt;business_context -->
<g id="edge25" class="edge">
<title>journey&#45;&gt;business_context</title>
<path fill="none" stroke="#222222" stroke-width="1.7" d="M1653.77,-496.63C1661.73,-502.04 1670.42,-508.27 1678,-514.48 1747.04,-571.06 1749.22,-602.8 1822,-654.48 1840.64,-667.72 1847.76,-666.87 1868,-677.48"/>
<path fill="none" stroke="#222222" stroke-width="1.7" d="M1870,-677.48C1967.81,-728.78 2014.88,-639.25 2118.5,-677.48"/>
</g>
<!-- journey&#45;&gt;persona -->
<g id="edge24" class="edge">
<title>journey&#45;&gt;persona</title>
<path fill="none" stroke="#222222" stroke-width="1.7" d="M1656.87,-496.5C1664.34,-501.6 1671.98,-507.7 1678,-514.48 1769.56,-617.69 1731.5,-685.34 1822,-789.48 1825.64,-793.67 1829.91,-797.61 1834.35,-801.22"/>
<polygon fill="#222222" stroke="#222222" stroke-width="1.7" points="1832.88,-803.62 1840.94,-806.25 1836.28,-799.17 1832.88,-803.62"/>
</g>
<!-- journey&#45;&gt;audience -->
<g id="edge23" class="edge">
<title>journey&#45;&gt;audience</title>
<path fill="none" stroke="#222222" stroke-width="1.7" d="M1870,-677.48C1890.24,-688.1 1896.04,-689.35 1916,-700.48 1981.71,-737.12 1995.22,-751.21 2060,-789.48 2067.15,-793.71 2074.86,-798.14 2082.25,-802.33"/>
<polygon fill="#222222" stroke="#222222" stroke-width="1.7" points="2081.16,-804.93 2089.51,-806.43 2083.92,-800.06 2081.16,-804.93"/>
</g>
<!-- messaging_framework -->
<g id="node14" class="node">
<title>messaging_framework</title>
<path fill="#dbe7fb" stroke="#2c5fb3" stroke-width="2.4" d="M1666,-578.48C1666,-578.48 1589,-578.48 1589,-578.48 1583,-578.48 1577,-572.48 1577,-566.48 1577,-566.48 1577,-544.48 1577,-544.48 1577,-538.48 1583,-532.48 1589,-532.48 1589,-532.48 1666,-532.48 1666,-532.48 1672,-532.48 1678,-538.48 1678,-544.48 1678,-544.48 1678,-566.48 1678,-566.48 1678,-572.48 1672,-578.48 1666,-578.48"/>
<text text-anchor="middle" x="1627.5" y="-559.08" font-family="Helvetica,sans-Serif" font-size="13.00">Messaging</text>
<text text-anchor="middle" x="1627.5" y="-545.08" font-family="Helvetica,sans-Serif" font-size="13.00">Framework</text>
</g>
<!-- messaging_framework&#45;&gt;brand_context -->
<g id="edge28" class="edge">
<title>messaging_framework&#45;&gt;brand_context</title>
<path fill="none" stroke="#222222" stroke-width="1.7" d="M1661.84,-532.39C1757.47,-467.44 2031.41,-290.74 2118.5,-335.48"/>
</g>
<!-- messaging_framework&#45;&gt;product_context -->
<g id="edge27" class="edge">
<title>messaging_framework&#45;&gt;product_context</title>
<path fill="none" stroke="#222222" stroke-width="1.7" d="M1654.01,-578.73C1662.16,-586.79 1670.9,-596.15 1678,-605.48 1755.9,-707.82 1740.95,-756.63 1822,-856.48 1825.35,-860.61 1829.14,-864.68 1833.06,-868.56"/>
<polygon fill="#222222" stroke="#222222" stroke-width="1.7" points="1831.15,-870.61 1838.87,-874.1 1835.01,-866.55 1831.15,-870.61"/>
</g>
<!-- messaging_framework&#45;&gt;persona -->
<g id="edge26" class="edge">
<title>messaging_framework&#45;&gt;persona</title>
<path fill="none" stroke="#222222" stroke-width="1.7" d="M1652.5,-578.59C1660.79,-586.87 1670.01,-596.41 1678,-605.48 1746.65,-683.4 1747.05,-717.6 1822,-789.48 1826.29,-793.6 1831.12,-797.61 1836,-801.34"/>
<polygon fill="#222222" stroke="#222222" stroke-width="1.7" points="1834.53,-803.74 1842.63,-806.23 1837.86,-799.23 1834.53,-803.74"/>
</g>
<!-- creative_strategy&#45;&gt;business_context -->
<g id="edge32" class="edge">
<title>creative_strategy&#45;&gt;business_context</title>
<path fill="none" stroke="#222222" stroke-width="1.7" d="M1428.27,-491.18C1464.75,-475.31 1519.18,-451.92 1567,-432.48 1593.26,-421.81 1602.16,-424.03 1626.5,-409.48"/>
<path fill="none" stroke="#222222" stroke-width="1.7" d="M1628.5,-409.48C1735.91,-345.29 1744.19,-243.36 1868,-261.48"/>
</g>
<!-- creative_strategy&#45;&gt;brand_context -->
<g id="edge30" class="edge">
<title>creative_strategy&#45;&gt;brand_context</title>
<path fill="none" stroke="#222222" stroke-width="1.7" d="M1410.82,-486.24C1472.98,-428.75 1645.24,-281.06 1822,-233.48 1956.57,-197.26 1990.83,-279.62 2118.5,-335.48"/>
<path fill="none" stroke="#222222" stroke-width="1.7" d="M2120.5,-335.48C2244.76,-378.82 2259.73,-423.52 2365,-502.48"/>
<path fill="none" stroke="#222222" stroke-width="1.7" d="M2367,-502.48C2483.48,-589.85 2571.36,-746.71 2601.84,-805.96"/>
<polygon fill="#222222" stroke="#222222" stroke-width="1.7" points="2599.47,-807.48 2605.6,-813.34 2604.46,-804.94 2599.47,-807.48"/>
</g>
<!-- creative_strategy&#45;&gt;product_context -->
<g id="edge31" class="edge">
<title>creative_strategy&#45;&gt;product_context</title>
<path fill="none" stroke="#222222" stroke-width="1.7" d="M1414.07,-532.77C1420.43,-538.42 1427.06,-544.55 1433,-550.48 1496.68,-614.17 1498.79,-643.67 1567,-702.48 1649.47,-773.59 1759.74,-838.55 1821.34,-872.58"/>
<polygon fill="#222222" stroke="#222222" stroke-width="1.7" points="1820.24,-875.17 1828.6,-876.57 1822.94,-870.26 1820.24,-875.17"/>
</g>
<!-- creative_strategy&#45;&gt;messaging_framework -->
<g id="edge29" class="edge">
<title>creative_strategy&#45;&gt;messaging_framework</title>
<path fill="none" stroke="#222222" stroke-width="1.7" d="M1428.03,-517.44C1466.93,-524.9 1525.42,-536.11 1568.84,-544.43"/>
<polygon fill="#222222" stroke="#222222" stroke-width="1.7" points="1568.38,-547.19 1576.77,-545.95 1569.44,-541.69 1568.38,-547.19"/>
</g>
<!-- content_strategy -->
<g id="node16" class="node">
<title>content_strategy</title>
<path fill="#dbe7fb" stroke="#2c5fb3" stroke-width="2.4" d="M1164,-494.48C1164,-494.48 1103,-494.48 1103,-494.48 1097,-494.48 1091,-488.48 1091,-482.48 1091,-482.48 1091,-460.48 1091,-460.48 1091,-454.48 1097,-448.48 1103,-448.48 1103,-448.48 1164,-448.48 1164,-448.48 1170,-448.48 1176,-454.48 1176,-460.48 1176,-460.48 1176,-482.48 1176,-482.48 1176,-488.48 1170,-494.48 1164,-494.48"/>
<text text-anchor="middle" x="1133.5" y="-475.08" font-family="Helvetica,sans-Serif" font-size="13.00">Content</text>
<text text-anchor="middle" x="1133.5" y="-461.08" font-family="Helvetica,sans-Serif" font-size="13.00">Strategy</text>
</g>
<!-- content_strategy&#45;&gt;business_context -->
<g id="edge37" class="edge">
<title>content_strategy&#45;&gt;business_context</title>
<path fill="none" stroke="#222222" stroke-width="1.7" d="M1172.66,-448.34C1280.04,-385.94 1594.73,-221.48 1868,-261.48"/>
<path fill="none" stroke="#222222" stroke-width="1.7" d="M1870,-261.48C2001.84,-279.51 2010.55,-350.68 2118.5,-428.48"/>
<path fill="none" stroke="#222222" stroke-width="1.7" d="M2120.5,-428.48C2255.16,-525.54 2330.27,-721.83 2355.38,-798.14"/>
<polygon fill="#222222" stroke="#222222" stroke-width="1.7" points="2352.8,-799.24 2357.93,-805.99 2358.13,-797.52 2352.8,-799.24"/>
</g>
<!-- content_strategy&#45;&gt;keyword -->
<g id="edge35" class="edge">
<title>content_strategy&#45;&gt;keyword</title>
<path fill="none" stroke="#222222" stroke-width="1.7" d="M1176.19,-487.78C1188.77,-494.13 1201.9,-502.35 1212,-512.48 1297.05,-597.8 1251.94,-668.17 1338,-752.48 1407.22,-820.29 1514.73,-862.24 1577.11,-882.29"/>
<polygon fill="#222222" stroke="#222222" stroke-width="1.7" points="1576.38,-885 1584.85,-884.75 1578.07,-879.66 1576.38,-885"/>
</g>
<!-- content_strategy&#45;&gt;journey -->
<g id="edge36" class="edge">
<title>content_strategy&#45;&gt;journey</title>
<path fill="none" stroke="#222222" stroke-width="1.7" d="M1176.1,-463.18C1225.72,-454.35 1311.19,-442.54 1384.5,-449.48"/>
<path fill="none" stroke="#222222" stroke-width="1.7" d="M1386.5,-449.48C1454.11,-455.88 1532.03,-466.56 1580.28,-473.56"/>
<polygon fill="#222222" stroke="#222222" stroke-width="1.7" points="1580.03,-476.35 1588.35,-474.74 1580.84,-470.81 1580.03,-476.35"/>
</g>
<!-- content_strategy&#45;&gt;messaging_framework -->
<g id="edge33" class="edge">
<title>content_strategy&#45;&gt;messaging_framework</title>
<path fill="none" stroke="#222222" stroke-width="1.7" d="M1386.5,-449.48C1461.77,-456.61 1540.32,-499.05 1586.26,-528.02"/>
<polygon fill="#222222" stroke="#222222" stroke-width="1.7" points="1584.82,-530.43 1593.07,-532.37 1587.84,-525.71 1584.82,-530.43"/>
</g>
<!-- content_strategy&#45;&gt;creative_strategy -->
<g id="edge34" class="edge">
<title>content_strategy&#45;&gt;creative_strategy</title>
<path fill="none" stroke="#222222" stroke-width="1.7" d="M1176.06,-477.8C1219.68,-484.43 1288.24,-494.85 1334.72,-501.91"/>
<polygon fill="#222222" stroke="#222222" stroke-width="1.7" points="1334.51,-504.71 1342.84,-503.15 1335.35,-499.18 1334.51,-504.71"/>
</g>
<!-- experience_specification -->
<g id="node17" class="node">
<title>experience_specification</title>
<path fill="#dbe7fb" stroke="#2c5fb3" stroke-width="1.1" stroke-dasharray="5,2" d="M1178.5,-576.48C1178.5,-576.48 1088.5,-576.48 1088.5,-576.48 1082.5,-576.48 1076.5,-570.48 1076.5,-564.48 1076.5,-564.48 1076.5,-542.48 1076.5,-542.48 1076.5,-536.48 1082.5,-530.48 1088.5,-530.48 1088.5,-530.48 1178.5,-530.48 1178.5,-530.48 1184.5,-530.48 1190.5,-536.48 1190.5,-542.48 1190.5,-542.48 1190.5,-564.48 1190.5,-564.48 1190.5,-570.48 1184.5,-576.48 1178.5,-576.48"/>
<text text-anchor="middle" x="1133.5" y="-557.08" font-family="Helvetica,sans-Serif" font-size="13.00">Experience</text>
<text text-anchor="middle" x="1133.5" y="-543.08" font-family="Helvetica,sans-Serif" font-size="13.00">Specification</text>
</g>
<!-- experience_specification&#45;&gt;campaign_strategy -->
<g id="edge44" class="edge">
<title>experience_specification&#45;&gt;campaign_strategy</title>
<path fill="none" stroke="#9aa3af" stroke-dasharray="5,2" d="M1190.6,-562.01C1232.17,-568.33 1288.53,-576.89 1329.76,-583.16"/>
<polygon fill="#9aa3af" stroke="#9aa3af" points="1329.47,-585.95 1337.8,-584.38 1330.31,-580.41 1329.47,-585.95"/>
</g>
<!-- experience_specification&#45;&gt;creative_strategy -->
<g id="edge43" class="edge">
<title>experience_specification&#45;&gt;creative_strategy</title>
<path fill="none" stroke="#9aa3af" stroke-dasharray="5,2" d="M1190.6,-543.61C1233.93,-535.98 1293.31,-525.53 1334.9,-518.21"/>
<polygon fill="#9aa3af" stroke="#9aa3af" points="1335.58,-520.93 1342.98,-516.79 1334.61,-515.42 1335.58,-520.93"/>
</g>
<!-- experience_component -->
<g id="node18" class="node">
<title>experience_component</title>
<path fill="#dbe7fb" stroke="#2c5fb3" stroke-width="1.1" stroke-dasharray="5,2" d="M917,-535.48C917,-535.48 836,-535.48 836,-535.48 830,-535.48 824,-529.48 824,-523.48 824,-523.48 824,-501.48 824,-501.48 824,-495.48 830,-489.48 836,-489.48 836,-489.48 917,-489.48 917,-489.48 923,-489.48 929,-495.48 929,-501.48 929,-501.48 929,-523.48 929,-523.48 929,-529.48 923,-535.48 917,-535.48"/>
<text text-anchor="middle" x="876.5" y="-516.08" font-family="Helvetica,sans-Serif" font-size="13.00">Experience</text>
<text text-anchor="middle" x="876.5" y="-502.08" font-family="Helvetica,sans-Serif" font-size="13.00">Component</text>
</g>
<!-- experience_component&#45;&gt;experience_specification -->
<g id="edge45" class="edge">
<title>experience_component&#45;&gt;experience_specification</title>
<path fill="none" stroke="#9aa3af" stroke-dasharray="5,2" d="M929.1,-520.78C969.16,-527.22 1024.94,-536.19 1067.95,-543.1"/>
<polygon fill="#9aa3af" stroke="#9aa3af" points="1067.76,-545.91 1076.1,-544.41 1068.65,-540.38 1067.76,-545.91"/>
</g>
<!-- experience_delivery -->
<g id="node19" class="node">
<title>experience_delivery</title>
<path fill="#dbe7fb" stroke="#2c5fb3" stroke-width="1.1" stroke-dasharray="5,2" d="M668,-456.48C668,-456.48 590,-456.48 590,-456.48 584,-456.48 578,-450.48 578,-444.48 578,-444.48 578,-422.48 578,-422.48 578,-416.48 584,-410.48 590,-410.48 590,-410.48 668,-410.48 668,-410.48 674,-410.48 680,-416.48 680,-422.48 680,-422.48 680,-444.48 680,-444.48 680,-450.48 674,-456.48 668,-456.48"/>
<text text-anchor="middle" x="629" y="-437.08" font-family="Helvetica,sans-Serif" font-size="13.00">Experience</text>
<text text-anchor="middle" x="629" y="-423.08" font-family="Helvetica,sans-Serif" font-size="13.00">Delivery</text>
</g>
<!-- experience_delivery&#45;&gt;journey -->
<g id="edge49" class="edge">
<title>experience_delivery&#45;&gt;journey</title>
<path fill="none" stroke="#9aa3af" stroke-dasharray="5,2" d="M680.07,-429.81C806.77,-421.38 1150.11,-404.01 1433,-439.48 1483.9,-445.86 1541.28,-458.76 1580.25,-468.39"/>
<polygon fill="#9aa3af" stroke="#9aa3af" points="1579.83,-471.17 1588.27,-470.39 1581.19,-465.74 1579.83,-471.17"/>
</g>
<!-- experience_delivery&#45;&gt;experience_component -->
<g id="edge48" class="edge">
<title>experience_delivery&#45;&gt;experience_component</title>
<path fill="none" stroke="#9aa3af" stroke-dasharray="5,2" d="M680.27,-449.66C719.55,-462.3 774.24,-479.9 815.75,-493.25"/>
<polygon fill="#9aa3af" stroke="#9aa3af" points="815.13,-496 823.6,-495.78 816.84,-490.67 815.13,-496"/>
</g>
<!-- experience_validation -->
<g id="node20" class="node">
<title>experience_validation</title>
<path fill="#dbe7fb" stroke="#2c5fb3" stroke-width="1.1" stroke-dasharray="5,2" d="M413.5,-538.48C413.5,-538.48 335.5,-538.48 335.5,-538.48 329.5,-538.48 323.5,-532.48 323.5,-526.48 323.5,-526.48 323.5,-504.48 323.5,-504.48 323.5,-498.48 329.5,-492.48 335.5,-492.48 335.5,-492.48 413.5,-492.48 413.5,-492.48 419.5,-492.48 425.5,-498.48 425.5,-504.48 425.5,-504.48 425.5,-526.48 425.5,-526.48 425.5,-532.48 419.5,-538.48 413.5,-538.48"/>
<text text-anchor="middle" x="374.5" y="-519.08" font-family="Helvetica,sans-Serif" font-size="13.00">Experience</text>
<text text-anchor="middle" x="374.5" y="-505.08" font-family="Helvetica,sans-Serif" font-size="13.00">Validation</text>
</g>
<!-- experience_validation&#45;&gt;experience_delivery -->
<g id="edge50" class="edge">
<title>experience_validation&#45;&gt;experience_delivery</title>
<path fill="none" stroke="#9aa3af" stroke-dasharray="5,2" d="M425.69,-499.18C467.34,-485.66 526.6,-466.41 570.23,-452.24"/>
<polygon fill="#9aa3af" stroke="#9aa3af" points="571.16,-454.88 577.91,-449.75 569.43,-449.56 571.16,-454.88"/>
</g>
<!-- campaign_deployment -->
<g id="node21" class="node">
<title>campaign_deployment</title>
<path fill="#dbe7fb" stroke="#2c5fb3" stroke-width="1.1" stroke-dasharray="5,2" d="M417,-456.48C417,-456.48 332,-456.48 332,-456.48 326,-456.48 320,-450.48 320,-444.48 320,-444.48 320,-422.48 320,-422.48 320,-416.48 326,-410.48 332,-410.48 332,-410.48 417,-410.48 417,-410.48 423,-410.48 429,-416.48 429,-422.48 429,-422.48 429,-444.48 429,-444.48 429,-450.48 423,-456.48 417,-456.48"/>
<text text-anchor="middle" x="374.5" y="-437.08" font-family="Helvetica,sans-Serif" font-size="13.00">Campaign</text>
<text text-anchor="middle" x="374.5" y="-423.08" font-family="Helvetica,sans-Serif" font-size="13.00">Deployment</text>
</g>
<!-- campaign_deployment&#45;&gt;experience_delivery -->
<g id="edge51" class="edge">
<title>campaign_deployment&#45;&gt;experience_delivery</title>
<path fill="none" stroke="#9aa3af" stroke-dasharray="5,2" d="M429.05,-433.48C470.39,-433.48 527.51,-433.48 569.95,-433.48"/>
<polygon fill="#9aa3af" stroke="#9aa3af" points="569.96,-436.28 577.96,-433.48 569.96,-430.68 569.96,-436.28"/>
</g>
<!-- personalization_configuration -->
<g id="node22" class="node">
<title>personalization_configuration</title>
<path fill="#ece1f9" stroke="#6b4ca3" stroke-width="1.1" stroke-dasharray="5,2" d="M1182,-933.48C1182,-933.48 1085,-933.48 1085,-933.48 1079,-933.48 1073,-927.48 1073,-921.48 1073,-921.48 1073,-885.48 1073,-885.48 1073,-879.48 1079,-873.48 1085,-873.48 1085,-873.48 1182,-873.48 1182,-873.48 1188,-873.48 1194,-879.48 1194,-885.48 1194,-885.48 1194,-921.48 1194,-921.48 1194,-927.48 1188,-933.48 1182,-933.48"/>
<text text-anchor="middle" x="1133.5" y="-914.08" font-family="Helvetica,sans-Serif" font-size="13.00">Personalizatio</text>
<text text-anchor="middle" x="1133.5" y="-900.08" font-family="Helvetica,sans-Serif" font-size="13.00">n</text>
<text text-anchor="middle" x="1133.5" y="-886.08" font-family="Helvetica,sans-Serif" font-size="13.00">Configuration</text>
</g>
<!-- personalization_configuration&#45;&gt;audience -->
<g id="edge47" class="edge">
<title>personalization_configuration&#45;&gt;audience</title>
<path fill="none" stroke="#9aa3af" stroke-dasharray="5,2" d="M1194.31,-916.97C1286.89,-937.82 1470.52,-979.07 1626.5,-1013.48"/>
</g>
<!-- personalization_configuration&#45;&gt;campaign_strategy -->
<g id="edge46" class="edge">
<title>personalization_configuration&#45;&gt;campaign_strategy</title>
<path fill="none" stroke="#9aa3af" stroke-dasharray="5,2" d="M1158.7,-873.28C1206.6,-813.5 1312.99,-680.72 1360.63,-621.27"/>
<polygon fill="#9aa3af" stroke="#9aa3af" points="1363.05,-622.73 1365.87,-614.73 1358.68,-619.22 1363.05,-622.73"/>
</g>
<!-- performance_measurement -->
<g id="node23" class="node">
<title>performance_measurement</title>
<path fill="#fde8c8" stroke="#b87811" stroke-width="1.1" stroke-dasharray="5,2" d="M422,-272.48C422,-272.48 327,-272.48 327,-272.48 321,-272.48 315,-266.48 315,-260.48 315,-260.48 315,-238.48 315,-238.48 315,-232.48 321,-226.48 327,-226.48 327,-226.48 422,-226.48 422,-226.48 428,-226.48 434,-232.48 434,-238.48 434,-238.48 434,-260.48 434,-260.48 434,-266.48 428,-272.48 422,-272.48"/>
<text text-anchor="middle" x="374.5" y="-253.08" font-family="Helvetica,sans-Serif" font-size="13.00">Performance</text>
<text text-anchor="middle" x="374.5" y="-239.08" font-family="Helvetica,sans-Serif" font-size="13.00">Measurement</text>
</g>
<!-- performance_measurement&#45;&gt;measurement_framework -->
<g id="edge54" class="edge">
<title>performance_measurement&#45;&gt;measurement_framework</title>
<path fill="none" stroke="#9aa3af" stroke-dasharray="5,2" d="M434.13,-247.94C588.47,-244.52 1003.04,-239.62 1132.5,-281.48"/>
<path fill="none" stroke="#9aa3af" stroke-dasharray="5,2" d="M1134.5,-281.48C1369.61,-373.42 1437.16,-370.84 1678,-446.48 1811.1,-488.29 1966.14,-539.11 2052.23,-567.53"/>
<polygon fill="#9aa3af" stroke="#9aa3af" points="2051.36,-570.19 2059.83,-570.04 2053.11,-564.87 2051.36,-570.19"/>
</g>
<!-- performance_measurement&#45;&gt;campaign_strategy -->
<g id="edge52" class="edge">
<title>performance_measurement&#45;&gt;campaign_strategy</title>
<path fill="none" stroke="#9aa3af" stroke-dasharray="5,2" d="M1134.5,-281.48C1277.14,-327.61 1236.04,-440.58 1338,-550.48 1341.74,-554.51 1345.83,-558.56 1350,-562.47"/>
<polygon fill="#9aa3af" stroke="#9aa3af" points="1348.32,-564.73 1356.11,-568.07 1352.1,-560.6 1348.32,-564.73"/>
</g>
<!-- performance_measurement&#45;&gt;experience_delivery -->
<g id="edge53" class="edge">
<title>performance_measurement&#45;&gt;experience_delivery</title>
<path fill="none" stroke="#9aa3af" stroke-dasharray="5,2" d="M407.22,-272.6C453.62,-306.41 539.86,-369.26 589.72,-405.59"/>
<polygon fill="#9aa3af" stroke="#9aa3af" points="588.09,-407.87 596.21,-410.31 591.39,-403.34 588.09,-407.87"/>
</g>
<!-- customer_insight -->
<g id="node24" class="node">
<title>customer_insight</title>
<path fill="#d8f0d6" stroke="#2e7d32" stroke-width="1.1" stroke-dasharray="5,2" d="M132.5,-315.48C132.5,-315.48 64.5,-315.48 64.5,-315.48 58.5,-315.48 52.5,-309.48 52.5,-303.48 52.5,-303.48 52.5,-281.48 52.5,-281.48 52.5,-275.48 58.5,-269.48 64.5,-269.48 64.5,-269.48 132.5,-269.48 132.5,-269.48 138.5,-269.48 144.5,-275.48 144.5,-281.48 144.5,-281.48 144.5,-303.48 144.5,-303.48 144.5,-309.48 138.5,-315.48 132.5,-315.48"/>
<text text-anchor="middle" x="98.5" y="-296.08" font-family="Helvetica,sans-Serif" font-size="13.00">Customer</text>
<text text-anchor="middle" x="98.5" y="-282.08" font-family="Helvetica,sans-Serif" font-size="13.00">Insight</text>
</g>
<!-- customer_insight&#45;&gt;persona -->
<g id="edge57" class="edge">
<title>customer_insight&#45;&gt;persona</title>
<path fill="none" stroke="#1aa179" stroke-width="1.8" stroke-dasharray="5,2" d="M144.82,-301.72C184.73,-309.57 244.52,-320.63 297,-327.48 443.39,-346.6 480.36,-355.48 628,-355.48 628,-355.48 628,-355.48 877.5,-355.48 1055.5,-355.48 1534.43,-278.26 1678,-383.48 1832.43,-496.66 1706.95,-636.45 1822,-789.48 1825.25,-793.81 1829.24,-797.8 1833.49,-801.41"/>
<polygon fill="#1aa179" stroke="#1aa179" stroke-width="1.8" points="1831.83,-803.66 1839.85,-806.4 1835.28,-799.26 1831.83,-803.66"/>
</g>
<!-- customer_insight&#45;&gt;performance_measurement -->
<g id="edge55" class="edge">
<title>customer_insight&#45;&gt;performance_measurement</title>
<path fill="none" stroke="#9aa3af" stroke-dasharray="5,2" d="M144.75,-285.38C188.9,-278.45 256.57,-267.83 306.88,-259.94"/>
<polygon fill="#9aa3af" stroke="#9aa3af" points="307.32,-262.7 314.79,-258.69 306.46,-257.17 307.32,-262.7"/>
</g>
<!-- optimization_recommendation -->
<g id="node25" class="node">
<title>optimization_recommendation</title>
<path fill="#d8f0d6" stroke="#2e7d32" stroke-width="1.1" stroke-dasharray="5,2" d="M159,-233.48C159,-233.48 38,-233.48 38,-233.48 32,-233.48 26,-227.48 26,-221.48 26,-221.48 26,-199.48 26,-199.48 26,-193.48 32,-187.48 38,-187.48 38,-187.48 159,-187.48 159,-187.48 165,-187.48 171,-193.48 171,-199.48 171,-199.48 171,-221.48 171,-221.48 171,-227.48 165,-233.48 159,-233.48"/>
<text text-anchor="middle" x="98.5" y="-214.08" font-family="Helvetica,sans-Serif" font-size="13.00">Optimization</text>
<text text-anchor="middle" x="98.5" y="-200.08" font-family="Helvetica,sans-Serif" font-size="13.00">Recommendation</text>
</g>
<!-- optimization_recommendation&#45;&gt;marketing_strategy -->
<g id="edge58" class="edge">
<title>optimization_recommendation&#45;&gt;marketing_strategy</title>
<path fill="none" stroke="#1aa179" stroke-width="1.8" stroke-dasharray="5,2" d="M156.32,-187.36C375.04,-102.39 1175.39,170.95 1678,-159.48 1822.18,-254.27 1857.45,-484.22 1865.65,-568.15"/>
<polygon fill="#1aa179" stroke="#1aa179" stroke-width="1.8" points="1862.87,-568.56 1866.4,-576.27 1868.45,-568.05 1862.87,-568.56"/>
</g>
<!-- optimization_recommendation&#45;&gt;performance_measurement -->
<g id="edge56" class="edge">
<title>optimization_recommendation&#45;&gt;performance_measurement</title>
<path fill="none" stroke="#9aa3af" stroke-dasharray="5,2" d="M171.13,-220.68C213.05,-226.64 265.64,-234.13 306.7,-239.97"/>
<polygon fill="#9aa3af" stroke="#9aa3af" points="306.43,-242.76 314.75,-241.12 307.22,-237.22 306.43,-242.76"/>
</g>
</g>
</svg>
