<?xml version="1.0" encoding="UTF-8" standalone="no"?>
<!DOCTYPE svg PUBLIC "-//W3C//DTD SVG 1.1//EN"
 "http://www.w3.org/Graphics/SVG/1.1/DTD/svg11.dtd">
<!-- Generated by graphviz version 2.43.0 (0)
 -->
<!-- Title: OSMM Pages: 1 -->
<svg width="3036pt" height="945pt"
 viewBox="0.00 0.00 3036.00 945.00" xmlns="http://www.w3.org/2000/svg" xmlns:xlink="http://www.w3.org/1999/xlink">
<g id="graph0" class="graph" transform="scale(1 1) rotate(0) translate(36 909)">
<title>OSMM</title>
<polygon fill="white" stroke="transparent" points="-36,36 -36,-909 3000,-909 3000,36 -36,36"/>
<text text-anchor="middle" x="1482" y="-848.2" font-family="Helvetica,sans-Serif" font-weight="bold" font-size="26.00">OSMM™ Object Graph — 27 objects across 5 categories</text>
<text text-anchor="middle" x="1482" y="-819.2" font-family="Helvetica,sans-Serif" font-weight="bold" font-size="26.00">solid node = builder shipped (8) &#160;&#160;· &#160;&#160;dashed node = backlog (19) &#160;&#160;· &#160;&#160;solid edge = realized reference &#160;&#160;· &#160;&#160;dashed edge = envisioned &#160;&#160;· &#160;&#160;mint edge = learning loop</text>
<g id="clust1" class="cluster">
<title>cluster_0</title>
<path fill="#f7f9fb" stroke="#0f1b35" stroke-width="2" d="M1841,-551C1841,-551 2944,-551 2944,-551 2950,-551 2956,-557 2956,-563 2956,-563 2956,-755 2956,-755 2956,-761 2950,-767 2944,-767 2944,-767 1841,-767 1841,-767 1835,-767 1829,-761 1829,-755 1829,-755 1829,-563 1829,-563 1829,-557 1835,-551 1841,-551"/>
<text text-anchor="middle" x="2392.5" y="-748.6" font-family="Helvetica,sans-Serif" font-weight="bold" font-size="18.00">Context</text>
</g>
<g id="clust2" class="cluster">
<title>cluster_1</title>
<path fill="#f7f9fb" stroke="#2c5fb3" stroke-width="2" d="M314,-231C314,-231 2447,-231 2447,-231 2453,-231 2459,-237 2459,-243 2459,-243 2459,-531 2459,-531 2459,-537 2453,-543 2447,-543 2447,-543 314,-543 314,-543 308,-543 302,-537 302,-531 302,-531 302,-243 302,-243 302,-237 308,-231 314,-231"/>
<text text-anchor="middle" x="1380.5" y="-524.6" font-family="Helvetica,sans-Serif" font-weight="bold" font-size="18.00">Work Product</text>
</g>
<g id="clust3" class="cluster">
<title>cluster_2</title>
<path fill="#f7f9fb" stroke="#6b4ca3" stroke-width="2" d="M1067,-675C1067,-675 1462,-675 1462,-675 1468,-675 1474,-681 1474,-687 1474,-687 1474,-787 1474,-787 1474,-793 1468,-799 1462,-799 1462,-799 1067,-799 1067,-799 1061,-799 1055,-793 1055,-787 1055,-787 1055,-687 1055,-687 1055,-681 1061,-675 1067,-675"/>
<text text-anchor="middle" x="1264.5" y="-780.6" font-family="Helvetica,sans-Serif" font-weight="bold" font-size="18.00">Configuration</text>
</g>
<g id="clust4" class="cluster">
<title>cluster_3</title>
<path fill="#f7f9fb" stroke="#b87811" stroke-width="2" d="M309,-47C309,-47 440,-47 440,-47 446,-47 452,-53 452,-59 452,-59 452,-145 452,-145 452,-151 446,-157 440,-157 440,-157 309,-157 309,-157 303,-157 297,-151 297,-145 297,-145 297,-59 297,-59 297,-53 303,-47 309,-47"/>
<text text-anchor="middle" x="374.5" y="-138.6" font-family="Helvetica,sans-Serif" font-weight="bold" font-size="18.00">Measurement</text>
</g>
<g id="clust5" class="cluster">
<title>cluster_4</title>
<path fill="#f7f9fb" stroke="#2e7d32" stroke-width="2" d="M20,-8C20,-8 177,-8 177,-8 183,-8 189,-14 189,-20 189,-20 189,-188 189,-188 189,-194 183,-200 177,-200 177,-200 20,-200 20,-200 14,-200 8,-194 8,-188 8,-188 8,-20 8,-20 8,-14 14,-8 20,-8"/>
<text text-anchor="middle" x="98.5" y="-181.6" font-family="Helvetica,sans-Serif" font-weight="bold" font-size="18.00">Learning</text>
</g>
<!-- business_context -->
<g id="node1" class="node">
<title>business_context</title>
<path fill="#d4f2ec" stroke="#0f1b35" stroke-width="2.4" d="M2659,-615C2659,-615 2597,-615 2597,-615 2591,-615 2585,-609 2585,-603 2585,-603 2585,-581 2585,-581 2585,-575 2591,-569 2597,-569 2597,-569 2659,-569 2659,-569 2665,-569 2671,-575 2671,-581 2671,-581 2671,-603 2671,-603 2671,-609 2665,-615 2659,-615"/>
<text text-anchor="middle" x="2628" y="-595.6" font-family="Helvetica,sans-Serif" font-size="13.00">Business</text>
<text text-anchor="middle" x="2628" y="-581.6" font-family="Helvetica,sans-Serif" font-size="13.00">Context</text>
</g>
<!-- brand_context -->
<g id="node2" class="node">
<title>brand_context</title>
<path fill="#d4f2ec" stroke="#0f1b35" stroke-width="2.4" d="M2927.33,-608C2927.33,-608 2825.67,-608 2825.67,-608 2820.33,-608 2815,-602.67 2815,-597.33 2815,-597.33 2815,-586.67 2815,-586.67 2815,-581.33 2820.33,-576 2825.67,-576 2825.67,-576 2927.33,-576 2927.33,-576 2932.67,-576 2938,-581.33 2938,-586.67 2938,-586.67 2938,-597.33 2938,-597.33 2938,-602.67 2932.67,-608 2927.33,-608"/>
<text text-anchor="middle" x="2876.5" y="-588.6" font-family="Helvetica,sans-Serif" font-size="13.00">Brand Context</text>
</g>
<!-- business_context&#45;&gt;brand_context -->
<g id="edge1" class="edge">
<title>business_context&#45;&gt;brand_context</title>
<path fill="none" stroke="#222222" stroke-width="1.7" d="M2679.21,-592C2715.86,-592 2766,-592 2806.43,-592"/>
<polygon fill="#222222" stroke="#222222" stroke-width="1.7" points="2679.09,-589.2 2671.09,-592 2679.09,-594.8 2679.09,-589.2"/>
<polygon fill="#222222" stroke="#222222" stroke-width="1.7" points="2806.63,-594.8 2814.63,-592 2806.63,-589.2 2806.63,-594.8"/>
</g>
<!-- product_context -->
<g id="node3" class="node">
<title>product_context</title>
<path fill="#d4f2ec" stroke="#0f1b35" stroke-width="2.4" d="M2409.5,-615C2409.5,-615 2353.5,-615 2353.5,-615 2347.5,-615 2341.5,-609 2341.5,-603 2341.5,-603 2341.5,-581 2341.5,-581 2341.5,-575 2347.5,-569 2353.5,-569 2353.5,-569 2409.5,-569 2409.5,-569 2415.5,-569 2421.5,-575 2421.5,-581 2421.5,-581 2421.5,-603 2421.5,-603 2421.5,-609 2415.5,-615 2409.5,-615"/>
<text text-anchor="middle" x="2381.5" y="-595.6" font-family="Helvetica,sans-Serif" font-size="13.00">Product</text>
<text text-anchor="middle" x="2381.5" y="-581.6" font-family="Helvetica,sans-Serif" font-size="13.00">Context</text>
</g>
<!-- product_context&#45;&gt;business_context -->
<g id="edge2" class="edge">
<title>product_context&#45;&gt;business_context</title>
<path fill="none" stroke="#222222" stroke-width="1.7" d="M2421.51,-592C2463.61,-592 2530.79,-592 2576.8,-592"/>
<polygon fill="#222222" stroke="#222222" stroke-width="1.7" points="2576.85,-594.8 2584.85,-592 2576.85,-589.2 2576.85,-594.8"/>
</g>
<!-- product_context&#45;&gt;brand_context -->
<g id="edge3" class="edge">
<title>product_context&#45;&gt;brand_context</title>
<path fill="none" stroke="#222222" stroke-width="1.7" d="M2421.72,-602.37C2462.26,-612.51 2527.54,-627.24 2585,-633 2663.05,-640.82 2752.33,-624.39 2811.08,-610.06"/>
<polygon fill="#222222" stroke="#222222" stroke-width="1.7" points="2812.07,-612.7 2819.16,-608.06 2810.72,-607.27 2812.07,-612.7"/>
</g>
<!-- persona -->
<g id="node4" class="node">
<title>persona</title>
<path fill="#d4f2ec" stroke="#0f1b35" stroke-width="2.4" d="M2160.83,-673C2160.83,-673 2101.17,-673 2101.17,-673 2095.83,-673 2090.5,-667.67 2090.5,-662.33 2090.5,-662.33 2090.5,-651.67 2090.5,-651.67 2090.5,-646.33 2095.83,-641 2101.17,-641 2101.17,-641 2160.83,-641 2160.83,-641 2166.17,-641 2171.5,-646.33 2171.5,-651.67 2171.5,-651.67 2171.5,-662.33 2171.5,-662.33 2171.5,-667.67 2166.17,-673 2160.83,-673"/>
<text text-anchor="middle" x="2131" y="-653.6" font-family="Helvetica,sans-Serif" font-size="13.00">Persona</text>
</g>
<!-- audience -->
<g id="node5" class="node">
<title>audience</title>
<path fill="#d4f2ec" stroke="#0f1b35" stroke-width="2.4" d="M2415.83,-683C2415.83,-683 2347.17,-683 2347.17,-683 2341.83,-683 2336.5,-677.67 2336.5,-672.33 2336.5,-672.33 2336.5,-661.67 2336.5,-661.67 2336.5,-656.33 2341.83,-651 2347.17,-651 2347.17,-651 2415.83,-651 2415.83,-651 2421.17,-651 2426.5,-656.33 2426.5,-661.67 2426.5,-661.67 2426.5,-672.33 2426.5,-672.33 2426.5,-677.67 2421.17,-683 2415.83,-683"/>
<text text-anchor="middle" x="2381.5" y="-663.6" font-family="Helvetica,sans-Serif" font-size="13.00">Audience</text>
</g>
<!-- persona&#45;&gt;audience -->
<g id="edge4" class="edge">
<title>persona&#45;&gt;audience</title>
<path fill="none" stroke="#222222" stroke-width="1.7" d="M2179.83,-658.92C2222.33,-660.63 2284.33,-663.13 2328.15,-664.89"/>
<polygon fill="#222222" stroke="#222222" stroke-width="1.7" points="2179.76,-656.12 2171.65,-658.6 2179.53,-661.72 2179.76,-656.12"/>
<polygon fill="#222222" stroke="#222222" stroke-width="1.7" points="2328.28,-667.7 2336.38,-665.22 2328.5,-662.11 2328.28,-667.7"/>
</g>
<!-- audience&#45;&gt;business_context -->
<g id="edge5" class="edge">
<title>audience&#45;&gt;business_context</title>
<path fill="none" stroke="#222222" stroke-width="1.7" d="M2426.78,-653.42C2469.1,-640.44 2532.82,-620.89 2576.96,-607.35"/>
<polygon fill="#222222" stroke="#222222" stroke-width="1.7" points="2577.86,-610 2584.69,-604.98 2576.22,-604.65 2577.86,-610"/>
</g>
<!-- keyword -->
<g id="node6" class="node">
<title>keyword</title>
<path fill="#d4f2ec" stroke="#0f1b35" stroke-width="2.4" d="M1921.33,-656C1921.33,-656 1857.67,-656 1857.67,-656 1852.33,-656 1847,-650.67 1847,-645.33 1847,-645.33 1847,-634.67 1847,-634.67 1847,-629.33 1852.33,-624 1857.67,-624 1857.67,-624 1921.33,-624 1921.33,-624 1926.67,-624 1932,-629.33 1932,-634.67 1932,-634.67 1932,-645.33 1932,-645.33 1932,-650.67 1926.67,-656 1921.33,-656"/>
<text text-anchor="middle" x="1889.5" y="-636.6" font-family="Helvetica,sans-Serif" font-size="13.00">Keyword</text>
</g>
<!-- keyword&#45;&gt;business_context -->
<g id="edge7" class="edge">
<title>keyword&#45;&gt;business_context</title>
<path fill="none" stroke="#222222" stroke-width="1.7" d="M1932.17,-655.32C2027.53,-688.07 2268.16,-757.49 2459,-701 2511.76,-685.39 2563.48,-647.43 2595.3,-620.71"/>
<polygon fill="#222222" stroke="#222222" stroke-width="1.7" points="2597.5,-622.51 2601.77,-615.2 2593.87,-618.25 2597.5,-622.51"/>
</g>
<!-- keyword&#45;&gt;persona -->
<g id="edge6" class="edge">
<title>keyword&#45;&gt;persona</title>
<path fill="none" stroke="#222222" stroke-width="1.7" d="M1932.22,-642.96C1974.02,-645.93 2038.29,-650.49 2082.14,-653.6"/>
<polygon fill="#222222" stroke="#222222" stroke-width="1.7" points="2082.17,-656.41 2090.35,-654.19 2082.57,-650.83 2082.17,-656.41"/>
</g>
<!-- marketing_strategy -->
<g id="node7" class="node">
<title>marketing_strategy</title>
<path fill="#dbe7fb" stroke="#2c5fb3" stroke-width="2.4" d="M2166,-383C2166,-383 2096,-383 2096,-383 2090,-383 2084,-377 2084,-371 2084,-371 2084,-349 2084,-349 2084,-343 2090,-337 2096,-337 2096,-337 2166,-337 2166,-337 2172,-337 2178,-343 2178,-349 2178,-349 2178,-371 2178,-371 2178,-377 2172,-383 2166,-383"/>
<text text-anchor="middle" x="2131" y="-363.6" font-family="Helvetica,sans-Serif" font-size="13.00">Marketing</text>
<text text-anchor="middle" x="2131" y="-349.6" font-family="Helvetica,sans-Serif" font-size="13.00">Strategy</text>
</g>
<!-- marketing_strategy&#45;&gt;business_context -->
<g id="edge8" class="edge">
<title>marketing_strategy&#45;&gt;business_context</title>
<path fill="none" stroke="#222222" stroke-width="1.7" d="M2165.2,-383.17C2202.28,-408.37 2264.62,-448.84 2322,-477 2408.96,-519.68 2516,-556.7 2577.38,-576.55"/>
<polygon fill="#222222" stroke="#222222" stroke-width="1.7" points="2576.53,-579.21 2585,-579 2578.24,-573.88 2576.53,-579.21"/>
</g>
<!-- marketing_strategy&#45;&gt;brand_context -->
<g id="edge9" class="edge">
<title>marketing_strategy&#45;&gt;brand_context</title>
<path fill="none" stroke="#222222" stroke-width="1.7" d="M2178.08,-355.49C2228.18,-351.54 2310.47,-347.87 2380.5,-358"/>
</g>
<!-- marketing_strategy&#45;&gt;audience -->
<g id="edge10" class="edge">
<title>marketing_strategy&#45;&gt;audience</title>
<path fill="none" stroke="#222222" stroke-width="1.7" d="M2143.69,-383.37C2169.9,-433.97 2237.71,-555.32 2322,-633 2327.46,-638.03 2333.78,-642.64 2340.21,-646.75"/>
<polygon fill="#222222" stroke="#222222" stroke-width="1.7" points="2338.91,-649.23 2347.2,-650.99 2341.81,-644.44 2338.91,-649.23"/>
</g>
<!-- measurement_framework -->
<g id="node8" class="node">
<title>measurement_framework</title>
<path fill="#dbe7fb" stroke="#2c5fb3" stroke-width="2.4" d="M2429,-459C2429,-459 2334,-459 2334,-459 2328,-459 2322,-453 2322,-447 2322,-447 2322,-425 2322,-425 2322,-419 2328,-413 2334,-413 2334,-413 2429,-413 2429,-413 2435,-413 2441,-419 2441,-425 2441,-425 2441,-447 2441,-447 2441,-453 2435,-459 2429,-459"/>
<text text-anchor="middle" x="2381.5" y="-439.6" font-family="Helvetica,sans-Serif" font-size="13.00">Measurement</text>
<text text-anchor="middle" x="2381.5" y="-425.6" font-family="Helvetica,sans-Serif" font-size="13.00">Framework</text>
</g>
<!-- marketing_strategy&#45;&gt;measurement_framework -->
<g id="edge11" class="edge">
<title>marketing_strategy&#45;&gt;measurement_framework</title>
<path fill="none" stroke="#222222" stroke-width="1.7" d="M2185.97,-376.51C2223.56,-388 2273.93,-403.41 2314,-415.66"/>
<polygon fill="#222222" stroke="#222222" stroke-width="1.7" points="2186.63,-373.78 2178.16,-374.12 2184.99,-379.13 2186.63,-373.78"/>
<polygon fill="#222222" stroke="#222222" stroke-width="1.7" points="2313.4,-418.41 2321.87,-418.07 2315.04,-413.05 2313.4,-418.41"/>
</g>
<!-- measurement_framework&#45;&gt;business_context -->
<g id="edge12" class="edge">
<title>measurement_framework&#45;&gt;business_context</title>
<path fill="none" stroke="#222222" stroke-width="1.7" d="M2418.58,-459.02C2462.55,-487.07 2536.78,-534.43 2583.76,-564.41"/>
<polygon fill="#222222" stroke="#222222" stroke-width="1.7" points="2582.52,-566.94 2590.78,-568.89 2585.54,-562.22 2582.52,-566.94"/>
</g>
<!-- keyword_strategy -->
<g id="node9" class="node">
<title>keyword_strategy</title>
<path fill="#dbe7fb" stroke="#2c5fb3" stroke-width="1.1" stroke-dasharray="5,2" d="M1678,-497C1678,-497 1617,-497 1617,-497 1611,-497 1605,-491 1605,-485 1605,-485 1605,-463 1605,-463 1605,-457 1611,-451 1617,-451 1617,-451 1678,-451 1678,-451 1684,-451 1690,-457 1690,-463 1690,-463 1690,-485 1690,-485 1690,-491 1684,-497 1678,-497"/>
<text text-anchor="middle" x="1647.5" y="-477.6" font-family="Helvetica,sans-Serif" font-size="13.00">Keyword</text>
<text text-anchor="middle" x="1647.5" y="-463.6" font-family="Helvetica,sans-Serif" font-size="13.00">Strategy</text>
</g>
<!-- keyword_strategy&#45;&gt;audience -->
<g id="edge14" class="edge">
<title>keyword_strategy&#45;&gt;audience</title>
<path fill="none" stroke="#9aa3af" stroke-dasharray="5,2" d="M1690.43,-488.07C1738.23,-504.01 1818.78,-530.55 1888.5,-552"/>
</g>
<!-- keyword_strategy&#45;&gt;keyword -->
<g id="edge13" class="edge">
<title>keyword_strategy&#45;&gt;keyword</title>
<path fill="none" stroke="#9aa3af" stroke-dasharray="5,2" d="M1681.87,-497.08C1728.79,-529.54 1813.55,-588.16 1858.55,-619.28"/>
<polygon fill="#9aa3af" stroke="#9aa3af" points="1856.98,-621.6 1865.15,-623.85 1860.17,-617 1856.98,-621.6"/>
</g>
<!-- offer -->
<g id="node10" class="node">
<title>offer</title>
<path fill="#dbe7fb" stroke="#2c5fb3" stroke-width="1.1" stroke-dasharray="5,2" d="M1909.83,-415C1909.83,-415 1869.17,-415 1869.17,-415 1863.83,-415 1858.5,-409.67 1858.5,-404.33 1858.5,-404.33 1858.5,-393.67 1858.5,-393.67 1858.5,-388.33 1863.83,-383 1869.17,-383 1869.17,-383 1909.83,-383 1909.83,-383 1915.17,-383 1920.5,-388.33 1920.5,-393.67 1920.5,-393.67 1920.5,-404.33 1920.5,-404.33 1920.5,-409.67 1915.17,-415 1909.83,-415"/>
<text text-anchor="middle" x="1889.5" y="-395.6" font-family="Helvetica,sans-Serif" font-size="13.00">Offer</text>
</g>
<!-- offer&#45;&gt;product_context -->
<g id="edge15" class="edge">
<title>offer&#45;&gt;product_context</title>
<path fill="none" stroke="#9aa3af" stroke-dasharray="5,2" d="M1920.72,-413.32C1966.12,-434.83 2054.64,-476.7 2130,-512"/>
<path fill="none" stroke="#9aa3af" stroke-dasharray="5,2" d="M2132,-512C2199.4,-543.57 2282.58,-567.56 2333.57,-580.7"/>
<polygon fill="#9aa3af" stroke="#9aa3af" points="2333.02,-583.45 2341.46,-582.71 2334.4,-578.02 2333.02,-583.45"/>
</g>
<!-- offer&#45;&gt;audience -->
<g id="edge16" class="edge">
<title>offer&#45;&gt;audience</title>
<path fill="none" stroke="#9aa3af" stroke-dasharray="5,2" d="M2132,-512C2222.66,-554.47 2236.48,-580.95 2322,-633 2329.53,-637.58 2337.67,-642.4 2345.42,-646.92"/>
<polygon fill="#9aa3af" stroke="#9aa3af" points="2344.07,-649.37 2352.39,-650.97 2346.88,-644.53 2344.07,-649.37"/>
</g>
<!-- experiment_strategy -->
<g id="node11" class="node">
<title>experiment_strategy</title>
<path fill="#dbe7fb" stroke="#2c5fb3" stroke-width="1.1" stroke-dasharray="5,2" d="M1435.5,-377C1435.5,-377 1355.5,-377 1355.5,-377 1349.5,-377 1343.5,-371 1343.5,-365 1343.5,-365 1343.5,-343 1343.5,-343 1343.5,-337 1349.5,-331 1355.5,-331 1355.5,-331 1435.5,-331 1435.5,-331 1441.5,-331 1447.5,-337 1447.5,-343 1447.5,-343 1447.5,-365 1447.5,-365 1447.5,-371 1441.5,-377 1435.5,-377"/>
<text text-anchor="middle" x="1395.5" y="-357.6" font-family="Helvetica,sans-Serif" font-size="13.00">Experiment</text>
<text text-anchor="middle" x="1395.5" y="-343.6" font-family="Helvetica,sans-Serif" font-size="13.00">Strategy</text>
</g>
<!-- experiment_strategy&#45;&gt;offer -->
<g id="edge17" class="edge">
<title>experiment_strategy&#45;&gt;offer</title>
<path fill="none" stroke="#9aa3af" stroke-dasharray="5,2" d="M1447.7,-349.42C1507.33,-345.02 1608.7,-340.46 1695,-351 1750.01,-357.72 1811.9,-374.81 1850.55,-386.67"/>
<polygon fill="#9aa3af" stroke="#9aa3af" points="1849.96,-389.42 1858.43,-389.12 1851.62,-384.07 1849.96,-389.42"/>
</g>
<!-- campaign_strategy -->
<g id="node12" class="node">
<title>campaign_strategy</title>
<path fill="#dbe7fb" stroke="#2c5fb3" stroke-width="1.1" stroke-dasharray="5,2" d="M1683,-415C1683,-415 1612,-415 1612,-415 1606,-415 1600,-409 1600,-403 1600,-403 1600,-381 1600,-381 1600,-375 1606,-369 1612,-369 1612,-369 1683,-369 1683,-369 1689,-369 1695,-375 1695,-381 1695,-381 1695,-403 1695,-403 1695,-409 1689,-415 1683,-415"/>
<text text-anchor="middle" x="1647.5" y="-395.6" font-family="Helvetica,sans-Serif" font-size="13.00">Campaign</text>
<text text-anchor="middle" x="1647.5" y="-381.6" font-family="Helvetica,sans-Serif" font-size="13.00">Strategy</text>
</g>
<!-- experiment_strategy&#45;&gt;campaign_strategy -->
<g id="edge18" class="edge">
<title>experiment_strategy&#45;&gt;campaign_strategy</title>
<path fill="none" stroke="#9aa3af" stroke-dasharray="5,2" d="M1447.69,-361.78C1489.57,-368.15 1548.65,-377.13 1591.52,-383.64"/>
<polygon fill="#9aa3af" stroke="#9aa3af" points="1591.27,-386.44 1599.6,-384.87 1592.11,-380.9 1591.27,-386.44"/>
</g>
<!-- creative_strategy -->
<g id="node15" class="node">
<title>creative_strategy</title>
<path fill="#dbe7fb" stroke="#2c5fb3" stroke-width="1.1" stroke-dasharray="5,2" d="M1678,-295C1678,-295 1617,-295 1617,-295 1611,-295 1605,-289 1605,-283 1605,-283 1605,-261 1605,-261 1605,-255 1611,-249 1617,-249 1617,-249 1678,-249 1678,-249 1684,-249 1690,-255 1690,-261 1690,-261 1690,-283 1690,-283 1690,-289 1684,-295 1678,-295"/>
<text text-anchor="middle" x="1647.5" y="-275.6" font-family="Helvetica,sans-Serif" font-size="13.00">Creative</text>
<text text-anchor="middle" x="1647.5" y="-261.6" font-family="Helvetica,sans-Serif" font-size="13.00">Strategy</text>
</g>
<!-- experiment_strategy&#45;&gt;creative_strategy -->
<g id="edge19" class="edge">
<title>experiment_strategy&#45;&gt;creative_strategy</title>
<path fill="none" stroke="#9aa3af" stroke-dasharray="5,2" d="M1447.69,-337.21C1491.4,-322.87 1553.86,-302.38 1597.06,-288.22"/>
<polygon fill="#9aa3af" stroke="#9aa3af" points="1598.16,-290.8 1604.89,-285.65 1596.42,-285.48 1598.16,-290.8"/>
</g>
<!-- campaign_strategy&#45;&gt;audience -->
<g id="edge21" class="edge">
<title>campaign_strategy&#45;&gt;audience</title>
<path fill="none" stroke="#9aa3af" stroke-dasharray="5,2" d="M1678.64,-415.31C1732.27,-456.22 1842.91,-537.98 1888.5,-552"/>
<path fill="none" stroke="#9aa3af" stroke-dasharray="5,2" d="M1890.5,-552C1973,-577.38 2219.98,-632.07 2328.44,-655.72"/>
<polygon fill="#9aa3af" stroke="#9aa3af" points="2327.91,-658.47 2336.32,-657.44 2329.1,-653 2327.91,-658.47"/>
</g>
<!-- campaign_strategy&#45;&gt;marketing_strategy -->
<g id="edge20" class="edge">
<title>campaign_strategy&#45;&gt;marketing_strategy</title>
<path fill="none" stroke="#9aa3af" stroke-dasharray="5,2" d="M1675.92,-368.78C1709.48,-342.03 1769.23,-299.65 1829,-283 1918.7,-258.02 2024.28,-301.74 2083.55,-332.86"/>
<polygon fill="#9aa3af" stroke="#9aa3af" points="2082.52,-335.49 2090.9,-336.78 2085.16,-330.55 2082.52,-335.49"/>
</g>
<!-- campaign_strategy&#45;&gt;offer -->
<g id="edge22" class="edge">
<title>campaign_strategy&#45;&gt;offer</title>
<path fill="none" stroke="#9aa3af" stroke-dasharray="5,2" d="M1695.06,-393.36C1740.3,-394.68 1808.17,-396.66 1850.32,-397.89"/>
<polygon fill="#9aa3af" stroke="#9aa3af" points="1850.31,-400.69 1858.39,-398.12 1850.48,-395.09 1850.31,-400.69"/>
</g>
<!-- journey_strategy -->
<g id="node13" class="node">
<title>journey_strategy</title>
<path fill="#dbe7fb" stroke="#2c5fb3" stroke-width="1.1" stroke-dasharray="5,2" d="M1920,-497C1920,-497 1859,-497 1859,-497 1853,-497 1847,-491 1847,-485 1847,-485 1847,-463 1847,-463 1847,-457 1853,-451 1859,-451 1859,-451 1920,-451 1920,-451 1926,-451 1932,-457 1932,-463 1932,-463 1932,-485 1932,-485 1932,-491 1926,-497 1920,-497"/>
<text text-anchor="middle" x="1889.5" y="-477.6" font-family="Helvetica,sans-Serif" font-size="13.00">Journey</text>
<text text-anchor="middle" x="1889.5" y="-463.6" font-family="Helvetica,sans-Serif" font-size="13.00">Strategy</text>
</g>
<!-- campaign_strategy&#45;&gt;journey_strategy -->
<g id="edge23" class="edge">
<title>campaign_strategy&#45;&gt;journey_strategy</title>
<path fill="none" stroke="#9aa3af" stroke-dasharray="5,2" d="M1695.06,-407.91C1736.51,-422.07 1796.95,-442.72 1839.21,-457.16"/>
<polygon fill="#9aa3af" stroke="#9aa3af" points="1838.41,-459.84 1846.88,-459.78 1840.22,-454.54 1838.41,-459.84"/>
</g>
<!-- journey_strategy&#45;&gt;persona -->
<g id="edge24" class="edge">
<title>journey_strategy&#45;&gt;persona</title>
<path fill="none" stroke="#9aa3af" stroke-dasharray="5,2" d="M1920.83,-497.18C1967.77,-533.04 2057.27,-601.43 2102.45,-635.95"/>
<polygon fill="#9aa3af" stroke="#9aa3af" points="2100.99,-638.36 2109.05,-640.99 2104.39,-633.91 2100.99,-638.36"/>
</g>
<!-- messaging_framework -->
<g id="node14" class="node">
<title>messaging_framework</title>
<path fill="#dbe7fb" stroke="#2c5fb3" stroke-width="1.1" stroke-dasharray="5,2" d="M1928,-347C1928,-347 1851,-347 1851,-347 1845,-347 1839,-341 1839,-335 1839,-335 1839,-313 1839,-313 1839,-307 1845,-301 1851,-301 1851,-301 1928,-301 1928,-301 1934,-301 1940,-307 1940,-313 1940,-313 1940,-335 1940,-335 1940,-341 1934,-347 1928,-347"/>
<text text-anchor="middle" x="1889.5" y="-327.6" font-family="Helvetica,sans-Serif" font-size="13.00">Messaging</text>
<text text-anchor="middle" x="1889.5" y="-313.6" font-family="Helvetica,sans-Serif" font-size="13.00">Framework</text>
</g>
<!-- messaging_framework&#45;&gt;brand_context -->
<g id="edge27" class="edge">
<title>messaging_framework&#45;&gt;brand_context</title>
<path fill="none" stroke="#9aa3af" stroke-dasharray="5,2" d="M1914.37,-300.71C1955.7,-263.21 2044.37,-194.89 2130,-208"/>
</g>
<!-- messaging_framework&#45;&gt;product_context -->
<g id="edge25" class="edge">
<title>messaging_framework&#45;&gt;product_context</title>
<path fill="none" stroke="#9aa3af" stroke-dasharray="5,2" d="M1932.7,-347.08C2023.99,-397.01 2239.22,-514.73 2334.14,-566.65"/>
<polygon fill="#9aa3af" stroke="#9aa3af" points="2332.95,-569.19 2341.31,-570.57 2335.64,-564.27 2332.95,-569.19"/>
</g>
<!-- messaging_framework&#45;&gt;persona -->
<g id="edge26" class="edge">
<title>messaging_framework&#45;&gt;persona</title>
<path fill="none" stroke="#9aa3af" stroke-dasharray="5,2" d="M1921.39,-347.13C1927.88,-352.65 1934.43,-358.75 1940,-365 2020.19,-454.97 2090.66,-581.8 2117.96,-633.59"/>
<polygon fill="#9aa3af" stroke="#9aa3af" points="2115.62,-635.17 2121.82,-640.96 2120.59,-632.57 2115.62,-635.17"/>
</g>
<!-- creative_strategy&#45;&gt;brand_context -->
<g id="edge29" class="edge">
<title>creative_strategy&#45;&gt;brand_context</title>
<path fill="none" stroke="#9aa3af" stroke-dasharray="5,2" d="M1690.12,-258.49C1773.66,-233.15 1967.66,-183.15 2130,-208"/>
<path fill="none" stroke="#9aa3af" stroke-dasharray="5,2" d="M2132,-208C2259.67,-226.53 2252.82,-339.54 2380.5,-358"/>
<path fill="none" stroke="#9aa3af" stroke-dasharray="5,2" d="M2382.5,-358C2574.62,-385.78 2775.01,-518.99 2847.37,-571.07"/>
<polygon fill="#9aa3af" stroke="#9aa3af" points="2845.85,-573.42 2853.97,-575.85 2849.13,-568.88 2845.85,-573.42"/>
</g>
<!-- creative_strategy&#45;&gt;messaging_framework -->
<g id="edge28" class="edge">
<title>creative_strategy&#45;&gt;messaging_framework</title>
<path fill="none" stroke="#9aa3af" stroke-dasharray="5,2" d="M1690.03,-281C1728.93,-289.43 1787.42,-302.1 1830.84,-311.51"/>
<polygon fill="#9aa3af" stroke="#9aa3af" points="1830.35,-314.27 1838.77,-313.22 1831.54,-308.79 1830.35,-314.27"/>
</g>
<!-- content_strategy -->
<g id="node16" class="node">
<title>content_strategy</title>
<path fill="#dbe7fb" stroke="#2c5fb3" stroke-width="1.1" stroke-dasharray="5,2" d="M1426,-497C1426,-497 1365,-497 1365,-497 1359,-497 1353,-491 1353,-485 1353,-485 1353,-463 1353,-463 1353,-457 1359,-451 1365,-451 1365,-451 1426,-451 1426,-451 1432,-451 1438,-457 1438,-463 1438,-463 1438,-485 1438,-485 1438,-491 1432,-497 1426,-497"/>
<text text-anchor="middle" x="1395.5" y="-477.6" font-family="Helvetica,sans-Serif" font-size="13.00">Content</text>
<text text-anchor="middle" x="1395.5" y="-463.6" font-family="Helvetica,sans-Serif" font-size="13.00">Strategy</text>
</g>
<!-- content_strategy&#45;&gt;keyword -->
<g id="edge31" class="edge">
<title>content_strategy&#45;&gt;keyword</title>
<path fill="none" stroke="#9aa3af" stroke-dasharray="5,2" d="M1438.02,-488.01C1528.36,-518.49 1742.39,-590.7 1839.3,-623.4"/>
<polygon fill="#9aa3af" stroke="#9aa3af" points="1838.44,-626.06 1846.91,-625.97 1840.23,-620.76 1838.44,-626.06"/>
</g>
<!-- content_strategy&#45;&gt;creative_strategy -->
<g id="edge30" class="edge">
<title>content_strategy&#45;&gt;creative_strategy</title>
<path fill="none" stroke="#9aa3af" stroke-dasharray="5,2" d="M1425.18,-450.83C1471.21,-413.64 1561.45,-340.72 1611.31,-300.43"/>
<polygon fill="#9aa3af" stroke="#9aa3af" points="1613.31,-302.42 1617.77,-295.21 1609.79,-298.06 1613.31,-302.42"/>
</g>
<!-- experience_design -->
<g id="node17" class="node">
<title>experience_design</title>
<path fill="#dbe7fb" stroke="#2c5fb3" stroke-width="1.1" stroke-dasharray="5,2" d="M1434.5,-295C1434.5,-295 1356.5,-295 1356.5,-295 1350.5,-295 1344.5,-289 1344.5,-283 1344.5,-283 1344.5,-261 1344.5,-261 1344.5,-255 1350.5,-249 1356.5,-249 1356.5,-249 1434.5,-249 1434.5,-249 1440.5,-249 1446.5,-255 1446.5,-261 1446.5,-261 1446.5,-283 1446.5,-283 1446.5,-289 1440.5,-295 1434.5,-295"/>
<text text-anchor="middle" x="1395.5" y="-275.6" font-family="Helvetica,sans-Serif" font-size="13.00">Experience</text>
<text text-anchor="middle" x="1395.5" y="-261.6" font-family="Helvetica,sans-Serif" font-size="13.00">Design</text>
</g>
<!-- experience_design&#45;&gt;creative_strategy -->
<g id="edge32" class="edge">
<title>experience_design&#45;&gt;creative_strategy</title>
<path fill="none" stroke="#9aa3af" stroke-dasharray="5,2" d="M1446.79,-272C1490.46,-272 1553.34,-272 1596.83,-272"/>
<polygon fill="#9aa3af" stroke="#9aa3af" points="1596.98,-274.8 1604.98,-272 1596.98,-269.2 1596.98,-274.8"/>
</g>
<!-- experience_specification -->
<g id="node18" class="node">
<title>experience_specification</title>
<path fill="#dbe7fb" stroke="#2c5fb3" stroke-width="1.1" stroke-dasharray="5,2" d="M1177,-336C1177,-336 1087,-336 1087,-336 1081,-336 1075,-330 1075,-324 1075,-324 1075,-302 1075,-302 1075,-296 1081,-290 1087,-290 1087,-290 1177,-290 1177,-290 1183,-290 1189,-296 1189,-302 1189,-302 1189,-324 1189,-324 1189,-330 1183,-336 1177,-336"/>
<text text-anchor="middle" x="1132" y="-316.6" font-family="Helvetica,sans-Serif" font-size="13.00">Experience</text>
<text text-anchor="middle" x="1132" y="-302.6" font-family="Helvetica,sans-Serif" font-size="13.00">Specification</text>
</g>
<!-- experience_specification&#45;&gt;campaign_strategy -->
<g id="edge34" class="edge">
<title>experience_specification&#45;&gt;campaign_strategy</title>
<path fill="none" stroke="#9aa3af" stroke-dasharray="5,2" d="M1176.02,-336.17C1215.91,-356.25 1277.61,-383.79 1335,-395 1423.52,-412.28 1528.89,-405.78 1591.6,-399.14"/>
<polygon fill="#9aa3af" stroke="#9aa3af" points="1592.14,-401.9 1599.79,-398.25 1591.53,-396.33 1592.14,-401.9"/>
</g>
<!-- experience_specification&#45;&gt;experience_design -->
<g id="edge33" class="edge">
<title>experience_specification&#45;&gt;experience_design</title>
<path fill="none" stroke="#9aa3af" stroke-dasharray="5,2" d="M1189.1,-304.2C1232.47,-297.4 1292.33,-288.02 1336.24,-281.14"/>
<polygon fill="#9aa3af" stroke="#9aa3af" points="1336.77,-283.89 1344.24,-279.88 1335.9,-278.35 1336.77,-283.89"/>
</g>
<!-- experience_component -->
<g id="node19" class="node">
<title>experience_component</title>
<path fill="#dbe7fb" stroke="#2c5fb3" stroke-width="1.1" stroke-dasharray="5,2" d="M917,-336C917,-336 836,-336 836,-336 830,-336 824,-330 824,-324 824,-324 824,-302 824,-302 824,-296 830,-290 836,-290 836,-290 917,-290 917,-290 923,-290 929,-296 929,-302 929,-302 929,-324 929,-324 929,-330 923,-336 917,-336"/>
<text text-anchor="middle" x="876.5" y="-316.6" font-family="Helvetica,sans-Serif" font-size="13.00">Experience</text>
<text text-anchor="middle" x="876.5" y="-302.6" font-family="Helvetica,sans-Serif" font-size="13.00">Component</text>
</g>
<!-- experience_component&#45;&gt;experience_specification -->
<g id="edge35" class="edge">
<title>experience_component&#45;&gt;experience_specification</title>
<path fill="none" stroke="#9aa3af" stroke-dasharray="5,2" d="M929.11,-313C968.82,-313 1023.93,-313 1066.54,-313"/>
<polygon fill="#9aa3af" stroke="#9aa3af" points="1066.62,-315.8 1074.62,-313 1066.62,-310.2 1066.62,-315.8"/>
</g>
<!-- experience_delivery -->
<g id="node20" class="node">
<title>experience_delivery</title>
<path fill="#dbe7fb" stroke="#2c5fb3" stroke-width="1.1" stroke-dasharray="5,2" d="M668,-336C668,-336 590,-336 590,-336 584,-336 578,-330 578,-324 578,-324 578,-302 578,-302 578,-296 584,-290 590,-290 590,-290 668,-290 668,-290 674,-290 680,-296 680,-302 680,-302 680,-324 680,-324 680,-330 674,-336 668,-336"/>
<text text-anchor="middle" x="629" y="-316.6" font-family="Helvetica,sans-Serif" font-size="13.00">Experience</text>
<text text-anchor="middle" x="629" y="-302.6" font-family="Helvetica,sans-Serif" font-size="13.00">Delivery</text>
</g>
<!-- experience_delivery&#45;&gt;experience_component -->
<g id="edge39" class="edge">
<title>experience_delivery&#45;&gt;experience_component</title>
<path fill="none" stroke="#9aa3af" stroke-dasharray="5,2" d="M680.27,-313C719.46,-313 774.01,-313 815.49,-313"/>
<polygon fill="#9aa3af" stroke="#9aa3af" points="815.6,-315.8 823.6,-313 815.6,-310.2 815.6,-315.8"/>
</g>
<!-- journey_configuration -->
<g id="node23" class="node">
<title>journey_configuration</title>
<path fill="#ece1f9" stroke="#6b4ca3" stroke-width="1.1" stroke-dasharray="5,2" d="M1179,-746C1179,-746 1085,-746 1085,-746 1079,-746 1073,-740 1073,-734 1073,-734 1073,-712 1073,-712 1073,-706 1079,-700 1085,-700 1085,-700 1179,-700 1179,-700 1185,-700 1191,-706 1191,-712 1191,-712 1191,-734 1191,-734 1191,-740 1185,-746 1179,-746"/>
<text text-anchor="middle" x="1132" y="-726.6" font-family="Helvetica,sans-Serif" font-size="13.00">Journey</text>
<text text-anchor="middle" x="1132" y="-712.6" font-family="Helvetica,sans-Serif" font-size="13.00">Configuration</text>
</g>
<!-- experience_delivery&#45;&gt;journey_configuration -->
<g id="edge40" class="edge">
<title>experience_delivery&#45;&gt;journey_configuration</title>
<path fill="none" stroke="#9aa3af" stroke-dasharray="5,2" d="M658.37,-336.22C744.47,-406.68 1002.6,-617.92 1096.43,-694.71"/>
<polygon fill="#9aa3af" stroke="#9aa3af" points="1094.67,-696.88 1102.63,-699.78 1098.21,-692.55 1094.67,-696.88"/>
</g>
<!-- experience_validation -->
<g id="node21" class="node">
<title>experience_validation</title>
<path fill="#dbe7fb" stroke="#2c5fb3" stroke-width="1.1" stroke-dasharray="5,2" d="M413.5,-295C413.5,-295 335.5,-295 335.5,-295 329.5,-295 323.5,-289 323.5,-283 323.5,-283 323.5,-261 323.5,-261 323.5,-255 329.5,-249 335.5,-249 335.5,-249 413.5,-249 413.5,-249 419.5,-249 425.5,-255 425.5,-261 425.5,-261 425.5,-283 425.5,-283 425.5,-289 419.5,-295 413.5,-295"/>
<text text-anchor="middle" x="374.5" y="-275.6" font-family="Helvetica,sans-Serif" font-size="13.00">Experience</text>
<text text-anchor="middle" x="374.5" y="-261.6" font-family="Helvetica,sans-Serif" font-size="13.00">Validation</text>
</g>
<!-- experience_validation&#45;&gt;experience_delivery -->
<g id="edge41" class="edge">
<title>experience_validation&#45;&gt;experience_delivery</title>
<path fill="none" stroke="#9aa3af" stroke-dasharray="5,2" d="M425.69,-280.15C467.25,-286.9 526.36,-296.5 569.95,-303.57"/>
<polygon fill="#9aa3af" stroke="#9aa3af" points="569.56,-306.35 577.91,-304.87 570.46,-300.82 569.56,-306.35"/>
</g>
<!-- campaign_deployment -->
<g id="node22" class="node">
<title>campaign_deployment</title>
<path fill="#dbe7fb" stroke="#2c5fb3" stroke-width="1.1" stroke-dasharray="5,2" d="M417,-377C417,-377 332,-377 332,-377 326,-377 320,-371 320,-365 320,-365 320,-343 320,-343 320,-337 326,-331 332,-331 332,-331 417,-331 417,-331 423,-331 429,-337 429,-343 429,-343 429,-365 429,-365 429,-371 423,-377 417,-377"/>
<text text-anchor="middle" x="374.5" y="-357.6" font-family="Helvetica,sans-Serif" font-size="13.00">Campaign</text>
<text text-anchor="middle" x="374.5" y="-343.6" font-family="Helvetica,sans-Serif" font-size="13.00">Deployment</text>
</g>
<!-- campaign_deployment&#45;&gt;experience_delivery -->
<g id="edge42" class="edge">
<title>campaign_deployment&#45;&gt;experience_delivery</title>
<path fill="none" stroke="#9aa3af" stroke-dasharray="5,2" d="M429.05,-345.3C470.39,-338.59 527.51,-329.32 569.95,-322.43"/>
<polygon fill="#9aa3af" stroke="#9aa3af" points="570.52,-325.17 577.96,-321.12 569.62,-319.64 570.52,-325.17"/>
</g>
<!-- journey_configuration&#45;&gt;journey_strategy -->
<g id="edge36" class="edge">
<title>journey_configuration&#45;&gt;journey_strategy</title>
<path fill="none" stroke="#9aa3af" stroke-dasharray="5,2" d="M1189.53,-746.03C1258.26,-770.63 1377.09,-802.13 1474,-771 1642.2,-716.96 1800.05,-566.69 1861.47,-503.06"/>
<polygon fill="#9aa3af" stroke="#9aa3af" points="1863.59,-504.89 1867.11,-497.18 1859.55,-501.02 1863.59,-504.89"/>
</g>
<!-- personalization_configuration -->
<g id="node24" class="node">
<title>personalization_configuration</title>
<path fill="#ece1f9" stroke="#6b4ca3" stroke-width="1.1" stroke-dasharray="5,2" d="M1444,-753C1444,-753 1347,-753 1347,-753 1341,-753 1335,-747 1335,-741 1335,-741 1335,-705 1335,-705 1335,-699 1341,-693 1347,-693 1347,-693 1444,-693 1444,-693 1450,-693 1456,-699 1456,-705 1456,-705 1456,-741 1456,-741 1456,-747 1450,-753 1444,-753"/>
<text text-anchor="middle" x="1395.5" y="-733.6" font-family="Helvetica,sans-Serif" font-size="13.00">Personalizatio</text>
<text text-anchor="middle" x="1395.5" y="-719.6" font-family="Helvetica,sans-Serif" font-size="13.00">n</text>
<text text-anchor="middle" x="1395.5" y="-705.6" font-family="Helvetica,sans-Serif" font-size="13.00">Configuration</text>
</g>
<!-- personalization_configuration&#45;&gt;audience -->
<g id="edge38" class="edge">
<title>personalization_configuration&#45;&gt;audience</title>
<path fill="none" stroke="#9aa3af" stroke-dasharray="5,2" d="M1456.4,-722.12C1587.44,-719.85 1909.31,-712.39 2178,-691 2229.17,-686.93 2287.35,-679.77 2328.17,-674.32"/>
<polygon fill="#9aa3af" stroke="#9aa3af" points="2328.8,-677.07 2336.35,-673.23 2328.05,-671.52 2328.8,-677.07"/>
</g>
<!-- personalization_configuration&#45;&gt;campaign_strategy -->
<g id="edge37" class="edge">
<title>personalization_configuration&#45;&gt;campaign_strategy</title>
<path fill="none" stroke="#9aa3af" stroke-dasharray="5,2" d="M1414.3,-692.91C1447.33,-638.26 1521.86,-520.31 1600,-433 1603.67,-428.9 1607.72,-424.81 1611.86,-420.88"/>
<polygon fill="#9aa3af" stroke="#9aa3af" points="1613.97,-422.75 1617.95,-415.26 1610.17,-418.63 1613.97,-422.75"/>
</g>
<!-- performance_measurement -->
<g id="node25" class="node">
<title>performance_measurement</title>
<path fill="#fde8c8" stroke="#b87811" stroke-width="1.1" stroke-dasharray="5,2" d="M422,-111C422,-111 327,-111 327,-111 321,-111 315,-105 315,-99 315,-99 315,-77 315,-77 315,-71 321,-65 327,-65 327,-65 422,-65 422,-65 428,-65 434,-71 434,-77 434,-77 434,-99 434,-99 434,-105 428,-111 422,-111"/>
<text text-anchor="middle" x="374.5" y="-91.6" font-family="Helvetica,sans-Serif" font-size="13.00">Performance</text>
<text text-anchor="middle" x="374.5" y="-77.6" font-family="Helvetica,sans-Serif" font-size="13.00">Measurement</text>
</g>
<!-- performance_measurement&#45;&gt;measurement_framework -->
<g id="edge45" class="edge">
<title>performance_measurement&#45;&gt;measurement_framework</title>
<path fill="none" stroke="#9aa3af" stroke-dasharray="5,2" d="M434.24,-86.72C622.7,-83.11 1210.46,-75.79 1394.5,-120"/>
<path fill="none" stroke="#9aa3af" stroke-dasharray="5,2" d="M1396.5,-120C1628.26,-188.36 1714.47,-19.26 1940,-106 2020.48,-136.95 2016.09,-182.87 2084,-236 2169.53,-302.91 2276.58,-371.74 2335.83,-408.64"/>
<polygon fill="#9aa3af" stroke="#9aa3af" points="2334.54,-411.14 2342.81,-412.98 2337.49,-406.38 2334.54,-411.14"/>
</g>
<!-- performance_measurement&#45;&gt;campaign_strategy -->
<g id="edge43" class="edge">
<title>performance_measurement&#45;&gt;campaign_strategy</title>
<path fill="none" stroke="#9aa3af" stroke-dasharray="5,2" d="M1396.5,-120C1459.36,-135.1 1578.23,-295.06 1625.93,-362.4"/>
<polygon fill="#9aa3af" stroke="#9aa3af" points="1623.69,-364.07 1630.59,-369 1628.26,-360.84 1623.69,-364.07"/>
</g>
<!-- performance_measurement&#45;&gt;experience_delivery -->
<g id="edge44" class="edge">
<title>performance_measurement&#45;&gt;experience_delivery</title>
<path fill="none" stroke="#9aa3af" stroke-dasharray="5,2" d="M401.57,-111.23C448.09,-152.69 545.26,-239.27 595.84,-284.35"/>
<polygon fill="#9aa3af" stroke="#9aa3af" points="594.24,-286.66 602.07,-289.89 597.96,-282.48 594.24,-286.66"/>
</g>
<!-- customer_insight -->
<g id="node26" class="node">
<title>customer_insight</title>
<path fill="#d8f0d6" stroke="#2e7d32" stroke-width="1.1" stroke-dasharray="5,2" d="M132.5,-154C132.5,-154 64.5,-154 64.5,-154 58.5,-154 52.5,-148 52.5,-142 52.5,-142 52.5,-120 52.5,-120 52.5,-114 58.5,-108 64.5,-108 64.5,-108 132.5,-108 132.5,-108 138.5,-108 144.5,-114 144.5,-120 144.5,-120 144.5,-142 144.5,-142 144.5,-148 138.5,-154 132.5,-154"/>
<text text-anchor="middle" x="98.5" y="-134.6" font-family="Helvetica,sans-Serif" font-size="13.00">Customer</text>
<text text-anchor="middle" x="98.5" y="-120.6" font-family="Helvetica,sans-Serif" font-size="13.00">Insight</text>
</g>
<!-- customer_insight&#45;&gt;persona -->
<g id="edge48" class="edge">
<title>customer_insight&#45;&gt;persona</title>
<path fill="none" stroke="#1aa179" stroke-width="1.8" stroke-dasharray="5,2" d="M144.82,-140.24C184.73,-148.09 244.52,-159.14 297,-166 443.39,-185.12 480.36,-194 628,-194 628,-194 628,-194 1133,-194 1312.44,-194 1791.6,-121.12 1940,-222 2072.34,-311.96 2019.89,-405.38 2084,-552 2096.23,-579.97 2110.32,-612.12 2119.65,-633.4"/>
<polygon fill="#1aa179" stroke="#1aa179" stroke-width="1.8" points="2117.2,-634.79 2122.98,-640.99 2122.33,-632.54 2117.2,-634.79"/>
</g>
<!-- customer_insight&#45;&gt;performance_measurement -->
<g id="edge46" class="edge">
<title>customer_insight&#45;&gt;performance_measurement</title>
<path fill="none" stroke="#9aa3af" stroke-dasharray="5,2" d="M144.75,-123.9C188.9,-116.97 256.57,-106.35 306.88,-98.46"/>
<polygon fill="#9aa3af" stroke="#9aa3af" points="307.32,-101.22 314.79,-97.21 306.46,-95.69 307.32,-101.22"/>
</g>
<!-- optimization_recommendation -->
<g id="node27" class="node">
<title>optimization_recommendation</title>
<path fill="#d8f0d6" stroke="#2e7d32" stroke-width="1.1" stroke-dasharray="5,2" d="M159,-72C159,-72 38,-72 38,-72 32,-72 26,-66 26,-60 26,-60 26,-38 26,-38 26,-32 32,-26 38,-26 38,-26 159,-26 159,-26 165,-26 171,-32 171,-38 171,-38 171,-60 171,-60 171,-66 165,-72 159,-72"/>
<text text-anchor="middle" x="98.5" y="-52.6" font-family="Helvetica,sans-Serif" font-size="13.00">Optimization</text>
<text text-anchor="middle" x="98.5" y="-38.6" font-family="Helvetica,sans-Serif" font-size="13.00">Recommendation</text>
</g>
<!-- optimization_recommendation&#45;&gt;marketing_strategy -->
<g id="edge49" class="edge">
<title>optimization_recommendation&#45;&gt;marketing_strategy</title>
<path fill="none" stroke="#1aa179" stroke-width="1.8" stroke-dasharray="5,2" d="M171.23,-44.04C208.69,-41.7 255.29,-39.16 297,-38 454.38,-33.62 859.91,-46 875.5,-46 875.5,-46 875.5,-46 1133,-46 1492.66,-46 1624.61,66.87 1940,-106 2032.47,-156.69 2092.92,-273.67 2117.5,-329.4"/>
<polygon fill="#1aa179" stroke="#1aa179" stroke-width="1.8" points="2114.98,-330.62 2120.73,-336.84 2120.12,-328.39 2114.98,-330.62"/>
</g>
<!-- optimization_recommendation&#45;&gt;performance_measurement -->
<g id="edge47" class="edge">
<title>optimization_recommendation&#45;&gt;performance_measurement</title>
<path fill="none" stroke="#9aa3af" stroke-dasharray="5,2" d="M171.13,-59.2C213.05,-65.16 265.64,-72.65 306.7,-78.49"/>
<polygon fill="#9aa3af" stroke="#9aa3af" points="306.43,-81.28 314.75,-79.64 307.22,-75.74 306.43,-81.28"/>
</g>
</g>
</svg>
