<?xml version="1.0" encoding="UTF-8" standalone="no"?>
<!DOCTYPE svg PUBLIC "-//W3C//DTD SVG 1.1//EN"
 "http://www.w3.org/Graphics/SVG/1.1/DTD/svg11.dtd">
<!-- Generated by graphviz version 2.43.0 (0)
 -->
<!-- Title: OSMM Pages: 1 -->
<svg width="3036pt" height="1350pt"
 viewBox="0.00 0.00 3036.00 1349.67" xmlns="http://www.w3.org/2000/svg" xmlns:xlink="http://www.w3.org/1999/xlink">
<g id="graph0" class="graph" transform="scale(1 1) rotate(0) translate(36 1313.67)">
<title>OSMM</title>
<polygon fill="white" stroke="transparent" points="-36,36 -36,-1313.67 3000,-1313.67 3000,36 -36,36"/>
<text text-anchor="middle" x="1482" y="-1252.87" font-family="Helvetica,sans-Serif" font-weight="bold" font-size="26.00">OSMM™ Object Graph — 27 objects across 5 categories</text>
<text text-anchor="middle" x="1482" y="-1223.87" font-family="Helvetica,sans-Serif" font-weight="bold" font-size="26.00">solid node = builder shipped (11) &#160;&#160;· &#160;&#160;dashed node = backlog (16) &#160;&#160;· &#160;&#160;solid edge = realized reference &#160;&#160;· &#160;&#160;dashed edge = envisioned &#160;&#160;· &#160;&#160;mint edge = learning loop</text>
<g id="clust1" class="cluster">
<title>cluster_0</title>
<path fill="#f7f9fb" stroke="#0f1b35" stroke-width="2" d="M1841,-344C1841,-344 2944,-344 2944,-344 2950,-344 2956,-350 2956,-356 2956,-356 2956,-548 2956,-548 2956,-554 2950,-560 2944,-560 2944,-560 1841,-560 1841,-560 1835,-560 1829,-554 1829,-548 1829,-548 1829,-356 1829,-356 1829,-350 1835,-344 1841,-344"/>
<text text-anchor="middle" x="2392.5" y="-541.6" font-family="Helvetica,sans-Serif" font-weight="bold" font-size="18.00">Context</text>
</g>
<g id="clust2" class="cluster">
<title>cluster_1</title>
<path fill="#f7f9fb" stroke="#2c5fb3" stroke-width="2" d="M314,-576C314,-576 2447,-576 2447,-576 2453,-576 2459,-582 2459,-588 2459,-588 2459,-876 2459,-876 2459,-882 2453,-888 2447,-888 2447,-888 314,-888 314,-888 308,-888 302,-882 302,-876 302,-876 302,-588 302,-588 302,-582 308,-576 314,-576"/>
<text text-anchor="middle" x="1380.5" y="-869.6" font-family="Helvetica,sans-Serif" font-weight="bold" font-size="18.00">Work Product</text>
</g>
<g id="clust3" class="cluster">
<title>cluster_2</title>
<path fill="#f7f9fb" stroke="#6b4ca3" stroke-width="2" d="M1067,-8C1067,-8 1462,-8 1462,-8 1468,-8 1474,-14 1474,-20 1474,-20 1474,-120 1474,-120 1474,-126 1468,-132 1462,-132 1462,-132 1067,-132 1067,-132 1061,-132 1055,-126 1055,-120 1055,-120 1055,-20 1055,-20 1055,-14 1061,-8 1067,-8"/>
<text text-anchor="middle" x="1264.5" y="-113.6" font-family="Helvetica,sans-Serif" font-weight="bold" font-size="18.00">Configuration</text>
</g>
<g id="clust4" class="cluster">
<title>cluster_3</title>
<path fill="#f7f9fb" stroke="#b87811" stroke-width="2" d="M309,-1013C309,-1013 440,-1013 440,-1013 446,-1013 452,-1019 452,-1025 452,-1025 452,-1111 452,-1111 452,-1117 446,-1123 440,-1123 440,-1123 309,-1123 309,-1123 303,-1123 297,-1117 297,-1111 297,-1111 297,-1025 297,-1025 297,-1019 303,-1013 309,-1013"/>
<text text-anchor="middle" x="374.5" y="-1104.6" font-family="Helvetica,sans-Serif" font-weight="bold" font-size="18.00">Measurement</text>
</g>
<g id="clust5" class="cluster">
<title>cluster_4</title>
<path fill="#f7f9fb" stroke="#2e7d32" stroke-width="2" d="M20,-972C20,-972 177,-972 177,-972 183,-972 189,-978 189,-984 189,-984 189,-1152 189,-1152 189,-1158 183,-1164 177,-1164 177,-1164 20,-1164 20,-1164 14,-1164 8,-1158 8,-1152 8,-1152 8,-984 8,-984 8,-978 14,-972 20,-972"/>
<text text-anchor="middle" x="98.5" y="-1145.6" font-family="Helvetica,sans-Serif" font-weight="bold" font-size="18.00">Learning</text>
</g>
<!-- business_context -->
<g id="node1" class="node">
<title>business_context</title>
<path fill="#d4f2ec" stroke="#0f1b35" stroke-width="2.4" d="M2659,-514C2659,-514 2597,-514 2597,-514 2591,-514 2585,-508 2585,-502 2585,-502 2585,-480 2585,-480 2585,-474 2591,-468 2597,-468 2597,-468 2659,-468 2659,-468 2665,-468 2671,-474 2671,-480 2671,-480 2671,-502 2671,-502 2671,-508 2665,-514 2659,-514"/>
<text text-anchor="middle" x="2628" y="-494.6" font-family="Helvetica,sans-Serif" font-size="13.00">Business</text>
<text text-anchor="middle" x="2628" y="-480.6" font-family="Helvetica,sans-Serif" font-size="13.00">Context</text>
</g>
<!-- brand_context -->
<g id="node2" class="node">
<title>brand_context</title>
<path fill="#d4f2ec" stroke="#0f1b35" stroke-width="2.4" d="M2927.33,-507C2927.33,-507 2825.67,-507 2825.67,-507 2820.33,-507 2815,-501.67 2815,-496.33 2815,-496.33 2815,-485.67 2815,-485.67 2815,-480.33 2820.33,-475 2825.67,-475 2825.67,-475 2927.33,-475 2927.33,-475 2932.67,-475 2938,-480.33 2938,-485.67 2938,-485.67 2938,-496.33 2938,-496.33 2938,-501.67 2932.67,-507 2927.33,-507"/>
<text text-anchor="middle" x="2876.5" y="-487.6" font-family="Helvetica,sans-Serif" font-size="13.00">Brand Context</text>
</g>
<!-- business_context&#45;&gt;brand_context -->
<g id="edge1" class="edge">
<title>business_context&#45;&gt;brand_context</title>
<path fill="none" stroke="#222222" stroke-width="1.7" d="M2679.21,-491C2715.86,-491 2766,-491 2806.43,-491"/>
<polygon fill="#222222" stroke="#222222" stroke-width="1.7" points="2679.09,-488.2 2671.09,-491 2679.09,-493.8 2679.09,-488.2"/>
<polygon fill="#222222" stroke="#222222" stroke-width="1.7" points="2806.63,-493.8 2814.63,-491 2806.63,-488.2 2806.63,-493.8"/>
</g>
<!-- product_context -->
<g id="node3" class="node">
<title>product_context</title>
<path fill="#d4f2ec" stroke="#0f1b35" stroke-width="2.4" d="M2409.5,-514C2409.5,-514 2353.5,-514 2353.5,-514 2347.5,-514 2341.5,-508 2341.5,-502 2341.5,-502 2341.5,-480 2341.5,-480 2341.5,-474 2347.5,-468 2353.5,-468 2353.5,-468 2409.5,-468 2409.5,-468 2415.5,-468 2421.5,-474 2421.5,-480 2421.5,-480 2421.5,-502 2421.5,-502 2421.5,-508 2415.5,-514 2409.5,-514"/>
<text text-anchor="middle" x="2381.5" y="-494.6" font-family="Helvetica,sans-Serif" font-size="13.00">Product</text>
<text text-anchor="middle" x="2381.5" y="-480.6" font-family="Helvetica,sans-Serif" font-size="13.00">Context</text>
</g>
<!-- product_context&#45;&gt;business_context -->
<g id="edge2" class="edge">
<title>product_context&#45;&gt;business_context</title>
<path fill="none" stroke="#222222" stroke-width="1.7" d="M2421.51,-491C2463.61,-491 2530.79,-491 2576.8,-491"/>
<polygon fill="#222222" stroke="#222222" stroke-width="1.7" points="2576.85,-493.8 2584.85,-491 2576.85,-488.2 2576.85,-493.8"/>
</g>
<!-- product_context&#45;&gt;brand_context -->
<g id="edge3" class="edge">
<title>product_context&#45;&gt;brand_context</title>
<path fill="none" stroke="#222222" stroke-width="1.7" d="M2421.72,-480.63C2462.26,-470.49 2527.54,-455.76 2585,-450 2663.05,-442.18 2752.33,-458.61 2811.08,-472.94"/>
<polygon fill="#222222" stroke="#222222" stroke-width="1.7" points="2810.72,-475.73 2819.16,-474.94 2812.07,-470.3 2810.72,-475.73"/>
</g>
<!-- persona -->
<g id="node4" class="node">
<title>persona</title>
<path fill="#d4f2ec" stroke="#0f1b35" stroke-width="2.4" d="M2160.83,-432C2160.83,-432 2101.17,-432 2101.17,-432 2095.83,-432 2090.5,-426.67 2090.5,-421.33 2090.5,-421.33 2090.5,-410.67 2090.5,-410.67 2090.5,-405.33 2095.83,-400 2101.17,-400 2101.17,-400 2160.83,-400 2160.83,-400 2166.17,-400 2171.5,-405.33 2171.5,-410.67 2171.5,-410.67 2171.5,-421.33 2171.5,-421.33 2171.5,-426.67 2166.17,-432 2160.83,-432"/>
<text text-anchor="middle" x="2131" y="-412.6" font-family="Helvetica,sans-Serif" font-size="13.00">Persona</text>
</g>
<!-- audience -->
<g id="node5" class="node">
<title>audience</title>
<path fill="#d4f2ec" stroke="#0f1b35" stroke-width="2.4" d="M2415.83,-432C2415.83,-432 2347.17,-432 2347.17,-432 2341.83,-432 2336.5,-426.67 2336.5,-421.33 2336.5,-421.33 2336.5,-410.67 2336.5,-410.67 2336.5,-405.33 2341.83,-400 2347.17,-400 2347.17,-400 2415.83,-400 2415.83,-400 2421.17,-400 2426.5,-405.33 2426.5,-410.67 2426.5,-410.67 2426.5,-421.33 2426.5,-421.33 2426.5,-426.67 2421.17,-432 2415.83,-432"/>
<text text-anchor="middle" x="2381.5" y="-412.6" font-family="Helvetica,sans-Serif" font-size="13.00">Audience</text>
</g>
<!-- persona&#45;&gt;audience -->
<g id="edge4" class="edge">
<title>persona&#45;&gt;audience</title>
<path fill="none" stroke="#222222" stroke-width="1.7" d="M2179.83,-416C2222.33,-416 2284.33,-416 2328.15,-416"/>
<polygon fill="#222222" stroke="#222222" stroke-width="1.7" points="2179.65,-413.2 2171.65,-416 2179.65,-418.8 2179.65,-413.2"/>
<polygon fill="#222222" stroke="#222222" stroke-width="1.7" points="2328.38,-418.8 2336.38,-416 2328.38,-413.2 2328.38,-418.8"/>
</g>
<!-- audience&#45;&gt;business_context -->
<g id="edge5" class="edge">
<title>audience&#45;&gt;business_context</title>
<path fill="none" stroke="#222222" stroke-width="1.7" d="M2426.78,-429.58C2469.1,-442.56 2532.82,-462.11 2576.96,-475.65"/>
<polygon fill="#222222" stroke="#222222" stroke-width="1.7" points="2576.22,-478.35 2584.69,-478.02 2577.86,-473 2576.22,-478.35"/>
</g>
<!-- keyword -->
<g id="node6" class="node">
<title>keyword</title>
<path fill="#d4f2ec" stroke="#0f1b35" stroke-width="2.4" d="M1921.33,-458C1921.33,-458 1857.67,-458 1857.67,-458 1852.33,-458 1847,-452.67 1847,-447.33 1847,-447.33 1847,-436.67 1847,-436.67 1847,-431.33 1852.33,-426 1857.67,-426 1857.67,-426 1921.33,-426 1921.33,-426 1926.67,-426 1932,-431.33 1932,-436.67 1932,-436.67 1932,-447.33 1932,-447.33 1932,-452.67 1926.67,-458 1921.33,-458"/>
<text text-anchor="middle" x="1889.5" y="-438.6" font-family="Helvetica,sans-Serif" font-size="13.00">Keyword</text>
</g>
<!-- keyword&#45;&gt;business_context -->
<g id="edge7" class="edge">
<title>keyword&#45;&gt;business_context</title>
<path fill="none" stroke="#222222" stroke-width="1.7" d="M1930.07,-425.87C1968.61,-411.1 2029.23,-390.3 2084,-382 2248.79,-357.04 2299.19,-334.7 2459,-382 2511.76,-397.61 2563.48,-435.57 2595.3,-462.29"/>
<polygon fill="#222222" stroke="#222222" stroke-width="1.7" points="2593.87,-464.75 2601.77,-467.8 2597.5,-460.49 2593.87,-464.75"/>
</g>
<!-- keyword&#45;&gt;persona -->
<g id="edge6" class="edge">
<title>keyword&#45;&gt;persona</title>
<path fill="none" stroke="#222222" stroke-width="1.7" d="M1932.22,-437.47C1974.02,-432.93 2038.29,-425.96 2082.14,-421.2"/>
<polygon fill="#222222" stroke="#222222" stroke-width="1.7" points="2082.7,-423.95 2090.35,-420.3 2082.1,-418.38 2082.7,-423.95"/>
</g>
<!-- marketing_strategy -->
<g id="node7" class="node">
<title>marketing_strategy</title>
<path fill="#dbe7fb" stroke="#2c5fb3" stroke-width="2.4" d="M2166,-804C2166,-804 2096,-804 2096,-804 2090,-804 2084,-798 2084,-792 2084,-792 2084,-770 2084,-770 2084,-764 2090,-758 2096,-758 2096,-758 2166,-758 2166,-758 2172,-758 2178,-764 2178,-770 2178,-770 2178,-792 2178,-792 2178,-798 2172,-804 2166,-804"/>
<text text-anchor="middle" x="2131" y="-784.6" font-family="Helvetica,sans-Serif" font-size="13.00">Marketing</text>
<text text-anchor="middle" x="2131" y="-770.6" font-family="Helvetica,sans-Serif" font-size="13.00">Strategy</text>
</g>
<!-- marketing_strategy&#45;&gt;business_context -->
<g id="edge8" class="edge">
<title>marketing_strategy&#45;&gt;business_context</title>
<path fill="none" stroke="#222222" stroke-width="1.7" d="M2178.09,-775.55C2229.27,-768.3 2313.5,-752.79 2380.5,-723"/>
</g>
<!-- marketing_strategy&#45;&gt;brand_context -->
<g id="edge9" class="edge">
<title>marketing_strategy&#45;&gt;brand_context</title>
<path fill="none" stroke="#222222" stroke-width="1.7" d="M2157.17,-804.14C2200.28,-841.05 2292.15,-908.02 2380.5,-897"/>
<path fill="none" stroke="#222222" stroke-width="1.7" d="M2382.5,-897C2504.01,-881.84 2515.27,-820.11 2627,-770"/>
</g>
<!-- marketing_strategy&#45;&gt;audience -->
<g id="edge10" class="edge">
<title>marketing_strategy&#45;&gt;audience</title>
<path fill="none" stroke="#222222" stroke-width="1.7" d="M2161.41,-757.84C2167.33,-752.37 2173.2,-746.29 2178,-740 2265.3,-625.6 2223.64,-555.04 2322,-450 2326.73,-444.95 2332.39,-440.42 2338.29,-436.44"/>
<polygon fill="#222222" stroke="#222222" stroke-width="1.7" points="2340.01,-438.66 2345.29,-432.03 2337.03,-433.92 2340.01,-438.66"/>
</g>
<!-- measurement_framework -->
<g id="node8" class="node">
<title>measurement_framework</title>
<path fill="#dbe7fb" stroke="#2c5fb3" stroke-width="2.4" d="M2429,-836C2429,-836 2334,-836 2334,-836 2328,-836 2322,-830 2322,-824 2322,-824 2322,-802 2322,-802 2322,-796 2328,-790 2334,-790 2334,-790 2429,-790 2429,-790 2435,-790 2441,-796 2441,-802 2441,-802 2441,-824 2441,-824 2441,-830 2435,-836 2429,-836"/>
<text text-anchor="middle" x="2381.5" y="-816.6" font-family="Helvetica,sans-Serif" font-size="13.00">Measurement</text>
<text text-anchor="middle" x="2381.5" y="-802.6" font-family="Helvetica,sans-Serif" font-size="13.00">Framework</text>
</g>
<!-- marketing_strategy&#45;&gt;measurement_framework -->
<g id="edge11" class="edge">
<title>marketing_strategy&#45;&gt;measurement_framework</title>
<path fill="none" stroke="#222222" stroke-width="1.7" d="M2186.23,-787.98C2223.71,-792.81 2273.83,-799.26 2313.77,-804.41"/>
<polygon fill="#222222" stroke="#222222" stroke-width="1.7" points="2186.45,-785.19 2178.16,-786.94 2185.74,-790.74 2186.45,-785.19"/>
<polygon fill="#222222" stroke="#222222" stroke-width="1.7" points="2313.58,-807.21 2321.87,-805.45 2314.29,-801.65 2313.58,-807.21"/>
</g>
<!-- measurement_framework&#45;&gt;business_context -->
<g id="edge12" class="edge">
<title>measurement_framework&#45;&gt;business_context</title>
<path fill="none" stroke="#222222" stroke-width="1.7" d="M2415.74,-789.74C2429.97,-778.89 2446.21,-765.25 2459,-751 2526.08,-676.3 2584.72,-572.17 2611.52,-521.34"/>
<polygon fill="#222222" stroke="#222222" stroke-width="1.7" points="2614.01,-522.62 2615.24,-514.24 2609.05,-520.02 2614.01,-522.62"/>
</g>
<!-- keyword_strategy -->
<g id="node9" class="node">
<title>keyword_strategy</title>
<path fill="#dbe7fb" stroke="#2c5fb3" stroke-width="1.1" stroke-dasharray="5,2" d="M1678,-640C1678,-640 1617,-640 1617,-640 1611,-640 1605,-634 1605,-628 1605,-628 1605,-606 1605,-606 1605,-600 1611,-594 1617,-594 1617,-594 1678,-594 1678,-594 1684,-594 1690,-600 1690,-606 1690,-606 1690,-628 1690,-628 1690,-634 1684,-640 1678,-640"/>
<text text-anchor="middle" x="1647.5" y="-620.6" font-family="Helvetica,sans-Serif" font-size="13.00">Keyword</text>
<text text-anchor="middle" x="1647.5" y="-606.6" font-family="Helvetica,sans-Serif" font-size="13.00">Strategy</text>
</g>
<!-- keyword_strategy&#45;&gt;audience -->
<g id="edge27" class="edge">
<title>keyword_strategy&#45;&gt;audience</title>
<path fill="none" stroke="#9aa3af" stroke-dasharray="5,2" d="M1690.3,-606.43C1739.03,-593.43 1821.43,-569.31 1888.5,-539"/>
<path fill="none" stroke="#9aa3af" stroke-dasharray="5,2" d="M1890.5,-539C1969.55,-503.28 2218.97,-449.33 2328.29,-426.64"/>
<polygon fill="#9aa3af" stroke="#9aa3af" points="2328.97,-429.36 2336.23,-425 2327.83,-423.88 2328.97,-429.36"/>
</g>
<!-- keyword_strategy&#45;&gt;keyword -->
<g id="edge26" class="edge">
<title>keyword_strategy&#45;&gt;keyword</title>
<path fill="none" stroke="#9aa3af" stroke-dasharray="5,2" d="M1680.37,-593.76C1727.43,-559.45 1814.78,-495.75 1859.89,-462.86"/>
<polygon fill="#9aa3af" stroke="#9aa3af" points="1861.68,-465.02 1866.5,-458.05 1858.38,-460.5 1861.68,-465.02"/>
</g>
<!-- offer -->
<g id="node10" class="node">
<title>offer</title>
<path fill="#dbe7fb" stroke="#2c5fb3" stroke-width="2.4" d="M2151.33,-722C2151.33,-722 2110.67,-722 2110.67,-722 2105.33,-722 2100,-716.67 2100,-711.33 2100,-711.33 2100,-700.67 2100,-700.67 2100,-695.33 2105.33,-690 2110.67,-690 2110.67,-690 2151.33,-690 2151.33,-690 2156.67,-690 2162,-695.33 2162,-700.67 2162,-700.67 2162,-711.33 2162,-711.33 2162,-716.67 2156.67,-722 2151.33,-722"/>
<text text-anchor="middle" x="2131" y="-702.6" font-family="Helvetica,sans-Serif" font-size="13.00">Offer</text>
</g>
<!-- offer&#45;&gt;business_context -->
<g id="edge15" class="edge">
<title>offer&#45;&gt;business_context</title>
<path fill="none" stroke="#222222" stroke-width="1.7" d="M2162.27,-716.82C2210.7,-732.28 2307.6,-755.41 2380.5,-723"/>
<path fill="none" stroke="#222222" stroke-width="1.7" d="M2382.5,-723C2483.82,-677.95 2569.11,-572.48 2606.58,-520.72"/>
<polygon fill="#222222" stroke="#222222" stroke-width="1.7" points="2608.95,-522.21 2611.34,-514.08 2604.4,-518.95 2608.95,-522.21"/>
</g>
<!-- offer&#45;&gt;product_context -->
<g id="edge13" class="edge">
<title>offer&#45;&gt;product_context</title>
<path fill="none" stroke="#222222" stroke-width="1.7" d="M2150.68,-689.84C2192.65,-653.52 2294.9,-565.06 2347.72,-519.36"/>
<polygon fill="#222222" stroke="#222222" stroke-width="1.7" points="2349.69,-521.36 2353.9,-514.01 2346.02,-517.13 2349.69,-521.36"/>
</g>
<!-- offer&#45;&gt;audience -->
<g id="edge14" class="edge">
<title>offer&#45;&gt;audience</title>
<path fill="none" stroke="#222222" stroke-width="1.7" d="M2151.29,-689.73C2159.9,-682.04 2169.91,-672.48 2178,-663 2252.21,-576.1 2238.5,-528.01 2322,-450 2327.36,-444.99 2333.58,-440.41 2339.93,-436.33"/>
<polygon fill="#222222" stroke="#222222" stroke-width="1.7" points="2341.46,-438.68 2346.83,-432.12 2338.54,-433.9 2341.46,-438.68"/>
</g>
<!-- experiment_strategy -->
<g id="node11" class="node">
<title>experiment_strategy</title>
<path fill="#dbe7fb" stroke="#2c5fb3" stroke-width="1.1" stroke-dasharray="5,2" d="M1435.5,-804C1435.5,-804 1355.5,-804 1355.5,-804 1349.5,-804 1343.5,-798 1343.5,-792 1343.5,-792 1343.5,-770 1343.5,-770 1343.5,-764 1349.5,-758 1355.5,-758 1355.5,-758 1435.5,-758 1435.5,-758 1441.5,-758 1447.5,-764 1447.5,-770 1447.5,-770 1447.5,-792 1447.5,-792 1447.5,-798 1441.5,-804 1435.5,-804"/>
<text text-anchor="middle" x="1395.5" y="-784.6" font-family="Helvetica,sans-Serif" font-size="13.00">Experiment</text>
<text text-anchor="middle" x="1395.5" y="-770.6" font-family="Helvetica,sans-Serif" font-size="13.00">Strategy</text>
</g>
<!-- experiment_strategy&#45;&gt;offer -->
<g id="edge28" class="edge">
<title>experiment_strategy&#45;&gt;offer</title>
<path fill="none" stroke="#9aa3af" stroke-dasharray="5,2" d="M1447.63,-778.88C1544.16,-774.49 1759.76,-762.86 1940,-740 1992.85,-733.3 2053.33,-721.81 2091.59,-714.06"/>
<polygon fill="#9aa3af" stroke="#9aa3af" points="2092.59,-716.71 2099.87,-712.37 2091.47,-711.23 2092.59,-716.71"/>
</g>
<!-- campaign_strategy -->
<g id="node12" class="node">
<title>campaign_strategy</title>
<path fill="#dbe7fb" stroke="#2c5fb3" stroke-width="2.4" d="M1683,-842C1683,-842 1612,-842 1612,-842 1606,-842 1600,-836 1600,-830 1600,-830 1600,-808 1600,-808 1600,-802 1606,-796 1612,-796 1612,-796 1683,-796 1683,-796 1689,-796 1695,-802 1695,-808 1695,-808 1695,-830 1695,-830 1695,-836 1689,-842 1683,-842"/>
<text text-anchor="middle" x="1647.5" y="-822.6" font-family="Helvetica,sans-Serif" font-size="13.00">Campaign</text>
<text text-anchor="middle" x="1647.5" y="-808.6" font-family="Helvetica,sans-Serif" font-size="13.00">Strategy</text>
</g>
<!-- experiment_strategy&#45;&gt;campaign_strategy -->
<g id="edge29" class="edge">
<title>experiment_strategy&#45;&gt;campaign_strategy</title>
<path fill="none" stroke="#9aa3af" stroke-dasharray="5,2" d="M1447.69,-788.78C1489.57,-795.15 1548.65,-804.13 1591.52,-810.64"/>
<polygon fill="#9aa3af" stroke="#9aa3af" points="1591.27,-813.44 1599.6,-811.87 1592.11,-807.9 1591.27,-813.44"/>
</g>
<!-- creative_strategy -->
<g id="node15" class="node">
<title>creative_strategy</title>
<path fill="#dbe7fb" stroke="#2c5fb3" stroke-width="1.1" stroke-dasharray="5,2" d="M1678,-722C1678,-722 1617,-722 1617,-722 1611,-722 1605,-716 1605,-710 1605,-710 1605,-688 1605,-688 1605,-682 1611,-676 1617,-676 1617,-676 1678,-676 1678,-676 1684,-676 1690,-682 1690,-688 1690,-688 1690,-710 1690,-710 1690,-716 1684,-722 1678,-722"/>
<text text-anchor="middle" x="1647.5" y="-702.6" font-family="Helvetica,sans-Serif" font-size="13.00">Creative</text>
<text text-anchor="middle" x="1647.5" y="-688.6" font-family="Helvetica,sans-Serif" font-size="13.00">Strategy</text>
</g>
<!-- experiment_strategy&#45;&gt;creative_strategy -->
<g id="edge30" class="edge">
<title>experiment_strategy&#45;&gt;creative_strategy</title>
<path fill="none" stroke="#9aa3af" stroke-dasharray="5,2" d="M1447.69,-764.21C1491.4,-749.87 1553.86,-729.38 1597.06,-715.22"/>
<polygon fill="#9aa3af" stroke="#9aa3af" points="1598.16,-717.8 1604.89,-712.65 1596.42,-712.48 1598.16,-717.8"/>
</g>
<!-- campaign_strategy&#45;&gt;business_context -->
<g id="edge20" class="edge">
<title>campaign_strategy&#45;&gt;business_context</title>
<path fill="none" stroke="#222222" stroke-width="1.7" d="M1657.95,-842.12C1679.6,-891.52 1738,-1006.5 1829,-1051 1873.32,-1072.67 1891.48,-1059.9 1940,-1051 2182.68,-1006.49 2278.48,-1022.19 2459,-854 2560.55,-759.38 2605.94,-591.23 2620.96,-522.05"/>
<polygon fill="#222222" stroke="#222222" stroke-width="1.7" points="2623.72,-522.52 2622.64,-514.11 2618.24,-521.36 2623.72,-522.52"/>
</g>
<!-- campaign_strategy&#45;&gt;audience -->
<g id="edge18" class="edge">
<title>campaign_strategy&#45;&gt;audience</title>
<path fill="none" stroke="#222222" stroke-width="1.7" d="M1661.73,-795.65C1688.68,-749.53 1753.8,-645.23 1829,-576 1851.91,-554.91 1860.59,-552.81 1888.5,-539"/>
</g>
<!-- campaign_strategy&#45;&gt;marketing_strategy -->
<g id="edge16" class="edge">
<title>campaign_strategy&#45;&gt;marketing_strategy</title>
<path fill="none" stroke="#222222" stroke-width="1.7" d="M1890.5,-819C1954.52,-813.34 2027.36,-800.92 2075.73,-791.81"/>
<polygon fill="#222222" stroke="#222222" stroke-width="1.7" points="2076.54,-794.51 2083.87,-790.27 2075.49,-789.01 2076.54,-794.51"/>
</g>
<!-- campaign_strategy&#45;&gt;measurement_framework -->
<g id="edge21" class="edge">
<title>campaign_strategy&#45;&gt;measurement_framework</title>
<path fill="none" stroke="#222222" stroke-width="1.7" d="M1890.5,-819C1976.18,-811.43 1997.99,-821.33 2084,-822 2125.78,-822.32 2136.23,-822.93 2178,-822 2223.16,-821 2273.95,-818.74 2313.37,-816.73"/>
<polygon fill="#222222" stroke="#222222" stroke-width="1.7" points="2313.75,-819.52 2321.6,-816.31 2313.46,-813.92 2313.75,-819.52"/>
</g>
<!-- campaign_strategy&#45;&gt;offer -->
<g id="edge19" class="edge">
<title>campaign_strategy&#45;&gt;offer</title>
<path fill="none" stroke="#222222" stroke-width="1.7" d="M1695.06,-821.42C1743.5,-823.37 1821.47,-824.92 1888.5,-819"/>
<path fill="none" stroke="#222222" stroke-width="1.7" d="M1890.5,-819C1973.79,-811.64 2059.62,-757.7 2102.34,-727.08"/>
<polygon fill="#222222" stroke="#222222" stroke-width="1.7" points="2104.24,-729.17 2109.07,-722.2 2100.95,-724.64 2104.24,-729.17"/>
</g>
<!-- journey_strategy -->
<g id="node13" class="node">
<title>journey_strategy</title>
<path fill="#dbe7fb" stroke="#2c5fb3" stroke-width="2.4" d="M1920,-640C1920,-640 1859,-640 1859,-640 1853,-640 1847,-634 1847,-628 1847,-628 1847,-606 1847,-606 1847,-600 1853,-594 1859,-594 1859,-594 1920,-594 1920,-594 1926,-594 1932,-600 1932,-606 1932,-606 1932,-628 1932,-628 1932,-634 1926,-640 1920,-640"/>
<text text-anchor="middle" x="1889.5" y="-620.6" font-family="Helvetica,sans-Serif" font-size="13.00">Journey</text>
<text text-anchor="middle" x="1889.5" y="-606.6" font-family="Helvetica,sans-Serif" font-size="13.00">Strategy</text>
</g>
<!-- campaign_strategy&#45;&gt;journey_strategy -->
<g id="edge17" class="edge">
<title>campaign_strategy&#45;&gt;journey_strategy</title>
<path fill="none" stroke="#222222" stroke-width="1.7" d="M1678.29,-790.33C1713.27,-757.16 1773.59,-701.52 1829,-658 1834.65,-653.56 1840.75,-649.06 1846.82,-644.74"/>
<polygon fill="#222222" stroke="#222222" stroke-width="1.7" points="1676.34,-788.32 1672.47,-795.86 1680.2,-792.37 1676.34,-788.32"/>
<polygon fill="#222222" stroke="#222222" stroke-width="1.7" points="1848.43,-647.03 1853.37,-640.13 1845.21,-642.44 1848.43,-647.03"/>
</g>
<!-- journey_strategy&#45;&gt;business_context -->
<g id="edge25" class="edge">
<title>journey_strategy&#45;&gt;business_context</title>
<path fill="none" stroke="#222222" stroke-width="1.7" d="M2132,-561C2273.46,-525.27 2315.05,-555.81 2459,-532 2499.17,-525.36 2543.93,-514.24 2577.15,-505.26"/>
<polygon fill="#222222" stroke="#222222" stroke-width="1.7" points="2577.92,-507.95 2584.9,-503.15 2576.45,-502.55 2577.92,-507.95"/>
</g>
<!-- journey_strategy&#45;&gt;persona -->
<g id="edge24" class="edge">
<title>journey_strategy&#45;&gt;persona</title>
<path fill="none" stroke="#222222" stroke-width="1.7" d="M1917.97,-593.94C1964.7,-554.73 2058.99,-475.6 2104.4,-437.48"/>
<polygon fill="#222222" stroke="#222222" stroke-width="1.7" points="2106.41,-439.45 2110.74,-432.16 2102.81,-435.16 2106.41,-439.45"/>
</g>
<!-- journey_strategy&#45;&gt;audience -->
<g id="edge23" class="edge">
<title>journey_strategy&#45;&gt;audience</title>
<path fill="none" stroke="#222222" stroke-width="1.7" d="M1932.14,-607.73C1980.01,-596.97 2060.86,-578.46 2130,-561"/>
<path fill="none" stroke="#222222" stroke-width="1.7" d="M2132,-561C2226.82,-537.05 2237.5,-499.24 2322,-450 2329.69,-445.52 2337.96,-440.71 2345.78,-436.16"/>
<polygon fill="#222222" stroke="#222222" stroke-width="1.7" points="2347.31,-438.51 2352.82,-432.07 2344.49,-433.67 2347.31,-438.51"/>
</g>
<!-- messaging_framework -->
<g id="node14" class="node">
<title>messaging_framework</title>
<path fill="#dbe7fb" stroke="#2c5fb3" stroke-width="1.1" stroke-dasharray="5,2" d="M1928,-722C1928,-722 1851,-722 1851,-722 1845,-722 1839,-716 1839,-710 1839,-710 1839,-688 1839,-688 1839,-682 1845,-676 1851,-676 1851,-676 1928,-676 1928,-676 1934,-676 1940,-682 1940,-688 1940,-688 1940,-710 1940,-710 1940,-716 1934,-722 1928,-722"/>
<text text-anchor="middle" x="1889.5" y="-702.6" font-family="Helvetica,sans-Serif" font-size="13.00">Messaging</text>
<text text-anchor="middle" x="1889.5" y="-688.6" font-family="Helvetica,sans-Serif" font-size="13.00">Framework</text>
</g>
<!-- messaging_framework&#45;&gt;brand_context -->
<g id="edge33" class="edge">
<title>messaging_framework&#45;&gt;brand_context</title>
<path fill="none" stroke="#9aa3af" stroke-dasharray="5,2" d="M2132,-635C2352.25,-575.92 2418.93,-863.31 2627,-770"/>
<path fill="none" stroke="#9aa3af" stroke-dasharray="5,2" d="M2629,-770C2744.16,-707.82 2831.35,-569.47 2862.78,-514.33"/>
<polygon fill="#9aa3af" stroke="#9aa3af" points="2865.36,-515.47 2866.84,-507.12 2860.48,-512.72 2865.36,-515.47"/>
</g>
<!-- messaging_framework&#45;&gt;product_context -->
<g id="edge31" class="edge">
<title>messaging_framework&#45;&gt;product_context</title>
<path fill="none" stroke="#9aa3af" stroke-dasharray="5,2" d="M1940.05,-685.79C1988.48,-672.87 2064.32,-652.62 2130,-635"/>
<path fill="none" stroke="#9aa3af" stroke-dasharray="5,2" d="M2132,-635C2215.54,-612.59 2299.97,-554.43 2345.72,-519.26"/>
<polygon fill="#9aa3af" stroke="#9aa3af" points="2347.58,-521.36 2352.18,-514.25 2344.15,-516.94 2347.58,-521.36"/>
</g>
<!-- messaging_framework&#45;&gt;persona -->
<g id="edge32" class="edge">
<title>messaging_framework&#45;&gt;persona</title>
<path fill="none" stroke="#9aa3af" stroke-dasharray="5,2" d="M1920.47,-675.92C1927.14,-670.32 1934,-664.15 1940,-658 2012.18,-583.91 2083.87,-483.44 2114.52,-438.89"/>
<polygon fill="#9aa3af" stroke="#9aa3af" points="2116.87,-440.42 2119.08,-432.24 2112.25,-437.25 2116.87,-440.42"/>
</g>
<!-- creative_strategy&#45;&gt;brand_context -->
<g id="edge35" class="edge">
<title>creative_strategy&#45;&gt;brand_context</title>
<path fill="none" stroke="#9aa3af" stroke-dasharray="5,2" d="M1672.86,-722.17C1705.6,-751.91 1766.92,-802.79 1829,-829 2056.53,-925.04 2135.43,-927.57 2380.5,-897"/>
</g>
<!-- creative_strategy&#45;&gt;messaging_framework -->
<g id="edge34" class="edge">
<title>creative_strategy&#45;&gt;messaging_framework</title>
<path fill="none" stroke="#9aa3af" stroke-dasharray="5,2" d="M1690.03,-699C1728.85,-699 1787.18,-699 1830.57,-699"/>
<polygon fill="#9aa3af" stroke="#9aa3af" points="1830.77,-701.8 1838.77,-699 1830.76,-696.2 1830.77,-701.8"/>
</g>
<!-- content_strategy -->
<g id="node16" class="node">
<title>content_strategy</title>
<path fill="#dbe7fb" stroke="#2c5fb3" stroke-width="1.1" stroke-dasharray="5,2" d="M1426,-640C1426,-640 1365,-640 1365,-640 1359,-640 1353,-634 1353,-628 1353,-628 1353,-606 1353,-606 1353,-600 1359,-594 1365,-594 1365,-594 1426,-594 1426,-594 1432,-594 1438,-600 1438,-606 1438,-606 1438,-628 1438,-628 1438,-634 1432,-640 1426,-640"/>
<text text-anchor="middle" x="1395.5" y="-620.6" font-family="Helvetica,sans-Serif" font-size="13.00">Content</text>
<text text-anchor="middle" x="1395.5" y="-606.6" font-family="Helvetica,sans-Serif" font-size="13.00">Strategy</text>
</g>
<!-- content_strategy&#45;&gt;keyword -->
<g id="edge37" class="edge">
<title>content_strategy&#45;&gt;keyword</title>
<path fill="none" stroke="#9aa3af" stroke-dasharray="5,2" d="M1438.02,-602.23C1528.36,-570.1 1742.39,-493.97 1839.3,-459.5"/>
<polygon fill="#9aa3af" stroke="#9aa3af" points="1840.31,-462.11 1846.91,-456.79 1838.44,-456.83 1840.31,-462.11"/>
</g>
<!-- content_strategy&#45;&gt;creative_strategy -->
<g id="edge36" class="edge">
<title>content_strategy&#45;&gt;creative_strategy</title>
<path fill="none" stroke="#9aa3af" stroke-dasharray="5,2" d="M1438.06,-630.63C1481.77,-644.97 1550.52,-667.52 1597,-682.77"/>
<polygon fill="#9aa3af" stroke="#9aa3af" points="1596.36,-685.5 1604.84,-685.33 1598.11,-680.18 1596.36,-685.5"/>
</g>
<!-- experience_design -->
<g id="node17" class="node">
<title>experience_design</title>
<path fill="#dbe7fb" stroke="#2c5fb3" stroke-width="1.1" stroke-dasharray="5,2" d="M1434.5,-722C1434.5,-722 1356.5,-722 1356.5,-722 1350.5,-722 1344.5,-716 1344.5,-710 1344.5,-710 1344.5,-688 1344.5,-688 1344.5,-682 1350.5,-676 1356.5,-676 1356.5,-676 1434.5,-676 1434.5,-676 1440.5,-676 1446.5,-682 1446.5,-688 1446.5,-688 1446.5,-710 1446.5,-710 1446.5,-716 1440.5,-722 1434.5,-722"/>
<text text-anchor="middle" x="1395.5" y="-702.6" font-family="Helvetica,sans-Serif" font-size="13.00">Experience</text>
<text text-anchor="middle" x="1395.5" y="-688.6" font-family="Helvetica,sans-Serif" font-size="13.00">Design</text>
</g>
<!-- experience_design&#45;&gt;creative_strategy -->
<g id="edge38" class="edge">
<title>experience_design&#45;&gt;creative_strategy</title>
<path fill="none" stroke="#9aa3af" stroke-dasharray="5,2" d="M1446.79,-699C1490.46,-699 1553.34,-699 1596.83,-699"/>
<polygon fill="#9aa3af" stroke="#9aa3af" points="1596.98,-701.8 1604.98,-699 1596.98,-696.2 1596.98,-701.8"/>
</g>
<!-- experience_specification -->
<g id="node18" class="node">
<title>experience_specification</title>
<path fill="#dbe7fb" stroke="#2c5fb3" stroke-width="1.1" stroke-dasharray="5,2" d="M1177,-753C1177,-753 1087,-753 1087,-753 1081,-753 1075,-747 1075,-741 1075,-741 1075,-719 1075,-719 1075,-713 1081,-707 1087,-707 1087,-707 1177,-707 1177,-707 1183,-707 1189,-713 1189,-719 1189,-719 1189,-741 1189,-741 1189,-747 1183,-753 1177,-753"/>
<text text-anchor="middle" x="1132" y="-733.6" font-family="Helvetica,sans-Serif" font-size="13.00">Experience</text>
<text text-anchor="middle" x="1132" y="-719.6" font-family="Helvetica,sans-Serif" font-size="13.00">Specification</text>
</g>
<!-- experience_specification&#45;&gt;campaign_strategy -->
<g id="edge40" class="edge">
<title>experience_specification&#45;&gt;campaign_strategy</title>
<path fill="none" stroke="#9aa3af" stroke-dasharray="5,2" d="M1170.76,-753.17C1210.1,-775.85 1274.37,-808.84 1335,-822 1423.26,-841.15 1528.93,-834.04 1591.74,-826.78"/>
<polygon fill="#9aa3af" stroke="#9aa3af" points="1592.32,-829.53 1599.93,-825.8 1591.66,-823.97 1592.32,-829.53"/>
</g>
<!-- experience_specification&#45;&gt;experience_design -->
<g id="edge39" class="edge">
<title>experience_specification&#45;&gt;experience_design</title>
<path fill="none" stroke="#9aa3af" stroke-dasharray="5,2" d="M1189.1,-723.35C1232.47,-718.21 1292.33,-711.11 1336.24,-705.91"/>
<polygon fill="#9aa3af" stroke="#9aa3af" points="1336.63,-708.68 1344.24,-704.96 1335.97,-703.12 1336.63,-708.68"/>
</g>
<!-- experience_component -->
<g id="node19" class="node">
<title>experience_component</title>
<path fill="#dbe7fb" stroke="#2c5fb3" stroke-width="1.1" stroke-dasharray="5,2" d="M917,-753C917,-753 836,-753 836,-753 830,-753 824,-747 824,-741 824,-741 824,-719 824,-719 824,-713 830,-707 836,-707 836,-707 917,-707 917,-707 923,-707 929,-713 929,-719 929,-719 929,-741 929,-741 929,-747 923,-753 917,-753"/>
<text text-anchor="middle" x="876.5" y="-733.6" font-family="Helvetica,sans-Serif" font-size="13.00">Experience</text>
<text text-anchor="middle" x="876.5" y="-719.6" font-family="Helvetica,sans-Serif" font-size="13.00">Component</text>
</g>
<!-- experience_component&#45;&gt;experience_specification -->
<g id="edge41" class="edge">
<title>experience_component&#45;&gt;experience_specification</title>
<path fill="none" stroke="#9aa3af" stroke-dasharray="5,2" d="M929.11,-730C968.82,-730 1023.93,-730 1066.54,-730"/>
<polygon fill="#9aa3af" stroke="#9aa3af" points="1066.62,-732.8 1074.62,-730 1066.62,-727.2 1066.62,-732.8"/>
</g>
<!-- experience_delivery -->
<g id="node20" class="node">
<title>experience_delivery</title>
<path fill="#dbe7fb" stroke="#2c5fb3" stroke-width="1.1" stroke-dasharray="5,2" d="M668,-753C668,-753 590,-753 590,-753 584,-753 578,-747 578,-741 578,-741 578,-719 578,-719 578,-713 584,-707 590,-707 590,-707 668,-707 668,-707 674,-707 680,-713 680,-719 680,-719 680,-741 680,-741 680,-747 674,-753 668,-753"/>
<text text-anchor="middle" x="629" y="-733.6" font-family="Helvetica,sans-Serif" font-size="13.00">Experience</text>
<text text-anchor="middle" x="629" y="-719.6" font-family="Helvetica,sans-Serif" font-size="13.00">Delivery</text>
</g>
<!-- experience_delivery&#45;&gt;experience_component -->
<g id="edge45" class="edge">
<title>experience_delivery&#45;&gt;experience_component</title>
<path fill="none" stroke="#9aa3af" stroke-dasharray="5,2" d="M680.27,-730C719.46,-730 774.01,-730 815.49,-730"/>
<polygon fill="#9aa3af" stroke="#9aa3af" points="815.6,-732.8 823.6,-730 815.6,-727.2 815.6,-732.8"/>
</g>
<!-- journey_configuration -->
<g id="node23" class="node">
<title>journey_configuration</title>
<path fill="#ece1f9" stroke="#6b4ca3" stroke-width="1.1" stroke-dasharray="5,2" d="M1179,-86C1179,-86 1085,-86 1085,-86 1079,-86 1073,-80 1073,-74 1073,-74 1073,-52 1073,-52 1073,-46 1079,-40 1085,-40 1085,-40 1179,-40 1179,-40 1185,-40 1191,-46 1191,-52 1191,-52 1191,-74 1191,-74 1191,-80 1185,-86 1179,-86"/>
<text text-anchor="middle" x="1132" y="-66.6" font-family="Helvetica,sans-Serif" font-size="13.00">Journey</text>
<text text-anchor="middle" x="1132" y="-52.6" font-family="Helvetica,sans-Serif" font-size="13.00">Configuration</text>
</g>
<!-- experience_delivery&#45;&gt;journey_configuration -->
<g id="edge46" class="edge">
<title>experience_delivery&#45;&gt;journey_configuration</title>
<path fill="none" stroke="#9aa3af" stroke-dasharray="5,2" d="M631.69,-707C638.9,-625.16 673.97,-344.61 824,-188 888.94,-120.21 995.76,-88.06 1064.73,-73.65"/>
<polygon fill="#9aa3af" stroke="#9aa3af" points="1065.67,-76.32 1072.95,-71.98 1064.55,-70.83 1065.67,-76.32"/>
</g>
<!-- experience_validation -->
<g id="node21" class="node">
<title>experience_validation</title>
<path fill="#dbe7fb" stroke="#2c5fb3" stroke-width="1.1" stroke-dasharray="5,2" d="M413.5,-794C413.5,-794 335.5,-794 335.5,-794 329.5,-794 323.5,-788 323.5,-782 323.5,-782 323.5,-760 323.5,-760 323.5,-754 329.5,-748 335.5,-748 335.5,-748 413.5,-748 413.5,-748 419.5,-748 425.5,-754 425.5,-760 425.5,-760 425.5,-782 425.5,-782 425.5,-788 419.5,-794 413.5,-794"/>
<text text-anchor="middle" x="374.5" y="-774.6" font-family="Helvetica,sans-Serif" font-size="13.00">Experience</text>
<text text-anchor="middle" x="374.5" y="-760.6" font-family="Helvetica,sans-Serif" font-size="13.00">Validation</text>
</g>
<!-- experience_validation&#45;&gt;experience_delivery -->
<g id="edge47" class="edge">
<title>experience_validation&#45;&gt;experience_delivery</title>
<path fill="none" stroke="#9aa3af" stroke-dasharray="5,2" d="M425.69,-762.85C467.25,-756.1 526.36,-746.5 569.95,-739.43"/>
<polygon fill="#9aa3af" stroke="#9aa3af" points="570.46,-742.18 577.91,-738.13 569.56,-736.65 570.46,-742.18"/>
</g>
<!-- campaign_deployment -->
<g id="node22" class="node">
<title>campaign_deployment</title>
<path fill="#dbe7fb" stroke="#2c5fb3" stroke-width="1.1" stroke-dasharray="5,2" d="M417,-712C417,-712 332,-712 332,-712 326,-712 320,-706 320,-700 320,-700 320,-678 320,-678 320,-672 326,-666 332,-666 332,-666 417,-666 417,-666 423,-666 429,-672 429,-678 429,-678 429,-700 429,-700 429,-706 423,-712 417,-712"/>
<text text-anchor="middle" x="374.5" y="-692.6" font-family="Helvetica,sans-Serif" font-size="13.00">Campaign</text>
<text text-anchor="middle" x="374.5" y="-678.6" font-family="Helvetica,sans-Serif" font-size="13.00">Deployment</text>
</g>
<!-- campaign_deployment&#45;&gt;experience_delivery -->
<g id="edge48" class="edge">
<title>campaign_deployment&#45;&gt;experience_delivery</title>
<path fill="none" stroke="#9aa3af" stroke-dasharray="5,2" d="M429.05,-697.7C470.39,-704.41 527.51,-713.68 569.95,-720.57"/>
<polygon fill="#9aa3af" stroke="#9aa3af" points="569.62,-723.36 577.96,-721.88 570.52,-717.83 569.62,-723.36"/>
</g>
<!-- journey_configuration&#45;&gt;journey_strategy -->
<g id="edge42" class="edge">
<title>journey_configuration&#45;&gt;journey_strategy</title>
<path fill="none" stroke="#9aa3af" stroke-dasharray="5,2" d="M1164.5,-86.1C1285.22,-174.62 1718.16,-492.09 1850.08,-588.82"/>
<polygon fill="#9aa3af" stroke="#9aa3af" points="1848.76,-591.33 1856.86,-593.8 1852.07,-586.81 1848.76,-591.33"/>
</g>
<!-- personalization_configuration -->
<g id="node24" class="node">
<title>personalization_configuration</title>
<path fill="#ece1f9" stroke="#6b4ca3" stroke-width="1.1" stroke-dasharray="5,2" d="M1444,-86C1444,-86 1347,-86 1347,-86 1341,-86 1335,-80 1335,-74 1335,-74 1335,-38 1335,-38 1335,-32 1341,-26 1347,-26 1347,-26 1444,-26 1444,-26 1450,-26 1456,-32 1456,-38 1456,-38 1456,-74 1456,-74 1456,-80 1450,-86 1444,-86"/>
<text text-anchor="middle" x="1395.5" y="-66.6" font-family="Helvetica,sans-Serif" font-size="13.00">Personalizatio</text>
<text text-anchor="middle" x="1395.5" y="-52.6" font-family="Helvetica,sans-Serif" font-size="13.00">n</text>
<text text-anchor="middle" x="1395.5" y="-38.6" font-family="Helvetica,sans-Serif" font-size="13.00">Configuration</text>
</g>
<!-- personalization_configuration&#45;&gt;audience -->
<g id="edge44" class="edge">
<title>personalization_configuration&#45;&gt;audience</title>
<path fill="none" stroke="#9aa3af" stroke-dasharray="5,2" d="M1456.2,-77.84C1634.61,-143.11 2161.68,-335.94 2328.95,-397.14"/>
<polygon fill="#9aa3af" stroke="#9aa3af" points="2328.16,-399.83 2336.64,-399.95 2330.08,-394.57 2328.16,-399.83"/>
</g>
<!-- personalization_configuration&#45;&gt;campaign_strategy -->
<g id="edge43" class="edge">
<title>personalization_configuration&#45;&gt;campaign_strategy</title>
<path fill="none" stroke="#9aa3af" stroke-dasharray="5,2" d="M1402.73,-86.24C1423.4,-183.73 1494.42,-497.47 1600,-740 1607.37,-756.93 1617.61,-774.74 1626.61,-789.15"/>
<polygon fill="#9aa3af" stroke="#9aa3af" points="1624.26,-790.68 1630.9,-795.94 1628.99,-787.68 1624.26,-790.68"/>
</g>
<!-- performance_measurement -->
<g id="node25" class="node">
<title>performance_measurement</title>
<path fill="#fde8c8" stroke="#b87811" stroke-width="1.1" stroke-dasharray="5,2" d="M422,-1077C422,-1077 327,-1077 327,-1077 321,-1077 315,-1071 315,-1065 315,-1065 315,-1043 315,-1043 315,-1037 321,-1031 327,-1031 327,-1031 422,-1031 422,-1031 428,-1031 434,-1037 434,-1043 434,-1043 434,-1065 434,-1065 434,-1071 428,-1077 422,-1077"/>
<text text-anchor="middle" x="374.5" y="-1057.6" font-family="Helvetica,sans-Serif" font-size="13.00">Performance</text>
<text text-anchor="middle" x="374.5" y="-1043.6" font-family="Helvetica,sans-Serif" font-size="13.00">Measurement</text>
</g>
<!-- performance_measurement&#45;&gt;measurement_framework -->
<g id="edge51" class="edge">
<title>performance_measurement&#45;&gt;measurement_framework</title>
<path fill="none" stroke="#9aa3af" stroke-dasharray="5,2" d="M1396.5,-1171C1626.38,-1079.63 1708.17,-1137.29 1940,-1051 2094.88,-993.35 2262.66,-890.07 2338.76,-840.72"/>
<polygon fill="#9aa3af" stroke="#9aa3af" points="2340.66,-842.83 2345.84,-836.12 2337.61,-838.13 2340.66,-842.83"/>
</g>
<!-- performance_measurement&#45;&gt;campaign_strategy -->
<g id="edge49" class="edge">
<title>performance_measurement&#45;&gt;campaign_strategy</title>
<path fill="none" stroke="#9aa3af" stroke-dasharray="5,2" d="M433.7,-1077.06C592.02,-1136.33 1042.25,-1281.83 1394.5,-1171"/>
<path fill="none" stroke="#9aa3af" stroke-dasharray="5,2" d="M1396.5,-1171C1538.31,-1114.64 1612.67,-925.31 1637.18,-850.14"/>
<polygon fill="#9aa3af" stroke="#9aa3af" points="1639.89,-850.86 1639.67,-842.39 1634.56,-849.16 1639.89,-850.86"/>
</g>
<!-- performance_measurement&#45;&gt;experience_delivery -->
<g id="edge50" class="edge">
<title>performance_measurement&#45;&gt;experience_delivery</title>
<path fill="none" stroke="#9aa3af" stroke-dasharray="5,2" d="M393.46,-1030.96C438.24,-973.49 554.87,-823.84 604.78,-759.79"/>
<polygon fill="#9aa3af" stroke="#9aa3af" points="607.26,-761.17 609.97,-753.14 602.84,-757.73 607.26,-761.17"/>
</g>
<!-- customer_insight -->
<g id="node26" class="node">
<title>customer_insight</title>
<path fill="#d8f0d6" stroke="#2e7d32" stroke-width="1.1" stroke-dasharray="5,2" d="M132.5,-1118C132.5,-1118 64.5,-1118 64.5,-1118 58.5,-1118 52.5,-1112 52.5,-1106 52.5,-1106 52.5,-1084 52.5,-1084 52.5,-1078 58.5,-1072 64.5,-1072 64.5,-1072 132.5,-1072 132.5,-1072 138.5,-1072 144.5,-1078 144.5,-1084 144.5,-1084 144.5,-1106 144.5,-1106 144.5,-1112 138.5,-1118 132.5,-1118"/>
<text text-anchor="middle" x="98.5" y="-1098.6" font-family="Helvetica,sans-Serif" font-size="13.00">Customer</text>
<text text-anchor="middle" x="98.5" y="-1084.6" font-family="Helvetica,sans-Serif" font-size="13.00">Insight</text>
</g>
<!-- customer_insight&#45;&gt;persona -->
<g id="edge54" class="edge">
<title>customer_insight&#45;&gt;persona</title>
<path fill="none" stroke="#1aa179" stroke-width="1.8" stroke-dasharray="5,2" d="M144.87,-1083.42C160.96,-1077.18 177.83,-1067.82 189,-1054 328.36,-881.57 124.09,-705.76 297,-567 350.73,-523.88 395.26,-527.93 452,-567 581.3,-656.04 448.7,-807.96 578,-897 794.82,-1046.3 754.55,-612.47 824,-567 1147.87,-354.96 1373.88,-350.81 1695,-567 1826.31,-655.4 1697.69,-808.6 1829,-897 1869.92,-924.55 1899.21,-924.75 1940,-897 1941.28,-896.13 2082.61,-536.6 2120.66,-439.78"/>
<polygon fill="#1aa179" stroke="#1aa179" stroke-width="1.8" points="2123.3,-440.72 2123.62,-432.25 2118.09,-438.67 2123.3,-440.72"/>
</g>
<!-- customer_insight&#45;&gt;performance_measurement -->
<g id="edge52" class="edge">
<title>customer_insight&#45;&gt;performance_measurement</title>
<path fill="none" stroke="#9aa3af" stroke-dasharray="5,2" d="M144.75,-1088.23C188.9,-1081.62 256.57,-1071.5 306.88,-1063.97"/>
<polygon fill="#9aa3af" stroke="#9aa3af" points="307.3,-1066.74 314.79,-1062.78 306.47,-1061.2 307.3,-1066.74"/>
</g>
<!-- optimization_recommendation -->
<g id="node27" class="node">
<title>optimization_recommendation</title>
<path fill="#d8f0d6" stroke="#2e7d32" stroke-width="1.1" stroke-dasharray="5,2" d="M159,-1036C159,-1036 38,-1036 38,-1036 32,-1036 26,-1030 26,-1024 26,-1024 26,-1002 26,-1002 26,-996 32,-990 38,-990 38,-990 159,-990 159,-990 165,-990 171,-996 171,-1002 171,-1002 171,-1024 171,-1024 171,-1030 165,-1036 159,-1036"/>
<text text-anchor="middle" x="98.5" y="-1016.6" font-family="Helvetica,sans-Serif" font-size="13.00">Optimization</text>
<text text-anchor="middle" x="98.5" y="-1002.6" font-family="Helvetica,sans-Serif" font-size="13.00">Recommendation</text>
</g>
<!-- optimization_recommendation&#45;&gt;marketing_strategy -->
<g id="edge55" class="edge">
<title>optimization_recommendation&#45;&gt;marketing_strategy</title>
<path fill="none" stroke="#1aa179" stroke-width="1.8" stroke-dasharray="5,2" d="M100.15,-989.85C103.86,-907.21 128.84,-625.55 297,-511 353.93,-472.22 393.62,-474.42 452,-511 560.81,-579.18 469.19,-702.82 578,-771 616.41,-795.07 643.13,-797.38 680,-771 841.18,-655.7 678.89,-483.97 824,-349 995.92,-189.09 1102.14,-245.02 1335,-215 1396.27,-207.1 1420.11,-184.8 1474,-215 1638.12,-306.96 1601.82,-412.58 1695,-576 1758.03,-686.54 1719.98,-763.38 1829,-829 1907.53,-876.27 2017.59,-837.6 2080.56,-807.65"/>
<polygon fill="#1aa179" stroke="#1aa179" stroke-width="1.8" points="2082.02,-810.05 2088,-804.04 2079.58,-805.01 2082.02,-810.05"/>
</g>
<!-- optimization_recommendation&#45;&gt;performance_measurement -->
<g id="edge53" class="edge">
<title>optimization_recommendation&#45;&gt;performance_measurement</title>
<path fill="none" stroke="#9aa3af" stroke-dasharray="5,2" d="M171.13,-1023.72C213.05,-1029.99 265.64,-1037.86 306.7,-1044"/>
<polygon fill="#9aa3af" stroke="#9aa3af" points="306.42,-1046.79 314.75,-1045.21 307.25,-1041.26 306.42,-1046.79"/>
</g>
</g>
</svg>
