<svg xmlns="http://www.w3.org/2000/svg" viewBox="0 0 1087.6 345" role="img" aria-label="OSMM™ — Open Semantic Marketing Model">
<rect x="0" y="0" width="1087.5999999999997" height="345" fill="#0f1b35"/>
<circle cx="172.5" cy="172.5" r="110.0" fill="#ffffff"/>
  <rect x="40" y="40" width="120" height="120" rx="6" fill="#d4f2ec"/>
  <rect x="185" y="40" width="120" height="120" rx="6" fill="#34c6a4"/>
  <rect x="40" y="185" width="120" height="120" rx="6" fill="#34c6a4"/>
  <rect x="185" y="185" width="120" height="120" rx="6" fill="#d4f2ec"/>
  <g transform="translate(369,204.52)"><path d="M50.400000000000006 2.016Q39.312000000000005 2.016 31.164 -2.1Q23.016000000000002 -6.216 17.724 -13.944Q12.432 -21.672 9.912 -32.928000000000004Q7.392 -44.184000000000005 7.392 -58.632000000000005Q7.392 -72.912 9.912 -84.25200000000001Q12.432 -95.59200000000001 17.724 -103.32000000000001Q23.016000000000002 -111.048 31.164 -115.164Q39.312000000000005 -119.28 50.400000000000006 -119.28Q61.48800000000001 -119.28 69.63600000000001 -115.164Q77.784 -111.048 83.07600000000001 -103.32000000000001Q88.36800000000001 -95.59200000000001 90.888 -84.25200000000001Q93.408 -72.912 93.408 -58.632000000000005Q93.408 -44.184000000000005 90.888 -32.928000000000004Q88.36800000000001 -21.672 83.07600000000001 -13.944Q77.784 -6.216 69.63600000000001 -2.1Q61.48800000000001 2.016 50.400000000000006 2.016ZM50.400000000000006 -13.608Q63.00000000000001 -13.608 68.20800000000001 -23.1Q73.41600000000001 -32.592 73.41600000000001 -48.888000000000005V-68.54400000000001Q73.41600000000001 -84.67200000000001 68.20800000000001 -94.16400000000002Q63.00000000000001 -103.656 50.400000000000006 -103.656Q37.800000000000004 -103.656 32.592 -94.16400000000002Q27.384 -84.67200000000001 27.384 -68.54400000000001V-48.720000000000006Q27.384 -32.592 32.592 -23.1Q37.800000000000004 -13.608 50.400000000000006 -13.608Z M156.912 2.016Q141.62400000000002 2.016 131.20800000000003 -3.3600000000000003Q120.79200000000002 -8.736 114.07200000000002 -17.64L126.168 -29.232000000000003Q132.888 -21.168000000000003 140.448 -17.388Q148.008 -13.608 157.584 -13.608Q168.67200000000003 -13.608 174.63600000000002 -18.648000000000003Q180.60000000000002 -23.688000000000002 180.60000000000002 -33.096000000000004Q180.60000000000002 -40.656000000000006 176.23200000000003 -44.772000000000006Q171.86400000000003 -48.888000000000005 161.28000000000003 -50.736000000000004L148.512 -52.752Q140.11200000000002 -54.096000000000004 134.40000000000003 -57.20400000000001Q128.68800000000002 -60.312000000000005 125.16000000000001 -64.596Q121.632 -68.88000000000001 120.036 -74.172Q118.44000000000001 -79.464 118.44000000000001 -85.34400000000001Q118.44000000000001 -101.97600000000001 129.192 -110.62800000000001Q139.94400000000002 -119.28 158.76000000000002 -119.28Q172.704 -119.28 182.532 -114.828Q192.36 -110.376 198.40800000000002 -102.31200000000001L186.64800000000002 -90.552Q181.776 -96.432 175.14000000000001 -100.04400000000001Q168.50400000000002 -103.656 158.76000000000002 -103.656Q148.34400000000002 -103.656 142.88400000000001 -99.20400000000001Q137.424 -94.75200000000001 137.424 -86.18400000000001Q137.424 -78.96000000000001 141.70800000000003 -74.84400000000001Q145.99200000000002 -70.72800000000001 156.912 -68.88000000000001L169.34400000000002 -66.696Q185.13600000000002 -63.84 192.36 -55.188Q199.584 -46.536 199.584 -34.104Q199.584 -26.040000000000003 196.812 -19.32Q194.04000000000002 -12.600000000000001 188.58 -7.896000000000001Q183.12 -3.192 175.14000000000001 -0.5880000000000001Q167.16000000000003 2.016 156.912 2.016Z M289.8 -56.112 290.30400000000003 -91.39200000000001H288.96000000000004L265.44000000000005 -31.080000000000002L241.92000000000002 -91.39200000000001H240.57600000000002L241.08 -56.112V0.0H224.44800000000004V-117.26400000000001H247.46400000000003L265.44000000000005 -70.72800000000001H266.61600000000004L284.76 -117.26400000000001H306.432V0.0H289.8Z M397.32000000000005 -56.112 397.82400000000007 -91.39200000000001H396.4800000000001L372.96000000000004 -31.080000000000002L349.44000000000005 -91.39200000000001H348.09600000000006L348.6000000000001 -56.112V0.0H331.9680000000001V-117.26400000000001H354.98400000000004L372.96000000000004 -70.72800000000001H374.1360000000001L392.2800000000001 -117.26400000000001H413.95200000000006V0.0H397.32000000000005Z" fill="#ffffff"/></g>
  <g transform="translate(369,257.74)"><path d="M11.7 0.46799999999999997Q9.204 0.46799999999999997 7.41 -0.48750000000000004Q5.616 -1.443 4.446 -3.237Q3.276 -5.031 2.73 -7.644Q2.184 -10.257 2.184 -13.611Q2.184 -16.926 2.73 -19.5585Q3.276 -22.191 4.446 -23.985Q5.616 -25.779 7.41 -26.7345Q9.204 -27.69 11.7 -27.69Q14.196 -27.69 15.989999999999998 -26.7345Q17.784 -25.779 18.954 -23.985Q20.124 -22.191 20.67 -19.5585Q21.216 -16.926 21.216 -13.611Q21.216 -10.257 20.67 -7.644Q20.124 -5.031 18.954 -3.237Q17.784 -1.443 15.989999999999998 -0.48750000000000004Q14.196 0.46799999999999997 11.7 0.46799999999999997ZM11.7 -2.379Q13.338 -2.379 14.469 -3.0225Q15.6 -3.666 16.341 -4.836Q17.082 -6.006 17.4135 -7.6635Q17.745 -9.321 17.745 -11.388V-15.834Q17.745 -17.862 17.4135 -19.539Q17.082 -21.216 16.341 -22.386000000000003Q15.6 -23.556 14.469 -24.1995Q13.338 -24.843 11.7 -24.843Q10.062 -24.843 8.931 -24.1995Q7.8 -23.556 7.058999999999999 -22.386000000000003Q6.318 -21.216 5.9864999999999995 -19.539Q5.655 -17.862 5.655 -15.834V-11.388Q5.655 -9.321 5.9864999999999995 -7.6635Q6.318 -6.006 7.058999999999999 -4.836Q7.8 -3.666 8.931 -3.0225Q10.062 -2.379 11.7 -2.379Z M27.104999999999997 -20.124H30.224999999999998V-16.848H30.381Q32.330999999999996 -20.592 36.582 -20.592Q40.287 -20.592 42.37349999999999 -17.823Q44.459999999999994 -15.054 44.459999999999994 -10.062Q44.459999999999994 -5.07 42.37349999999999 -2.301Q40.287 0.46799999999999997 36.582 0.46799999999999997Q32.330999999999996 0.46799999999999997 30.381 -3.276H30.224999999999998V7.8H27.104999999999997ZM35.373 -2.301Q38.102999999999994 -2.301 39.604499999999994 -3.9585Q41.105999999999995 -5.616 41.105999999999995 -8.346V-11.778Q41.105999999999995 -14.508 39.604499999999994 -16.1655Q38.102999999999994 -17.823 35.373 -17.823Q34.32 -17.823 33.384 -17.55Q32.448 -17.277 31.746 -16.750500000000002Q31.043999999999997 -16.224 30.634499999999996 -15.4635Q30.224999999999998 -14.703 30.224999999999998 -13.689V-6.435Q30.224999999999998 -5.421 30.634499999999996 -4.6605Q31.043999999999997 -3.9 31.746 -3.3735Q32.448 -2.847 33.384 -2.574Q34.32 -2.301 35.373 -2.301Z M58.851 0.46799999999999997Q56.666999999999994 0.46799999999999997 54.9315 -0.273Q53.196 -1.014 51.9675 -2.3985Q50.739 -3.783 50.07599999999999 -5.7135Q49.413 -7.644 49.413 -10.023Q49.413 -12.441 50.0955 -14.391000000000002Q50.778 -16.341 51.986999999999995 -17.7255Q53.196 -19.11 54.8925 -19.851Q56.589 -20.592 58.656 -20.592Q60.684 -20.592 62.341499999999996 -19.851Q63.998999999999995 -19.11 65.169 -17.8035Q66.339 -16.497 66.963 -14.703Q67.58699999999999 -12.909 67.58699999999999 -10.764V-9.282H52.689V-8.346Q52.689 -7.02 53.117999999999995 -5.888999999999999Q53.547 -4.758 54.3465 -3.939Q55.146 -3.12 56.296499999999995 -2.6715Q57.446999999999996 -2.223 58.851 -2.223Q60.879 -2.223 62.361 -3.159Q63.842999999999996 -4.095 64.62299999999999 -5.733L66.92399999999999 -4.173Q66.027 -2.145 63.9405 -0.8385Q61.854 0.46799999999999997 58.851 0.46799999999999997ZM58.656 -18.018Q57.369 -18.018 56.277 -17.55Q55.184999999999995 -17.082 54.38549999999999 -16.263Q53.586 -15.444 53.1375 -14.3325Q52.689 -13.221 52.689 -11.895V-11.622H64.233V-12.051Q64.233 -13.377 63.8235 -14.469000000000001Q63.414 -15.561 62.692499999999995 -16.360500000000002Q61.971 -17.16 60.9375 -17.589Q59.903999999999996 -18.018 58.656 -18.018Z M74.02199999999999 0.0V-20.124H77.142V-16.848H77.29799999999999Q77.60999999999999 -17.589 78.07799999999999 -18.2715Q78.54599999999999 -18.954 79.2285 -19.461Q79.91099999999999 -19.968 80.84699999999998 -20.28Q81.78299999999999 -20.592 83.03099999999999 -20.592Q86.18999999999998 -20.592 88.10099999999998 -18.5835Q90.01199999999999 -16.575 90.01199999999999 -12.909V0.0H86.892V-12.363Q86.892 -15.132 85.68299999999999 -16.4775Q84.47399999999999 -17.823 82.13399999999999 -17.823Q81.198 -17.823 80.30099999999999 -17.589Q79.404 -17.355 78.702 -16.887Q77.99999999999999 -16.419 77.571 -15.678Q77.142 -14.937 77.142 -13.962V0.0Z M128.622 0.46799999999999997Q124.956 0.46799999999999997 122.616 -0.8775Q120.276 -2.223 118.755 -4.329L121.134 -6.279Q122.733 -4.29 124.5075 -3.315Q126.282 -2.34 128.739 -2.34Q131.703 -2.34 133.263 -3.705Q134.823 -5.07 134.823 -7.527Q134.823 -9.516 133.692 -10.627500000000001Q132.561 -11.739 129.753 -12.207L126.711 -12.714Q124.722 -13.065 123.3765 -13.767Q122.031 -14.469 121.212 -15.4635Q120.393 -16.458 120.042 -17.6475Q119.691 -18.837 119.691 -20.124Q119.691 -23.868 122.148 -25.779Q124.605 -27.69 128.778 -27.69Q132.054 -27.69 134.29649999999998 -26.598Q136.539 -25.506 137.904 -23.517L135.603 -21.528Q134.472 -23.01 132.873 -23.946Q131.274 -24.882 128.739 -24.882Q125.97 -24.882 124.488 -23.712000000000003Q123.006 -22.542 123.006 -20.202Q123.006 -18.369 124.1175 -17.2185Q125.229 -16.068 128.115 -15.561L131.04 -15.054Q133.029 -14.703 134.394 -14.001Q135.75900000000001 -13.299 136.59750000000003 -12.324Q137.436 -11.349 137.787 -10.14Q138.138 -8.931 138.138 -7.605Q138.138 -3.822 135.6615 -1.677Q133.185 0.46799999999999997 128.622 0.46799999999999997Z M152.451 0.46799999999999997Q150.267 0.46799999999999997 148.5315 -0.273Q146.796 -1.014 145.5675 -2.3985Q144.339 -3.783 143.676 -5.7135Q143.013 -7.644 143.013 -10.023Q143.013 -12.441 143.6955 -14.391000000000002Q144.37800000000001 -16.341 145.587 -17.7255Q146.796 -19.11 148.4925 -19.851Q150.189 -20.592 152.256 -20.592Q154.284 -20.592 155.94150000000002 -19.851Q157.59900000000002 -19.11 158.769 -17.8035Q159.93900000000002 -16.497 160.56300000000002 -14.703Q161.187 -12.909 161.187 -10.764V-9.282H146.28900000000002V-8.346Q146.28900000000002 -7.02 146.71800000000002 -5.888999999999999Q147.147 -4.758 147.94650000000001 -3.939Q148.746 -3.12 149.8965 -2.6715Q151.047 -2.223 152.451 -2.223Q154.479 -2.223 155.961 -3.159Q157.443 -4.095 158.223 -5.733L160.524 -4.173Q159.627 -2.145 157.5405 -0.8385Q155.454 0.46799999999999997 152.451 0.46799999999999997ZM152.256 -18.018Q150.969 -18.018 149.877 -17.55Q148.785 -17.082 147.9855 -16.263Q147.186 -15.444 146.7375 -14.3325Q146.28900000000002 -13.221 146.28900000000002 -11.895V-11.622H157.833V-12.051Q157.833 -13.377 157.4235 -14.469000000000001Q157.014 -15.561 156.29250000000002 -16.360500000000002Q155.571 -17.16 154.53750000000002 -17.589Q153.50400000000002 -18.018 152.256 -18.018Z M165.906 0.0V-20.124H168.792V-17.784H168.948Q169.416 -18.954 170.274 -19.773Q171.132 -20.592 172.80900000000003 -20.592Q174.56400000000002 -20.592 175.42200000000003 -19.7145Q176.28 -18.837 176.47500000000002 -17.433H176.592Q177.138 -18.798 178.152 -19.695Q179.166 -20.592 180.96 -20.592Q183.417 -20.592 184.2555 -18.875999999999998Q185.09400000000002 -17.16 185.09400000000002 -13.962V0.0H182.20800000000003V-13.455Q182.20800000000003 -16.029 181.68150000000003 -17.0235Q181.155 -18.018 179.751 -18.018Q178.50300000000001 -18.018 177.723 -17.2185Q176.943 -16.419 176.943 -14.781V0.0H174.05700000000002V-13.455Q174.05700000000002 -16.029 173.53050000000002 -17.0235Q173.00400000000002 -18.018 171.639 -18.018Q170.39100000000002 -18.018 169.5915 -17.2185Q168.792 -16.419 168.792 -14.781V0.0Z M206.50500000000002 0.0Q204.67200000000003 0.0 203.89200000000002 -0.9359999999999999Q203.11200000000002 -1.8719999999999999 202.91700000000003 -3.276H202.722Q202.05900000000003 -1.521 200.59650000000002 -0.5265Q199.13400000000001 0.46799999999999997 196.67700000000002 0.46799999999999997Q193.51800000000003 0.46799999999999997 191.64600000000002 -1.17Q189.77400000000003 -2.808 189.77400000000003 -5.655Q189.77400000000003 -8.463 191.82150000000001 -9.984Q193.86900000000003 -11.505 198.43200000000002 -11.505H202.722V-13.494Q202.722 -15.717 201.47400000000002 -16.828500000000002Q200.22600000000003 -17.94 197.925 -17.94Q195.89700000000002 -17.94 194.61 -17.140500000000003Q193.323 -16.341 192.543 -14.975999999999999L190.437 -16.536Q190.82700000000003 -17.316 191.49 -18.057Q192.15300000000002 -18.798 193.12800000000001 -19.3635Q194.103 -19.929 195.351 -20.2605Q196.59900000000002 -20.592 198.12 -20.592Q201.669 -20.592 203.7555 -18.798000000000002Q205.842 -17.004 205.842 -13.806V-2.73H208.65V0.0ZM197.223 -2.145Q198.43200000000002 -2.145 199.42650000000003 -2.4375Q200.42100000000002 -2.73 201.16200000000003 -3.2175000000000002Q201.90300000000002 -3.705 202.3125 -4.3875Q202.722 -5.07 202.722 -5.85V-9.165H198.43200000000002Q195.62400000000002 -9.165 194.33700000000002 -8.385Q193.05 -7.605 193.05 -6.123V-5.304Q193.05 -3.7439999999999998 194.16150000000002 -2.9444999999999997Q195.27300000000002 -2.145 197.223 -2.145Z M214.42200000000003 0.0V-20.124H217.54200000000003V-16.848H217.69800000000004Q218.01000000000002 -17.589 218.478 -18.2715Q218.94600000000003 -18.954 219.62850000000003 -19.461Q220.31100000000004 -19.968 221.247 -20.28Q222.18300000000002 -20.592 223.431 -20.592Q226.59000000000003 -20.592 228.50100000000003 -18.5835Q230.41200000000003 -16.575 230.41200000000003 -12.909V0.0H227.29200000000003V-12.363Q227.29200000000003 -15.132 226.08300000000003 -16.4775Q224.87400000000002 -17.823 222.53400000000002 -17.823Q221.598 -17.823 220.70100000000002 -17.589Q219.80400000000003 -17.355 219.10200000000003 -16.887Q218.40000000000003 -16.419 217.97100000000003 -15.678Q217.54200000000003 -14.937 217.54200000000003 -13.962V0.0Z M246.67500000000004 0.0Q244.37400000000002 0.0 243.30150000000003 -1.287Q242.22900000000004 -2.574 242.22900000000004 -4.602V-17.472H235.52100000000002V-20.124H240.51300000000003Q241.52700000000002 -20.124 241.93650000000002 -20.5335Q242.34600000000003 -20.943 242.34600000000003 -21.957V-27.222H245.34900000000002V-20.124H254.51400000000004V-17.472H245.34900000000002V-2.652H254.51400000000004V0.0Z M270.348 -24.57Q268.98300000000006 -24.57 268.437 -25.1355Q267.891 -25.701 267.891 -26.559V-27.183Q267.891 -28.041 268.437 -28.6065Q268.98300000000006 -29.172 270.348 -29.172Q271.713 -29.172 272.259 -28.6065Q272.805 -28.041 272.805 -27.183V-26.559Q272.805 -25.701 272.259 -25.1355Q271.713 -24.57 270.348 -24.57ZM261.53400000000005 -2.652H268.788V-17.472H261.53400000000005V-20.124H271.908V-2.652H278.694V0.0H261.53400000000005Z M293.202 0.46799999999999997Q291.01800000000003 0.46799999999999997 289.3215 -0.2925Q287.625 -1.053 286.45500000000004 -2.418Q285.285 -3.783 284.68050000000005 -5.733Q284.076 -7.683 284.076 -10.062Q284.076 -12.441 284.70000000000005 -14.391000000000002Q285.324 -16.341 286.494 -17.7255Q287.664 -19.11 289.341 -19.851Q291.01800000000003 -20.592 293.163 -20.592Q296.088 -20.592 297.92100000000005 -19.305Q299.754 -18.018 300.612 -15.951L298.116 -14.625Q297.57 -16.185 296.3025 -17.043Q295.035 -17.901 293.163 -17.901Q291.798 -17.901 290.7255 -17.4525Q289.653 -17.004 288.91200000000003 -16.185000000000002Q288.171 -15.366 287.8005 -14.235Q287.43 -13.104 287.43 -11.778V-8.346Q287.43 -7.02 287.8005 -5.888999999999999Q288.171 -4.758 288.91200000000003 -3.939Q289.653 -3.12 290.745 -2.6715Q291.837 -2.223 293.241 -2.223Q295.269 -2.223 296.595 -3.159Q297.921 -4.095 298.701 -5.733L300.92400000000004 -4.212Q300.027 -2.184 298.1355 -0.8580000000000001Q296.244 0.46799999999999997 293.202 0.46799999999999997Z M345.34499999999997 -13.65V-22.269H345.03299999999996L339.29999999999995 -8.268L333.56699999999995 -22.269H333.25499999999994V-13.65V0.0H330.25199999999995V-27.222H334.46399999999994L339.26099999999997 -15.21H339.49499999999995L344.292 -27.222H348.34799999999996V0.0H345.34499999999997Z M370.30499999999995 0.0Q368.4719999999999 0.0 367.6919999999999 -0.9359999999999999Q366.9119999999999 -1.8719999999999999 366.7169999999999 -3.276H366.52199999999993Q365.8589999999999 -1.521 364.39649999999995 -0.5265Q362.93399999999997 0.46799999999999997 360.4769999999999 0.46799999999999997Q357.3179999999999 0.46799999999999997 355.4459999999999 -1.17Q353.57399999999996 -2.808 353.57399999999996 -5.655Q353.57399999999996 -8.463 355.62149999999997 -9.984Q357.6689999999999 -11.505 362.23199999999997 -11.505H366.52199999999993V-13.494Q366.52199999999993 -15.717 365.27399999999994 -16.828500000000002Q364.02599999999995 -17.94 361.72499999999997 -17.94Q359.69699999999995 -17.94 358.40999999999997 -17.140500000000003Q357.12299999999993 -16.341 356.34299999999996 -14.975999999999999L354.23699999999997 -16.536Q354.62699999999995 -17.316 355.28999999999996 -18.057Q355.9529999999999 -18.798 356.92799999999994 -19.3635Q357.90299999999996 -19.929 359.15099999999995 -20.2605Q360.39899999999994 -20.592 361.91999999999996 -20.592Q365.46899999999994 -20.592 367.55549999999994 -18.798000000000002Q369.64199999999994 -17.004 369.64199999999994 -13.806V-2.73H372.44999999999993V0.0ZM361.02299999999997 -2.145Q362.23199999999997 -2.145 363.2265 -2.4375Q364.22099999999995 -2.73 364.96199999999993 -3.2175000000000002Q365.7029999999999 -3.705 366.11249999999995 -4.3875Q366.52199999999993 -5.07 366.52199999999993 -5.85V-9.165H362.23199999999997Q359.4239999999999 -9.165 358.13699999999994 -8.385Q356.84999999999997 -7.605 356.84999999999997 -6.123V-5.304Q356.84999999999997 -3.7439999999999998 357.96149999999994 -2.9444999999999997Q359.0729999999999 -2.145 361.02299999999997 -2.145Z M377.4029999999999 -2.652H383.2919999999999V-17.472H377.4029999999999V-20.124H386.4119999999999V-15.054H386.6069999999999Q387.23099999999994 -17.433 388.96649999999994 -18.7785Q390.70199999999994 -20.124 393.3929999999999 -20.124H396.2009999999999V-17.004H392.4179999999999Q389.7269999999999 -17.004 388.06949999999995 -15.444Q386.4119999999999 -13.884 386.4119999999999 -11.349V-2.652H394.21199999999993V0.0H377.4029999999999Z M401.8949999999999 -28.86H405.0149999999999V-10.647H405.1709999999999L408.6809999999999 -13.962L415.3889999999999 -20.124H419.2109999999999L410.8649999999999 -12.246L420.1859999999999 0.0H416.3249999999999L408.4859999999999 -10.452L405.0149999999999 -7.293V0.0H401.8949999999999Z M433.25099999999986 0.46799999999999997Q431.0669999999999 0.46799999999999997 429.3314999999999 -0.273Q427.5959999999999 -1.014 426.3674999999999 -2.3985Q425.1389999999999 -3.783 424.4759999999999 -5.7135Q423.8129999999999 -7.644 423.8129999999999 -10.023Q423.8129999999999 -12.441 424.4954999999999 -14.391000000000002Q425.1779999999999 -16.341 426.3869999999999 -17.7255Q427.5959999999999 -19.11 429.2924999999999 -19.851Q430.98899999999986 -20.592 433.05599999999987 -20.592Q435.0839999999999 -20.592 436.74149999999986 -19.851Q438.3989999999999 -19.11 439.56899999999985 -17.8035Q440.73899999999986 -16.497 441.36299999999983 -14.703Q441.98699999999985 -12.909 441.98699999999985 -10.764V-9.282H427.0889999999999V-8.346Q427.0889999999999 -7.02 427.5179999999999 -5.888999999999999Q427.9469999999999 -4.758 428.74649999999986 -3.939Q429.5459999999999 -3.12 430.6964999999999 -2.6715Q431.84699999999987 -2.223 433.25099999999986 -2.223Q435.2789999999999 -2.223 436.76099999999985 -3.159Q438.2429999999999 -4.095 439.02299999999985 -5.733L441.3239999999999 -4.173Q440.42699999999985 -2.145 438.34049999999985 -0.8385Q436.25399999999985 0.46799999999999997 433.25099999999986 0.46799999999999997ZM433.05599999999987 -18.018Q431.7689999999999 -18.018 430.6769999999999 -17.55Q429.58499999999987 -17.082 428.78549999999984 -16.263Q427.9859999999999 -15.444 427.5374999999999 -14.3325Q427.0889999999999 -13.221 427.0889999999999 -11.895V-11.622H438.63299999999987V-12.051Q438.63299999999987 -13.377 438.22349999999983 -14.469000000000001Q437.81399999999985 -15.561 437.09249999999986 -16.360500000000002Q436.37099999999987 -17.16 435.33749999999986 -17.589Q434.30399999999986 -18.018 433.05599999999987 -18.018Z M457.27499999999986 0.0Q454.9739999999999 0.0 453.9014999999998 -1.287Q452.82899999999984 -2.574 452.82899999999984 -4.602V-17.472H446.12099999999987V-20.124H451.11299999999983Q452.12699999999984 -20.124 452.5364999999998 -20.5335Q452.94599999999986 -20.943 452.94599999999986 -21.957V-27.222H455.94899999999984V-20.124H465.11399999999986V-17.472H455.94899999999984V-2.652H465.11399999999986V0.0Z M480.9479999999998 -24.57Q479.58299999999986 -24.57 479.0369999999998 -25.1355Q478.4909999999998 -25.701 478.4909999999998 -26.559V-27.183Q478.4909999999998 -28.041 479.0369999999998 -28.6065Q479.58299999999986 -29.172 480.9479999999998 -29.172Q482.3129999999998 -29.172 482.8589999999998 -28.6065Q483.4049999999998 -28.041 483.4049999999998 -27.183V-26.559Q483.4049999999998 -25.701 482.8589999999998 -25.1355Q482.3129999999998 -24.57 480.9479999999998 -24.57ZM472.13399999999984 -2.652H479.3879999999998V-17.472H472.13399999999984V-20.124H482.5079999999998V-2.652H489.2939999999998V0.0H472.13399999999984Z M495.2219999999998 0.0V-20.124H498.3419999999998V-16.848H498.4979999999998Q498.80999999999983 -17.589 499.2779999999998 -18.2715Q499.7459999999998 -18.954 500.4284999999998 -19.461Q501.1109999999998 -19.968 502.0469999999998 -20.28Q502.98299999999983 -20.592 504.2309999999998 -20.592Q507.3899999999998 -20.592 509.3009999999998 -18.5835Q511.2119999999998 -16.575 511.2119999999998 -12.909V0.0H508.0919999999998V-12.363Q508.0919999999998 -15.132 506.8829999999998 -16.4775Q505.6739999999998 -17.823 503.33399999999983 -17.823Q502.3979999999998 -17.823 501.5009999999998 -17.589Q500.6039999999998 -17.355 499.9019999999998 -16.887Q499.1999999999998 -16.419 498.77099999999984 -15.678Q498.3419999999998 -14.937 498.3419999999998 -13.962V0.0Z M536.6789999999999 2.301Q536.6789999999999 5.343 534.1439999999998 6.8055Q531.6089999999998 8.268 526.5389999999999 8.268Q521.6639999999999 8.268 519.5384999999999 6.981Q517.4129999999999 5.694 517.4129999999999 3.276Q517.4129999999999 1.638 518.2709999999998 0.741Q519.1289999999998 -0.156 520.6889999999999 -0.585V-1.053Q519.8309999999998 -1.482 519.3629999999998 -2.145Q518.8949999999999 -2.808 518.8949999999999 -3.822Q518.8949999999999 -5.382 519.9284999999999 -6.162Q520.9619999999999 -6.942 522.5219999999998 -7.332V-7.4879999999999995Q520.6499999999999 -8.307 519.6164999999999 -9.906Q518.5829999999999 -11.505 518.5829999999999 -13.65Q518.5829999999999 -15.171 519.1289999999999 -16.458Q519.6749999999998 -17.745 520.7084999999998 -18.6615Q521.7419999999998 -19.578 523.1849999999998 -20.085Q524.6279999999998 -20.592 526.3829999999998 -20.592Q528.6449999999999 -20.592 530.3609999999999 -19.773V-20.124Q530.3609999999999 -21.294 530.9069999999999 -22.073999999999998Q531.4529999999999 -22.854 532.7789999999999 -22.854H536.4839999999998V-20.124H531.9599999999998V-18.759Q533.0519999999998 -17.823 533.6369999999998 -16.536Q534.2219999999999 -15.249 534.2219999999999 -13.65Q534.2219999999999 -12.129 533.6564999999998 -10.841999999999999Q533.0909999999999 -9.555 532.0769999999999 -8.6385Q531.0629999999999 -7.722 529.6004999999998 -7.215Q528.1379999999998 -6.708 526.3829999999998 -6.708Q525.8759999999999 -6.708 525.4079999999999 -6.747Q524.9399999999998 -6.786 524.4719999999999 -6.864Q524.0039999999998 -6.786 523.4969999999998 -6.6105Q522.9899999999999 -6.435 522.5609999999999 -6.1425Q522.1319999999998 -5.85 521.8589999999998 -5.46Q521.5859999999998 -5.07 521.5859999999998 -4.563Q521.5859999999998 -3.666 522.4829999999998 -3.3735Q523.3799999999999 -3.081 524.8229999999999 -3.081H529.2689999999999Q533.1689999999999 -3.081 534.9239999999999 -1.6185Q536.6789999999999 -0.156 536.6789999999999 2.301ZM533.7539999999998 2.457Q533.7539999999998 1.248 532.7789999999998 0.5265Q531.8039999999999 -0.195 529.3859999999999 -0.195H522.4049999999999Q520.3769999999998 0.624 520.3769999999998 2.535Q520.3769999999998 3.861 521.4299999999998 4.8165000000000004Q522.4829999999998 5.772 524.9399999999998 5.772H527.9819999999999Q530.7119999999999 5.772 532.2329999999998 4.9335Q533.7539999999998 4.095 533.7539999999998 2.457ZM526.3829999999998 -9.126Q528.7229999999998 -9.126 529.8344999999998 -10.218Q530.9459999999998 -11.31 530.9459999999998 -13.104V-14.235Q530.9459999999998 -16.029 529.8344999999998 -17.1015Q528.7229999999998 -18.174 526.3829999999998 -18.174Q524.0429999999999 -18.174 522.9509999999998 -17.1015Q521.8589999999998 -16.029 521.8589999999998 -14.235V-13.104Q521.8589999999998 -11.31 522.9509999999998 -10.218Q524.0429999999999 -9.126 526.3829999999998 -9.126Z M579.3449999999998 -13.65V-22.269H579.0329999999998L573.2999999999998 -8.268L567.5669999999998 -22.269H567.2549999999998V-13.65V0.0H564.2519999999998V-27.222H568.4639999999998L573.2609999999997 -15.21H573.4949999999998L578.2919999999998 -27.222H582.3479999999998V0.0H579.3449999999998Z M596.6999999999998 0.46799999999999997Q594.5939999999998 0.46799999999999997 592.8974999999998 -0.273Q591.2009999999998 -1.014 590.0114999999998 -2.3985Q588.8219999999998 -3.783 588.1979999999998 -5.7135Q587.5739999999997 -7.644 587.5739999999997 -10.062Q587.5739999999997 -12.441 588.1979999999998 -14.391000000000002Q588.8219999999998 -16.341 590.0114999999998 -17.7255Q591.2009999999998 -19.11 592.8974999999998 -19.851Q594.5939999999998 -20.592 596.6999999999998 -20.592Q598.8059999999998 -20.592 600.5024999999998 -19.851Q602.1989999999997 -19.11 603.3884999999998 -17.7255Q604.5779999999997 -16.341 605.2019999999998 -14.391000000000002Q605.8259999999998 -12.441 605.8259999999998 -10.062Q605.8259999999998 -7.644 605.2019999999998 -5.7135Q604.5779999999997 -3.783 603.3884999999998 -2.3985Q602.1989999999997 -1.014 600.5024999999998 -0.273Q598.8059999999998 0.46799999999999997 596.6999999999998 0.46799999999999997ZM596.6999999999998 -2.223Q599.3129999999998 -2.223 600.9119999999998 -3.783Q602.5109999999997 -5.343 602.5109999999997 -8.619V-11.505Q602.5109999999997 -14.781 600.9119999999998 -16.341Q599.3129999999998 -17.901 596.6999999999998 -17.901Q594.0869999999998 -17.901 592.4879999999998 -16.341Q590.8889999999998 -14.781 590.8889999999998 -11.505V-8.619Q590.8889999999998 -5.343 592.4879999999998 -3.783Q594.0869999999998 -2.223 596.6999999999998 -2.223Z M624.9749999999998 -3.276H624.8189999999997Q622.8689999999998 0.46799999999999997 618.6179999999997 0.46799999999999997Q614.9129999999998 0.46799999999999997 612.8264999999998 -2.301Q610.7399999999998 -5.07 610.7399999999998 -10.062Q610.7399999999998 -15.054 612.8264999999998 -17.823Q614.9129999999998 -20.592 618.6179999999997 -20.592Q622.8689999999998 -20.592 624.8189999999997 -16.848H624.9749999999998V-28.86H628.0949999999998V0.0H624.9749999999998ZM619.8269999999998 -2.301Q620.8799999999998 -2.301 621.8159999999998 -2.574Q622.7519999999997 -2.847 623.4539999999997 -3.3735Q624.1559999999997 -3.9 624.5654999999997 -4.6605Q624.9749999999998 -5.421 624.9749999999998 -6.435V-13.689Q624.9749999999998 -14.703 624.5654999999997 -15.4635Q624.1559999999997 -16.224 623.4539999999997 -16.750500000000002Q622.7519999999997 -17.277 621.8159999999998 -17.55Q620.8799999999998 -17.823 619.8269999999998 -17.823Q617.0969999999998 -17.823 615.5954999999997 -16.1655Q614.0939999999997 -14.508 614.0939999999997 -11.778V-8.346Q614.0939999999997 -5.616 615.5954999999997 -3.9585Q617.0969999999998 -2.301 619.8269999999998 -2.301Z M643.8509999999998 0.46799999999999997Q641.6669999999997 0.46799999999999997 639.9314999999997 -0.273Q638.1959999999997 -1.014 636.9674999999997 -2.3985Q635.7389999999997 -3.783 635.0759999999998 -5.7135Q634.4129999999998 -7.644 634.4129999999998 -10.023Q634.4129999999998 -12.441 635.0954999999997 -14.391000000000002Q635.7779999999997 -16.341 636.9869999999996 -17.7255Q638.1959999999997 -19.11 639.8924999999997 -19.851Q641.5889999999997 -20.592 643.6559999999997 -20.592Q645.6839999999997 -20.592 647.3414999999998 -19.851Q648.9989999999997 -19.11 650.1689999999996 -17.8035Q651.3389999999997 -16.497 651.9629999999997 -14.703Q652.5869999999998 -12.909 652.5869999999998 -10.764V-9.282H637.6889999999997V-8.346Q637.6889999999997 -7.02 638.1179999999997 -5.888999999999999Q638.5469999999997 -4.758 639.3464999999997 -3.939Q640.1459999999997 -3.12 641.2964999999997 -2.6715Q642.4469999999998 -2.223 643.8509999999998 -2.223Q645.8789999999997 -2.223 647.3609999999996 -3.159Q648.8429999999997 -4.095 649.6229999999997 -5.733L651.9239999999998 -4.173Q651.0269999999997 -2.145 648.9404999999997 -0.8385Q646.8539999999997 0.46799999999999997 643.8509999999998 0.46799999999999997ZM643.6559999999997 -18.018Q642.3689999999997 -18.018 641.2769999999997 -17.55Q640.1849999999997 -17.082 639.3854999999996 -16.263Q638.5859999999997 -15.444 638.1374999999997 -14.3325Q637.6889999999997 -13.221 637.6889999999997 -11.895V-11.622H649.2329999999997V-12.051Q649.2329999999997 -13.377 648.8234999999997 -14.469000000000001Q648.4139999999998 -15.561 647.6924999999998 -16.360500000000002Q646.9709999999998 -17.16 645.9374999999998 -17.589Q644.9039999999998 -18.018 643.6559999999997 -18.018Z M658.3199999999997 -2.652H665.3399999999997V-26.208H658.3199999999997V-28.86H668.4599999999997V-2.652H675.4799999999997V0.0H658.3199999999997Z" fill="#9fb0c9"/></g>
  <g transform="translate(795,85.24) scale(0.48)" fill="#ffffff" aria-hidden="true"><rect x="0" y="0" width="64" height="16"/><rect x="24" y="0" width="16" height="100"/><rect x="78" y="0" width="16" height="100"/><rect x="142" y="0" width="16" height="100"/><path d="M78 0L94 0L118 48L142 0L158 0L118 72Z"/></g>
</svg>
