<svg xmlns="http://www.w3.org/2000/svg" viewBox="0 0 825.4 337" role="img" aria-label="OSMM">
<circle cx="168.5" cy="168.5" r="110.0" fill="#0f1b35"/>
  <rect x="36" y="36" width="120" height="120" rx="6" fill="#d4f2ec"/>
  <rect x="181" y="36" width="120" height="120" rx="6" fill="#34c6a4"/>
  <rect x="36" y="181" width="120" height="120" rx="6" fill="#34c6a4"/>
  <rect x="181" y="181" width="120" height="120" rx="6" fill="#d4f2ec"/>
  <g transform="translate(361,227.13)"><path d="M50.400000000000006 2.016Q39.312000000000005 2.016 31.164 -2.1Q23.016000000000002 -6.216 17.724 -13.944Q12.432 -21.672 9.912 -32.928000000000004Q7.392 -44.184000000000005 7.392 -58.632000000000005Q7.392 -72.912 9.912 -84.25200000000001Q12.432 -95.59200000000001 17.724 -103.32000000000001Q23.016000000000002 -111.048 31.164 -115.164Q39.312000000000005 -119.28 50.400000000000006 -119.28Q61.48800000000001 -119.28 69.63600000000001 -115.164Q77.784 -111.048 83.07600000000001 -103.32000000000001Q88.36800000000001 -95.59200000000001 90.888 -84.25200000000001Q93.408 -72.912 93.408 -58.632000000000005Q93.408 -44.184000000000005 90.888 -32.928000000000004Q88.36800000000001 -21.672 83.07600000000001 -13.944Q77.784 -6.216 69.63600000000001 -2.1Q61.48800000000001 2.016 50.400000000000006 2.016ZM50.400000000000006 -13.608Q63.00000000000001 -13.608 68.20800000000001 -23.1Q73.41600000000001 -32.592 73.41600000000001 -48.888000000000005V-68.54400000000001Q73.41600000000001 -84.67200000000001 68.20800000000001 -94.16400000000002Q63.00000000000001 -103.656 50.400000000000006 -103.656Q37.800000000000004 -103.656 32.592 -94.16400000000002Q27.384 -84.67200000000001 27.384 -68.54400000000001V-48.720000000000006Q27.384 -32.592 32.592 -23.1Q37.800000000000004 -13.608 50.400000000000006 -13.608Z M158.592 2.016Q143.30400000000003 2.016 132.88800000000003 -3.3600000000000003Q122.47200000000002 -8.736 115.75200000000002 -17.64L127.84800000000001 -29.232000000000003Q134.568 -21.168000000000003 142.12800000000001 -17.388Q149.68800000000002 -13.608 159.264 -13.608Q170.35200000000003 -13.608 176.31600000000003 -18.648000000000003Q182.28000000000003 -23.688000000000002 182.28000000000003 -33.096000000000004Q182.28000000000003 -40.656000000000006 177.91200000000003 -44.772000000000006Q173.54400000000004 -48.888000000000005 162.96000000000004 -50.736000000000004L150.192 -52.752Q141.79200000000003 -54.096000000000004 136.08000000000004 -57.20400000000001Q130.36800000000002 -60.312000000000005 126.84000000000002 -64.596Q123.31200000000001 -68.88000000000001 121.71600000000001 -74.172Q120.12000000000002 -79.464 120.12000000000002 -85.34400000000001Q120.12000000000002 -101.97600000000001 130.872 -110.62800000000001Q141.62400000000002 -119.28 160.44000000000003 -119.28Q174.38400000000001 -119.28 184.21200000000002 -114.828Q194.04000000000002 -110.376 200.08800000000002 -102.31200000000001L188.32800000000003 -90.552Q183.45600000000002 -96.432 176.82000000000002 -100.04400000000001Q170.18400000000003 -103.656 160.44000000000003 -103.656Q150.02400000000003 -103.656 144.56400000000002 -99.20400000000001Q139.104 -94.75200000000001 139.104 -86.18400000000001Q139.104 -78.96000000000001 143.38800000000003 -74.84400000000001Q147.67200000000003 -70.72800000000001 158.592 -68.88000000000001L171.02400000000003 -66.696Q186.81600000000003 -63.84 194.04000000000002 -55.188Q201.264 -46.536 201.264 -34.104Q201.264 -26.040000000000003 198.49200000000002 -19.32Q195.72000000000003 -12.600000000000001 190.26000000000002 -7.896000000000001Q184.8 -3.192 176.82000000000002 -0.5880000000000001Q168.84000000000003 2.016 158.592 2.016Z M293.16 -56.112 293.66400000000004 -91.39200000000001H292.32000000000005L268.80000000000007 -31.080000000000002L245.28000000000003 -91.39200000000001H243.93600000000004L244.44000000000003 -56.112V0.0H227.80800000000005V-117.26400000000001H250.82400000000004L268.80000000000007 -70.72800000000001H269.97600000000006L288.12 -117.26400000000001H309.79200000000003V0.0H293.16Z M402.36 -56.112 402.86400000000003 -91.39200000000001H401.52000000000004L378.0 -31.080000000000002L354.48 -91.39200000000001H353.136L353.64000000000004 -56.112V0.0H337.00800000000004V-117.26400000000001H360.024L378.0 -70.72800000000001H379.17600000000004L397.32000000000005 -117.26400000000001H418.992V0.0H402.36Z" fill="#0f1b35"/></g>
</svg>
