<svg xmlns="http://www.w3.org/2000/svg" viewBox="0 0 618.8 530.64" role="img" aria-label="OSMM™ — stacked">
<circle cx="309.40000000000015" cy="172.5" r="110.0" fill="#0f1b35"/>
  <rect x="176.90000000000015" y="40" width="120" height="120" rx="6" fill="#d4f2ec"/>
  <rect x="321.90000000000015" y="40" width="120" height="120" rx="6" fill="#34c6a4"/>
  <rect x="176.90000000000015" y="185" width="120" height="120" rx="6" fill="#34c6a4"/>
  <rect x="321.90000000000015" y="185" width="120" height="120" rx="6" fill="#d4f2ec"/>
  <g transform="translate(115.9,449.7)"><path d="M45.0 1.7999999999999998Q35.1 1.7999999999999998 27.825000000000003 -1.875Q20.55 -5.55 15.825 -12.45Q11.1 -19.349999999999998 8.85 -29.4Q6.6 -39.449999999999996 6.6 -52.35Q6.6 -65.1 8.85 -75.225Q11.1 -85.35 15.825 -92.25Q20.55 -99.14999999999999 27.825000000000003 -102.82499999999999Q35.1 -106.5 45.0 -106.5Q54.9 -106.5 62.175 -102.82499999999999Q69.45 -99.14999999999999 74.175 -92.25Q78.89999999999999 -85.35 81.14999999999999 -75.225Q83.39999999999999 -65.1 83.39999999999999 -52.35Q83.39999999999999 -39.449999999999996 81.14999999999999 -29.4Q78.89999999999999 -19.349999999999998 74.175 -12.45Q69.45 -5.55 62.175 -1.875Q54.9 1.7999999999999998 45.0 1.7999999999999998ZM45.0 -12.15Q56.25 -12.15 60.9 -20.625Q65.55 -29.099999999999998 65.55 -43.65V-61.199999999999996Q65.55 -75.6 60.9 -84.07499999999999Q56.25 -92.55 45.0 -92.55Q33.75 -92.55 29.1 -84.07499999999999Q24.45 -75.6 24.45 -61.199999999999996V-43.5Q24.45 -29.099999999999998 29.1 -20.625Q33.75 -12.15 45.0 -12.15Z M143.1 1.7999999999999998Q129.45 1.7999999999999998 120.14999999999999 -3.0Q110.85 -7.8 104.85 -15.75L115.65 -26.099999999999998Q121.65 -18.9 128.4 -15.524999999999999Q135.15 -12.15 143.7 -12.15Q153.6 -12.15 158.925 -16.65Q164.25 -21.15 164.25 -29.549999999999997Q164.25 -36.3 160.35 -39.974999999999994Q156.45 -43.65 147.0 -45.3L135.6 -47.1Q128.1 -48.3 123.0 -51.075Q117.9 -53.85 114.75 -57.675Q111.6 -61.5 110.175 -66.225Q108.75 -70.95 108.75 -76.2Q108.75 -91.05 118.35 -98.775Q127.95 -106.5 144.75 -106.5Q157.2 -106.5 165.975 -102.525Q174.75 -98.55 180.14999999999998 -91.35L169.64999999999998 -80.85Q165.3 -86.1 159.375 -89.32499999999999Q153.45 -92.55 144.75 -92.55Q135.45 -92.55 130.575 -88.57499999999999Q125.7 -84.6 125.7 -76.95Q125.7 -70.5 129.525 -66.825Q133.35 -63.15 143.1 -61.5L154.2 -59.55Q168.3 -57.0 174.75 -49.275Q181.2 -41.55 181.2 -30.45Q181.2 -23.25 178.725 -17.25Q176.25 -11.25 171.375 -7.05Q166.5 -2.85 159.375 -0.5250000000000001Q152.25 1.7999999999999998 143.1 1.7999999999999998Z M264.75 -50.1 265.2 -81.6H264.0L243.0 -27.75L222.0 -81.6H220.8L221.25 -50.1V0.0H206.4V-104.7H226.95L243.0 -63.15H244.05L260.25 -104.7H279.6V0.0H264.75Z M363.75 -50.1 364.2 -81.6H363.0L342.0 -27.75L321.0 -81.6H319.8L320.25 -50.1V0.0H305.4V-104.7H325.95L342.0 -63.15H343.05L359.25 -104.7H378.6V0.0H363.75Z" fill="#0f1b35"/></g>
  <g transform="translate(40.0,490.64)"><path d="M9.0 0.36Q7.08 0.36 5.7 -0.37499999999999994Q4.32 -1.1099999999999999 3.42 -2.4899999999999998Q2.52 -3.8699999999999997 2.1 -5.88Q1.68 -7.89 1.68 -10.469999999999999Q1.68 -13.02 2.1 -15.045Q2.52 -17.07 3.42 -18.45Q4.32 -19.83 5.7 -20.564999999999998Q7.08 -21.3 9.0 -21.3Q10.92 -21.3 12.3 -20.564999999999998Q13.68 -19.83 14.579999999999998 -18.45Q15.479999999999999 -17.07 15.899999999999999 -15.045Q16.32 -13.02 16.32 -10.469999999999999Q16.32 -7.89 15.899999999999999 -5.88Q15.479999999999999 -3.8699999999999997 14.579999999999998 -2.4899999999999998Q13.68 -1.1099999999999999 12.3 -0.37499999999999994Q10.92 0.36 9.0 0.36ZM9.0 -1.8299999999999998Q10.26 -1.8299999999999998 11.129999999999999 -2.3249999999999997Q12.0 -2.82 12.57 -3.7199999999999998Q13.139999999999999 -4.62 13.395 -5.895Q13.65 -7.17 13.65 -8.76V-12.18Q13.65 -13.74 13.395 -15.030000000000001Q13.139999999999999 -16.32 12.57 -17.22Q12.0 -18.12 11.129999999999999 -18.615000000000002Q10.26 -19.11 9.0 -19.11Q7.739999999999999 -19.11 6.869999999999999 -18.615000000000002Q6.0 -18.12 5.43 -17.22Q4.859999999999999 -16.32 4.6049999999999995 -15.030000000000001Q4.35 -13.74 4.35 -12.18V-8.76Q4.35 -7.17 4.6049999999999995 -5.895Q4.859999999999999 -4.62 5.43 -3.7199999999999998Q6.0 -2.82 6.869999999999999 -2.3249999999999997Q7.739999999999999 -1.8299999999999998 9.0 -1.8299999999999998Z M21.450000000000003 -15.479999999999999H23.85V-12.959999999999999H23.970000000000002Q25.470000000000002 -15.84 28.740000000000002 -15.84Q31.590000000000003 -15.84 33.195 -13.71Q34.8 -11.58 34.8 -7.739999999999999Q34.8 -3.9 33.195 -1.77Q31.590000000000003 0.36 28.740000000000002 0.36Q25.470000000000002 0.36 23.970000000000002 -2.52H23.85V6.0H21.450000000000003ZM27.810000000000002 -1.77Q29.91 -1.77 31.064999999999998 -3.045Q32.22 -4.32 32.22 -6.42V-9.06Q32.22 -11.16 31.064999999999998 -12.434999999999999Q29.91 -13.709999999999999 27.810000000000002 -13.709999999999999Q27.0 -13.709999999999999 26.28 -13.5Q25.560000000000002 -13.29 25.020000000000003 -12.885Q24.48 -12.48 24.165 -11.895Q23.85 -11.309999999999999 23.85 -10.53V-4.95Q23.85 -4.17 24.165 -3.585Q24.48 -3.0 25.020000000000003 -2.5949999999999998Q25.560000000000002 -2.19 26.28 -1.98Q27.0 -1.77 27.810000000000002 -1.77Z M46.47 0.36Q44.790000000000006 0.36 43.455000000000005 -0.21000000000000002Q42.120000000000005 -0.78 41.175000000000004 -1.8449999999999998Q40.230000000000004 -2.9099999999999997 39.72 -4.395Q39.21 -5.88 39.21 -7.71Q39.21 -9.57 39.735 -11.07Q40.260000000000005 -12.57 41.190000000000005 -13.635Q42.120000000000005 -14.7 43.425000000000004 -15.27Q44.730000000000004 -15.84 46.32 -15.84Q47.88 -15.84 49.155 -15.27Q50.43 -14.7 51.33 -13.695Q52.230000000000004 -12.69 52.71000000000001 -11.309999999999999Q53.190000000000005 -9.93 53.190000000000005 -8.28V-7.14H41.730000000000004V-6.42Q41.730000000000004 -5.3999999999999995 42.06 -4.529999999999999Q42.39 -3.6599999999999997 43.005 -3.03Q43.620000000000005 -2.4 44.505 -2.0549999999999997Q45.39 -1.71 46.47 -1.71Q48.03 -1.71 49.17 -2.4299999999999997Q50.31 -3.15 50.910000000000004 -4.41L52.68 -3.21Q51.99 -1.65 50.385000000000005 -0.645Q48.78 0.36 46.47 0.36ZM46.32 -13.86Q45.33 -13.86 44.49 -13.5Q43.650000000000006 -13.139999999999999 43.035000000000004 -12.509999999999998Q42.42 -11.879999999999999 42.075 -11.024999999999999Q41.730000000000004 -10.17 41.730000000000004 -9.15V-8.94H50.61V-9.27Q50.61 -10.29 50.295 -11.129999999999999Q49.980000000000004 -11.969999999999999 49.425000000000004 -12.584999999999999Q48.870000000000005 -13.2 48.075 -13.53Q47.28 -13.86 46.32 -13.86Z M58.74 0.0V-15.479999999999999H61.14V-12.959999999999999H61.260000000000005Q61.50000000000001 -13.53 61.86000000000001 -14.055Q62.220000000000006 -14.58 62.745000000000005 -14.969999999999999Q63.27 -15.36 63.99000000000001 -15.6Q64.71000000000001 -15.84 65.67 -15.84Q68.10000000000001 -15.84 69.57000000000001 -14.295Q71.04 -12.75 71.04 -9.93V0.0H68.64V-9.51Q68.64 -11.639999999999999 67.71000000000001 -12.674999999999999Q66.78 -13.709999999999999 64.98 -13.709999999999999Q64.26 -13.709999999999999 63.57000000000001 -13.53Q62.88 -13.35 62.34 -12.989999999999998Q61.800000000000004 -12.629999999999999 61.47 -12.059999999999999Q61.14 -11.49 61.14 -10.74V0.0Z M101.94 0.36Q99.12 0.36 97.32 -0.675Q95.52 -1.71 94.35 -3.33L96.18 -4.83Q97.41 -3.3 98.775 -2.55Q100.14 -1.7999999999999998 102.03 -1.7999999999999998Q104.31 -1.7999999999999998 105.50999999999999 -2.8499999999999996Q106.71 -3.9 106.71 -5.79Q106.71 -7.319999999999999 105.84 -8.174999999999999Q104.97 -9.03 102.81 -9.389999999999999L100.47 -9.78Q98.94 -10.049999999999999 97.905 -10.59Q96.87 -11.129999999999999 96.24000000000001 -11.895Q95.61 -12.66 95.34 -13.575Q95.07 -14.49 95.07 -15.479999999999999Q95.07 -18.36 96.96 -19.83Q98.85 -21.3 102.06 -21.3Q104.58 -21.3 106.305 -20.46Q108.03 -19.62 109.08 -18.09L107.31 -16.56Q106.44 -17.7 105.21000000000001 -18.42Q103.98 -19.14 102.03 -19.14Q99.9 -19.14 98.76 -18.240000000000002Q97.62 -17.34 97.62 -15.54Q97.62 -14.129999999999999 98.475 -13.245Q99.33 -12.36 101.55 -11.969999999999999L103.8 -11.58Q105.33 -11.309999999999999 106.38 -10.77Q107.43 -10.23 108.075 -9.48Q108.72 -8.73 108.99 -7.800000000000001Q109.25999999999999 -6.87 109.25999999999999 -5.85Q109.25999999999999 -2.94 107.35499999999999 -1.29Q105.45 0.36 101.94 0.36Z M120.86999999999999 0.36Q119.19 0.36 117.85499999999999 -0.21000000000000002Q116.52 -0.78 115.57499999999999 -1.8449999999999998Q114.63 -2.9099999999999997 114.12 -4.395Q113.61 -5.88 113.61 -7.71Q113.61 -9.57 114.13499999999999 -11.07Q114.66 -12.57 115.59 -13.635Q116.52 -14.7 117.82499999999999 -15.27Q119.13 -15.84 120.72 -15.84Q122.28 -15.84 123.555 -15.27Q124.83 -14.7 125.72999999999999 -13.695Q126.63 -12.69 127.10999999999999 -11.309999999999999Q127.58999999999999 -9.93 127.58999999999999 -8.28V-7.14H116.13V-6.42Q116.13 -5.3999999999999995 116.46 -4.529999999999999Q116.78999999999999 -3.6599999999999997 117.405 -3.03Q118.02 -2.4 118.905 -2.0549999999999997Q119.78999999999999 -1.71 120.86999999999999 -1.71Q122.42999999999999 -1.71 123.57 -2.4299999999999997Q124.71 -3.15 125.30999999999999 -4.41L127.08 -3.21Q126.38999999999999 -1.65 124.785 -0.645Q123.17999999999999 0.36 120.86999999999999 0.36ZM120.72 -13.86Q119.72999999999999 -13.86 118.88999999999999 -13.5Q118.05 -13.139999999999999 117.435 -12.509999999999998Q116.82 -11.879999999999999 116.475 -11.024999999999999Q116.13 -10.17 116.13 -9.15V-8.94H125.00999999999999V-9.27Q125.00999999999999 -10.29 124.695 -11.129999999999999Q124.38 -11.969999999999999 123.82499999999999 -12.584999999999999Q123.27 -13.2 122.475 -13.53Q121.67999999999999 -13.86 120.72 -13.86Z M131.82 0.0V-15.479999999999999H134.04V-13.68H134.16Q134.51999999999998 -14.58 135.17999999999998 -15.21Q135.83999999999997 -15.84 137.13 -15.84Q138.48 -15.84 139.14 -15.165Q139.79999999999998 -14.49 139.95 -13.41H140.04Q140.45999999999998 -14.459999999999999 141.23999999999998 -15.149999999999999Q142.01999999999998 -15.84 143.39999999999998 -15.84Q145.29 -15.84 145.935 -14.52Q146.57999999999998 -13.2 146.57999999999998 -10.74V0.0H144.35999999999999V-10.35Q144.35999999999999 -12.33 143.95499999999998 -13.094999999999999Q143.54999999999998 -13.86 142.47 -13.86Q141.51 -13.86 140.91 -13.245Q140.31 -12.629999999999999 140.31 -11.37V0.0H138.08999999999997V-10.35Q138.08999999999997 -12.33 137.685 -13.094999999999999Q137.28 -13.86 136.23 -13.86Q135.26999999999998 -13.86 134.65499999999997 -13.245Q134.04 -12.629999999999999 134.04 -11.37V0.0Z M163.64999999999998 0.0Q162.23999999999998 0.0 161.64 -0.72Q161.04 -1.44 160.89 -2.52H160.73999999999998Q160.23 -1.17 159.105 -0.40499999999999997Q157.98 0.36 156.08999999999997 0.36Q153.65999999999997 0.36 152.21999999999997 -0.9000000000000001Q150.77999999999997 -2.16 150.77999999999997 -4.35Q150.77999999999997 -6.51 152.35499999999996 -7.68Q153.92999999999998 -8.85 157.44 -8.85H160.73999999999998V-10.379999999999999Q160.73999999999998 -12.09 159.77999999999997 -12.945Q158.82 -13.799999999999999 157.04999999999998 -13.799999999999999Q155.48999999999998 -13.799999999999999 154.5 -13.184999999999999Q153.51 -12.57 152.90999999999997 -11.52L151.29 -12.719999999999999Q151.58999999999997 -13.32 152.09999999999997 -13.89Q152.60999999999999 -14.459999999999999 153.35999999999999 -14.895Q154.10999999999999 -15.33 155.07 -15.585Q156.02999999999997 -15.84 157.2 -15.84Q159.92999999999998 -15.84 161.53499999999997 -14.46Q163.14 -13.08 163.14 -10.62V-2.1H165.29999999999998V0.0ZM156.51 -1.65Q157.44 -1.65 158.20499999999998 -1.875Q158.96999999999997 -2.1 159.53999999999996 -2.475Q160.10999999999999 -2.85 160.42499999999998 -3.375Q160.73999999999998 -3.9 160.73999999999998 -4.5V-7.05H157.44Q155.27999999999997 -7.05 154.28999999999996 -6.449999999999999Q153.29999999999998 -5.85 153.29999999999998 -4.71V-4.08Q153.29999999999998 -2.88 154.15499999999997 -2.2649999999999997Q155.01 -1.65 156.51 -1.65Z M170.33999999999997 0.0V-15.479999999999999H172.73999999999998V-12.959999999999999H172.85999999999999Q173.09999999999997 -13.53 173.45999999999998 -14.055Q173.81999999999996 -14.58 174.34499999999997 -14.969999999999999Q174.86999999999998 -15.36 175.58999999999997 -15.6Q176.30999999999997 -15.84 177.26999999999998 -15.84Q179.7 -15.84 181.17 -14.295Q182.64 -12.75 182.64 -9.93V0.0H180.23999999999998V-9.51Q180.23999999999998 -11.639999999999999 179.30999999999997 -12.674999999999999Q178.37999999999997 -13.709999999999999 176.57999999999998 -13.709999999999999Q175.85999999999999 -13.709999999999999 175.17 -13.53Q174.48 -13.35 173.94 -12.989999999999998Q173.39999999999998 -12.629999999999999 173.07 -12.059999999999999Q172.73999999999998 -11.49 172.73999999999998 -10.74V0.0Z M195.74999999999997 0.0Q193.97999999999996 0.0 193.15499999999997 -0.99Q192.32999999999998 -1.98 192.32999999999998 -3.54V-13.44H187.16999999999996V-15.479999999999999H191.00999999999996Q191.78999999999996 -15.479999999999999 192.10499999999996 -15.794999999999998Q192.41999999999996 -16.11 192.41999999999996 -16.89V-20.939999999999998H194.72999999999996V-15.479999999999999H201.77999999999997V-13.44H194.72999999999996V-2.04H201.77999999999997V0.0Z M214.55999999999997 -18.9Q213.50999999999996 -18.9 213.08999999999997 -19.335Q212.66999999999996 -19.77 212.66999999999996 -20.43V-20.91Q212.66999999999996 -21.57 213.08999999999997 -22.005Q213.50999999999996 -22.439999999999998 214.55999999999997 -22.439999999999998Q215.60999999999996 -22.439999999999998 216.02999999999997 -22.005Q216.44999999999996 -21.57 216.44999999999996 -20.91V-20.43Q216.44999999999996 -19.77 216.02999999999997 -19.335Q215.60999999999996 -18.9 214.55999999999997 -18.9ZM207.77999999999997 -2.04H213.35999999999996V-13.44H207.77999999999997V-15.479999999999999H215.75999999999996V-2.04H220.97999999999996V0.0H207.77999999999997Z M232.73999999999995 0.36Q231.05999999999995 0.36 229.75499999999994 -0.22499999999999998Q228.44999999999996 -0.8099999999999999 227.54999999999995 -1.8599999999999999Q226.64999999999995 -2.9099999999999997 226.18499999999995 -4.41Q225.71999999999997 -5.91 225.71999999999997 -7.739999999999999Q225.71999999999997 -9.57 226.19999999999996 -11.07Q226.67999999999995 -12.57 227.57999999999996 -13.635Q228.47999999999996 -14.7 229.76999999999995 -15.27Q231.05999999999995 -15.84 232.70999999999995 -15.84Q234.95999999999995 -15.84 236.36999999999995 -14.85Q237.77999999999997 -13.86 238.43999999999997 -12.27L236.51999999999995 -11.25Q236.09999999999997 -12.45 235.12499999999994 -13.11Q234.14999999999995 -13.77 232.70999999999995 -13.77Q231.65999999999997 -13.77 230.83499999999998 -13.425Q230.00999999999996 -13.08 229.43999999999994 -12.45Q228.86999999999995 -11.82 228.58499999999995 -10.95Q228.29999999999995 -10.08 228.29999999999995 -9.06V-6.42Q228.29999999999995 -5.3999999999999995 228.58499999999995 -4.529999999999999Q228.86999999999995 -3.6599999999999997 229.43999999999994 -3.03Q230.00999999999996 -2.4 230.84999999999997 -2.0549999999999997Q231.68999999999997 -1.71 232.76999999999995 -1.71Q234.32999999999996 -1.71 235.34999999999997 -2.4299999999999997Q236.36999999999995 -3.15 236.96999999999997 -4.41L238.67999999999995 -3.2399999999999998Q237.98999999999995 -1.68 236.53499999999997 -0.6599999999999999Q235.07999999999996 0.36 232.73999999999995 0.36Z M274.04999999999995 -10.5V-17.13H273.81L269.4 -6.359999999999999L264.98999999999995 -17.13H264.75V-10.5V0.0H262.44V-20.939999999999998H265.67999999999995L269.37 -11.7H269.54999999999995L273.23999999999995 -20.939999999999998H276.35999999999996V0.0H274.04999999999995Z M293.85 0.0Q292.44 0.0 291.84000000000003 -0.72Q291.24 -1.44 291.09 -2.52H290.94Q290.43 -1.17 289.305 -0.40499999999999997Q288.18 0.36 286.29 0.36Q283.86 0.36 282.42 -0.9000000000000001Q280.98 -2.16 280.98 -4.35Q280.98 -6.51 282.555 -7.68Q284.13 -8.85 287.64 -8.85H290.94V-10.379999999999999Q290.94 -12.09 289.98 -12.945Q289.02 -13.799999999999999 287.25 -13.799999999999999Q285.69 -13.799999999999999 284.7 -13.184999999999999Q283.71 -12.57 283.11 -11.52L281.49 -12.719999999999999Q281.79 -13.32 282.3 -13.89Q282.81 -14.459999999999999 283.56 -14.895Q284.31 -15.33 285.27 -15.585Q286.23 -15.84 287.4 -15.84Q290.13 -15.84 291.735 -14.46Q293.34 -13.08 293.34 -10.62V-2.1H295.5V0.0ZM286.71 -1.65Q287.64 -1.65 288.405 -1.875Q289.17 -2.1 289.74 -2.475Q290.31 -2.85 290.625 -3.375Q290.94 -3.9 290.94 -4.5V-7.05H287.64Q285.48 -7.05 284.49 -6.449999999999999Q283.5 -5.85 283.5 -4.71V-4.08Q283.5 -2.88 284.355 -2.2649999999999997Q285.21 -1.65 286.71 -1.65Z M299.91 -2.04H304.44V-13.44H299.91V-15.479999999999999H306.84000000000003V-11.58H306.99Q307.47 -13.41 308.80500000000006 -14.445Q310.14000000000004 -15.479999999999999 312.21000000000004 -15.479999999999999H314.37V-13.08H311.46000000000004Q309.39000000000004 -13.08 308.115 -11.879999999999999Q306.84000000000003 -10.68 306.84000000000003 -8.73V-2.04H312.84000000000003V0.0H299.91Z M319.35 -22.2H321.75000000000006V-8.19H321.87000000000006L324.57000000000005 -10.74L329.73 -15.479999999999999H332.6700000000001L326.25000000000006 -9.42L333.4200000000001 0.0H330.45000000000005L324.4200000000001 -8.04L321.75000000000006 -5.609999999999999V0.0H319.35Z M344.07000000000005 0.36Q342.39000000000004 0.36 341.05500000000006 -0.21000000000000002Q339.7200000000001 -0.78 338.7750000000001 -1.8449999999999998Q337.83000000000004 -2.9099999999999997 337.32000000000005 -4.395Q336.81000000000006 -5.88 336.81000000000006 -7.71Q336.81000000000006 -9.57 337.33500000000004 -11.07Q337.86000000000007 -12.57 338.7900000000001 -13.635Q339.7200000000001 -14.7 341.0250000000001 -15.27Q342.33000000000004 -15.84 343.9200000000001 -15.84Q345.4800000000001 -15.84 346.7550000000001 -15.27Q348.0300000000001 -14.7 348.93000000000006 -13.695Q349.83000000000004 -12.69 350.31000000000006 -11.309999999999999Q350.7900000000001 -9.93 350.7900000000001 -8.28V-7.14H339.33000000000004V-6.42Q339.33000000000004 -5.3999999999999995 339.6600000000001 -4.529999999999999Q339.99000000000007 -3.6599999999999997 340.6050000000001 -3.03Q341.2200000000001 -2.4 342.1050000000001 -2.0549999999999997Q342.99000000000007 -1.71 344.07000000000005 -1.71Q345.63000000000005 -1.71 346.7700000000001 -2.4299999999999997Q347.9100000000001 -3.15 348.51000000000005 -4.41L350.2800000000001 -3.21Q349.5900000000001 -1.65 347.98500000000007 -0.645Q346.38000000000005 0.36 344.07000000000005 0.36ZM343.9200000000001 -13.86Q342.93000000000006 -13.86 342.09000000000003 -13.5Q341.25000000000006 -13.139999999999999 340.6350000000001 -12.509999999999998Q340.0200000000001 -11.879999999999999 339.67500000000007 -11.024999999999999Q339.33000000000004 -10.17 339.33000000000004 -9.15V-8.94H348.2100000000001V-9.27Q348.2100000000001 -10.29 347.8950000000001 -11.129999999999999Q347.58000000000004 -11.969999999999999 347.0250000000001 -12.584999999999999Q346.4700000000001 -13.2 345.67500000000007 -13.53Q344.88000000000005 -13.86 343.9200000000001 -13.86Z M363.1500000000001 0.0Q361.3800000000001 0.0 360.55500000000006 -0.99Q359.7300000000001 -1.98 359.7300000000001 -3.54V-13.44H354.5700000000001V-15.479999999999999H358.4100000000001Q359.1900000000001 -15.479999999999999 359.5050000000001 -15.794999999999998Q359.8200000000001 -16.11 359.8200000000001 -16.89V-20.939999999999998H362.1300000000001V-15.479999999999999H369.18000000000006V-13.44H362.1300000000001V-2.04H369.18000000000006V0.0Z M381.9600000000001 -18.9Q380.91000000000014 -18.9 380.4900000000001 -19.335Q380.0700000000001 -19.77 380.0700000000001 -20.43V-20.91Q380.0700000000001 -21.57 380.4900000000001 -22.005Q380.91000000000014 -22.439999999999998 381.9600000000001 -22.439999999999998Q383.0100000000001 -22.439999999999998 383.4300000000001 -22.005Q383.85000000000014 -21.57 383.85000000000014 -20.91V-20.43Q383.85000000000014 -19.77 383.4300000000001 -19.335Q383.0100000000001 -18.9 381.9600000000001 -18.9ZM375.1800000000001 -2.04H380.7600000000001V-13.44H375.1800000000001V-15.479999999999999H383.16000000000014V-2.04H388.3800000000001V0.0H375.1800000000001Z M393.54000000000013 0.0V-15.479999999999999H395.9400000000001V-12.959999999999999H396.0600000000001Q396.3000000000001 -13.53 396.66000000000014 -14.055Q397.02000000000015 -14.58 397.5450000000002 -14.969999999999999Q398.07000000000016 -15.36 398.7900000000002 -15.6Q399.51000000000016 -15.84 400.47000000000014 -15.84Q402.90000000000015 -15.84 404.3700000000001 -14.295Q405.84000000000015 -12.75 405.84000000000015 -9.93V0.0H403.4400000000001V-9.51Q403.4400000000001 -11.639999999999999 402.5100000000001 -12.674999999999999Q401.58000000000015 -13.709999999999999 399.78000000000014 -13.709999999999999Q399.0600000000001 -13.709999999999999 398.3700000000001 -13.53Q397.6800000000001 -13.35 397.1400000000001 -12.989999999999998Q396.60000000000014 -12.629999999999999 396.2700000000001 -12.059999999999999Q395.9400000000001 -11.49 395.9400000000001 -10.74V0.0Z M426.03000000000014 1.77Q426.03000000000014 4.109999999999999 424.08000000000015 5.234999999999999Q422.13000000000017 6.359999999999999 418.23000000000013 6.359999999999999Q414.48000000000013 6.359999999999999 412.84500000000014 5.369999999999999Q411.21000000000015 4.38 411.21000000000015 2.52Q411.21000000000015 1.26 411.8700000000001 0.5700000000000001Q412.53000000000014 -0.12 413.73000000000013 -0.44999999999999996V-0.8099999999999999Q413.07000000000016 -1.14 412.71000000000015 -1.65Q412.35000000000014 -2.16 412.35000000000014 -2.94Q412.35000000000014 -4.14 413.14500000000015 -4.74Q413.94000000000017 -5.34 415.14000000000016 -5.64V-5.76Q413.70000000000016 -6.39 412.9050000000002 -7.619999999999999Q412.1100000000002 -8.85 412.1100000000002 -10.5Q412.1100000000002 -11.67 412.5300000000002 -12.66Q412.95000000000016 -13.65 413.7450000000001 -14.355Q414.54000000000013 -15.059999999999999 415.65000000000015 -15.45Q416.76000000000016 -15.84 418.1100000000002 -15.84Q419.85000000000014 -15.84 421.1700000000002 -15.209999999999999V-15.479999999999999Q421.1700000000002 -16.38 421.59000000000015 -16.979999999999997Q422.01000000000016 -17.58 423.03000000000014 -17.58H425.88000000000017V-15.479999999999999H422.40000000000015V-14.43Q423.2400000000002 -13.709999999999999 423.69000000000017 -12.719999999999999Q424.14000000000016 -11.73 424.14000000000016 -10.5Q424.14000000000016 -9.33 423.70500000000015 -8.34Q423.27000000000015 -7.35 422.4900000000001 -6.645Q421.71000000000015 -5.9399999999999995 420.58500000000015 -5.55Q419.46000000000015 -5.16 418.1100000000002 -5.16Q417.72000000000014 -5.16 417.3600000000001 -5.1899999999999995Q417.00000000000017 -5.22 416.64000000000016 -5.279999999999999Q416.28000000000014 -5.22 415.89000000000016 -5.085Q415.50000000000017 -4.95 415.1700000000002 -4.725Q414.84000000000015 -4.5 414.63000000000017 -4.2Q414.4200000000002 -3.9 414.4200000000002 -3.51Q414.4200000000002 -2.82 415.1100000000002 -2.5949999999999998Q415.8000000000002 -2.37 416.91000000000014 -2.37H420.33000000000015Q423.33000000000015 -2.37 424.6800000000002 -1.245Q426.03000000000014 -0.12 426.03000000000014 1.77ZM423.78000000000014 1.89Q423.78000000000014 0.96 423.03000000000014 0.40499999999999997Q422.28000000000014 -0.15 420.4200000000002 -0.15H415.0500000000002Q413.4900000000002 0.48 413.4900000000002 1.95Q413.4900000000002 2.9699999999999998 414.3000000000002 3.7049999999999996Q415.1100000000002 4.4399999999999995 417.00000000000017 4.4399999999999995H419.34000000000015Q421.44000000000017 4.4399999999999995 422.6100000000001 3.795Q423.78000000000014 3.15 423.78000000000014 1.89ZM418.1100000000002 -7.02Q419.91000000000014 -7.02 420.76500000000016 -7.859999999999999Q421.6200000000002 -8.7 421.6200000000002 -10.08V-10.95Q421.6200000000002 -12.33 420.76500000000016 -13.155Q419.91000000000014 -13.979999999999999 418.1100000000002 -13.979999999999999Q416.3100000000002 -13.979999999999999 415.47000000000014 -13.155Q414.63000000000017 -12.33 414.63000000000017 -10.95V-10.08Q414.63000000000017 -8.7 415.47000000000014 -7.859999999999999Q416.3100000000002 -7.02 418.1100000000002 -7.02Z M460.0500000000002 -10.5V-17.13H459.81000000000023L455.4000000000002 -6.359999999999999L450.9900000000002 -17.13H450.7500000000002V-10.5V0.0H448.4400000000002V-20.939999999999998H451.6800000000002L455.37000000000023 -11.7H455.5500000000002L459.2400000000002 -20.939999999999998H462.3600000000002V0.0H460.0500000000002Z M474.0000000000002 0.36Q472.3800000000002 0.36 471.0750000000002 -0.21000000000000002Q469.7700000000002 -0.78 468.85500000000025 -1.8449999999999998Q467.9400000000002 -2.9099999999999997 467.46000000000026 -4.395Q466.98000000000025 -5.88 466.98000000000025 -7.739999999999999Q466.98000000000025 -9.57 467.46000000000026 -11.07Q467.9400000000002 -12.57 468.85500000000025 -13.635Q469.7700000000002 -14.7 471.0750000000002 -15.27Q472.3800000000002 -15.84 474.0000000000002 -15.84Q475.62000000000023 -15.84 476.92500000000024 -15.27Q478.23000000000025 -14.7 479.1450000000002 -13.635Q480.06000000000023 -12.57 480.5400000000002 -11.07Q481.0200000000002 -9.57 481.0200000000002 -7.739999999999999Q481.0200000000002 -5.88 480.5400000000002 -4.395Q480.06000000000023 -2.9099999999999997 479.1450000000002 -1.8449999999999998Q478.23000000000025 -0.78 476.92500000000024 -0.21000000000000002Q475.62000000000023 0.36 474.0000000000002 0.36ZM474.0000000000002 -1.71Q476.0100000000002 -1.71 477.24000000000024 -2.9099999999999997Q478.47000000000025 -4.109999999999999 478.47000000000025 -6.63V-8.85Q478.47000000000025 -11.37 477.24000000000024 -12.57Q476.0100000000002 -13.77 474.0000000000002 -13.77Q471.99000000000024 -13.77 470.7600000000002 -12.57Q469.5300000000002 -11.37 469.5300000000002 -8.85V-6.63Q469.5300000000002 -4.109999999999999 470.7600000000002 -2.9099999999999997Q471.99000000000024 -1.71 474.0000000000002 -1.71Z M496.35000000000025 -2.52H496.23000000000025Q494.73000000000025 0.36 491.46000000000026 0.36Q488.61000000000024 0.36 487.0050000000002 -1.77Q485.40000000000026 -3.9 485.40000000000026 -7.739999999999999Q485.40000000000026 -11.58 487.0050000000002 -13.71Q488.61000000000024 -15.84 491.46000000000026 -15.84Q494.73000000000025 -15.84 496.23000000000025 -12.959999999999999H496.35000000000025V-22.2H498.7500000000002V0.0H496.35000000000025ZM492.39000000000027 -1.77Q493.2000000000003 -1.77 493.9200000000003 -1.98Q494.64000000000027 -2.19 495.1800000000003 -2.5949999999999998Q495.72000000000025 -3.0 496.03500000000025 -3.585Q496.35000000000025 -4.17 496.35000000000025 -4.95V-10.53Q496.35000000000025 -11.309999999999999 496.03500000000025 -11.895Q495.72000000000025 -12.48 495.1800000000003 -12.885Q494.64000000000027 -13.29 493.9200000000003 -13.5Q493.2000000000003 -13.709999999999999 492.39000000000027 -13.709999999999999Q490.29000000000025 -13.709999999999999 489.1350000000002 -12.434999999999999Q487.98000000000025 -11.16 487.98000000000025 -9.06V-6.42Q487.98000000000025 -4.32 489.1350000000002 -3.045Q490.29000000000025 -1.77 492.39000000000027 -1.77Z M511.47000000000025 0.36Q509.79000000000025 0.36 508.45500000000027 -0.21000000000000002Q507.1200000000003 -0.78 506.1750000000003 -1.8449999999999998Q505.23000000000025 -2.9099999999999997 504.72000000000025 -4.395Q504.21000000000026 -5.88 504.21000000000026 -7.71Q504.21000000000026 -9.57 504.73500000000024 -11.07Q505.2600000000003 -12.57 506.1900000000003 -13.635Q507.1200000000003 -14.7 508.4250000000003 -15.27Q509.73000000000025 -15.84 511.3200000000003 -15.84Q512.8800000000002 -15.84 514.1550000000002 -15.27Q515.4300000000003 -14.7 516.3300000000003 -13.695Q517.2300000000002 -12.69 517.7100000000003 -11.309999999999999Q518.1900000000003 -9.93 518.1900000000003 -8.28V-7.14H506.73000000000025V-6.42Q506.73000000000025 -5.3999999999999995 507.0600000000003 -4.529999999999999Q507.39000000000027 -3.6599999999999997 508.0050000000003 -3.03Q508.6200000000003 -2.4 509.5050000000003 -2.0549999999999997Q510.39000000000027 -1.71 511.47000000000025 -1.71Q513.0300000000003 -1.71 514.1700000000003 -2.4299999999999997Q515.3100000000003 -3.15 515.9100000000003 -4.41L517.6800000000003 -3.21Q516.9900000000002 -1.65 515.3850000000002 -0.645Q513.7800000000003 0.36 511.47000000000025 0.36ZM511.3200000000003 -13.86Q510.33000000000027 -13.86 509.49000000000024 -13.5Q508.65000000000026 -13.139999999999999 508.0350000000003 -12.509999999999998Q507.4200000000003 -11.879999999999999 507.0750000000003 -11.024999999999999Q506.73000000000025 -10.17 506.73000000000025 -9.15V-8.94H515.6100000000002V-9.27Q515.6100000000002 -10.29 515.2950000000003 -11.129999999999999Q514.9800000000002 -11.969999999999999 514.4250000000002 -12.584999999999999Q513.8700000000002 -13.2 513.0750000000003 -13.53Q512.2800000000003 -13.86 511.3200000000003 -13.86Z M523.2000000000003 -2.04H528.6000000000003V-20.16H523.2000000000003V-22.2H531.0000000000003V-2.04H536.4000000000003V0.0H523.2000000000003Z" fill="#5b6472"/></g>
  <g transform="translate(502.5,343.2) scale(0.43)" fill="#0f1b35" aria-hidden="true"><rect x="0" y="0" width="64" height="16"/><rect x="24" y="0" width="16" height="100"/><rect x="78" y="0" width="16" height="100"/><rect x="142" y="0" width="16" height="100"/><path d="M78 0L94 0L118 48L142 0L158 0L118 72Z"/></g>
</svg>
